<svg width="264" height="147" viewBox="0 0 264 147" fill="none" xmlns="http://www.w3.org/2000/svg">
<path d="M261 84.5761C254.98 115.38 242.08 132.613 213.007 141.056C201.886 144.286 192.419 144.417 182.248 143.528C174.494 142.849 161.618 140.641 153.326 139.195C141.68 137.164 132.938 133.493 123.607 129.117C112.075 123.709 102.365 114.088 93.2985 106C81.2116 95.2167 69.5327 76.9798 63.753 62.6534C50.7304 30.3735 67.0725 1.86574 95.0204 3.03474C135.87 4.7434 135.373 44.8162 126.301 56.0436C111.266 74.6513 86.9092 83.9864 63.753 89.9188C46.0154 94.4629 20.3425 95.2892 3.00037 93.0192" stroke="white" stroke-width="6" stroke-linecap="round" stroke-dasharray="12 12"/>
</svg>
