<svg width="319" height="508" viewBox="0 0 319 508" fill="none" xmlns="http://www.w3.org/2000/svg">
<path d="M239.893 255.447C245.893 260.447 277.392 275.947 292.515 327.573C296.177 340.075 301.565 358.048 305.596 378.603C309.627 399.158 312.663 421.583 313.897 437.719C315.131 453.854 315.392 464.065 315.392 469.447C315.392 485.947 313.897 498.447 313.897 504.447" stroke="white" stroke-width="6" stroke-linecap="round" stroke-dasharray="12 12"/>
<path d="M237.829 254.001C203.392 227.631 157.445 222.039 124.392 223.947C72.6529 226.933 6.89258 254.001 3.15522 318.463C1.5158 346.74 12.9362 378.88 33.9034 397.876C47.6211 410.304 65.6897 419.873 82.894 426.359C106.449 435.238 132.007 439.84 157.144 440.394C203.321 441.413 245.336 427.278 279.761 395.559C302.361 374.735 311.991 333.085 305.392 302.447C298.392 269.947 282.392 243.447 248.392 216.447" stroke="white" stroke-width="6" stroke-linecap="round" stroke-dasharray="12 12"/>
<path d="M100.893 70.947C93.4233 86.6314 106.499 116.191 120.393 127.947C146.393 149.947 170.446 150.169 194.405 153.767C227.981 158.808 268.147 152.782 291.338 125.794C312.934 100.664 310.368 56.0128 288.704 32.2075C257.722 -1.83578 184.56 -2.28551 146.393 11.4469C117.327 21.9045 90.4337 46.1786 87.3925 79.447C85.4517 100.679 97.8342 125.794 111.893 142.447C120.949 153.174 145.111 164.323 156.893 171.947C176.856 184.866 217.393 193.947 247.893 216.447" stroke="white" stroke-width="6" stroke-linecap="round" stroke-dasharray="12 12"/>
</svg>
