<svg width="84" height="84" viewBox="0 0 84 84" fill="none" xmlns="http://www.w3.org/2000/svg">
<path d="M41.793 0.5C64.5985 0.5 83.0859 18.9875 83.0859 41.793C83.0859 64.5985 64.5985 83.0859 41.793 83.0859C18.9875 83.0859 0.5 64.5985 0.5 41.793C0.500074 18.9875 18.9875 0.500072 41.793 0.5Z" stroke="white"/>
<path d="M41.7935 10.0312C59.3346 10.0315 73.5542 24.2518 73.5542 41.793C73.554 59.334 59.3345 73.5535 41.7935 73.5537C24.2523 73.5537 10.0319 59.3341 10.0317 41.793C10.0317 24.2517 24.2522 10.0312 41.7935 10.0312Z" stroke="white" stroke-opacity="0.4"/>
<ellipse cx="42.1597" cy="41.4262" rx="23.8294" ry="23.8294" fill="#FF4122"/>
<path d="M50.5 40.0518C50.9807 40.0518 51.37 40.4412 51.3701 40.9219V41.793C51.37 46.7887 47.5452 50.8879 42.6641 51.3281V53.1113C42.6641 53.5922 42.2738 53.9824 41.793 53.9824C41.3121 53.9824 40.9219 53.5922 40.9219 53.1113V51.3281C36.0407 50.8879 32.2159 46.7887 32.2158 41.793V40.9219C32.216 40.4412 32.6052 40.0518 33.0859 40.0518C33.5667 40.0518 33.9569 40.4411 33.957 40.9219V41.793C33.9571 46.1207 37.4652 49.6289 41.793 49.6289C46.1207 49.6289 49.6288 46.1207 49.6289 41.793V40.9219C49.6291 40.4411 50.0192 40.0518 50.5 40.0518ZM41.793 29.6035C45.159 29.6035 47.8877 32.3322 47.8877 35.6982V41.793C47.8876 45.159 45.159 47.8877 41.793 47.8877C38.4269 47.8877 35.6983 45.159 35.6982 41.793V35.6982C35.6982 32.3322 38.4269 29.6035 41.793 29.6035Z" fill="white"/>
</svg>
