<svg width="30" height="30" viewBox="0 0 30 30" fill="none" xmlns="http://www.w3.org/2000/svg">
<g id="Group">
<circle id="Ellipse" cx="15" cy="15" r="15" fill="var(--fill-0, white)"/>
<g id="Layer_1" clip-path="url(#clip0_0_4)">
<path id="Vector" d="M16.4204 21.106C16.4204 21.5756 16.4099 22.0399 16.4204 22.5095C16.4257 22.7047 16.3255 22.863 16.1883 22.9105C16.0247 22.9633 15.7714 22.9791 15.6501 22.8841C14.6476 22.1454 13.6609 21.3698 12.6689 20.6153C12.0411 20.1351 11.3815 19.6919 10.7853 19.1748C10.5109 18.9374 10.2471 18.9005 9.92524 18.9057C9.31318 18.9163 8.69585 18.9163 8.08379 18.9057C7.66168 18.8952 7.27651 18.7686 7.07601 18.3517C6.99686 18.1882 6.93882 18.0035 6.93355 17.8241C6.92299 16.1937 6.91244 14.558 6.93355 12.9276C6.93882 12.2892 7.3451 11.9198 7.99937 11.8671C8.06796 11.8618 8.14183 11.8776 8.21043 11.8671C8.62726 11.7879 8.9069 11.9937 9.18655 12.2786C10.5004 13.6136 11.8353 14.9379 13.1596 16.2623C14.2044 17.307 15.2491 18.3517 16.2832 19.4017C16.3571 19.4809 16.4046 19.618 16.4099 19.7289C16.4257 20.1879 16.4152 20.6469 16.4152 21.1113L16.4204 21.106Z" fill="var(--fill-0, #817E73)"/>
<path id="Vector_2" d="M23.9603 22.9105C23.992 23.3115 23.744 23.5542 23.4169 23.6914C23.1583 23.8022 22.7415 23.6597 22.4935 23.4117C21.7759 22.6889 21.0531 21.9713 20.3355 21.2484C19.6126 20.5203 18.8898 19.7816 18.1669 19.0535C17.4652 18.3517 16.7581 17.6605 16.0564 16.9588C15.4232 16.3309 14.7953 15.703 14.1622 15.0751C13.5395 14.4525 12.9169 13.8352 12.2943 13.2126C11.5767 12.495 10.8592 11.7721 10.1363 11.0545C9.60866 10.5269 9.07575 10.0045 8.54811 9.47689C8.16821 9.09699 7.77776 8.72237 7.4137 8.32665C7.01269 7.88343 7.14988 7.20806 7.68807 6.99173C7.94661 6.8862 8.25264 6.8862 8.4848 7.11836C9.13906 7.77263 9.79333 8.4269 10.4529 9.08117C10.9541 9.57714 11.4501 10.0784 11.9514 10.5744C12.6689 11.2867 13.3865 11.999 14.1041 12.7166C14.9905 13.5977 15.8664 14.4842 16.7528 15.3706C17.4863 16.104 18.2302 16.8269 18.9584 17.5603C19.7551 18.3623 20.5465 19.1696 21.3485 19.9716C22.1347 20.763 22.9262 21.5492 23.7176 22.3301C23.8918 22.5042 23.992 22.6889 23.9656 22.9158L23.9603 22.9105Z" fill="var(--fill-0, #817E73)"/>
<path id="Vector_3" d="M22.2086 18.7263C21.9078 18.3992 21.644 18.0879 21.3538 17.803C21.1692 17.6183 21.3116 17.46 21.3538 17.2965C21.4277 16.9851 21.5754 16.6844 21.6176 16.3678C21.681 15.856 21.7232 15.3336 21.7073 14.8166C21.6862 14.1412 21.4594 13.5133 21.1586 12.9065C20.6996 11.9884 20.0295 11.2709 19.1641 10.7379C18.9531 10.606 18.7315 10.5005 18.5046 10.3897C18.2249 10.2578 18.13 10.0098 18.1194 9.73543C18.1089 9.43468 18.2935 9.21835 18.5521 9.09172C18.9109 8.9176 19.1852 9.12338 19.4649 9.26056C20.4305 9.73543 21.2272 10.4266 21.8656 11.2867C22.2191 11.7616 22.5093 12.2839 22.7098 12.8485C22.8787 13.3339 23.0739 13.8088 23.095 14.3311C23.1161 14.8904 23.1953 15.455 23.1531 16.009C23.1161 16.5156 23.037 17.0326 22.8154 17.5128C22.6624 17.8399 22.541 18.1776 22.4038 18.51C22.3774 18.5733 22.3141 18.6208 22.2191 18.7263H22.2086Z" fill="var(--fill-0, #817E73)"/>
<path id="Vector_4" d="M20.1297 16.505C20.0084 16.41 19.9398 16.3625 19.8817 16.3098C19.333 15.7663 18.7842 15.2281 18.2461 14.6741C18.1669 14.595 18.1141 14.4525 18.1089 14.3417C18.0983 13.7138 18.0983 13.0859 18.1036 12.458C18.1036 12.247 18.1722 12.2153 18.3621 12.2997C19.0692 12.6269 19.6179 13.1229 19.9609 13.8246C20.288 14.4947 20.4305 15.2017 20.2563 15.9457C20.2194 16.1093 20.1825 16.2781 20.1297 16.505Z" fill="var(--fill-0, #817E73)"/>
<path id="Vector_5" d="M16.3149 12.8063C16.0827 12.5583 15.8611 12.305 15.6237 12.0623C14.9694 11.4028 14.3204 10.7379 13.6556 10.0889C13.2652 9.70905 13.2546 9.7196 13.6767 9.38719C14.331 8.88066 14.98 8.36358 15.6448 7.8676C15.7978 7.75152 16.0142 7.7568 16.1777 7.84122C16.3149 7.90981 16.4204 8.047 16.4204 8.24222C16.4152 9.68267 16.4204 11.1231 16.4204 12.5688C16.4204 12.6269 16.4099 12.6902 16.4046 12.7482C16.3782 12.7693 16.3466 12.7852 16.3202 12.8063H16.3149Z" fill="var(--fill-0, #817E73)"/>
</g>
</g>
<defs>
<clipPath id="clip0_0_4">
<rect width="17.0426" height="16.8052" fill="white" transform="translate(6.92299 6.92314)"/>
</clipPath>
</defs>
</svg>
