<svg width="207" height="391" viewBox="0 0 207 391" fill="none" xmlns="http://www.w3.org/2000/svg">
<path d="M159.676 202.879C159.543 202.837 158.358 216.506 157.676 224.873C156.993 233.24 155.655 240.944 150.676 269.373C145.697 297.802 138.167 332.736 133.473 354.029C127.547 380.134 129.257 372.245 125.676 387.373" stroke="white" stroke-width="6" stroke-linecap="round" stroke-dasharray="12 12"/>
<circle cx="164.676" cy="160.873" r="41.5" stroke="white"/>
<circle cx="165.176" cy="161.373" r="32" stroke="white" stroke-opacity="0.4"/>
<circle cx="164.676" cy="160.873" r="24" fill="#FF4122"/>
<path d="M173.176 158.925C173.657 158.925 174.046 159.314 174.046 159.795V160.666C174.046 165.662 170.221 169.761 165.34 170.201V171.985C165.34 172.465 164.95 172.856 164.469 172.856C163.988 172.856 163.598 172.465 163.598 171.985V170.201C158.717 169.761 154.892 165.662 154.892 160.666V159.795C154.892 159.314 155.281 158.925 155.762 158.925C156.243 158.925 156.633 159.314 156.633 159.795V160.666C156.633 164.994 160.141 168.502 164.469 168.502C168.797 168.502 172.305 164.994 172.305 160.666V159.795C172.305 159.314 172.695 158.925 173.176 158.925ZM164.469 148.477C167.835 148.477 170.564 151.205 170.564 154.572V160.666C170.564 164.032 167.835 166.761 164.469 166.761C161.103 166.761 158.374 164.032 158.374 160.666V154.572C158.374 151.205 161.103 148.477 164.469 148.477Z" fill="white"/>
<path d="M9.79355 113.574C6.91927 106.261 5.1778 96.7486 3.93693 89.1177C1.79777 75.9627 2.77038 66.1093 3.99022 58.8451C4.95731 53.0862 9.30564 42.95 13.6757 36.3733C16.9146 31.4989 20.441 25.3966 30.6757 18.3733C35.1262 15.3193 47.7278 9.18056 54.1757 6.87327C70.0269 1.20119 80.0104 3.37319 86.1757 3.37323C92.3411 3.37327 103.676 6.87334 108.176 8.87332C112.457 10.7761 123.676 15.8733 127.676 19.3734C136.953 27.4914 135.793 27.296 143.176 36.3733C145.957 39.7935 149.381 46.3366 152.176 51.8733C154.971 57.41 157.466 67.2189 159.357 75.9245C161.248 84.6301 162.883 96.4805 163.743 104.34C164.604 112.198 164.639 115.707 164.676 119.322" stroke="white" stroke-width="6" stroke-linecap="round" stroke-dasharray="12 12"/>
</svg>
