<svg width="168" height="123" viewBox="0 0 168 123" fill="none" xmlns="http://www.w3.org/2000/svg">
<path d="M9.79355 113.574C6.91927 106.261 5.1778 96.7486 3.93693 89.1177C1.79777 75.9627 2.77038 66.1093 3.99022 58.8451C4.95731 53.0862 9.30564 42.95 13.6757 36.3733C16.9146 31.4989 20.441 25.3966 30.6757 18.3733C35.1262 15.3193 47.7278 9.18056 54.1757 6.87327C70.0269 1.20119 80.0104 3.37319 86.1757 3.37323C92.3411 3.37327 103.676 6.87334 108.176 8.87332C112.457 10.7761 123.676 15.8733 127.676 19.3734C136.953 27.4914 135.793 27.296 143.176 36.3733C145.957 39.7935 149.381 46.3366 152.176 51.8733C154.971 57.41 157.466 67.2189 159.357 75.9245C161.248 84.6301 162.883 96.4805 163.743 104.34C164.604 112.198 164.639 115.707 164.676 119.322" stroke="white" stroke-width="6" stroke-linecap="round" stroke-dasharray="12 12"/>
</svg>
