<svg width="728" height="2118" viewBox="0 0 728 2118" fill="none" xmlns="http://www.w3.org/2000/svg">
<path d="M399.279 1540.5C366.779 1572.5 336.27 1590.61 304.668 1608.84C273.067 1627.07 231.279 1637.5 173.505 1667.5C133.501 1688.28 88.7566 1731.53 74.7872 1782.07C60.2903 1834.52 74.7872 1902.85 113.446 1942.19C168.306 1998.02 237.818 2012.34 299.836 2007.76C367.536 2002.76 450.563 1955.69 469.658 1889.05C485.061 1835.3 472.535 1765.33 443.028 1718.74C427.615 1694.4 406.285 1674.55 382.594 1658.37C337.328 1627.46 278.946 1612.35 224.458 1618.62C134.916 1628.92 34.2083 1698.83 11.2793 1792.5C-13.2304 1892.62 16.7794 2025.5 99.9491 2115" stroke="white" stroke-width="6" stroke-linecap="round" stroke-dasharray="12 12"/>
<path d="M570.279 3C724.779 8.5 729.811 170.582 722.279 219C701.279 354 604.385 460.082 490.779 525C375.717 590.75 98.7789 601 74.7793 413C61.7458 310.902 156.279 241 260.779 235.5C344.279 231.105 422.279 264.5 501.779 323C547.584 356.705 618.146 437.156 654.279 511C703.858 612.321 702.491 715.523 687.779 799.5C675.779 868 647.98 923.277 599.238 996.156C595.891 1000.84 592.424 1005.03 588.964 1007.97" stroke="white" stroke-width="6" stroke-linecap="round" stroke-dasharray="12 12"/>
<path d="M588.279 1010C558.279 1047.5 521.796 1088.39 472.779 1113C444.483 1127.2 393.603 1131.36 361.779 1113C327.773 1093.38 319.076 1056.39 333.572 1022.1C352.563 977.187 404.931 974.618 443.279 985C470.61 992.399 501.865 1026.79 513.504 1052.06C518.623 1063.17 525.746 1080.82 531.271 1104.11C547.419 1172.16 537.164 1265.55 531.271 1306.5C522.779 1365.5 487.279 1474.5 402.279 1539.5" stroke="white" stroke-width="6" stroke-linecap="round" stroke-dasharray="12 12"/>
</svg>
