<svg width="30" height="30" viewBox="0 0 30 30" fill="none" xmlns="http://www.w3.org/2000/svg">
<g id="Group">
<circle id="Ellipse" cx="15" cy="15" r="15" fill="var(--fill-0, white)"/>
<g id="Layer_1" clip-path="url(#clip0_0_4)">
<g transform="translate(6.92299, 6.92314) scale(0.897, 0.934)">
<path id="Vector" d="M11 8.98368C11 11.725 11 14.46 11 17.2014C11 17.4824 10.9634 17.7509 10.6826 17.9132C10.4933 18.0194 10.3163 18.0381 10.1393 17.9132C9.62042 17.5198 9.10766 17.1202 8.59489 16.7268C7.52664 15.9025 6.45838 15.072 5.39012 14.2415C4.99334 13.9355 4.60266 13.6233 4.21809 13.3048C4.05938 13.1737 3.89456 13.1175 3.69312 13.1237C2.84462 13.1362 1.99612 13.1113 1.15372 13.1362C0.59212 13.1487 0.00610433 12.5992 0.00610433 11.9997C0.018313 9.99528 0.018313 7.99706 0 5.99884C0 5.47431 0.561598 4.83738 1.11709 4.85611C1.99001 4.88733 2.85683 4.8686 3.72974 4.85611C3.88846 4.85611 4.07769 4.78742 4.20588 4.68751C6.03108 3.27002 7.85017 1.85254 9.66315 0.435052C9.77303 0.353875 9.88291 0.272697 9.98058 0.179031C10.182 -0.00205782 10.4201 -0.0457688 10.6459 0.0478976C10.8962 0.154053 10.9878 0.40383 10.9939 0.666096C11.0061 1.19687 10.9939 1.72141 10.9939 2.25218C10.9939 4.49393 10.9939 6.74193 10.9939 8.98368H11Z" fill="var(--fill-0, #817E73)"/>
<path id="Vector_2" d="M18.8182 10.6691C18.5058 11.9533 17.8747 13.0909 16.9313 14.076C16.1753 14.8677 15.2819 15.4775 14.251 15.9114C13.7949 16.105 13.3388 15.9759 13.0827 15.5772C12.8952 15.2781 13.0389 14.7445 13.3888 14.5451C13.7262 14.3516 14.0948 14.1992 14.4259 13.9939C15.3069 13.4544 15.9941 12.7508 16.5002 11.8829C16.9063 11.1851 17.1375 10.4345 17.2625 9.64289C17.3687 8.96267 17.2749 8.31177 17.1188 7.65501C16.6752 5.84891 15.5568 4.54125 13.8324 3.66753C13.57 3.53266 13.2638 3.46229 13.1139 3.18668C12.8577 2.71757 13.0827 2.0784 13.7074 2.00803C14.1635 1.95525 14.5322 2.17222 14.8695 2.37746C15.4818 2.74689 16.0879 3.13977 16.6189 3.60302C17.2562 4.16596 17.7748 4.83445 18.1434 5.5909C18.3496 6.01897 18.587 6.44704 18.6995 6.90442C19.0155 8.1439 19.1248 9.42185 18.8182 10.6691Z" fill="var(--fill-0, #817E73)"/>
<path id="Vector_3" d="M13 13V5C14.4412 5.36208 15.8679 6.90606 15.991 8.70282C16.1286 10.8002 14.6729 12.5149 13 13Z" fill="var(--fill-0, #817E73)"/>
</g>
</g>
</g>
<defs>
<clipPath id="clip0_0_4">
<rect width="17.0426" height="16.8052" fill="white" transform="translate(6.92299 6.92314)"/>
</clipPath>
</defs>
</svg>
