<svg width="225" height="194" viewBox="0 0 225 194" fill="none" xmlns="http://www.w3.org/2000/svg">
<path d="M68.3299 14.1916C68.2265 13.6949 67.9514 13.3264 67.5045 13.086C67.0576 12.8457 66.5271 12.7523 65.913 12.8061C65.464 12.8454 65.0774 12.9524 64.7533 13.1271C64.4326 13.3016 64.1892 13.5241 64.0232 13.7949C63.8606 14.0653 63.7934 14.3623 63.8217 14.6858C63.8454 14.9566 63.9301 15.1837 64.076 15.3673C64.2248 15.5472 64.4072 15.6926 64.6232 15.8035C64.8389 15.911 65.0626 15.9963 65.2943 16.0592C65.5258 16.1188 65.7378 16.1651 65.9303 16.1982L66.9847 16.3854C67.2549 16.4316 67.5572 16.5016 67.8914 16.5955C68.229 16.6891 68.5556 16.8285 68.8712 17.0138C69.1899 17.1956 69.4609 17.4413 69.6843 17.7512C69.9077 18.061 70.0402 18.4536 70.0818 18.9291C70.1298 19.4772 70.0295 19.985 69.7809 20.4526C69.5357 20.9199 69.1504 21.3079 68.6252 21.6167C68.1032 21.9252 67.4526 22.1136 66.6734 22.1817C65.947 22.2453 65.3077 22.1831 64.7556 21.9952C64.2068 21.807 63.7622 21.5165 63.4218 21.1237C63.0846 20.7307 62.872 20.2586 62.7838 19.7073L64.0517 19.5964C64.1182 19.9765 64.2747 20.2822 64.5212 20.5135C64.7707 20.7412 65.0741 20.901 65.4315 20.9928C65.7919 21.0811 66.1735 21.1076 66.5763 21.0723C67.0452 21.0313 67.4595 20.9185 67.8193 20.734C68.1788 20.5462 68.4556 20.3057 68.6495 20.0126C68.8432 19.7162 68.9238 19.3831 68.8915 19.0133C68.862 18.6765 68.7439 18.4107 68.5372 18.2158C68.3305 18.021 68.0679 17.871 67.7493 17.7658C67.4306 17.6606 67.0887 17.574 66.7234 17.5062L65.4442 17.2588C64.6318 17.1003 63.976 16.8299 63.4768 16.4477C62.9776 16.0656 62.6981 15.5327 62.6383 14.8493C62.5886 14.2814 62.6988 13.7727 62.9689 13.3232C63.242 12.8701 63.6291 12.5035 64.1303 12.2234C64.6345 11.9398 65.2101 11.7696 65.8573 11.713C66.511 11.6558 67.1024 11.7222 67.6314 11.9121C68.1601 12.0988 68.5906 12.3805 68.923 12.7573C69.2587 13.1339 69.4572 13.5773 69.5185 14.0876L68.3299 14.1916ZM75.3871 21.3994C74.6541 21.4635 74.0077 21.3571 73.4478 21.08C72.8909 20.7993 72.4433 20.3794 72.1049 19.8201C71.7695 19.2572 71.5677 18.5862 71.4996 17.807C71.4314 17.0277 71.5133 16.3285 71.7452 15.7094C71.9802 15.0866 72.339 14.5861 72.8216 14.2079C73.3072 13.826 73.8934 13.6051 74.5802 13.545C74.9764 13.5103 75.3734 13.5421 75.7713 13.6404C76.1691 13.7387 76.5396 13.9225 76.8825 14.1919C77.2252 14.4581 77.5119 14.8256 77.7425 15.2945C77.9732 15.7634 78.1196 16.3528 78.1817 17.0626L78.225 17.5579L72.3611 18.0709L72.2727 17.0606L76.948 16.6516C76.9104 16.2223 76.7911 15.8468 76.5899 15.5251C76.3921 15.203 76.1278 14.9583 75.7971 14.791C75.4697 14.6233 75.0946 14.558 74.672 14.5949C74.2065 14.6357 73.8138 14.7865 73.4939 15.0473C73.177 15.3046 72.9439 15.6245 72.7943 16.0069C72.6448 16.3892 72.5884 16.7901 72.6251 17.2094L72.684 17.883C72.7342 18.4575 72.8759 18.9358 73.109 19.318C73.345 19.6966 73.6505 19.9743 74.0253 20.1511C74.3998 20.3247 74.8231 20.3908 75.2952 20.3494C75.6023 20.3226 75.8759 20.2554 76.116 20.1479C76.3592 20.0368 76.5639 19.8858 76.7302 19.6949C76.8962 19.5007 77.0171 19.2672 77.0931 18.9944L78.25 19.2126C78.1647 19.606 77.9944 19.9603 77.7391 20.2754C77.4836 20.5872 77.1566 20.842 76.758 21.0399C76.3592 21.2345 75.9022 21.3544 75.3871 21.3994ZM81.0696 16.1313L81.47 20.7075L80.3011 20.8098L79.6356 13.2025L80.7648 13.1037L80.8688 14.2923L80.9679 14.2837C81.1124 13.8818 81.3559 13.5477 81.6986 13.2815C82.041 13.012 82.4995 12.8521 83.074 12.8019C83.5891 12.7568 84.049 12.823 84.4538 13.0005C84.8583 13.1747 85.1865 13.4654 85.4384 13.8726C85.69 14.2764 85.8441 14.8019 85.9007 15.4491L86.3236 20.2829L85.1548 20.3852L84.7388 15.6306C84.6865 15.033 84.4906 14.581 84.1511 14.2747C83.8112 13.965 83.3706 13.8339 82.8291 13.8813C82.456 13.9139 82.1296 14.024 81.8499 14.2115C81.5735 14.3987 81.3646 14.6549 81.2234 14.98C81.0822 15.3051 81.0309 15.6888 81.0696 16.1313ZM94.3365 14.2569L92.118 14.5109C92.081 14.3544 92.006 14.2196 91.8929 14.1064C91.7796 13.9899 91.6374 13.9042 91.4662 13.8493C91.2981 13.7908 91.1067 13.7709 90.8921 13.7897C90.6114 13.8143 90.377 13.8913 90.1887 14.0209C90.0037 14.1502 89.9212 14.3105 89.9413 14.5017C89.951 14.6506 90.0217 14.7741 90.1534 14.8724C90.2884 14.9704 90.5189 15.0384 90.8449 15.0764L92.3352 15.2255C93.1073 15.3043 93.693 15.496 94.0923 15.8004C94.4948 16.1045 94.722 16.5338 94.7739 17.0882C94.8162 17.6102 94.7008 18.0778 94.4275 18.4909C94.1575 18.9038 93.7678 19.2407 93.2583 19.5015C92.7485 19.7591 92.1535 19.9176 91.4733 19.9771C90.387 20.0721 89.5107 19.9242 88.8444 19.5334C88.1811 19.1389 87.7719 18.5692 87.6169 17.8242L90.0038 17.5555C90.0809 17.8282 90.2364 18.0275 90.4704 18.1534C90.7043 18.2794 90.993 18.3273 91.3363 18.2973C91.6467 18.2701 91.8942 18.1902 92.0789 18.0576C92.2636 17.925 92.3493 17.7628 92.3358 17.571C92.3175 17.3996 92.2295 17.2692 92.072 17.1799C91.9142 17.0872 91.6742 17.025 91.352 16.9933L90.0026 16.8569C89.2278 16.7849 88.6375 16.5787 88.2317 16.2383C87.8257 15.8945 87.5989 15.4319 87.5514 14.8505C87.5036 14.3423 87.601 13.8963 87.8435 13.5124C88.0858 13.1253 88.4511 12.8138 88.9396 12.5781C89.428 12.3424 90.0156 12.1945 90.7023 12.1345C91.7325 12.0443 92.5637 12.1895 93.1958 12.5701C93.8277 12.9473 94.2079 13.5096 94.3365 14.2569ZM98.3352 19.3618C97.8498 19.4042 97.4119 19.361 97.0213 19.2322C96.6338 19.0997 96.3166 18.878 96.0698 18.5668C95.826 18.2521 95.6821 17.8439 95.6382 17.342C95.6013 16.9194 95.6444 16.5563 95.7675 16.2527C95.8907 15.9492 96.0747 15.6952 96.3197 15.4907C96.5646 15.2863 96.8531 15.123 97.1851 15.0008C97.5168 14.8753 97.8744 14.7791 98.2578 14.7123C98.6869 14.6349 99.0316 14.5631 99.292 14.4971C99.5521 14.4278 99.7379 14.3466 99.8496 14.2537C99.9642 14.1571 100.015 14.0313 100.001 13.8761L99.999 13.8513C99.9768 13.5971 99.8721 13.4083 99.685 13.2849C99.4979 13.1616 99.2557 13.1129 98.9586 13.1389C98.6383 13.1669 98.3868 13.2588 98.2041 13.4145C98.0215 13.5702 97.9144 13.7725 97.8829 14.0215L95.6424 14.1377C95.668 13.6696 95.8019 13.242 96.0442 12.8549C96.2894 12.4641 96.644 12.1436 97.1079 11.8934C97.5748 11.6397 98.1483 11.483 98.8284 11.4235C99.3138 11.3811 99.7663 11.3997 100.186 11.4794C100.605 11.5559 100.976 11.6898 101.299 11.8811C101.621 12.0692 101.879 12.3128 102.071 12.612C102.267 12.9109 102.383 13.2618 102.418 13.6646L102.87 18.8352L100.592 19.0346L100.5 17.9747L100.44 17.9799C100.327 18.2493 100.173 18.4823 99.9773 18.6791C99.7848 18.8756 99.5506 19.0309 99.2744 19.1449C99.0016 19.2586 98.6885 19.3309 98.3352 19.3618ZM98.9444 17.7115C99.2052 17.6887 99.435 17.6153 99.6338 17.4915C99.8359 17.3673 99.9916 17.2073 100.101 17.0114C100.21 16.8123 100.254 16.5889 100.232 16.3412L100.169 15.6181C100.102 15.6605 100.021 15.7009 99.9247 15.7393C99.8315 15.7774 99.7283 15.8147 99.6151 15.8512C99.5018 15.8877 99.385 15.9212 99.2645 15.9517C99.1441 15.9822 99.0285 16.0107 98.9177 16.037C98.693 16.0932 98.5031 16.1664 98.348 16.2565C98.1961 16.3463 98.0826 16.4561 98.0075 16.5857C97.9353 16.7118 97.9065 16.8574 97.9209 17.0225C97.9429 17.2734 98.0488 17.4571 98.2386 17.5736C98.4318 17.6898 98.667 17.7358 98.9444 17.7115ZM105.809 21.4527C105.519 21.4781 105.243 21.479 104.981 21.4553C104.72 21.4349 104.494 21.3965 104.302 21.34L104.683 19.535C104.928 19.5934 105.147 19.6209 105.339 19.6173C105.535 19.6135 105.699 19.5676 105.831 19.4795C105.967 19.3944 106.065 19.2545 106.124 19.0596L106.198 18.8236L102.804 11.1755L105.34 10.9536L107.216 16.2592L107.296 16.2522L108.242 10.6997L110.793 10.4766L108.655 19.0628C108.552 19.491 108.388 19.8747 108.161 20.2139C107.938 20.5561 107.635 20.8355 107.252 21.052C106.871 21.2683 106.39 21.4018 105.809 21.4527Z" fill="white"/>
<rect x="9.58716" y="173.233" width="127" height="20" rx="10" transform="rotate(-5 9.58716 173.233)" fill="white"/>
<path d="M21.9511 188.212L20.9369 176.62L28.748 175.937L28.9248 177.958L23.5645 178.427L23.8062 181.189L28.7645 180.755L28.9413 182.776L23.983 183.209L24.2251 185.977L29.608 185.506L29.7848 187.527L21.9511 188.212ZM31.7107 187.358L30.6965 175.766L38.3717 175.095L38.5485 177.116L33.3241 177.573L33.5658 180.335L38.2807 179.922L38.4575 181.943L33.7426 182.356L34.1615 187.144L31.7107 187.358ZM41.0344 186.543L40.0202 174.951L47.6955 174.279L47.8723 176.3L42.6479 176.757L42.8896 179.519L47.6045 179.107L47.7813 181.127L43.0663 181.54L43.4853 186.328L41.0344 186.543ZM60.5036 178.999C60.6142 180.263 60.4687 181.36 60.067 182.288C59.6691 183.217 59.0794 183.951 58.2977 184.491C57.5194 185.026 56.619 185.339 55.5964 185.428C54.5663 185.519 53.6213 185.366 52.7615 184.969C51.9017 184.573 51.1953 183.952 50.6423 183.107C50.0892 182.262 49.7576 181.209 49.6473 179.949C49.5367 178.685 49.6804 177.588 50.0782 176.66C50.4761 175.732 51.0642 175 51.8424 174.464C52.6203 173.924 53.5243 173.61 54.5545 173.519C55.5771 173.43 56.5183 173.583 57.3781 173.98C58.2413 174.372 58.9494 174.99 59.5025 175.836C60.0593 176.68 60.393 177.735 60.5036 178.999ZM58.0188 179.216C57.9471 178.398 57.7641 177.718 57.4696 177.177C57.1789 176.636 56.8001 176.239 56.3332 175.987C55.8663 175.735 55.3366 175.635 54.7442 175.687C54.1517 175.739 53.6475 175.93 53.2314 176.259C52.8153 176.588 52.5092 177.044 52.3132 177.628C52.1209 178.211 52.0605 178.913 52.1322 179.731C52.2038 180.55 52.385 181.23 52.6757 181.771C52.9701 182.312 53.3508 182.709 53.8177 182.96C54.2846 183.212 54.8143 183.312 55.4067 183.261C55.9992 183.209 56.5034 183.018 56.9195 182.689C57.3356 182.36 57.6398 181.904 57.8321 181.32C58.0282 180.737 58.0904 180.035 58.0188 179.216ZM62.8262 184.636L61.812 173.044L66.3854 172.644C67.2609 172.567 68.0217 172.659 68.668 172.918C69.3177 173.173 69.8297 173.571 70.2041 174.112C70.5819 174.65 70.8043 175.301 70.8713 176.067C70.9387 176.837 70.8306 177.514 70.547 178.098C70.2632 178.677 69.819 179.142 69.2146 179.492C68.614 179.841 67.8684 180.054 66.9778 180.132L63.9157 180.4L63.7433 178.43L66.4093 178.197C66.8772 178.156 67.2603 178.058 67.5585 177.903C67.8567 177.747 68.07 177.535 68.1985 177.265C68.3308 176.995 68.3802 176.669 68.3469 176.288C68.3132 175.903 68.2075 175.585 68.0296 175.335C67.8556 175.084 67.606 174.904 67.2809 174.796C66.9593 174.683 66.5626 174.648 66.091 174.689L64.4382 174.833L65.277 184.422L62.8262 184.636ZM68.6248 178.813L71.9674 183.836L69.2618 184.073L65.9815 179.044L68.6248 178.813ZM72.0073 174.188L71.8306 172.168L81.351 171.335L81.5278 173.355L77.9789 173.666L78.8162 183.237L76.3937 183.449L75.5563 173.878L72.0073 174.188ZM83.9331 182.79L82.9189 171.198L85.3697 170.983L86.2071 180.555L91.1768 180.12L91.3536 182.14L83.9331 182.79ZM92.9766 181.998L91.9625 170.406L99.7735 169.723L99.9503 171.744L94.5901 172.213L94.8318 174.975L99.7901 174.541L99.9669 176.562L95.0086 176.995L95.2507 179.763L100.634 179.292L100.81 181.313L92.9766 181.998ZM108.302 172.336C108.217 171.884 107.992 171.546 107.626 171.323C107.261 171.1 106.784 171.015 106.195 171.066C105.795 171.101 105.462 171.187 105.197 171.325C104.931 171.458 104.733 171.629 104.603 171.839C104.476 172.047 104.424 172.276 104.446 172.525C104.457 172.733 104.516 172.911 104.624 173.057C104.735 173.203 104.881 173.326 105.061 173.424C105.24 173.519 105.445 173.598 105.675 173.661C105.904 173.721 106.148 173.768 106.406 173.802L107.469 173.96C107.985 174.029 108.462 174.14 108.901 174.291C109.34 174.443 109.727 174.643 110.06 174.892C110.394 175.14 110.662 175.443 110.864 175.802C111.07 176.161 111.196 176.581 111.242 177.064C111.301 177.774 111.173 178.404 110.861 178.957C110.551 179.505 110.073 179.951 109.426 180.297C108.783 180.638 107.99 180.85 107.047 180.933C106.111 181.015 105.283 180.943 104.564 180.717C103.848 180.49 103.271 180.113 102.834 179.585C102.399 179.052 102.136 178.37 102.044 177.538L104.416 177.33C104.476 177.717 104.616 178.031 104.835 178.275C105.057 178.514 105.34 178.685 105.684 178.788C106.031 178.887 106.416 178.918 106.839 178.881C107.254 178.844 107.609 178.752 107.904 178.605C108.203 178.457 108.428 178.268 108.579 178.038C108.73 177.808 108.793 177.554 108.768 177.275C108.746 177.014 108.649 176.802 108.479 176.638C108.313 176.474 108.077 176.343 107.771 176.244C107.47 176.145 107.104 176.063 106.672 175.998L105.382 175.791C104.384 175.639 103.58 175.335 102.969 174.879C102.359 174.423 102.018 173.766 101.947 172.909C101.882 172.208 102.015 171.578 102.347 171.021C102.682 170.463 103.169 170.008 103.807 169.655C104.446 169.303 105.187 169.09 106.033 169.016C106.893 168.94 107.657 169.022 108.324 169.26C108.995 169.498 109.533 169.863 109.937 170.357C110.341 170.85 110.579 171.441 110.651 172.131L108.302 172.336ZM118.747 171.422C118.661 170.97 118.436 170.632 118.071 170.409C117.705 170.186 117.228 170.101 116.639 170.152C116.239 170.187 115.907 170.273 115.641 170.411C115.375 170.544 115.177 170.716 115.047 170.925C114.921 171.133 114.869 171.362 114.891 171.611C114.901 171.82 114.96 171.997 115.068 172.143C115.18 172.29 115.326 172.412 115.505 172.51C115.685 172.605 115.889 172.684 116.119 172.747C116.349 172.807 116.592 172.854 116.85 172.889L117.913 173.047C118.429 173.116 118.906 173.226 119.346 173.378C119.785 173.529 120.171 173.729 120.505 173.978C120.838 174.226 121.106 174.53 121.309 174.888C121.515 175.247 121.641 175.667 121.687 176.15C121.745 176.86 121.618 177.491 121.305 178.043C120.996 178.591 120.518 179.038 119.871 179.383C119.228 179.725 118.435 179.937 117.491 180.019C116.555 180.101 115.728 180.029 115.008 179.803C114.293 179.576 113.716 179.199 113.278 178.671C112.844 178.139 112.581 177.456 112.489 176.624L114.86 176.416C114.921 176.803 115.06 177.118 115.279 177.361C115.502 177.6 115.785 177.771 116.129 177.874C116.476 177.973 116.86 178.004 117.283 177.967C117.698 177.931 118.053 177.839 118.348 177.691C118.647 177.543 118.872 177.354 119.023 177.125C119.174 176.895 119.237 176.64 119.213 176.361C119.19 176.1 119.094 175.888 118.923 175.724C118.757 175.56 118.521 175.429 118.216 175.33C117.914 175.231 117.548 175.149 117.116 175.084L115.826 174.878C114.828 174.725 114.024 174.421 113.414 173.965C112.804 173.509 112.463 172.852 112.392 171.995C112.327 171.294 112.46 170.664 112.791 170.107C113.126 169.549 113.613 169.094 114.252 168.741C114.89 168.389 115.632 168.176 116.477 168.102C117.337 168.027 118.101 168.108 118.768 168.346C119.439 168.584 119.977 168.95 120.382 169.443C120.786 169.936 121.024 170.527 121.096 171.217L118.747 171.422ZM125.002 179.345C124.629 179.378 124.296 179.273 124.005 179.033C123.718 178.788 123.558 178.479 123.525 178.105C123.493 177.735 123.597 177.407 123.838 177.12C124.083 176.832 124.392 176.672 124.765 176.639C125.128 176.608 125.456 176.712 125.751 176.952C126.046 177.193 126.209 177.498 126.242 177.868C126.264 178.117 126.219 178.35 126.109 178.569C126.003 178.784 125.853 178.962 125.66 179.105C125.467 179.243 125.247 179.323 125.002 179.345Z" fill="#FF4122"/>
<rect x="7.6698" y="151.317" width="66" height="20" rx="10" transform="rotate(-5 7.6698 151.317)" fill="white"/>
<path d="M20.0337 166.296L19.0195 154.704L26.6948 154.032L26.8716 156.053L21.6472 156.51L21.8888 159.272L26.6038 158.86L26.7806 160.88L22.0656 161.293L22.4846 166.082L20.0337 166.296ZM29.9079 165.432L27.2816 165.662L30.2692 153.72L33.4276 153.443L38.4378 164.686L35.8115 164.916L32.1254 156.227L32.0348 156.234L29.9079 165.432ZM29.3451 160.89L35.5487 160.347L35.7161 162.26L29.5125 162.803L29.3451 160.89ZM45.1344 155.778C45.0492 155.326 44.8239 154.988 44.4583 154.765C44.0928 154.543 43.6158 154.457 43.0271 154.508C42.6271 154.543 42.2943 154.63 42.0288 154.767C41.7629 154.9 41.5649 155.072 41.4349 155.281C41.3087 155.49 41.2565 155.719 41.2783 155.968C41.2889 156.176 41.3481 156.353 41.456 156.5C41.5677 156.646 41.7133 156.768 41.8931 156.866C42.0724 156.961 42.2771 157.04 42.507 157.103C42.7365 157.163 42.9802 157.21 43.238 157.245L44.3012 157.403C44.8168 157.472 45.2941 157.582 45.7333 157.734C46.1724 157.885 46.5587 158.085 46.8923 158.334C47.2258 158.582 47.4938 158.886 47.6963 159.245C47.9025 159.603 48.0287 160.023 48.0747 160.506C48.133 161.216 48.0057 161.847 47.6928 162.399C47.3833 162.947 46.9053 163.394 46.2587 163.739C45.6155 164.081 44.8223 164.293 43.8789 164.375C42.9431 164.457 42.1155 164.385 41.3961 164.159C40.6804 163.933 40.1037 163.555 39.6658 163.027C39.2314 162.495 38.9683 161.812 38.8765 160.98L41.2481 160.773C41.3085 161.159 41.4482 161.474 41.6672 161.717C41.8897 161.956 42.1727 162.127 42.5163 162.23C42.8634 162.329 43.2482 162.36 43.6709 162.323C44.0859 162.287 44.441 162.195 44.7361 162.047C45.035 161.899 45.2599 161.711 45.4109 161.481C45.5619 161.251 45.6251 160.996 45.6007 160.717C45.5779 160.456 45.4814 160.244 45.3112 160.081C45.1448 159.916 44.9089 159.785 44.6037 159.686C44.3022 159.587 43.9357 159.505 43.5042 159.44L42.2142 159.234C41.2161 159.081 40.4119 158.777 39.8017 158.321C39.1914 157.865 38.8507 157.208 38.7795 156.352C38.7144 155.65 38.8475 155.021 39.1789 154.463C39.5142 153.905 40.001 153.45 40.6394 153.098C41.2777 152.745 42.0196 152.532 42.8648 152.458C43.7252 152.383 44.489 152.464 45.1562 152.702C45.8272 152.94 46.3649 153.306 46.7693 153.799C47.1736 154.292 47.4117 154.883 47.4834 155.573L45.1344 155.778ZM48.7341 154.14L48.5573 152.12L58.0777 151.287L58.2545 153.307L54.7056 153.618L55.543 163.189L53.1204 163.401L52.283 153.83L48.7341 154.14ZM62.5517 160.979L62.5439 161.607C62.5384 162.11 62.4875 162.614 62.3912 163.121C62.2989 163.631 62.1949 164.094 62.0793 164.511C61.9675 164.928 61.8764 165.255 61.8059 165.493L60.2437 165.63C60.2808 165.402 60.331 165.084 60.3941 164.676C60.4575 164.271 60.511 163.817 60.5546 163.315C60.5981 162.814 60.6087 162.305 60.5865 161.79L60.5593 161.153L62.5517 160.979Z" fill="#FF4122"/>
<rect x="157.099" y="138.243" width="56" height="20" rx="10" transform="rotate(-5 157.099 138.243)" fill="white"/>
<path d="M171.461 153.048L168.835 153.278L171.822 141.335L174.981 141.059L179.991 152.302L177.365 152.531L173.678 143.842L173.588 143.85L171.461 153.048ZM170.898 148.506L177.102 147.963L177.269 149.876L171.066 150.419L170.898 148.506ZM190.068 139.739L191.082 151.331L188.965 151.516L183.284 144.662L183.199 144.669L183.837 151.965L181.386 152.179L180.372 140.587L182.523 140.399L188.164 147.252L188.266 147.243L187.628 139.953L190.068 139.739ZM197.216 150.794L193.107 151.154L192.093 139.562L196.236 139.199C197.402 139.097 198.426 139.242 199.308 139.632C200.19 140.019 200.895 140.625 201.423 141.449C201.956 142.273 202.274 143.287 202.38 144.491C202.485 145.698 202.348 146.756 201.967 147.664C201.59 148.571 200.998 149.294 200.189 149.833C199.385 150.371 198.394 150.691 197.216 150.794ZM195.374 148.84L196.931 148.703C197.655 148.64 198.253 148.458 198.725 148.159C199.201 147.855 199.539 147.42 199.74 146.855C199.945 146.286 200.01 145.569 199.935 144.705C199.86 143.848 199.672 143.159 199.372 142.638C199.075 142.117 198.668 141.749 198.152 141.536C197.635 141.322 197.014 141.247 196.29 141.311L194.727 141.447L195.374 148.84Z" fill="#FF4122"/>
<rect x="73.4186" y="145.564" width="84" height="20" rx="10" transform="rotate(-5 73.4186 145.564)" fill="white"/>
<path d="M91.3485 151.735C91.2632 151.283 91.0379 150.945 90.6724 150.722C90.3069 150.499 89.8298 150.414 89.2411 150.465C88.8411 150.5 88.5084 150.586 88.2428 150.724C87.9769 150.857 87.779 151.029 87.649 151.238C87.5227 151.446 87.4705 151.675 87.4923 151.924C87.5029 152.133 87.5622 152.31 87.67 152.456C87.7817 152.603 87.9274 152.725 88.1071 152.823C88.2865 152.918 88.4911 152.997 88.721 153.06C88.9506 153.12 89.1942 153.167 89.452 153.202L90.5153 153.36C91.0308 153.429 91.5082 153.539 91.9473 153.691C92.3864 153.842 92.7728 154.042 93.1063 154.291C93.4398 154.539 93.7078 154.843 93.9103 155.201C94.1166 155.56 94.2427 155.98 94.2887 156.463C94.347 157.173 94.2197 157.804 93.9068 158.356C93.5973 158.904 93.1193 159.351 92.4727 159.696C91.8296 160.038 91.0363 160.25 90.0929 160.332C89.1571 160.414 88.3295 160.342 87.6101 160.116C86.8945 159.889 86.3177 159.512 85.8799 158.984C85.4454 158.452 85.1823 157.769 85.0905 156.937L87.4621 156.729C87.5225 157.116 87.6623 157.431 87.8813 157.674C88.1037 157.913 88.3867 158.084 88.7303 158.187C89.0774 158.286 89.4623 158.317 89.8849 158.28C90.3 158.244 90.655 158.152 90.9501 158.004C91.249 157.856 91.4739 157.667 91.6249 157.438C91.7759 157.208 91.8392 156.953 91.8147 156.674C91.792 156.413 91.6955 156.201 91.5252 156.037C91.3588 155.873 91.1229 155.742 90.8177 155.643C90.5163 155.544 90.1498 155.462 89.7182 155.397L88.4283 155.191C87.4301 155.038 86.6259 154.734 86.0157 154.278C85.4054 153.822 85.0647 153.165 84.9936 152.308C84.9284 151.607 85.0615 150.977 85.393 150.42C85.7282 149.862 86.215 149.407 86.8534 149.054C87.4918 148.702 88.2336 148.489 89.0788 148.415C89.9392 148.34 90.703 148.421 91.3702 148.659C92.0412 148.897 92.5789 149.263 92.9833 149.756C93.3877 150.249 93.6257 150.84 93.6974 151.53L91.3485 151.735ZM97.6637 147.823L98.6778 159.416L96.227 159.63L95.2128 148.038L97.6637 147.823ZM99.6801 147.647L102.703 147.383L106.576 154.892L106.712 154.88L109.223 146.812L112.246 146.548L113.26 158.14L110.883 158.348L110.223 150.803L110.126 150.811L107.782 158.562L106.163 158.704L102.505 151.449L102.409 151.458L103.072 159.031L100.694 159.239L99.6801 147.647ZM115.279 157.963L114.265 146.371L118.838 145.971C119.718 145.894 120.481 145.996 121.13 146.278C121.778 146.556 122.29 146.977 122.666 147.541C123.046 148.101 123.269 148.766 123.337 149.536C123.404 150.305 123.297 150.999 123.017 151.617C122.736 152.235 122.295 152.735 121.694 153.119C121.096 153.502 120.352 153.732 119.462 153.81L116.547 154.065L116.375 152.101L118.894 151.881C119.365 151.839 119.747 151.724 120.038 151.535C120.333 151.342 120.543 151.094 120.669 150.79C120.798 150.482 120.846 150.138 120.812 149.756C120.779 149.372 120.672 149.043 120.492 148.769C120.316 148.492 120.066 148.288 119.743 148.156C119.419 148.021 119.019 147.974 118.544 148.016L116.891 148.16L117.73 157.749L115.279 157.963ZM125.599 157.06L124.585 145.468L127.036 145.254L127.873 154.825L132.843 154.39L133.02 156.411L125.599 157.06ZM134.643 156.269L133.629 144.677L141.44 143.994L141.616 146.014L136.256 146.483L136.498 149.245L141.456 148.812L141.633 150.832L136.675 151.266L136.917 154.034L142.3 153.563L142.476 155.584L134.643 156.269ZM146.839 153.605L146.831 154.233C146.826 154.735 146.775 155.24 146.678 155.746C146.586 156.256 146.482 156.72 146.367 157.137C146.255 157.554 146.164 157.881 146.093 158.119L144.531 158.256C144.568 158.028 144.618 157.71 144.681 157.301C144.745 156.897 144.798 156.443 144.842 155.941C144.885 155.439 144.896 154.931 144.874 154.416L144.847 153.779L146.839 153.605Z" fill="#FF4122"/>
<rect x="5.75232" y="129.4" width="62" height="20" rx="10" transform="rotate(-5 5.75232 129.4)" fill="white"/>
<path d="M21.7434 132.382L24.166 132.17L24.8731 140.252C24.9385 141 24.8274 141.663 24.5397 142.244C24.2559 142.824 23.8307 143.288 23.2644 143.638C22.698 143.988 22.0224 144.198 21.2375 144.266C20.5395 144.327 19.8948 144.26 19.3035 144.065C18.7157 143.865 18.2337 143.527 17.8574 143.051C17.4807 142.57 17.2606 141.945 17.1971 141.175L19.6366 140.961C19.6709 141.266 19.7561 141.523 19.8922 141.732C20.0318 141.936 20.2105 142.088 20.4282 142.187C20.6494 142.282 20.9035 142.316 21.1902 142.291C21.4921 142.265 21.7412 142.178 21.9375 142.032C22.1373 141.881 22.2808 141.675 22.3681 141.413C22.4554 141.15 22.4829 140.834 22.4506 140.464L21.7434 132.382ZM33.3525 131.366L35.8033 131.151L36.462 138.68C36.5359 139.525 36.3987 140.282 36.0504 140.951C35.7059 141.62 35.1888 142.164 34.4991 142.581C33.8091 142.995 32.9848 143.244 32.0264 143.328C31.0641 143.412 30.2073 143.31 29.4559 143.023C28.7041 142.731 28.1005 142.286 27.6451 141.687C27.1896 141.088 26.9249 140.366 26.851 139.52L26.1923 131.992L28.6432 131.778L29.2835 139.097C29.3221 139.538 29.4527 139.922 29.6752 140.249C29.9014 140.575 30.2005 140.821 30.5724 140.986C30.9442 141.151 31.366 141.213 31.8377 141.172C32.3132 141.13 32.7178 140.996 33.0515 140.769C33.3891 140.542 33.639 140.248 33.8015 139.888C33.9676 139.527 34.0314 139.126 33.9928 138.685L33.3525 131.366ZM44.3999 133.759C44.3147 133.306 44.0894 132.968 43.7238 132.746C43.3583 132.523 42.8813 132.437 42.2926 132.489C41.8926 132.524 41.5598 132.61 41.2943 132.747C41.0284 132.881 40.8304 133.052 40.7004 133.261C40.5742 133.47 40.522 133.699 40.5438 133.948C40.5544 134.156 40.6136 134.333 40.7215 134.48C40.8332 134.626 40.9788 134.748 41.1586 134.847C41.3379 134.941 41.5426 135.02 41.7725 135.084C42.002 135.143 42.2457 135.191 42.5035 135.225L43.5667 135.383C44.0823 135.452 44.5596 135.562 44.9988 135.714C45.4379 135.866 45.8242 136.066 46.1578 136.314C46.4913 136.563 46.7593 136.866 46.9618 137.225C47.168 137.583 47.2942 138.004 47.3402 138.486C47.3985 139.196 47.2712 139.827 46.9583 140.379C46.6488 140.927 46.1708 141.374 45.5242 141.719C44.881 142.061 44.0878 142.273 43.1444 142.355C42.2086 142.437 41.381 142.365 40.6616 142.139C39.9459 141.913 39.3692 141.535 38.9313 141.007C38.4969 140.475 38.2338 139.793 38.142 138.96L40.5136 138.753C40.574 139.139 40.7137 139.454 40.9327 139.697C41.1552 139.936 41.4382 140.107 41.7818 140.21C42.1289 140.309 42.5137 140.34 42.9364 140.303C43.3514 140.267 43.7065 140.175 44.0016 140.028C44.3005 139.88 44.5254 139.691 44.6764 139.461C44.8274 139.231 44.8906 138.976 44.8662 138.697C44.8434 138.437 44.7469 138.225 44.5767 138.061C44.4103 137.897 44.1744 137.765 43.8692 137.666C43.5677 137.567 43.2012 137.485 42.7697 137.42L41.4797 137.214C40.4816 137.062 39.6774 136.757 39.0672 136.301C38.4569 135.845 38.1162 135.189 38.045 134.332C37.9799 133.63 38.113 133.001 38.4444 132.443C38.7797 131.885 39.2665 131.43 39.9049 131.078C40.5432 130.725 41.2851 130.512 42.1303 130.438C42.9907 130.363 43.7545 130.444 44.4217 130.683C45.0927 130.921 45.6304 131.286 46.0348 131.779C46.4391 132.272 46.6772 132.864 46.7489 133.553L44.3999 133.759ZM47.9996 132.121L47.8228 130.1L57.3432 129.267L57.52 131.288L53.9711 131.598L54.8085 141.17L52.3859 141.381L51.5485 131.81L47.9996 132.121Z" fill="#FF4122"/>
<rect x="67.5164" y="123.997" width="81" height="20" rx="10" transform="rotate(-5 67.5164 123.997)" fill="white"/>
<path d="M82.4896 138.748L78.1586 127.446L80.8358 127.212L83.4593 135.098L83.5555 135.09L84.9678 126.85L87.2602 126.65L90.0776 134.536L90.1795 134.527L91.3921 126.288L94.0694 126.054L91.7667 137.936L89.3781 138.145L86.5075 130.759L86.417 130.767L84.8782 138.539L82.4896 138.748ZM105.887 130.86C105.998 132.124 105.852 133.221 105.45 134.15C105.053 135.078 104.463 135.812 103.681 136.352C102.903 136.888 102.002 137.2 100.98 137.29C99.9496 137.38 99.0047 137.227 98.1449 136.831C97.2851 136.434 96.5787 135.814 96.0257 134.968C95.4726 134.123 95.141 133.07 95.0307 131.81C94.9201 130.546 95.0637 129.45 95.4616 128.521C95.8595 127.593 96.4476 126.861 97.2258 126.325C98.0037 125.786 98.9077 125.471 99.9379 125.381C100.96 125.291 101.902 125.445 102.761 125.841C103.625 126.233 104.333 126.852 104.886 127.697C105.443 128.542 105.776 129.596 105.887 130.86ZM103.402 131.078C103.33 130.259 103.147 129.579 102.853 129.038C102.562 128.497 102.183 128.101 101.717 127.849C101.25 127.597 100.72 127.497 100.128 127.549C99.5351 127.6 99.0309 127.791 98.6148 128.12C98.1987 128.449 97.8926 128.906 97.6965 129.489C97.5042 130.073 97.4439 130.774 97.5155 131.593C97.5872 132.412 97.7683 133.092 98.059 133.633C98.3535 134.173 98.7342 134.57 99.2011 134.822C99.668 135.074 100.198 135.174 100.79 135.122C101.383 135.07 101.887 134.88 102.303 134.55C102.719 134.221 103.023 133.765 103.215 133.182C103.412 132.598 103.474 131.897 103.402 131.078ZM108.21 136.498L107.195 124.905L111.769 124.505C112.644 124.429 113.405 124.52 114.051 124.779C114.701 125.034 115.213 125.432 115.587 125.974C115.965 126.511 116.188 127.162 116.255 127.929C116.322 128.698 116.214 129.375 115.93 129.959C115.647 130.539 115.202 131.004 114.598 131.353C113.997 131.702 113.252 131.916 112.361 131.994L109.299 132.261L109.127 130.292L111.793 130.058C112.261 130.018 112.644 129.919 112.942 129.764C113.24 129.609 113.453 129.396 113.582 129.126C113.714 128.856 113.764 128.53 113.73 128.149C113.697 127.764 113.591 127.447 113.413 127.196C113.239 126.945 112.989 126.765 112.664 126.657C112.343 126.544 111.946 126.509 111.474 126.55L109.822 126.695L110.66 136.283L108.21 136.498ZM114.008 130.675L117.351 135.698L114.645 135.934L111.365 130.906L114.008 130.675ZM118.67 135.582L117.655 123.99L120.106 123.776L120.553 128.887L120.706 128.874L124.431 123.398L127.368 123.141L123.521 128.707L128.433 134.728L125.501 134.985L121.909 130.497L120.832 132.074L121.12 135.368L118.67 135.582ZM135.131 125.821C135.046 125.368 134.821 125.03 134.455 124.808C134.09 124.585 133.613 124.499 133.024 124.551C132.624 124.586 132.291 124.672 132.026 124.809C131.76 124.943 131.562 125.114 131.432 125.323C131.306 125.532 131.254 125.761 131.275 126.01C131.286 126.218 131.345 126.395 131.453 126.542C131.565 126.688 131.71 126.81 131.89 126.908C132.069 127.003 132.274 127.082 132.504 127.146C132.734 127.205 132.977 127.253 133.235 127.287L134.298 127.445C134.814 127.514 135.291 127.624 135.73 127.776C136.169 127.928 136.556 128.128 136.889 128.376C137.223 128.624 137.491 128.928 137.693 129.287C137.9 129.645 138.026 130.066 138.072 130.548C138.13 131.258 138.003 131.889 137.69 132.441C137.38 132.989 136.902 133.436 136.256 133.781C135.613 134.123 134.819 134.335 133.876 134.417C132.94 134.499 132.112 134.427 131.393 134.201C130.677 133.975 130.101 133.597 129.663 133.069C129.228 132.537 128.965 131.855 128.873 131.022L131.245 130.815C131.306 131.201 131.445 131.516 131.664 131.759C131.887 131.998 132.17 132.169 132.513 132.272C132.86 132.371 133.245 132.402 133.668 132.365C134.083 132.329 134.438 132.237 134.733 132.09C135.032 131.942 135.257 131.753 135.408 131.523C135.559 131.293 135.622 131.038 135.598 130.759C135.575 130.499 135.478 130.287 135.308 130.123C135.142 129.959 134.906 129.827 134.601 129.728C134.299 129.629 133.933 129.547 133.501 129.482L132.211 129.276C131.213 129.124 130.409 128.819 129.799 128.363C129.188 127.907 128.848 127.251 128.777 126.394C128.711 125.692 128.845 125.063 129.176 124.505C129.511 123.947 129.998 123.492 130.636 123.14C131.275 122.787 132.017 122.574 132.862 122.5C133.722 122.425 134.486 122.506 135.153 122.745C135.824 122.982 136.362 123.348 136.766 123.841C137.171 124.334 137.409 124.926 137.48 125.615L135.131 125.821Z" fill="#FF4122"/>
<rect x="148.208" y="116.937" width="36" height="20" rx="10" transform="rotate(-5 148.208 116.937)" fill="white"/>
<path d="M175.003 124.893L175.171 126.806L159.232 128.201L159.064 126.288L175.003 124.893Z" fill="#FF4122"/>
<rect x="3.83484" y="107.484" width="89" height="20" rx="10" transform="rotate(-5 3.83484 107.484)" fill="white"/>
<path d="M21.7647 113.655C21.6795 113.202 21.4541 112.865 21.0886 112.642C20.7231 112.419 20.246 112.334 19.6574 112.385C19.2574 112.42 18.9246 112.506 18.6591 112.643C18.3932 112.777 18.1952 112.948 18.0652 113.157C17.939 113.366 17.8868 113.595 17.9086 113.844C17.9192 114.052 17.9784 114.23 18.0863 114.376C18.1979 114.522 18.3436 114.644 18.5233 114.743C18.7027 114.837 18.9074 114.916 19.1373 114.98C19.3668 115.04 19.6105 115.087 19.8683 115.121L20.9315 115.279C21.4471 115.348 21.9244 115.459 22.3636 115.61C22.8027 115.762 23.189 115.962 23.5225 116.21C23.8561 116.459 24.1241 116.762 24.3266 117.121C24.5328 117.479 24.659 117.9 24.705 118.383C24.7633 119.092 24.636 119.723 24.3231 120.275C24.0136 120.823 23.5356 121.27 22.889 121.616C22.2458 121.957 21.4526 122.169 20.5092 122.252C19.5734 122.334 18.7458 122.262 18.0264 122.035C17.3107 121.809 16.734 121.432 16.2961 120.904C15.8617 120.371 15.5986 119.689 15.5068 118.857L17.8784 118.649C17.9388 119.035 18.0785 119.35 18.2975 119.593C18.52 119.833 18.803 120.004 19.1466 120.107C19.4937 120.206 19.8785 120.237 20.3011 120.2C20.7162 120.163 21.0713 120.071 21.3664 119.924C21.6653 119.776 21.8902 119.587 22.0412 119.357C22.1922 119.127 22.2554 118.873 22.231 118.593C22.2082 118.333 22.1117 118.121 21.9415 117.957C21.775 117.793 21.5392 117.662 21.234 117.563C20.9325 117.464 20.566 117.382 20.1345 117.317L18.8445 117.11C17.8464 116.958 17.0422 116.654 16.4319 116.198C15.8217 115.742 15.481 115.085 15.4098 114.228C15.3446 113.527 15.4778 112.897 15.8092 112.34C16.1445 111.782 16.6313 111.327 17.2696 110.974C17.908 110.622 18.6498 110.408 19.4951 110.335C20.3554 110.259 21.1192 110.341 21.7865 110.579C22.4575 110.817 22.9952 111.182 23.3996 111.675C23.8039 112.169 24.042 112.76 24.1137 113.45L21.7647 113.655ZM26.6432 121.55L25.6291 109.958L33.4401 109.274L33.6169 111.295L28.2567 111.764L28.4984 114.526L33.4567 114.092L33.6335 116.113L28.6752 116.547L28.9173 119.315L34.3002 118.844L34.4769 120.864L26.6432 121.55ZM45.0846 108.255L46.0987 119.848L43.9818 120.033L38.3003 113.178L38.2154 113.185L38.8537 120.481L36.4028 120.696L35.3886 109.104L37.5395 108.916L43.181 115.768L43.2828 115.759L42.645 108.469L45.0846 108.255ZM53.6897 110.862C53.6044 110.409 53.3791 110.072 53.0136 109.849C52.6481 109.626 52.171 109.54 51.5823 109.592C51.1823 109.627 50.8495 109.713 50.584 109.85C50.3181 109.984 50.1202 110.155 49.9902 110.364C49.8639 110.573 49.8117 110.802 49.8335 111.051C49.8441 111.259 49.9034 111.437 50.0112 111.583C50.1229 111.729 50.2686 111.851 50.4483 111.95C50.6276 112.044 50.8323 112.123 51.0622 112.187C51.2917 112.247 51.5354 112.294 51.7932 112.328L52.8565 112.486C53.372 112.555 53.8493 112.666 54.2885 112.817C54.7276 112.969 55.1139 113.169 55.4475 113.417C55.781 113.666 56.049 113.969 56.2515 114.328C56.4578 114.686 56.5839 115.107 56.6299 115.59C56.6882 116.299 56.5609 116.93 56.248 117.482C55.9385 118.03 55.4605 118.477 54.8139 118.823C54.1707 119.164 53.3775 119.376 52.4341 119.459C51.4983 119.541 50.6707 119.468 49.9513 119.242C49.2357 119.016 48.6589 118.639 48.2211 118.11C47.7866 117.578 47.5235 116.896 47.4317 116.064L49.8033 115.856C49.8637 116.242 50.0034 116.557 50.2224 116.8C50.4449 117.039 50.7279 117.211 51.0715 117.314C51.4186 117.412 51.8034 117.443 52.2261 117.406C52.6411 117.37 52.9962 117.278 53.2913 117.131C53.5902 116.983 53.8151 116.794 53.9661 116.564C54.1171 116.334 54.1804 116.08 54.1559 115.8C54.1332 115.54 54.0366 115.328 53.8664 115.164C53.7 115 53.4641 114.868 53.1589 114.77C52.8574 114.671 52.491 114.589 52.0594 114.524L50.7695 114.317C49.7713 114.165 48.9671 113.861 48.3569 113.405C47.7466 112.948 47.4059 112.292 47.3347 111.435C47.2696 110.734 47.4027 110.104 47.7342 109.546C48.0694 108.989 48.5562 108.533 49.1946 108.181C49.833 107.829 50.5748 107.615 51.42 107.541C52.2804 107.466 53.0442 107.548 53.7114 107.786C54.3824 108.024 54.9201 108.389 55.3245 108.882C55.7289 109.376 55.9669 109.967 56.0386 110.656L53.6897 110.862ZM60.3016 118.605L57.6753 118.835L60.6628 106.893L63.8212 106.616L68.8315 117.859L66.2052 118.088L62.5191 109.399L62.4285 109.407L60.3016 118.605ZM59.7388 114.063L65.9424 113.52L66.1098 115.433L59.9062 115.976L59.7388 114.063ZM67.3504 106.307L70.0956 106.067L73.1756 110.828L73.2888 110.818L75.4954 105.595L78.2406 105.355L74.6681 113.219L75.0266 117.317L72.5927 117.53L72.2342 113.432L67.3504 106.307ZM81.9405 115.115L81.9328 115.743C81.9273 116.245 81.8764 116.75 81.78 117.256C81.6877 117.766 81.5838 118.23 81.4682 118.647C81.3563 119.063 81.2652 119.391 81.1948 119.629L79.6325 119.765C79.6697 119.538 79.7198 119.22 79.7829 118.811C79.8464 118.406 79.8998 117.953 79.9434 117.451C79.9869 116.949 79.9976 116.441 79.9753 115.926L79.9482 115.289L81.9405 115.115Z" fill="#FF4122"/>
<rect x="92.4962" y="99.7272" width="125" height="20" rx="10" transform="rotate(-5 92.4962 99.7272)" fill="white"/>
<path d="M104.86 114.707L103.846 103.115L111.657 102.431L111.834 104.452L106.474 104.921L106.715 107.683L111.674 107.249L111.85 109.27L106.892 109.704L107.134 112.471L112.517 112.001L112.694 114.021L104.86 114.707ZM115.7 102.077L119.272 110.64L119.38 110.63L121.417 101.577L124.134 101.34L121.152 113.281L117.993 113.558L112.977 102.316L115.7 102.077ZM126.543 112.81L125.529 101.218L133.34 100.534L133.517 102.555L128.156 103.024L128.398 105.786L133.356 105.352L133.533 107.373L128.575 107.807L128.817 110.574L134.2 110.104L134.377 112.124L126.543 112.81ZM136.303 111.956L135.288 100.364L139.862 99.9635C140.737 99.8869 141.498 99.9782 142.144 100.237C142.794 100.492 143.306 100.89 143.68 101.432C144.058 101.969 144.281 102.621 144.348 103.387C144.415 104.157 144.307 104.833 144.023 105.417C143.74 105.997 143.295 106.462 142.691 106.811C142.09 107.16 141.345 107.374 140.454 107.452L137.392 107.72L137.22 105.75L139.886 105.517C140.354 105.476 140.737 105.378 141.035 105.222C141.333 105.067 141.546 104.854 141.675 104.584C141.807 104.314 141.857 103.989 141.823 103.608C141.79 103.223 141.684 102.905 141.506 102.654C141.332 102.403 141.082 102.224 140.757 102.115C140.436 102.003 140.039 101.967 139.567 102.008L137.915 102.153L138.753 111.741L136.303 111.956ZM142.101 106.133L145.444 111.156L142.738 111.393L139.458 106.364L142.101 106.133ZM144.587 99.5502L147.332 99.31L150.412 104.071L150.525 104.061L152.732 98.8376L155.477 98.5974L151.904 106.461L152.263 110.559L149.829 110.772L149.47 106.674L144.587 99.5502ZM157.282 100.476L157.106 98.4549L166.626 97.622L166.803 99.6427L163.254 99.9532L164.091 109.525L161.669 109.736L160.831 100.165L157.282 100.476ZM169.208 109.077L168.194 97.4848L170.645 97.2704L171.063 102.053L176.039 101.618L175.62 96.8351L178.065 96.6212L179.079 108.213L176.634 108.427L176.215 103.639L171.24 104.074L171.659 108.862L169.208 109.077ZM182.537 96.23L183.551 107.822L181.1 108.036L180.086 96.4444L182.537 96.23ZM194.249 95.2053L195.263 106.797L193.146 106.983L187.465 100.128L187.38 100.135L188.018 107.431L185.567 107.646L184.553 96.0535L186.704 95.8654L192.346 102.718L192.447 102.709L191.81 95.4187L194.249 95.2053ZM204.289 98.1027C204.185 97.8341 204.053 97.6005 203.891 97.4017C203.728 97.1992 203.537 97.0334 203.317 96.9044C203.1 96.7713 202.856 96.6767 202.585 96.6205C202.317 96.5641 202.025 96.5497 201.708 96.5774C201.116 96.6293 200.608 96.822 200.185 97.1556C199.765 97.4889 199.455 97.9475 199.256 98.5316C199.055 99.1118 198.991 99.8057 199.061 100.613C199.132 101.421 199.315 102.097 199.609 102.641C199.904 103.186 200.289 103.588 200.764 103.846C201.239 104.101 201.782 104.202 202.393 104.149C202.948 104.1 203.413 103.961 203.788 103.73C204.167 103.496 204.444 103.188 204.62 102.808C204.8 102.427 204.868 101.989 204.825 101.495L205.329 101.525L202.341 101.786L202.179 99.9412L207.03 99.5168L207.158 100.977C207.247 101.996 207.109 102.89 206.742 103.66C206.376 104.426 205.833 105.04 205.113 105.502C204.392 105.961 203.545 106.232 202.572 106.318C201.485 106.413 200.509 106.257 199.645 105.849C198.78 105.438 198.079 104.81 197.541 103.963C197.006 103.112 196.685 102.076 196.578 100.853C196.496 99.9137 196.559 99.0641 196.766 98.3045C196.977 97.5408 197.307 96.8807 197.756 96.3243C198.206 95.7679 198.747 95.327 199.38 95.0016C200.013 94.6762 200.713 94.48 201.479 94.413C202.136 94.3556 202.755 94.3983 203.338 94.5413C203.921 94.6804 204.446 94.9044 204.914 95.2133C205.386 95.5218 205.782 95.9035 206.104 96.3583C206.424 96.8093 206.65 97.3181 206.779 97.8848L204.289 98.1027Z" fill="#FF4122"/>
<rect x="1.91748" y="85.5677" width="83" height="20" rx="10" transform="rotate(-5 1.91748 85.5677)" fill="white"/>
<path d="M21.2816 92.0297C21.1782 91.7611 21.0456 91.5275 20.8838 91.3287C20.7215 91.1262 20.5302 90.9604 20.3098 90.8314C20.0928 90.6983 19.8488 90.6036 19.5777 90.5475C19.3104 90.4911 19.0183 90.4767 18.7013 90.5044C18.1089 90.5562 17.601 90.749 17.1777 91.0826C16.7582 91.4159 16.4485 91.8745 16.2487 92.4586C16.0485 93.0388 15.9837 93.7327 16.0544 94.5402C16.125 95.3478 16.3077 96.0238 16.6025 96.5684C16.8973 97.1129 17.2823 97.5146 17.7574 97.7734C18.2322 98.0285 18.7753 98.1293 19.3866 98.0758C19.9413 98.0272 20.4062 97.8877 20.7815 97.6572C21.1602 97.4225 21.4375 97.115 21.6134 96.7346C21.793 96.3538 21.8612 95.9163 21.8179 95.422L22.3225 95.452L19.3339 95.7134L19.1724 93.8682L24.0232 93.4438L24.151 94.9041C24.2401 95.923 24.1016 96.8172 23.7355 97.5869C23.369 98.3528 22.8258 98.9669 22.1058 99.4292C21.3854 99.8876 20.5385 100.159 19.5649 100.245C18.4781 100.34 17.5025 100.184 16.638 99.7764C15.7731 99.3653 15.0717 98.7366 14.5337 97.8901C13.9992 97.0395 13.6785 96.0029 13.5715 94.7803C13.4893 93.8407 13.5519 92.9911 13.7592 92.2315C13.9699 91.4678 14.3 90.8077 14.7495 90.2513C15.1989 89.6949 15.7402 89.254 16.3733 88.9286C17.0065 88.6032 17.706 88.407 18.4721 88.34C19.1286 88.2826 19.7484 88.3253 20.3312 88.4683C20.9137 88.6074 21.439 88.8314 21.9071 89.1403C22.379 89.4488 22.7755 89.8305 23.0967 90.2853C23.4175 90.7363 23.6427 91.2451 23.7721 91.8118L21.2816 92.0297ZM36.5524 92.7583C36.6629 94.0224 36.5174 95.1188 36.1158 96.0475C35.7179 96.9759 35.1281 97.71 34.3464 98.2499C33.5682 98.7857 32.6678 99.0983 31.6452 99.1877C30.615 99.2779 29.6701 99.1248 28.8103 98.7285C27.9505 98.3323 27.2441 97.7115 26.691 96.8664C26.138 96.0212 25.8064 94.9684 25.6961 93.7081C25.5855 92.444 25.7291 91.3478 26.127 90.4194C26.5249 89.491 27.1129 88.759 27.8912 88.2232C28.6691 87.6836 29.5731 87.3688 30.6033 87.2787C31.6259 87.1892 32.5671 87.3426 33.4269 87.7389C34.2901 88.1311 34.9982 88.7497 35.5512 89.5949C36.1081 90.4397 36.4418 91.4942 36.5524 92.7583ZM34.0675 92.9757C33.9959 92.1569 33.8128 91.477 33.5184 90.9363C33.2277 90.3951 32.8489 89.9986 32.382 89.7467C31.915 89.4948 31.3854 89.3947 30.7929 89.4465C30.2005 89.4984 29.6962 89.6889 29.2802 90.0181C28.8641 90.3472 28.558 90.8037 28.3619 91.3874C28.1696 91.9708 28.1093 92.6719 28.1809 93.4907C28.2526 94.3096 28.4337 94.9895 28.7244 95.5307C29.0189 96.0714 29.3996 96.4678 29.8665 96.7197C30.3334 96.9717 30.8631 97.0717 31.4555 97.0199C32.0479 96.9681 32.5522 96.7775 32.9683 96.4484C33.3844 96.1192 33.6885 95.6629 33.8809 95.0795C34.0769 94.4958 34.1392 93.7945 34.0675 92.9757ZM40.3116 86.589L41.3258 98.1811L38.8749 98.3955L37.8608 86.8034L40.3116 86.589ZM52.024 85.5643L53.0382 97.1564L50.9213 97.3416L45.2397 90.4868L45.1548 90.4943L45.7931 97.7903L43.3423 98.0047L42.3281 86.4126L44.479 86.2244L50.1204 93.077L50.2223 93.0681L49.5845 85.7777L52.024 85.5643ZM62.0633 88.4617C61.96 88.1932 61.8274 87.9595 61.6655 87.7608C61.5033 87.5582 61.312 87.3925 61.0915 87.2634C60.8746 87.1303 60.6305 87.0357 60.3595 86.9796C60.0922 86.9231 59.8 86.9087 59.4831 86.9365C58.8906 86.9883 58.3828 87.181 57.9595 87.5146C57.54 87.8479 57.2303 88.3066 57.0304 88.8906C56.8302 89.4709 56.7654 90.1648 56.8361 90.9723C56.9067 91.7798 57.0895 92.4559 57.3843 93.0004C57.6791 93.545 58.064 93.9467 58.5391 94.2055C59.0139 94.4605 59.557 94.5613 60.1683 94.5078C60.723 94.4593 61.188 94.3198 61.5632 94.0892C61.942 93.8546 62.2192 93.547 62.3951 93.1666C62.5747 92.7859 62.6429 92.3483 62.5996 91.854L63.1042 91.884L60.1156 92.1455L59.9542 90.3003L64.8049 89.8759L64.9327 91.3362C65.0218 92.355 64.8834 93.2493 64.5172 94.019C64.1508 94.7849 63.6075 95.399 62.8875 95.8612C62.1671 96.3197 61.3202 96.5915 60.3466 96.6767C59.2599 96.7718 58.2842 96.6157 57.4197 96.2084C56.5548 95.7974 55.8534 95.1686 55.3154 94.3221C54.7809 93.4715 54.4602 92.4349 54.3532 91.2123C54.271 90.2727 54.3336 89.4232 54.5409 88.6636C54.7517 87.8999 55.0818 87.2398 55.5312 86.6834C55.9806 86.1269 56.5219 85.686 57.155 85.3607C57.7882 85.0353 58.4878 84.8391 59.2538 84.7721C59.9104 84.7146 60.5301 84.7574 61.1129 84.9003C61.6955 85.0395 62.2208 85.2635 62.6889 85.5723C63.1607 85.8809 63.5572 86.2625 63.8784 86.7173C64.1992 87.1684 64.4244 87.6772 64.5538 88.2438L62.0633 88.4617ZM68.911 92.2657L68.8941 92.0733C68.8401 91.4126 68.8526 90.8811 68.9314 90.4787C69.0141 90.0761 69.1562 89.7442 69.3577 89.4833C69.5592 89.2223 69.8079 88.98 70.104 88.7564C70.3247 88.585 70.5204 88.41 70.6911 88.2316C70.8618 88.0532 70.9933 87.8611 71.0856 87.6553C71.1775 87.4457 71.2128 87.2183 71.1913 86.973C71.1685 86.7126 71.0863 86.4898 70.9446 86.3045C70.8029 86.1191 70.6218 85.9829 70.4012 85.8957C70.1844 85.8082 69.9496 85.7755 69.6968 85.7976C69.4515 85.8191 69.2243 85.8941 69.015 86.0227C68.8054 86.1475 68.64 86.3217 68.5189 86.5452C68.3974 86.765 68.3445 87.03 68.3603 87.3405L66.0509 87.5425C66.0038 86.7861 66.1304 86.1477 66.4309 85.6271C66.731 85.1027 67.1535 84.695 67.6984 84.404C68.243 84.1092 68.8568 83.9319 69.5398 83.8722C70.2907 83.8065 70.9657 83.8729 71.5648 84.0714C72.1636 84.2662 72.6477 84.5832 73.0169 85.0224C73.3861 85.4616 73.5996 86.0113 73.6574 86.6717C73.696 87.1132 73.6568 87.5121 73.5396 87.8683C73.426 88.2205 73.2505 88.54 73.0132 88.8269C72.7756 89.1101 72.4887 89.3728 72.1525 89.6152C71.8699 89.8186 71.6408 90.025 71.4652 90.2343C71.2934 90.4432 71.1714 90.6782 71.0991 90.9393C71.0307 91.2 71.0108 91.5155 71.0393 91.8856L71.0562 92.0781L68.911 92.2657ZM70.3486 95.7902C69.9713 95.8232 69.6371 95.7194 69.3461 95.4787C69.0585 95.2339 68.9002 94.9245 68.8713 94.5506C68.8352 94.1812 68.9376 93.8528 69.1787 93.5655C69.4235 93.278 69.7346 93.1177 70.1119 93.0846C70.4704 93.0533 70.797 93.1578 71.0918 93.3982C71.3866 93.6385 71.5521 93.9435 71.5882 94.3129C71.6062 94.5623 71.5602 94.7964 71.45 95.0151C71.3433 95.2298 71.1935 95.4083 71.0007 95.5507C70.8075 95.6892 70.5901 95.7691 70.3486 95.7902Z" fill="#FF4122"/>
<rect x="94.5636" y="77.4623" width="64" height="20" rx="10" transform="rotate(-5 94.5636 77.4623)" fill="white"/>
<path d="M109.537 92.2134L105.206 80.9115L107.883 80.6773L110.507 88.5639L110.603 88.5555L112.015 80.3158L114.307 80.1152L117.125 88.002L117.227 87.9931L118.439 79.7537L121.117 79.5195L118.814 91.4018L116.425 91.6108L113.555 84.2249L113.464 84.2328L111.925 92.0044L109.537 92.2134ZM124.879 79.1903L125.893 90.7824L123.443 90.9968L122.428 79.4047L124.879 79.1903ZM126.631 81.0732L126.454 79.0525L135.975 78.2196L136.151 80.2403L132.602 80.5508L133.44 90.1222L131.017 90.3341L130.18 80.7627L126.631 81.0732ZM138.557 89.6745L137.543 78.0824L139.993 77.868L140.412 82.6509L145.387 82.2156L144.969 77.4327L147.414 77.2188L148.428 88.8109L145.983 89.0248L145.564 84.2363L140.589 84.6716L141.008 89.4601L138.557 89.6745Z" fill="#FF4122"/>
<rect y="63.6514" width="58" height="20" rx="10" transform="rotate(-5 0 63.6514)" fill="white"/>
<path d="M12.3639 78.6308L11.3497 67.0387L13.8006 66.8243L14.219 71.6072L19.1944 71.1719L18.7759 66.389L21.2211 66.1751L22.2353 77.7672L19.7901 77.9811L19.3711 73.1926L14.3958 73.6278L14.8148 78.4164L12.3639 78.6308ZM24.256 77.5904L23.2418 65.9983L31.0529 65.3149L31.2297 67.3356L25.8695 67.8046L26.1111 70.5667L31.0695 70.1329L31.2462 72.1536L26.2879 72.5874L26.5301 75.3553L31.9129 74.8843L32.0897 76.905L24.256 77.5904ZM32.3222 65.2039L35.0674 64.9637L38.1475 69.7247L38.2607 69.7148L40.4672 64.4913L43.2124 64.2511L39.6399 72.1151L39.9984 76.2131L37.5645 76.426L37.206 72.328L32.3222 65.2039ZM46.9124 74.0112L46.9046 74.6393C46.8991 75.1417 46.8482 75.6461 46.7518 76.1527C46.6595 76.6627 46.5556 77.1261 46.44 77.5431C46.3281 77.9597 46.237 78.2871 46.1666 78.5252L44.6044 78.6619C44.6415 78.4343 44.6916 78.1162 44.7547 77.7076C44.8182 77.3028 44.8717 76.8495 44.9152 76.3476C44.9587 75.8457 44.9694 75.3371 44.9471 74.8219L44.92 74.1855L46.9124 74.0112Z" fill="#FF4122"/>
<rect x="58" y="58.6743" width="75" height="20" rx="10" transform="rotate(-5 58 58.6743)" fill="white"/>
<path d="M70.3639 73.6537L69.3497 62.0617L71.8006 61.8472L72.219 66.6301L77.1944 66.1948L76.7759 61.412L79.2211 61.198L80.2353 72.7901L77.7901 73.004L77.3711 68.2155L72.3958 68.6508L72.8148 73.4393L70.3639 73.6537ZM92.4014 65.8853C92.512 67.1494 92.3665 68.2458 91.9648 69.1745C91.5669 70.1029 90.9772 70.837 90.1955 71.3769C89.4172 71.9126 88.5168 72.2253 87.4942 72.3147C86.4641 72.4049 85.5191 72.2518 84.6593 71.8555C83.7995 71.4592 83.0931 70.8385 82.5401 69.9934C81.987 69.1482 81.6554 68.0954 81.5451 66.8351C81.4345 65.571 81.5782 64.4748 81.976 63.5464C82.3739 62.618 82.962 61.886 83.7402 61.3502C84.5181 60.8106 85.4222 60.4958 86.4523 60.4057C87.4749 60.3162 88.4161 60.4696 89.2759 60.8659C90.1391 61.258 90.8472 61.8767 91.4003 62.7219C91.9571 63.5667 92.2908 64.6212 92.4014 65.8853ZM89.9166 66.1027C89.8449 65.2839 89.6619 64.604 89.3674 64.0633C89.0767 63.5221 88.6979 63.1256 88.231 62.8737C87.7641 62.6218 87.2344 62.5217 86.642 62.5735C86.0495 62.6254 85.5453 62.8159 85.1292 63.1451C84.7131 63.4742 84.4071 63.9307 84.211 64.5144C84.0187 65.0978 83.9583 65.7989 84.03 66.6177C84.1016 67.4366 84.2828 68.1165 84.5735 68.6576C84.8679 69.1984 85.2486 69.5948 85.7155 69.8467C86.1824 70.0987 86.7121 70.1987 87.3046 70.1469C87.897 70.095 88.4012 69.9045 88.8173 69.5754C89.2334 69.2462 89.5376 68.7899 89.7299 68.2065C89.926 67.6228 89.9882 66.9215 89.9166 66.1027ZM96.8975 71.3324L92.5664 60.0305L95.2437 59.7962L97.8672 67.6828L97.9634 67.6744L99.3757 59.4347L101.668 59.2342L104.485 67.1209L104.587 67.112L105.8 58.8727L108.477 58.6384L106.175 70.5207L103.786 70.7297L100.915 63.3438L100.825 63.3517L99.2861 71.1234L96.8975 71.3324ZM111.295 58.392L111.68 62.7956L109.959 62.9461L109.574 58.5425L111.295 58.392ZM119.7 61.0159C119.615 60.5633 119.39 60.2256 119.024 60.0028C118.659 59.78 118.182 59.6944 117.593 59.7459C117.193 59.7809 116.86 59.8671 116.595 60.0044C116.329 60.1379 116.131 60.3092 116.001 60.5183C115.874 60.7271 115.822 60.956 115.844 61.205C115.855 61.4132 115.914 61.5905 116.022 61.737C116.133 61.8831 116.279 62.0054 116.459 62.1037C116.638 62.1983 116.843 62.2773 117.073 62.3409C117.302 62.4007 117.546 62.4478 117.804 62.4823L118.867 62.6402C119.383 62.7092 119.86 62.8195 120.299 62.9712C120.738 63.1229 121.124 63.3229 121.458 63.5713C121.792 63.8197 122.06 64.1233 122.262 64.482C122.468 64.8404 122.594 65.2609 122.64 65.7436C122.699 66.4533 122.571 67.0842 122.259 67.6363C121.949 68.1843 121.471 68.6311 120.824 68.9767C120.181 69.3181 119.388 69.5301 118.445 69.6126C117.509 69.6945 116.681 69.6224 115.962 69.3964C115.246 69.17 114.669 68.7927 114.232 68.2645C113.797 67.7321 113.534 67.0498 113.442 66.2175L115.814 66.01C115.874 66.3964 116.014 66.7112 116.233 66.9544C116.455 67.1935 116.738 67.3645 117.082 67.4675C117.429 67.5665 117.814 67.5974 118.237 67.5604C118.652 67.5241 119.007 67.4322 119.302 67.2847C119.601 67.1369 119.826 66.948 119.977 66.7181C120.128 66.4881 120.191 66.2336 120.166 65.9543C120.144 65.6939 120.047 65.4819 119.877 65.318C119.711 65.1539 119.475 65.0224 119.169 64.9237C118.868 64.8246 118.501 64.7425 118.07 64.6776L116.78 64.4711C115.782 64.3189 114.978 64.0147 114.367 63.5586C113.757 63.1025 113.416 62.4459 113.345 61.589C113.28 60.8875 113.413 60.258 113.745 59.7004C114.08 59.1426 114.567 58.6874 115.205 58.335C115.843 57.9826 116.585 57.7694 117.431 57.6954C118.291 57.6202 119.055 57.7016 119.722 57.9398C120.393 58.1777 120.931 58.5432 121.335 59.0364C121.739 59.5295 121.977 60.1209 122.049 60.8104L119.7 61.0159Z" fill="#FF4122"/>
<rect x="132.715" y="52.1376" width="36" height="20" rx="10" transform="rotate(-5 132.715 52.1376)" fill="white"/>
<path d="M146.515 55.3105L147.529 66.9026L145.079 67.117L144.064 55.5249L146.515 55.3105ZM148.267 57.1934L148.09 55.1727L157.611 54.3398L157.787 56.3605L154.238 56.671L155.076 66.2423L152.653 66.4543L151.816 56.8829L148.267 57.1934Z" fill="#FF4122"/>
<path d="M51.0665 25.403C51.1868 26.7785 50.1694 27.991 48.7939 28.1114C47.4184 28.2317 46.2059 27.2142 46.0855 25.8388L45.214 15.8768C45.0936 14.5014 46.1111 13.2888 47.4866 13.1685C48.862 13.0481 50.0746 14.0656 50.1949 15.441L51.0665 25.403Z" fill="white"/>
<path d="M40.7184 33.3351C40.8388 34.7105 42.0514 35.728 43.4268 35.6076C44.8023 35.4873 45.8198 34.2747 45.6994 32.8993L43.5205 7.99441C43.4002 6.61895 42.1876 5.60147 40.8121 5.72181C39.4367 5.84214 38.4192 7.05473 38.5395 8.43018L40.7184 33.3351Z" fill="white"/>
<path d="M15.2035 28.5406C15.3238 29.916 14.3063 31.1286 12.9309 31.2489C11.5554 31.3693 10.3428 30.3518 10.2225 28.9763L9.35093 19.0144C9.23059 17.6389 10.2481 16.4264 11.6235 16.306C12.999 16.1857 14.2116 17.2032 14.3319 18.5786L15.2035 28.5406Z" fill="white"/>
<path d="M34.1808 38.926C34.3012 40.3015 33.2837 41.5141 31.9082 41.6344C30.5328 41.7547 29.3202 40.7373 29.1998 39.3618L26.1494 4.49499C26.0291 3.11953 27.0465 1.90695 28.422 1.78662C29.7974 1.66628 31.01 2.68376 31.1304 4.05921L34.1808 38.926Z" fill="white"/>
<path d="M39.3736 29.4374C39.4939 30.8129 38.4765 32.0254 37.101 32.1458C35.7256 32.2661 34.513 31.2486 34.3926 29.8732L32.911 12.9379C32.7907 11.5624 33.8081 10.3498 35.1836 10.2295C36.559 10.1091 37.7716 11.1266 37.892 12.5021L39.3736 29.4374Z" fill="white"/>
<path d="M21.7907 34.9909C21.911 36.3664 20.8936 37.579 19.5181 37.6993C18.1426 37.8196 16.9301 36.8022 16.8097 35.4267L14.6308 10.5218C14.5105 9.14639 15.528 7.93381 16.9034 7.81347C18.2789 7.69313 19.4915 8.71061 19.6118 10.0861L21.7907 34.9909Z" fill="white"/>
<path d="M27.4193 30.4833C27.5396 31.8587 26.5221 33.0713 25.1467 33.1917C23.7712 33.312 22.5586 32.2945 22.4383 30.9191L20.9566 13.9838C20.8363 12.6083 21.8538 11.3957 23.2292 11.2754C24.6047 11.155 25.8173 12.1725 25.9376 13.548L27.4193 30.4833Z" fill="white"/>
</svg>
