<svg width="225" height="149" viewBox="0 0 225 149" fill="none" xmlns="http://www.w3.org/2000/svg">
<rect x="9.58716" y="128.233" width="127" height="20" rx="10" transform="rotate(-5 9.58716 128.233)" fill="white"/>
<path d="M21.9511 143.212L20.9369 131.62L28.748 130.937L28.9248 132.958L23.5645 133.426L23.8062 136.189L28.7645 135.755L28.9413 137.776L23.983 138.209L24.2251 140.977L29.608 140.506L29.7848 142.527L21.9511 143.212ZM31.7107 142.358L30.6965 130.766L38.3717 130.095L38.5485 132.116L33.3241 132.573L33.5658 135.335L38.2807 134.922L38.4575 136.943L33.7426 137.355L34.1615 142.144L31.7107 142.358ZM41.0344 141.543L40.0202 129.951L47.6955 129.279L47.8723 131.3L42.6479 131.757L42.8896 134.519L47.6045 134.107L47.7813 136.127L43.0663 136.54L43.4853 141.328L41.0344 141.543ZM60.5036 133.999C60.6142 135.263 60.4687 136.359 60.067 137.288C59.6691 138.217 59.0794 138.951 58.2977 139.491C57.5194 140.026 56.619 140.339 55.5964 140.428C54.5663 140.519 53.6213 140.365 52.7615 139.969C51.9017 139.573 51.1953 138.952 50.6423 138.107C50.0892 137.262 49.7576 136.209 49.6473 134.949C49.5367 133.685 49.6804 132.588 50.0782 131.66C50.4761 130.732 51.0642 130 51.8424 129.464C52.6203 128.924 53.5243 128.609 54.5545 128.519C55.5771 128.43 56.5183 128.583 57.3781 128.98C58.2413 129.372 58.9494 129.99 59.5025 130.836C60.0593 131.68 60.393 132.735 60.5036 133.999ZM58.0188 134.216C57.9471 133.398 57.7641 132.718 57.4696 132.177C57.1789 131.636 56.8001 131.239 56.3332 130.987C55.8663 130.735 55.3366 130.635 54.7442 130.687C54.1517 130.739 53.6475 130.93 53.2314 131.259C52.8153 131.588 52.5092 132.044 52.3132 132.628C52.1209 133.211 52.0605 133.913 52.1322 134.731C52.2038 135.55 52.385 136.23 52.6757 136.771C52.9701 137.312 53.3508 137.708 53.8177 137.96C54.2846 138.212 54.8143 138.312 55.4067 138.261C55.9992 138.209 56.5034 138.018 56.9195 137.689C57.3356 137.36 57.6398 136.904 57.8321 136.32C58.0282 135.736 58.0904 135.035 58.0188 134.216ZM62.8262 139.636L61.812 128.044L66.3854 127.644C67.2609 127.567 68.0217 127.659 68.668 127.918C69.3177 128.173 69.8297 128.571 70.2041 129.112C70.5819 129.65 70.8043 130.301 70.8713 131.067C70.9387 131.837 70.8306 132.514 70.547 133.097C70.2632 133.677 69.819 134.142 69.2146 134.492C68.614 134.841 67.8684 135.054 66.9778 135.132L63.9157 135.4L63.7433 133.43L66.4093 133.197C66.8772 133.156 67.2603 133.058 67.5585 132.903C67.8567 132.747 68.07 132.535 68.1985 132.265C68.3308 131.995 68.3802 131.669 68.3469 131.288C68.3132 130.903 68.2075 130.585 68.0296 130.335C67.8556 130.084 67.606 129.904 67.2809 129.796C66.9593 129.683 66.5626 129.648 66.091 129.689L64.4382 129.833L65.277 139.422L62.8262 139.636ZM68.6248 133.813L71.9674 138.836L69.2618 139.073L65.9815 134.044L68.6248 133.813ZM72.0073 129.188L71.8306 127.168L81.351 126.335L81.5278 128.355L77.9789 128.666L78.8162 138.237L76.3937 138.449L75.5563 128.878L72.0073 129.188ZM83.9331 137.79L82.9189 126.197L85.3697 125.983L86.2071 135.554L91.1768 135.12L91.3536 137.14L83.9331 137.79ZM92.9766 136.998L91.9625 125.406L99.7735 124.723L99.9503 126.744L94.5901 127.213L94.8318 129.975L99.7901 129.541L99.9669 131.562L95.0086 131.995L95.2507 134.763L100.634 134.292L100.81 136.313L92.9766 136.998ZM108.302 127.336C108.217 126.883 107.992 126.546 107.626 126.323C107.261 126.1 106.784 126.015 106.195 126.066C105.795 126.101 105.462 126.187 105.197 126.325C104.931 126.458 104.733 126.629 104.603 126.838C104.476 127.047 104.424 127.276 104.446 127.525C104.457 127.733 104.516 127.911 104.624 128.057C104.735 128.203 104.881 128.326 105.061 128.424C105.24 128.518 105.445 128.598 105.675 128.661C105.904 128.721 106.148 128.768 106.406 128.802L107.469 128.96C107.985 129.029 108.462 129.14 108.901 129.291C109.34 129.443 109.727 129.643 110.06 129.892C110.394 130.14 110.662 130.443 110.864 130.802C111.07 131.161 111.196 131.581 111.242 132.064C111.301 132.773 111.173 133.404 110.861 133.957C110.551 134.505 110.073 134.951 109.426 135.297C108.783 135.638 107.99 135.85 107.047 135.933C106.111 136.015 105.283 135.943 104.564 135.717C103.848 135.49 103.271 135.113 102.834 134.585C102.399 134.052 102.136 133.37 102.044 132.538L104.416 132.33C104.476 132.717 104.616 133.031 104.835 133.275C105.057 133.514 105.34 133.685 105.684 133.788C106.031 133.887 106.416 133.918 106.839 133.881C107.254 133.844 107.609 133.752 107.904 133.605C108.203 133.457 108.428 133.268 108.579 133.038C108.73 132.808 108.793 132.554 108.768 132.274C108.746 132.014 108.649 131.802 108.479 131.638C108.313 131.474 108.077 131.343 107.771 131.244C107.47 131.145 107.104 131.063 106.672 130.998L105.382 130.791C104.384 130.639 103.58 130.335 102.969 129.879C102.359 129.423 102.018 128.766 101.947 127.909C101.882 127.208 102.015 126.578 102.347 126.021C102.682 125.463 103.169 125.008 103.807 124.655C104.446 124.303 105.187 124.09 106.033 124.016C106.893 123.94 107.657 124.022 108.324 124.26C108.995 124.498 109.533 124.863 109.937 125.357C110.341 125.85 110.579 126.441 110.651 127.131L108.302 127.336ZM118.747 126.422C118.661 125.97 118.436 125.632 118.071 125.409C117.705 125.186 117.228 125.101 116.639 125.152C116.239 125.187 115.907 125.273 115.641 125.411C115.375 125.544 115.177 125.716 115.047 125.925C114.921 126.133 114.869 126.362 114.891 126.611C114.901 126.82 114.96 126.997 115.068 127.143C115.18 127.29 115.326 127.412 115.505 127.51C115.685 127.605 115.889 127.684 116.119 127.747C116.349 127.807 116.592 127.854 116.85 127.889L117.913 128.047C118.429 128.116 118.906 128.226 119.346 128.378C119.785 128.529 120.171 128.729 120.505 128.978C120.838 129.226 121.106 129.53 121.309 129.888C121.515 130.247 121.641 130.667 121.687 131.15C121.745 131.86 121.618 132.491 121.305 133.043C120.996 133.591 120.518 134.038 119.871 134.383C119.228 134.725 118.435 134.936 117.491 135.019C116.555 135.101 115.728 135.029 115.008 134.803C114.293 134.576 113.716 134.199 113.278 133.671C112.844 133.139 112.581 132.456 112.489 131.624L114.86 131.416C114.921 131.803 115.06 132.118 115.279 132.361C115.502 132.6 115.785 132.771 116.129 132.874C116.476 132.973 116.86 133.004 117.283 132.967C117.698 132.931 118.053 132.839 118.348 132.691C118.647 132.543 118.872 132.354 119.023 132.124C119.174 131.895 119.237 131.64 119.213 131.361C119.19 131.1 119.094 130.888 118.923 130.724C118.757 130.56 118.521 130.429 118.216 130.33C117.914 130.231 117.548 130.149 117.116 130.084L115.826 129.878C114.828 129.725 114.024 129.421 113.414 128.965C112.804 128.509 112.463 127.852 112.392 126.995C112.327 126.294 112.46 125.664 112.791 125.107C113.126 124.549 113.613 124.094 114.252 123.741C114.89 123.389 115.632 123.176 116.477 123.102C117.337 123.027 118.101 123.108 118.768 123.346C119.439 123.584 119.977 123.95 120.382 124.443C120.786 124.936 121.024 125.527 121.096 126.217L118.747 126.422ZM125.002 134.345C124.629 134.377 124.296 134.273 124.005 134.033C123.718 133.788 123.558 133.479 123.525 133.105C123.493 132.735 123.597 132.407 123.838 132.12C124.083 131.832 124.392 131.672 124.765 131.639C125.128 131.608 125.456 131.712 125.751 131.952C126.046 132.193 126.209 132.498 126.242 132.867C126.264 133.117 126.219 133.35 126.109 133.569C126.003 133.784 125.853 133.962 125.66 134.105C125.467 134.243 125.247 134.323 125.002 134.345Z" fill="#FF4122"/>
<rect x="7.6698" y="106.316" width="66" height="20" rx="10" transform="rotate(-5 7.6698 106.316)" fill="white"/>
<path d="M20.0337 121.296L19.0195 109.704L26.6948 109.032L26.8716 111.053L21.6472 111.51L21.8888 114.272L26.6038 113.86L26.7806 115.88L22.0656 116.293L22.4846 121.081L20.0337 121.296ZM29.9079 120.432L27.2816 120.662L30.2692 108.72L33.4276 108.443L38.4378 119.686L35.8115 119.916L32.1254 111.226L32.0348 111.234L29.9079 120.432ZM29.3451 115.89L35.5487 115.347L35.7161 117.26L29.5125 117.803L29.3451 115.89ZM45.1344 110.778C45.0492 110.326 44.8239 109.988 44.4583 109.765C44.0928 109.543 43.6158 109.457 43.0271 109.508C42.6271 109.543 42.2943 109.63 42.0288 109.767C41.7629 109.9 41.5649 110.072 41.4349 110.281C41.3087 110.49 41.2565 110.718 41.2783 110.968C41.2889 111.176 41.3481 111.353 41.456 111.5C41.5677 111.646 41.7133 111.768 41.8931 111.866C42.0724 111.961 42.2771 112.04 42.507 112.103C42.7365 112.163 42.9802 112.21 43.238 112.245L44.3012 112.403C44.8168 112.472 45.2941 112.582 45.7333 112.734C46.1724 112.885 46.5587 113.085 46.8923 113.334C47.2258 113.582 47.4938 113.886 47.6963 114.244C47.9025 114.603 48.0287 115.023 48.0747 115.506C48.133 116.216 48.0057 116.847 47.6928 117.399C47.3833 117.947 46.9053 118.394 46.2587 118.739C45.6155 119.081 44.8223 119.293 43.8789 119.375C42.9431 119.457 42.1155 119.385 41.3961 119.159C40.6804 118.933 40.1037 118.555 39.6658 118.027C39.2314 117.495 38.9683 116.812 38.8765 115.98L41.2481 115.773C41.3085 116.159 41.4482 116.474 41.6672 116.717C41.8897 116.956 42.1727 117.127 42.5163 117.23C42.8634 117.329 43.2482 117.36 43.6709 117.323C44.0859 117.287 44.441 117.195 44.7361 117.047C45.035 116.899 45.2599 116.711 45.4109 116.481C45.5619 116.251 45.6251 115.996 45.6007 115.717C45.5779 115.456 45.4814 115.244 45.3112 115.081C45.1448 114.916 44.9089 114.785 44.6037 114.686C44.3022 114.587 43.9357 114.505 43.5042 114.44L42.2142 114.234C41.2161 114.081 40.4119 113.777 39.8017 113.321C39.1914 112.865 38.8507 112.208 38.7795 111.352C38.7144 110.65 38.8475 110.02 39.1789 109.463C39.5142 108.905 40.001 108.45 40.6394 108.098C41.2777 107.745 42.0196 107.532 42.8648 107.458C43.7252 107.383 44.489 107.464 45.1562 107.702C45.8272 107.94 46.3649 108.306 46.7693 108.799C47.1736 109.292 47.4117 109.883 47.4834 110.573L45.1344 110.778ZM48.7341 109.14L48.5573 107.12L58.0777 106.287L58.2545 108.307L54.7056 108.618L55.543 118.189L53.1204 118.401L52.283 108.83L48.7341 109.14ZM62.5517 115.979L62.5439 116.607C62.5384 117.11 62.4875 117.614 62.3912 118.121C62.2989 118.631 62.1949 119.094 62.0793 119.511C61.9675 119.928 61.8764 120.255 61.8059 120.493L60.2437 120.63C60.2808 120.402 60.331 120.084 60.3941 119.676C60.4575 119.271 60.511 118.817 60.5546 118.315C60.5981 117.814 60.6087 117.305 60.5865 116.79L60.5593 116.153L62.5517 115.979Z" fill="#FF4122"/>
<rect x="157.099" y="93.2431" width="56" height="20" rx="10" transform="rotate(-5 157.099 93.2431)" fill="white"/>
<path d="M171.461 108.048L168.835 108.278L171.822 96.3353L174.981 96.059L179.991 107.301L177.365 107.531L173.678 98.8422L173.588 98.8501L171.461 108.048ZM170.898 103.506L177.102 102.963L177.269 104.876L171.066 105.419L170.898 103.506ZM190.068 94.739L191.082 106.331L188.965 106.516L183.284 99.6616L183.199 99.669L183.837 106.965L181.386 107.179L180.372 95.5873L182.523 95.3991L188.164 102.252L188.266 102.243L187.628 94.9525L190.068 94.739ZM197.216 105.794L193.107 106.154L192.093 94.5619L196.236 94.1994C197.402 94.0974 198.426 94.2416 199.308 94.6322C200.19 95.0189 200.895 95.6245 201.423 96.449C201.956 97.2732 202.274 98.2872 202.38 99.4909C202.485 100.698 202.348 101.756 201.967 102.664C201.59 103.571 200.998 104.294 200.189 104.833C199.385 105.371 198.394 105.691 197.216 105.794ZM195.374 103.84L196.931 103.703C197.655 103.64 198.253 103.458 198.725 103.159C199.201 102.855 199.539 102.42 199.74 101.855C199.945 101.286 200.01 100.569 199.935 99.7048C199.86 98.8482 199.672 98.1593 199.372 97.6381C199.075 97.1165 198.668 96.749 198.152 96.5357C197.635 96.3223 197.014 96.2473 196.29 96.3107L194.727 96.4474L195.374 103.84Z" fill="#FF4122"/>
<rect x="73.4186" y="100.564" width="84" height="20" rx="10" transform="rotate(-5 73.4186 100.564)" fill="white"/>
<path d="M91.3485 106.735C91.2632 106.283 91.0379 105.945 90.6724 105.722C90.3069 105.499 89.8298 105.414 89.2411 105.465C88.8411 105.5 88.5084 105.586 88.2428 105.724C87.9769 105.857 87.779 106.029 87.649 106.238C87.5227 106.446 87.4705 106.675 87.4923 106.924C87.5029 107.133 87.5622 107.31 87.67 107.456C87.7817 107.603 87.9274 107.725 88.1071 107.823C88.2865 107.918 88.4911 107.997 88.721 108.06C88.9506 108.12 89.1942 108.167 89.452 108.202L90.5153 108.36C91.0308 108.429 91.5082 108.539 91.9473 108.691C92.3864 108.842 92.7728 109.042 93.1063 109.291C93.4398 109.539 93.7078 109.843 93.9103 110.201C94.1166 110.56 94.2427 110.98 94.2887 111.463C94.347 112.173 94.2197 112.804 93.9068 113.356C93.5973 113.904 93.1193 114.35 92.4727 114.696C91.8296 115.037 91.0363 115.249 90.0929 115.332C89.1571 115.414 88.3295 115.342 87.6101 115.116C86.8945 114.889 86.3177 114.512 85.8799 113.984C85.4454 113.451 85.1823 112.769 85.0905 111.937L87.4621 111.729C87.5225 112.116 87.6623 112.431 87.8813 112.674C88.1037 112.913 88.3867 113.084 88.7303 113.187C89.0774 113.286 89.4623 113.317 89.8849 113.28C90.3 113.244 90.655 113.152 90.9501 113.004C91.249 112.856 91.4739 112.667 91.6249 112.437C91.7759 112.208 91.8392 111.953 91.8147 111.674C91.792 111.413 91.6955 111.201 91.5252 111.037C91.3588 110.873 91.1229 110.742 90.8177 110.643C90.5163 110.544 90.1498 110.462 89.7182 110.397L88.4283 110.19C87.4301 110.038 86.6259 109.734 86.0157 109.278C85.4054 108.822 85.0647 108.165 84.9936 107.308C84.9284 106.607 85.0615 105.977 85.393 105.42C85.7282 104.862 86.215 104.407 86.8534 104.054C87.4918 103.702 88.2336 103.489 89.0788 103.415C89.9392 103.34 90.703 103.421 91.3702 103.659C92.0412 103.897 92.5789 104.263 92.9833 104.756C93.3877 105.249 93.6257 105.84 93.6974 106.53L91.3485 106.735ZM97.6637 102.823L98.6778 114.416L96.227 114.63L95.2128 103.038L97.6637 102.823ZM99.6801 102.647L102.703 102.383L106.576 109.892L106.712 109.88L109.223 101.812L112.246 101.548L113.26 113.14L110.883 113.348L110.223 105.803L110.126 105.811L107.782 113.562L106.163 113.704L102.505 106.449L102.409 106.458L103.072 114.031L100.694 114.239L99.6801 102.647ZM115.279 112.963L114.265 101.371L118.838 100.971C119.718 100.894 120.481 100.996 121.13 101.278C121.778 101.556 122.29 101.977 122.666 102.541C123.046 103.101 123.269 103.766 123.337 104.536C123.404 105.305 123.297 105.999 123.017 106.617C122.736 107.235 122.295 107.735 121.694 108.119C121.096 108.502 120.352 108.732 119.462 108.81L116.547 109.065L116.375 107.101L118.894 106.881C119.365 106.839 119.747 106.724 120.038 106.535C120.333 106.342 120.543 106.094 120.669 105.79C120.798 105.482 120.846 105.138 120.812 104.756C120.779 104.372 120.672 104.042 120.492 103.769C120.316 103.492 120.066 103.287 119.743 103.156C119.419 103.021 119.019 102.974 118.544 103.016L116.891 103.16L117.73 112.749L115.279 112.963ZM125.599 112.06L124.585 100.468L127.036 100.254L127.873 109.825L132.843 109.39L133.02 111.411L125.599 112.06ZM134.643 111.269L133.629 99.6769L141.44 98.9935L141.616 101.014L136.256 101.483L136.498 104.245L141.456 103.812L141.633 105.832L136.675 106.266L136.917 109.034L142.3 108.563L142.476 110.584L134.643 111.269ZM146.839 108.605L146.831 109.233C146.826 109.735 146.775 110.24 146.678 110.746C146.586 111.256 146.482 111.72 146.367 112.137C146.255 112.553 146.164 112.881 146.093 113.119L144.531 113.256C144.568 113.028 144.618 112.71 144.681 112.301C144.745 111.897 144.798 111.443 144.842 110.941C144.885 110.439 144.896 109.931 144.874 109.416L144.847 108.779L146.839 108.605Z" fill="#FF4122"/>
<rect x="5.75232" y="84.4002" width="62" height="20" rx="10" transform="rotate(-5 5.75232 84.4002)" fill="white"/>
<path d="M21.7434 87.3815L24.166 87.1696L24.8731 95.2523C24.9385 95.9995 24.8274 96.6632 24.5397 97.2435C24.2559 97.8235 23.8307 98.2884 23.2644 98.6384C22.698 98.9883 22.0224 99.1976 21.2375 99.2663C20.5395 99.3274 19.8948 99.2602 19.3035 99.0648C18.7157 98.8652 18.2337 98.5272 17.8574 98.0506C17.4807 97.5702 17.2606 96.945 17.1971 96.1748L19.6366 95.9614C19.6709 96.2664 19.7561 96.5232 19.8922 96.7318C20.0318 96.9364 20.2105 97.088 20.4282 97.1869C20.6494 97.2816 20.9035 97.3164 21.1902 97.2913C21.4921 97.2649 21.7412 97.1785 21.9375 97.032C22.1373 96.8814 22.2808 96.675 22.3681 96.4126C22.4554 96.1502 22.4829 95.8341 22.4506 95.4643L21.7434 87.3815ZM33.3525 86.3658L35.8033 86.1514L36.462 93.6795C36.5359 94.5247 36.3987 95.282 36.0504 95.9513C35.7059 96.6202 35.1888 97.1636 34.4991 97.5813C33.8091 97.9953 32.9848 98.2442 32.0264 98.3281C31.0641 98.4123 30.2073 98.3104 29.4559 98.0225C28.7041 97.7309 28.1005 97.2856 27.6451 96.6866C27.1896 96.0877 26.9249 95.3656 26.851 94.5203L26.1923 86.9923L28.6432 86.7779L29.2835 94.0965C29.3221 94.538 29.4527 94.922 29.6752 95.2486C29.9014 95.5748 30.2005 95.8205 30.5724 95.9857C30.9442 96.1509 31.366 96.2128 31.8377 96.1715C32.3132 96.1299 32.7178 95.9957 33.0515 95.7688C33.3891 95.5415 33.639 95.2478 33.8015 94.8876C33.9676 94.527 34.0314 94.126 33.9928 93.6845L33.3525 86.3658ZM44.3999 88.7587C44.3147 88.3061 44.0894 87.9684 43.7238 87.7456C43.3583 87.5228 42.8813 87.4372 42.2926 87.4887C41.8926 87.5237 41.5598 87.6098 41.2943 87.7471C41.0284 87.8806 40.8304 88.052 40.7004 88.2611C40.5742 88.4698 40.522 88.6987 40.5438 88.9478C40.5544 89.156 40.6136 89.3333 40.7215 89.4798C40.8332 89.6259 40.9788 89.7481 41.1586 89.8465C41.3379 89.941 41.5426 90.0201 41.7725 90.0836C42.002 90.1434 42.2457 90.1905 42.5035 90.225L43.5667 90.3829C44.0823 90.4519 44.5596 90.5622 44.9988 90.7139C45.4379 90.8656 45.8242 91.0657 46.1578 91.3141C46.4913 91.5625 46.7593 91.866 46.9618 92.2247C47.168 92.5831 47.2942 93.0037 47.3402 93.4863C47.3985 94.1961 47.2712 94.827 46.9583 95.3791C46.6488 95.9271 46.1708 96.3739 45.5242 96.7194C44.881 97.0609 44.0878 97.2728 43.1444 97.3554C42.2086 97.4373 41.381 97.3652 40.6616 97.1391C39.9459 96.9128 39.3692 96.5355 38.9313 96.0072C38.4969 95.4749 38.2338 94.7926 38.142 93.9603L40.5136 93.7528C40.574 94.1391 40.7137 94.4539 40.9327 94.6971C41.1552 94.9362 41.4382 95.1073 41.7818 95.2103C42.1289 95.3092 42.5137 95.3402 42.9364 95.3032C43.3514 95.2669 43.7065 95.175 44.0016 95.0275C44.3005 94.8797 44.5254 94.6908 44.6764 94.4608C44.8274 94.2309 44.8906 93.9763 44.8662 93.6971C44.8434 93.4367 44.7469 93.2246 44.5767 93.0608C44.4103 92.8966 44.1744 92.7652 43.8692 92.6664C43.5677 92.5673 43.2012 92.4853 42.7697 92.4204L41.4797 92.2139C40.4816 92.0616 39.6774 91.7575 39.0672 91.3013C38.4569 90.8452 38.1162 90.1887 38.045 89.3318C37.9799 88.6303 38.113 88.0007 38.4444 87.4432C38.7797 86.8853 39.2665 86.4302 39.9049 86.0778C40.5432 85.7253 41.2851 85.5121 42.1303 85.4382C42.9907 85.3629 43.7545 85.4444 44.4217 85.6826C45.0927 85.9205 45.6304 86.286 46.0348 86.7791C46.4391 87.2723 46.6772 87.8636 46.7489 88.5532L44.3999 88.7587ZM47.9996 87.1206L47.8228 85.0999L57.3432 84.2669L57.52 86.2876L53.9711 86.5981L54.8085 96.1695L52.3859 96.3815L51.5485 86.8101L47.9996 87.1206Z" fill="#FF4122"/>
<rect x="67.5164" y="78.9965" width="81" height="20" rx="10" transform="rotate(-5 67.5164 78.9965)" fill="white"/>
<path d="M82.4896 93.7477L78.1586 82.4458L80.8358 82.2116L83.4593 90.0981L83.5555 90.0897L84.9678 81.8501L87.2602 81.6495L90.0776 89.5362L90.1795 89.5273L91.3921 81.288L94.0694 81.0538L91.7667 92.936L89.3781 93.145L86.5075 85.7591L86.417 85.7671L84.8782 93.5387L82.4896 93.7477ZM105.887 85.8603C105.998 87.1244 105.852 88.2208 105.45 89.1495C105.053 90.0778 104.463 90.812 103.681 91.3518C102.903 91.8876 102.002 92.2002 100.98 92.2897C99.9496 92.3798 99.0047 92.2268 98.1449 91.8305C97.2851 91.4342 96.5787 90.8135 96.0257 89.9683C95.4726 89.1232 95.141 88.0704 95.0307 86.8101C94.9201 85.546 95.0637 84.4497 95.4616 83.5214C95.8595 82.593 96.4476 81.8609 97.2258 81.3252C98.0037 80.7856 98.9077 80.4708 99.9379 80.3806C100.96 80.2912 101.902 80.4446 102.761 80.8409C103.625 81.233 104.333 81.8517 104.886 82.6969C105.443 83.5417 105.776 84.5962 105.887 85.8603ZM103.402 86.0777C103.33 85.2588 103.147 84.579 102.853 84.0382C102.562 83.4971 102.183 83.1006 101.717 82.8487C101.25 82.5967 100.72 82.4967 100.128 82.5485C99.5351 82.6003 99.0309 82.7908 98.6148 83.12C98.1987 83.4492 97.8926 83.9057 97.6965 84.4894C97.5042 85.0727 97.4439 85.7738 97.5155 86.5927C97.5872 87.4115 97.7683 88.0915 98.059 88.6326C98.3535 89.1734 98.7342 89.5698 99.2011 89.8217C99.668 90.0736 100.198 90.1737 100.79 90.1218C101.383 90.07 101.887 89.8795 102.303 89.5503C102.719 89.2211 103.023 88.7649 103.215 88.1815C103.412 87.5978 103.474 86.8965 103.402 86.0777ZM108.21 91.4975L107.195 79.9054L111.769 79.5053C112.644 79.4287 113.405 79.5199 114.051 79.779C114.701 80.0339 115.213 80.4321 115.587 80.9735C115.965 81.5108 116.188 82.1625 116.255 82.9285C116.322 83.6983 116.214 84.375 115.93 84.9588C115.647 85.5388 115.202 86.0035 114.598 86.3529C113.997 86.7021 113.252 86.9156 112.361 86.9935L109.299 87.2614L109.127 85.2917L111.793 85.0584C112.261 85.0175 112.644 84.9193 112.942 84.764C113.24 84.6086 113.453 84.396 113.582 84.1262C113.714 83.8561 113.764 83.5304 113.73 83.1493C113.697 82.7644 113.591 82.4467 113.413 82.1961C113.239 81.9451 112.989 81.7654 112.664 81.657C112.343 81.5445 111.946 81.5088 111.474 81.5501L109.822 81.6947L110.66 91.2831L108.21 91.4975ZM114.008 85.6745L117.351 90.6977L114.645 90.9344L111.365 85.9057L114.008 85.6745ZM118.67 90.5823L117.655 78.9903L120.106 78.7758L120.553 83.887L120.706 83.8736L124.431 78.3975L127.368 78.1405L123.521 83.7072L128.433 89.7281L125.501 89.9846L121.909 85.4966L120.832 87.0737L121.12 90.3679L118.67 90.5823ZM135.131 80.8207C135.046 80.3681 134.821 80.0304 134.455 79.8076C134.09 79.5848 133.613 79.4992 133.024 79.5507C132.624 79.5856 132.291 79.6718 132.026 79.8091C131.76 79.9426 131.562 80.1139 131.432 80.323C131.306 80.5318 131.254 80.7607 131.275 81.0098C131.286 81.218 131.345 81.3953 131.453 81.5417C131.565 81.6879 131.71 81.8101 131.89 81.9085C132.069 82.003 132.274 82.0821 132.504 82.1456C132.734 82.2054 132.977 82.2525 133.235 82.287L134.298 82.4449C134.814 82.5139 135.291 82.6242 135.73 82.7759C136.169 82.9276 136.556 83.1277 136.889 83.3761C137.223 83.6245 137.491 83.928 137.693 84.2867C137.9 84.6451 138.026 85.0656 138.072 85.5483C138.13 86.2581 138.003 86.889 137.69 87.4411C137.38 87.9891 136.902 88.4359 136.256 88.7814C135.613 89.1228 134.819 89.3348 133.876 89.4174C132.94 89.4992 132.112 89.4272 131.393 89.2011C130.677 88.9748 130.101 88.5974 129.663 88.0692C129.228 87.5369 128.965 86.8545 128.873 86.0223L131.245 85.8148C131.306 86.2011 131.445 86.5159 131.664 86.7591C131.887 86.9982 132.17 87.1693 132.513 87.2723C132.86 87.3712 133.245 87.4022 133.668 87.3652C134.083 87.3289 134.438 87.237 134.733 87.0895C135.032 86.9417 135.257 86.7528 135.408 86.5228C135.559 86.2929 135.622 86.0383 135.598 85.7591C135.575 85.4987 135.478 85.2866 135.308 85.1228C135.142 84.9586 134.906 84.8272 134.601 84.7284C134.299 84.6293 133.933 84.5473 133.501 84.4824L132.211 84.2758C131.213 84.1236 130.409 83.8194 129.799 83.3633C129.188 82.9072 128.848 82.2507 128.777 81.3938C128.711 80.6922 128.845 80.0627 129.176 79.5052C129.511 78.9473 129.998 78.4922 130.636 78.1398C131.275 77.7873 132.017 77.5741 132.862 77.5002C133.722 77.4249 134.486 77.5064 135.153 77.7446C135.824 77.9825 136.362 78.348 136.766 78.8411C137.171 79.3343 137.409 79.9256 137.48 80.6152L135.131 80.8207Z" fill="#FF4122"/>
<rect x="148.208" y="71.937" width="36" height="20" rx="10" transform="rotate(-5 148.208 71.937)" fill="white"/>
<path d="M175.003 79.8933L175.171 81.8064L159.232 83.2009L159.064 81.2877L175.003 79.8933Z" fill="#FF4122"/>
<rect x="3.83484" y="62.484" width="89" height="20" rx="10" transform="rotate(-5 3.83484 62.484)" fill="white"/>
<path d="M21.7647 68.655C21.6795 68.2024 21.4541 67.8647 21.0886 67.6419C20.7231 67.4191 20.246 67.3335 19.6574 67.385C19.2574 67.42 18.9246 67.5061 18.6591 67.6434C18.3932 67.7769 18.1952 67.9483 18.0652 68.1574C17.939 68.3661 17.8868 68.595 17.9086 68.8441C17.9192 69.0523 17.9784 69.2296 18.0863 69.3761C18.1979 69.5222 18.3436 69.6444 18.5233 69.7428C18.7027 69.8374 18.9074 69.9164 19.1373 69.98C19.3668 70.0397 19.6105 70.0868 19.8683 70.1213L20.9315 70.2793C21.4471 70.3482 21.9244 70.4586 22.3636 70.6103C22.8027 70.7619 23.189 70.962 23.5225 71.2104C23.8561 71.4588 24.1241 71.7623 24.3266 72.121C24.5328 72.4794 24.659 72.9 24.705 73.3826C24.7633 74.0924 24.636 74.7233 24.3231 75.2754C24.0136 75.8234 23.5356 76.2702 22.889 76.6157C22.2458 76.9572 21.4526 77.1692 20.5092 77.2517C19.5734 77.3336 18.7458 77.2615 18.0264 77.0354C17.3107 76.8091 16.734 76.4318 16.2961 75.9035C15.8617 75.3712 15.5986 74.6889 15.5068 73.8566L17.8784 73.6491C17.9388 74.0354 18.0785 74.3502 18.2975 74.5934C18.52 74.8325 18.803 75.0036 19.1466 75.1066C19.4937 75.2055 19.8785 75.2365 20.3011 75.1995C20.7162 75.1632 21.0713 75.0713 21.3664 74.9238C21.6653 74.776 21.8902 74.5871 22.0412 74.3572C22.1922 74.1272 22.2554 73.8726 22.231 73.5934C22.2082 73.333 22.1117 73.1209 21.9415 72.9571C21.775 72.793 21.5392 72.6615 21.234 72.5627C20.9325 72.4636 20.566 72.3816 20.1345 72.3167L18.8445 72.1102C17.8464 71.9579 17.0422 71.6538 16.4319 71.1976C15.8217 70.7415 15.481 70.085 15.4098 69.2281C15.3446 68.5266 15.4778 67.897 15.8092 67.3395C16.1445 66.7817 16.6313 66.3265 17.2696 65.9741C17.908 65.6216 18.6498 65.4084 19.4951 65.3345C20.3554 65.2592 21.1192 65.3407 21.7865 65.5789C22.4575 65.8168 22.9952 66.1823 23.3996 66.6754C23.8039 67.1686 24.042 67.7599 24.1137 68.4495L21.7647 68.655ZM26.6432 76.5496L25.6291 64.9575L33.4401 64.2742L33.6169 66.2949L28.2567 66.7638L28.4984 69.526L33.4567 69.0922L33.6335 71.1129L28.6752 71.5467L28.9173 74.3145L34.3002 73.8436L34.4769 75.8643L26.6432 76.5496ZM45.0846 63.2554L46.0987 74.8475L43.9818 75.0327L38.3003 68.1779L38.2154 68.1854L38.8537 75.4813L36.4028 75.6958L35.3886 64.1037L37.5395 63.9155L43.181 70.7681L43.2828 70.7592L42.645 63.4688L45.0846 63.2554ZM53.6897 65.8619C53.6044 65.4093 53.3791 65.0716 53.0136 64.8488C52.6481 64.626 52.171 64.5404 51.5823 64.5919C51.1823 64.6269 50.8495 64.713 50.584 64.8504C50.3181 64.9839 50.1202 65.1552 49.9902 65.3643C49.8639 65.5731 49.8117 65.802 49.8335 66.051C49.8441 66.2592 49.9034 66.4365 50.0112 66.583C50.1229 66.7291 50.2686 66.8514 50.4483 66.9497C50.6276 67.0443 50.8323 67.1233 51.0622 67.1869C51.2917 67.2466 51.5354 67.2938 51.7932 67.3283L52.8565 67.4862C53.372 67.5552 53.8493 67.6655 54.2885 67.8172C54.7276 67.9689 55.1139 68.1689 55.4475 68.4173C55.781 68.6657 56.049 68.9693 56.2515 69.328C56.4578 69.6864 56.5839 70.1069 56.6299 70.5896C56.6882 71.2993 56.5609 71.9302 56.248 72.4823C55.9385 73.0303 55.4605 73.4771 54.8139 73.8227C54.1707 74.1641 53.3775 74.3761 52.4341 74.4586C51.4983 74.5405 50.6707 74.4684 49.9513 74.2424C49.2357 74.016 48.6589 73.6387 48.2211 73.1105C47.7866 72.5781 47.5235 71.8958 47.4317 71.0635L49.8033 70.856C49.8637 71.2424 50.0034 71.5572 50.2224 71.8004C50.4449 72.0395 50.7279 72.2105 51.0715 72.3135C51.4186 72.4124 51.8034 72.4434 52.2261 72.4064C52.6411 72.3701 52.9962 72.2782 53.2913 72.1307C53.5902 71.9829 53.8151 71.794 53.9661 71.5641C54.1171 71.3341 54.1804 71.0795 54.1559 70.8003C54.1332 70.5399 54.0366 70.3279 53.8664 70.164C53.7 69.9999 53.4641 69.8684 53.1589 69.7697C52.8574 69.6705 52.491 69.5885 52.0594 69.5236L50.7695 69.3171C49.7713 69.1649 48.9671 68.8607 48.3569 68.4046C47.7466 67.9484 47.4059 67.2919 47.3347 66.435C47.2696 65.7335 47.4027 65.104 47.7342 64.5464C48.0694 63.9886 48.5562 63.5334 49.1946 63.181C49.833 62.8286 50.5748 62.6154 51.42 62.5414C52.2804 62.4662 53.0442 62.5476 53.7114 62.7858C54.3824 63.0237 54.9201 63.3892 55.3245 63.8824C55.7289 64.3755 55.9669 64.9669 56.0386 65.6564L53.6897 65.8619ZM60.3016 73.6049L57.6753 73.8347L60.6628 61.8925L63.8212 61.6162L68.8315 72.8586L66.2052 73.0884L62.5191 64.3993L62.4285 64.4073L60.3016 73.6049ZM59.7388 69.0628L65.9424 68.5201L66.1098 70.4332L59.9062 70.9759L59.7388 69.0628ZM67.3504 61.3074L70.0956 61.0672L73.1756 65.8283L73.2888 65.8184L75.4954 60.5948L78.2406 60.3546L74.6681 68.2186L75.0266 72.3166L72.5927 72.5296L72.2342 68.4316L67.3504 61.3074ZM81.9405 70.1148L81.9328 70.7428C81.9273 71.2452 81.8764 71.7497 81.78 72.2562C81.6877 72.7662 81.5838 73.2297 81.4682 73.6466C81.3563 74.0633 81.2652 74.3906 81.1948 74.6287L79.6325 74.7654C79.6697 74.5378 79.7198 74.2198 79.7829 73.8112C79.8464 73.4064 79.8998 72.953 79.9434 72.4511C79.9869 71.9492 79.9976 71.4407 79.9753 70.9255L79.9482 70.2891L81.9405 70.1148Z" fill="#FF4122"/>
<rect x="92.4962" y="54.7271" width="125" height="20" rx="10" transform="rotate(-5 92.4962 54.7271)" fill="white"/>
<path d="M104.86 69.7066L103.846 58.1145L111.657 57.4311L111.834 59.4518L106.474 59.9207L106.715 62.6829L111.674 62.2491L111.85 64.2698L106.892 64.7036L107.134 67.4715L112.517 67.0005L112.694 69.0212L104.86 69.7066ZM115.7 57.0774L119.272 65.6395L119.38 65.6301L121.417 56.5772L124.134 56.3395L121.152 68.2812L117.993 68.5576L112.977 57.3156L115.7 57.0774ZM126.543 67.8096L125.529 56.2175L133.34 55.5341L133.517 57.5548L128.156 58.0237L128.398 60.7859L133.356 60.3521L133.533 62.3728L128.575 62.8066L128.817 65.5745L134.2 65.1035L134.377 67.1242L126.543 67.8096ZM136.303 66.9557L135.288 55.3636L139.862 54.9635C140.737 54.8869 141.498 54.9781 142.144 55.2372C142.794 55.4922 143.306 55.8903 143.68 56.4317C144.058 56.969 144.281 57.6207 144.348 58.3867C144.415 59.1565 144.307 59.8333 144.023 60.417C143.74 60.997 143.295 61.4617 142.691 61.8112C142.09 62.1603 141.345 62.3738 140.454 62.4517L137.392 62.7196L137.22 60.7499L139.886 60.5166C140.354 60.4757 140.737 60.3776 141.035 60.2222C141.333 60.0668 141.546 59.8542 141.675 59.5844C141.807 59.3143 141.857 58.9887 141.823 58.6076C141.79 58.2227 141.684 57.9049 141.506 57.6543C141.332 57.4034 141.082 57.2237 140.757 57.1152C140.436 57.0027 140.039 56.967 139.567 57.0083L137.915 57.1529L138.753 66.7413L136.303 66.9557ZM142.101 61.1327L145.444 66.156L142.738 66.3927L139.458 61.364L142.101 61.1327ZM144.587 54.5501L147.332 54.31L150.412 59.071L150.525 59.0611L152.732 53.8375L155.477 53.5974L151.904 61.4614L152.263 65.5594L149.829 65.7723L149.47 61.6743L144.587 54.5501ZM157.282 55.4756L157.106 53.4549L166.626 52.6219L166.803 54.6426L163.254 54.9531L164.091 64.5245L161.669 64.7365L160.831 55.1651L157.282 55.4756ZM169.208 64.0768L168.194 52.4848L170.645 52.2703L171.063 57.0532L176.039 56.6179L175.62 51.8351L178.065 51.6211L179.079 63.2132L176.634 63.4271L176.215 58.6386L171.24 59.0739L171.659 63.8624L169.208 64.0768ZM182.537 51.2299L183.551 62.822L181.1 63.0364L180.086 51.4443L182.537 51.2299ZM194.249 50.2052L195.263 61.7973L193.146 61.9825L187.465 55.1277L187.38 55.1352L188.018 62.4312L185.567 62.6456L184.553 51.0535L186.704 50.8653L192.346 57.7179L192.447 57.709L191.81 50.4187L194.249 50.2052ZM204.289 53.1026C204.185 52.8341 204.053 52.6004 203.891 52.4017C203.728 52.1991 203.537 52.0334 203.317 51.9044C203.1 51.7712 202.856 51.6766 202.585 51.6205C202.317 51.564 202.025 51.5497 201.708 51.5774C201.116 51.6292 200.608 51.8219 200.185 52.1556C199.765 52.4888 199.455 52.9475 199.256 53.5315C199.055 54.1118 198.991 54.8057 199.061 55.6132C199.132 56.4207 199.315 57.0968 199.609 57.6413C199.904 58.1859 200.289 58.5876 200.764 58.8464C201.239 59.1015 201.782 59.2022 202.393 59.1488C202.948 59.1002 203.413 58.9607 203.788 58.7301C204.167 58.4955 204.444 58.1879 204.62 57.8075C204.8 57.4268 204.868 56.9893 204.825 56.4949L205.329 56.5249L202.341 56.7864L202.179 54.9412L207.03 54.5168L207.158 55.9771C207.247 56.996 207.109 57.8902 206.742 58.6599C206.376 59.4258 205.833 60.0399 205.113 60.5021C204.392 60.9606 203.545 61.2324 202.572 61.3176C201.485 61.4127 200.509 61.2566 199.645 60.8493C198.78 60.4383 198.079 59.8095 197.541 58.963C197.006 58.1125 196.685 57.0759 196.578 55.8533C196.496 54.9137 196.559 54.0641 196.766 53.3045C196.977 52.5408 197.307 51.8807 197.756 51.3243C198.206 50.7678 198.747 50.3269 199.38 50.0016C200.013 49.6762 200.713 49.48 201.479 49.413C202.136 49.3556 202.755 49.3983 203.338 49.5412C203.921 49.6804 204.446 49.9044 204.914 50.2132C205.386 50.5218 205.782 50.9034 206.104 51.3582C206.424 51.8093 206.65 52.3181 206.779 52.8847L204.289 53.1026Z" fill="#FF4122"/>
<rect x="1.91748" y="40.5677" width="83" height="20" rx="10" transform="rotate(-5 1.91748 40.5677)" fill="white"/>
<path d="M21.2816 47.0296C21.1782 46.7611 21.0456 46.5274 20.8838 46.3287C20.7215 46.1261 20.5302 45.9604 20.3098 45.8313C20.0928 45.6982 19.8488 45.6036 19.5777 45.5475C19.3104 45.491 19.0183 45.4767 18.7013 45.5044C18.1089 45.5562 17.601 45.7489 17.1777 46.0826C16.7582 46.4158 16.4485 46.8745 16.2487 47.4585C16.0485 48.0388 15.9837 48.7327 16.0544 49.5402C16.125 50.3477 16.3077 51.0238 16.6025 51.5683C16.8973 52.1129 17.2823 52.5146 17.7574 52.7734C18.2322 53.0284 18.7753 53.1292 19.3866 53.0757C19.9413 53.0272 20.4062 52.8877 20.7815 52.6571C21.1602 52.4225 21.4375 52.1149 21.6134 51.7345C21.793 51.3538 21.8612 50.9162 21.8179 50.4219L22.3225 50.4519L19.3339 50.7134L19.1724 48.8682L24.0232 48.4438L24.151 49.9041C24.2401 50.9229 24.1016 51.8172 23.7355 52.5869C23.369 53.3528 22.8258 53.9669 22.1058 54.4291C21.3854 54.8876 20.5385 55.1594 19.5649 55.2446C18.4781 55.3397 17.5025 55.1836 16.638 54.7763C15.7731 54.3653 15.0717 53.7365 14.5337 52.89C13.9992 52.0394 13.6785 51.0028 13.5715 49.7802C13.4893 48.8407 13.5519 47.9911 13.7592 47.2315C13.9699 46.4678 14.3 45.8077 14.7495 45.2513C15.1989 44.6948 15.7402 44.2539 16.3733 43.9286C17.0065 43.6032 17.706 43.407 18.4721 43.34C19.1286 43.2825 19.7484 43.3253 20.3312 43.4682C20.9137 43.6074 21.439 43.8314 21.9071 44.1402C22.379 44.4488 22.7755 44.8304 23.0967 45.2852C23.4175 45.7363 23.6427 46.2451 23.7721 46.8117L21.2816 47.0296ZM36.5524 47.7583C36.6629 49.0224 36.5174 50.1188 36.1158 51.0475C35.7179 51.9758 35.1281 52.71 34.3464 53.2498C33.5682 53.7856 32.6678 54.0982 31.6452 54.1877C30.615 54.2778 29.6701 54.1248 28.8103 53.7285C27.9505 53.3322 27.2441 52.7115 26.691 51.8663C26.138 51.0212 25.8064 49.9684 25.6961 48.7081C25.5855 47.444 25.7291 46.3477 26.127 45.4194C26.5249 44.491 27.1129 43.7589 27.8912 43.2232C28.6691 42.6836 29.5731 42.3688 30.6033 42.2786C31.6259 42.1892 32.5671 42.3426 33.4269 42.7389C34.2901 43.131 34.9982 43.7497 35.5512 44.5949C36.1081 45.4397 36.4418 46.4942 36.5524 47.7583ZM34.0675 47.9757C33.9959 47.1568 33.8128 46.477 33.5184 45.9362C33.2277 45.3951 32.8489 44.9986 32.382 44.7467C31.915 44.4947 31.3854 44.3947 30.7929 44.4465C30.2005 44.4983 29.6962 44.6888 29.2802 45.018C28.8641 45.3472 28.558 45.8037 28.3619 46.3874C28.1696 46.9707 28.1093 47.6718 28.1809 48.4907C28.2526 49.3095 28.4337 49.9895 28.7244 50.5306C29.0189 51.0714 29.3996 51.4678 29.8665 51.7197C30.3334 51.9716 30.8631 52.0717 31.4555 52.0198C32.0479 51.968 32.5522 51.7775 32.9683 51.4483C33.3844 51.1191 33.6885 50.6629 33.8809 50.0795C34.0769 49.4958 34.1392 48.7945 34.0675 47.9757ZM40.3116 41.589L41.3258 53.1811L38.8749 53.3955L37.8608 41.8034L40.3116 41.589ZM52.024 40.5643L53.0382 52.1564L50.9213 52.3416L45.2397 45.4868L45.1548 45.4942L45.7931 52.7902L43.3423 53.0046L42.3281 41.4126L44.479 41.2244L50.1204 48.077L50.2223 48.068L49.5845 40.7777L52.024 40.5643ZM62.0633 43.4617C61.96 43.1932 61.8274 42.9595 61.6655 42.7607C61.5033 42.5582 61.312 42.3924 61.0915 42.2634C60.8746 42.1303 60.6305 42.0357 60.3595 41.9795C60.0922 41.9231 59.8 41.9087 59.4831 41.9364C58.8906 41.9883 58.3828 42.181 57.9595 42.5146C57.54 42.8479 57.2303 43.3066 57.0304 43.8906C56.8302 44.4709 56.7654 45.1648 56.8361 45.9723C56.9067 46.7798 57.0895 47.4558 57.3843 48.0004C57.6791 48.545 58.064 48.9466 58.5391 49.2055C59.0139 49.4605 59.557 49.5613 60.1683 49.5078C60.723 49.4593 61.188 49.3197 61.5632 49.0892C61.942 48.8545 62.2192 48.547 62.3951 48.1666C62.5747 47.7858 62.6429 47.3483 62.5996 46.854L63.1042 46.884L60.1156 47.1455L59.9542 45.3002L64.8049 44.8758L64.9327 46.3362C65.0218 47.355 64.8834 48.2493 64.5172 49.019C64.1508 49.7849 63.6075 50.3989 62.8875 50.8612C62.1671 51.3197 61.3202 51.5915 60.3466 51.6767C59.2599 51.7717 58.2842 51.6156 57.4197 51.2084C56.5548 50.7973 55.8534 50.1686 55.3154 49.3221C54.7809 48.4715 54.4602 47.4349 54.3532 46.2123C54.271 45.2727 54.3336 44.4231 54.5409 43.6635C54.7517 42.8998 55.0818 42.2398 55.5312 41.6833C55.9806 41.1269 56.5219 40.686 57.155 40.3606C57.7882 40.0353 58.4878 39.8391 59.2538 39.7721C59.9104 39.7146 60.5301 39.7574 61.1129 39.9003C61.6955 40.0394 62.2208 40.2634 62.6889 40.5723C63.1607 40.8808 63.5572 41.2625 63.8784 41.7173C64.1992 42.1683 64.4244 42.6772 64.5538 43.2438L62.0633 43.4617ZM68.911 47.2657L68.8941 47.0733C68.8401 46.4126 68.8526 45.8811 68.9314 45.4787C69.0141 45.076 69.1562 44.7442 69.3577 44.4832C69.5592 44.2223 69.8079 43.98 70.104 43.7563C70.3247 43.5849 70.5204 43.41 70.6911 43.2316C70.8618 43.0531 70.9933 42.861 71.0856 42.6552C71.1775 42.4457 71.2128 42.2182 71.1913 41.973C71.1685 41.7126 71.0863 41.4897 70.9446 41.3044C70.8029 41.1191 70.6218 40.9828 70.4012 40.8957C70.1844 40.8082 69.9496 40.7755 69.6968 40.7976C69.4515 40.8191 69.2243 40.8941 69.015 41.0227C68.8054 41.1475 68.64 41.3216 68.5189 41.5452C68.3974 41.7649 68.3445 42.03 68.3603 42.3404L66.0509 42.5425C66.0038 41.7861 66.1304 41.1476 66.4309 40.6271C66.731 40.1027 67.1535 39.695 67.6984 39.404C68.243 39.1092 68.8568 38.9319 69.5398 38.8721C70.2907 38.8064 70.9657 38.8729 71.5648 39.0714C72.1636 39.2662 72.6477 39.5831 73.0169 40.0223C73.3861 40.4615 73.5996 41.0113 73.6574 41.6717C73.696 42.1131 73.6568 42.512 73.5396 42.8683C73.426 43.2204 73.2505 43.54 73.0132 43.8269C72.7756 44.1101 72.4887 44.3728 72.1525 44.6151C71.8699 44.8186 71.6408 45.0249 71.4652 45.2342C71.2934 45.4432 71.1714 45.6782 71.0991 45.9393C71.0307 46.2 71.0108 46.5155 71.0393 46.8856L71.0562 47.078L68.911 47.2657ZM70.3486 50.7902C69.9713 50.8232 69.6371 50.7194 69.3461 50.4787C69.0585 50.2338 68.9002 49.9245 68.8713 49.5506C68.8352 49.1811 68.9376 48.8528 69.1787 48.5655C69.4235 48.2779 69.7346 48.1176 70.1119 48.0846C70.4704 48.0532 70.797 48.1578 71.0918 48.3981C71.3866 48.6385 71.5521 48.9434 71.5882 49.3129C71.6062 49.5623 71.5602 49.7963 71.45 50.0151C71.3433 50.2298 71.1935 50.4083 71.0007 50.5506C70.8075 50.6892 70.5901 50.7691 70.3486 50.7902Z" fill="#FF4122"/>
<rect x="94.5636" y="32.4622" width="64" height="20" rx="10" transform="rotate(-5 94.5636 32.4622)" fill="white"/>
<path d="M109.537 47.2134L105.206 35.9115L107.883 35.6773L110.507 43.5638L110.603 43.5554L112.015 35.3158L114.307 35.1152L117.125 43.0019L117.227 42.993L118.439 34.7537L121.117 34.5195L118.814 46.4017L116.425 46.6107L113.555 39.2248L113.464 39.2328L111.925 47.0044L109.537 47.2134ZM124.879 34.1903L125.893 45.7824L123.443 45.9968L122.428 34.4047L124.879 34.1903ZM126.631 36.0732L126.454 34.0525L135.975 33.2196L136.151 35.2403L132.602 35.5507L133.44 45.1221L131.017 45.3341L130.18 35.7627L126.631 36.0732ZM138.557 44.6745L137.543 33.0824L139.993 32.868L140.412 37.6508L145.387 37.2156L144.969 32.4327L147.414 32.2188L148.428 43.8108L145.983 44.0248L145.564 39.2362L140.589 39.6715L141.008 44.4601L138.557 44.6745Z" fill="#FF4122"/>
<rect y="18.6513" width="58" height="20" rx="10" transform="rotate(-5 0 18.6513)" fill="white"/>
<path d="M12.3639 33.6308L11.3497 22.0387L13.8006 21.8243L14.219 26.6071L19.1944 26.1718L18.7759 21.389L21.2211 21.175L22.2353 32.7671L19.7901 32.9811L19.3711 28.1925L14.3958 28.6278L14.8148 33.4163L12.3639 33.6308ZM24.256 32.5903L23.2418 20.9983L31.0529 20.3149L31.2297 22.3356L25.8695 22.8045L26.1111 25.5667L31.0695 25.1329L31.2462 27.1536L26.2879 27.5874L26.5301 30.3552L31.9129 29.8843L32.0897 31.905L24.256 32.5903ZM32.3222 20.2038L35.0674 19.9636L38.1475 24.7247L38.2607 24.7148L40.4672 19.4912L43.2124 19.2511L39.6399 27.1151L39.9984 31.2131L37.5645 31.426L37.206 27.328L32.3222 20.2038ZM46.9124 29.0112L46.9046 29.6392C46.8991 30.1416 46.8482 30.6461 46.7518 31.1526C46.6595 31.6626 46.5556 32.1261 46.44 32.5431C46.3281 32.9597 46.237 33.2871 46.1666 33.5252L44.6044 33.6618C44.6415 33.4343 44.6916 33.1162 44.7547 32.7076C44.8182 32.3028 44.8717 31.8495 44.9152 31.3475C44.9587 30.8456 44.9694 30.3371 44.9471 29.8219L44.92 29.1855L46.9124 29.0112Z" fill="#FF4122"/>
<rect x="58" y="13.6743" width="75" height="20" rx="10" transform="rotate(-5 58 13.6743)" fill="white"/>
<path d="M70.3639 28.6537L69.3497 17.0616L71.8006 16.8472L72.219 21.6301L77.1944 21.1948L76.7759 16.4119L79.2211 16.198L80.2353 27.7901L77.7901 28.004L77.3711 23.2155L72.3958 23.6508L72.8148 28.4393L70.3639 28.6537ZM92.4014 20.8853C92.512 22.1494 92.3665 23.2458 91.9648 24.1745C91.5669 25.1028 90.9772 25.837 90.1955 26.3768C89.4172 26.9126 88.5168 27.2252 87.4942 27.3147C86.4641 27.4048 85.5191 27.2518 84.6593 26.8555C83.7995 26.4592 83.0931 25.8385 82.5401 24.9933C81.987 24.1482 81.6554 23.0954 81.5451 21.8351C81.4345 20.571 81.5782 19.4747 81.976 18.5464C82.3739 17.618 82.962 16.8859 83.7402 16.3502C84.5181 15.8106 85.4222 15.4958 86.4523 15.4056C87.4749 15.3162 88.4161 15.4696 89.2759 15.8658C90.1391 16.258 90.8472 16.8767 91.4003 17.7219C91.9571 18.5667 92.2908 19.6212 92.4014 20.8853ZM89.9166 21.1027C89.8449 20.2838 89.6619 19.604 89.3674 19.0632C89.0767 18.5221 88.6979 18.1256 88.231 17.8736C87.7641 17.6217 87.2344 17.5217 86.642 17.5735C86.0495 17.6253 85.5453 17.8158 85.1292 18.145C84.7131 18.4742 84.4071 18.9306 84.211 19.5144C84.0187 20.0977 83.9583 20.7988 84.03 21.6177C84.1016 22.4365 84.2828 23.1165 84.5735 23.6576C84.8679 24.1984 85.2486 24.5948 85.7155 24.8467C86.1824 25.0986 86.7121 25.1987 87.3046 25.1468C87.897 25.095 88.4012 24.9045 88.8173 24.5753C89.2334 24.2461 89.5376 23.7899 89.7299 23.2065C89.926 22.6228 89.9882 21.9215 89.9166 21.1027ZM96.8975 26.3323L92.5664 15.0304L95.2437 14.7962L97.8672 22.6828L97.9634 22.6744L99.3757 14.4347L101.668 14.2341L104.485 22.1209L104.587 22.112L105.8 13.8726L108.477 13.6384L106.175 25.5207L103.786 25.7297L100.915 18.3438L100.825 18.3517L99.2861 26.1233L96.8975 26.3323ZM111.295 13.3919L111.68 17.7956L109.959 17.9461L109.574 13.5425L111.295 13.3919ZM119.7 16.0159C119.615 15.5633 119.39 15.2256 119.024 15.0028C118.659 14.78 118.182 14.6944 117.593 14.7459C117.193 14.7809 116.86 14.867 116.595 15.0043C116.329 15.1379 116.131 15.3092 116.001 15.5183C115.874 15.727 115.822 15.9559 115.844 16.205C115.855 16.4132 115.914 16.5905 116.022 16.737C116.133 16.8831 116.279 17.0053 116.459 17.1037C116.638 17.1983 116.843 17.2773 117.073 17.3409C117.302 17.4006 117.546 17.4477 117.804 17.4822L118.867 17.6402C119.383 17.7091 119.86 17.8195 120.299 17.9712C120.738 18.1229 121.124 18.3229 121.458 18.5713C121.792 18.8197 122.06 19.1232 122.262 19.482C122.468 19.8403 122.594 20.2609 122.64 20.7435C122.699 21.4533 122.571 22.0842 122.259 22.6363C121.949 23.1843 121.471 23.6311 120.824 23.9766C120.181 24.3181 119.388 24.5301 118.445 24.6126C117.509 24.6945 116.681 24.6224 115.962 24.3963C115.246 24.17 114.669 23.7927 114.232 23.2644C113.797 22.7321 113.534 22.0498 113.442 21.2175L115.814 21.01C115.874 21.3963 116.014 21.7111 116.233 21.9543C116.455 22.1934 116.738 22.3645 117.082 22.4675C117.429 22.5664 117.814 22.5974 118.237 22.5604C118.652 22.5241 119.007 22.4322 119.302 22.2847C119.601 22.1369 119.826 21.948 119.977 21.7181C120.128 21.4881 120.191 21.2335 120.166 20.9543C120.144 20.6939 120.047 20.4818 119.877 20.318C119.711 20.1539 119.475 20.0224 119.169 19.9236C118.868 19.8245 118.501 19.7425 118.07 19.6776L116.78 19.4711C115.782 19.3188 114.978 19.0147 114.367 18.5585C113.757 18.1024 113.416 17.4459 113.345 16.589C113.28 15.8875 113.413 15.2579 113.745 14.7004C114.08 14.1426 114.567 13.6874 115.205 13.335C115.843 12.9825 116.585 12.7693 117.431 12.6954C118.291 12.6201 119.055 12.7016 119.722 12.9398C120.393 13.1777 120.931 13.5432 121.335 14.0363C121.739 14.5295 121.977 15.1208 122.049 15.8104L119.7 16.0159Z" fill="#FF4122"/>
<rect x="132.715" y="7.13754" width="36" height="20" rx="10" transform="rotate(-5 132.715 7.13754)" fill="white"/>
<path d="M146.515 10.3105L147.529 21.9025L145.079 22.117L144.064 10.5249L146.515 10.3105ZM148.267 12.1934L148.09 10.1727L157.611 9.33974L157.787 11.3604L154.238 11.6709L155.076 21.2423L152.653 21.4543L151.816 11.8829L148.267 12.1934Z" fill="#FF4122"/>
</svg>
