<svg width="390" height="57" viewBox="0 0 390 57" fill="none" xmlns="http://www.w3.org/2000/svg">
<path d="M34.0407 52.7181C33.3345 54.82 36.189 53.2244 34.4855 56.4227C34.9111 56.5896 35.361 56.7606 35.7833 56.9275C35.784 55.8004 35.7876 54.6757 35.7886 53.5485C35.2181 53.269 34.6183 52.992 34.0402 52.7126C34.0403 52.7144 34.0405 52.7162 34.0407 52.7181ZM32.0235 38.7869C32.821 41.9293 34.4775 42.6356 33.0332 45.7331C32.7963 44.6514 32.5531 43.5705 32.3164 42.4887C31.7889 43.3918 31.2712 44.2935 30.7379 45.1915C30.4849 44.7934 30.2346 44.3946 29.9867 44.0006C29.8726 45.9272 29.7635 47.8584 29.6538 49.7891C29.8744 49.4894 30.1007 49.1842 30.3268 48.8838C31.4232 50.3436 32.3286 50.6887 33.6757 50.8566C33.6025 51.3168 33.5298 51.773 33.4515 52.2337C34.0428 51.4088 34.652 50.5798 35.2377 49.7544C34.6036 49.0552 33.8629 48.2805 33.2789 47.6275C33.8525 44.57 35.5085 46.0911 36.3534 46.6398C37.4873 47.3905 37.1255 45.9946 37.969 46.5143C38.1023 46.5954 38.22 47.705 38.4697 47.7005C39.7469 47.6701 42.1243 46.8504 40.4478 44.3943C38.4142 44.9235 36.4641 43.0061 34.5017 43.953C34.7624 40.9061 33.594 39.9853 32.0235 38.7869ZM70.7978 44.6399C70.023 43.249 68.8195 43.9638 68.0561 45.0609C68.0551 45.061 68.0541 45.0611 68.0531 45.0612C67.886 45.3028 67.6519 47.2792 68.2629 47.1379C69.2617 46.9007 69.4359 43.809 70.1755 45.821C70.3734 45.4124 70.5878 45.045 70.7978 44.6399ZM73.0067 44.5979C73.5483 43.7892 73.0368 41.5248 72.3239 42.2241C72.3237 42.2223 72.3235 42.2205 72.3233 42.2187C72.0266 42.511 72.8445 44.2588 71.4995 42.537C71.4084 43.992 71.3079 45.3176 71.215 46.726C71.5004 46.7204 71.7626 46.7318 72.062 46.7201C71.623 44.3882 72.4622 45.401 73.0067 44.5979ZM41.6191 45.5909C41.9142 47.6994 41.5205 47.7234 40.9507 49.26C41.6148 49.127 42.2444 48.9923 42.9022 48.8593C42.4707 47.7688 42.0454 46.682 41.6191 45.5909ZM26.1366 47.3208C26.1355 47.3209 26.1345 47.321 26.1335 47.3211C25.8834 47.0053 25.6365 46.6879 25.3974 46.3756C25.331 47.1426 25.2645 47.9063 25.1886 48.674C24.4953 48.1414 23.7933 47.6082 23.1186 47.0683L21.2135 47.0551C21.0783 46.9159 20.9444 46.7765 20.8118 46.6369C20.776 47.3634 20.8994 47.8387 21.1111 48.2006L23.2051 48.2152C23.7463 48.925 24.6027 49.0294 25.2229 50.0957C26.3094 49.3073 26.7562 47.9183 26.6591 45.9545C26.4891 46.4079 26.3205 46.8665 26.1366 47.3208ZM207.354 22.9134C207.63 23.5467 207.903 24.1807 208.18 24.8142C207.851 25.1188 207.524 25.354 207.197 25.7054C206.211 22.944 206.232 25.4161 205.046 25.2864C201.474 24.8845 202.225 20.5144 199.266 26.9887C201.829 26.5873 200.95 29.6101 202.6 31.8504C202.86 30.0883 201.157 26.1998 202.181 25.3414C204.044 27.1266 205.859 28.7886 207.882 29.9165C207.834 30.221 207.787 30.5266 207.739 30.8311C207.415 30.6511 207.096 30.47 206.775 30.2902C207.142 31.0882 207.503 31.8795 207.878 32.6867C207.376 30.8635 208.531 31.8522 208.31 29.7452C208.21 28.8073 207.669 27.52 207.346 26.6318C208.078 26.1173 208.859 25.6426 209.595 25.1428C209.183 24.4066 208.754 23.6704 208.333 22.9348C208.006 22.9226 207.684 22.917 207.36 22.9049C207.358 22.9077 207.356 22.9106 207.354 22.9134ZM370.622 28.9546C369.593 26.8002 367.831 26.4966 366.964 28.9614C368.203 28.9586 369.418 28.959 370.622 28.9546ZM26.5971 44.3337C26.519 44.7136 26.4445 45.0892 26.3676 45.469C26.8944 46.1167 27.4742 46.7545 28.0007 47.4011C28.0016 46.3218 28.0045 45.2421 28.0088 44.1671C27.546 44.2208 27.0657 44.2804 26.5971 44.3337ZM57.4698 42.6275C57.112 42.5976 57.0843 42.6358 56.6635 42.8317C56.6639 42.8308 56.6643 42.8298 56.6648 42.8289C56.5002 42.9028 55.1103 43.6716 55.3536 44.4794C56.0795 44.4217 56.8377 44.3325 57.5763 44.2591C57.5448 43.715 57.4962 43.1768 57.4698 42.6275ZM49.0501 43.9423C49.0493 43.9442 49.0485 43.9461 49.0477 43.9481C48.7983 44.0987 48.5762 44.3776 48.3128 44.4501C49.4049 45.653 49.3369 43.3107 50.2867 43.8823C51.2273 44.4594 51.9124 45.6882 52.3431 42.4278C52.0198 41.9776 51.6516 41.3242 51.3083 40.7963C50.1773 42.1939 49.7252 41.0272 48.5948 39.8696C48.747 41.2302 48.8978 42.5817 49.0501 43.9423ZM191.74 30.0032C191.434 28.4318 191.238 29.9954 191.211 30.0153C191.212 30.0171 191.212 30.019 191.213 30.0208C189.032 28.6496 191.529 30.8835 189.54 31.2196C189.854 31.6015 190.166 32.0059 190.479 32.3927C190.909 31.6093 191.328 30.7248 191.74 30.0032ZM123.277 35.0674C123.301 35.5282 123.322 35.9904 123.347 36.4512C124.535 36.2293 125.011 38.0071 125.849 36.2668C124.991 35.8621 124.135 35.461 123.276 35.0619C123.276 35.0637 123.276 35.0655 123.277 35.0674ZM63.2002 38.685C61.781 37.9428 60.7513 37.6561 59.6144 39.1737C59.6136 39.1756 59.6127 39.1775 59.612 39.1794C59.5466 39.2724 60 40.1965 59.9277 40.4479C59.649 40.3307 59.3519 40.1375 59.0675 39.9927C59.1079 40.765 59.15 41.5369 59.1899 42.3045C59.9243 42.0114 60.6495 41.7192 61.3842 41.4257C61.3176 41.8863 61.2479 42.3433 61.1814 42.804C61.8462 42.9715 62.5084 43.1383 63.1705 43.3058C62.8215 42.0682 62.4734 40.8302 62.1276 39.5875C62.4838 39.2851 62.8425 38.9922 63.2002 38.685ZM142.76 28.2172C142.592 28.7364 143.054 29.5435 142.764 30.0031C142.474 30.4571 141.792 29.5739 142.055 30.9765C142.51 31.1287 142.99 31.3071 143.456 31.4682C142.234 34.1423 140.596 31.9597 140.85 35.1116C142.16 34.1744 143.328 34.456 144.738 35.2155C144.475 32.7187 142.946 30.6706 143.593 28.2509C143.318 28.2415 143.028 28.2184 142.763 28.2224C142.762 28.2207 142.761 28.2189 142.76 28.2172ZM5.05662 11.9982C4.05422 12.2451 1.85428 11.3792 0.865337 12.9284C0.61442 13.3099 0.101133 18.0369 0.161781 18.6496C0.360682 20.7124 1.46533 20.9034 0.421499 22.3458C0.807051 22.3274 1.19561 22.3733 1.58521 22.3791C1.62769 23.7727 1.67006 25.1626 1.71865 26.5511C1.2363 26.3802 0.751754 26.2094 0.272381 26.0353C0.288644 26.4967 0.30487 26.959 0.321316 27.4204C1.98449 27.2892 1.15225 29.1451 2.14615 30.7267C1.42698 31.6261 0.708805 32.5242 3.91692e-06 33.4274C0.44212 33.2859 0.966255 33.1648 1.35298 33.0109C1.60043 35.3591 0.615128 34.878 0.48966 35.3283C-0.205434 37.8668 4.31662 36.2351 4.92293 39.6465C4.23138 40.0794 3.49934 40.5105 2.78962 40.947C3.03476 41.3521 3.28504 41.7573 3.53105 42.1628C5.02017 39.6687 6.81146 38.6899 8.6708 37.1536C8.67272 37.1546 8.6746 37.1556 8.67649 37.1566L8.61678 37.1579C8.75733 37.253 8.90373 37.3531 9.05005 37.4483C8.98307 38.5132 8.92785 39.5744 8.88105 40.64C9.05577 40.7679 9.24505 40.8991 9.44721 41.0351C8.97846 37.505 9.79598 37.5627 11.3312 35.5537C10.7324 34.2573 9.80591 34.9525 9.98639 32.6614C12.4004 34.5742 15.4784 32.4834 17.6418 34.7333C18.1766 35.2907 17.8371 38.2402 19.2821 38.1212C19.2689 37.7919 19.323 37.2058 19.3377 36.7765C20.3163 37.4963 21.144 38.0857 21.9853 38.424L22.4666 38.4274C23.6151 38.6878 24.706 38.5203 26.0716 37.5785C26.0162 38.6528 25.9643 39.7313 25.9103 40.8054C25.3094 40.3226 24.7609 39.8263 24.1635 39.3415C23.9307 41.1253 24.5601 41.8568 22.9273 41.9642C22.8566 41.9688 22.7924 41.9706 22.7339 41.9699L21.6689 41.9625C20.6035 41.776 21.3763 41.1218 21.0737 40.5984C20.6484 39.8429 20.0752 41.1938 19.6263 40.3473C19.2809 39.6975 19.8714 38.3007 18.7789 38.5531C18.9978 40.4696 19.2344 42.4483 19.4819 44.3882C19.7934 43.994 20.0977 43.5919 20.4072 43.1915C20.1849 42.6645 19.9744 42.1447 19.7583 41.6171C20.3425 42.3061 20.9149 42.9656 21.5185 43.644L22.8609 43.6533C23.1539 43.9073 23.4595 44.164 23.7827 44.427C23.2657 41.7393 24.3088 42.6808 24.8856 42.9562C25.7408 43.3908 24.8884 41.5822 25.4527 41.8491C26.0335 42.1192 26.7785 44.1558 27.7203 43.6267C27.101 42.4645 27.7107 41.3229 27.4799 40.221C27.2514 39.1191 26.2055 38.9595 27.0845 37.6609C29.0635 38.4211 27.3585 42.8393 28.7122 43.4145C30.3288 44.1059 30.0778 37.1628 29.4942 35.7176C29.0297 34.5807 27.8296 34.9223 27.3525 33.7899C29.3787 31.497 29.7603 35.642 30.214 36.4204C31.8663 39.251 30.2156 31.4501 32.1118 34.1543C31.9481 32.6825 31.8036 31.3585 31.6456 29.9469C31.9455 30.191 32.1621 30.5317 32.5208 30.7141C31.7867 33.6775 32.5865 33.4808 33.0118 33.4465C33.6821 33.3946 32.7763 34.8903 32.9868 35.2358C33.5574 36.16 34.2554 35.6526 33.9172 36.96C34.0668 36.3523 34.2347 35.7412 34.3929 35.1373C35.2512 35.7986 37.6192 41.7847 35.7814 40.7019C36.1525 42.9734 36.6092 41.8228 37.0203 41.4337C37.4343 41.0446 37.5529 42.5021 37.9126 42.1971C39.347 40.9774 38.1071 38.5815 37.6818 36.6522C39.8417 37.8054 37.928 38.8838 40.9334 39.5066C41.3638 41.0703 40.1898 42.894 41.3892 43.7064C41.33 40.9243 41.9737 38.8609 43.4897 37.7892C43.7072 38.4092 43.9279 39.0347 44.1439 39.6549C44.7701 37.0213 44.0667 34.4134 45.9985 37.4176C44.5695 31.6839 45.5194 35.3488 46.7454 32.8392C46.9955 32.3329 46.1934 31.1925 46.5477 30.5405C46.7104 30.2461 47.2488 31.1134 47.6342 30.3658C47.8203 29.9968 48.6491 27.6516 49.4665 28.6469C49.2151 31.5167 50.8165 33.7802 49.873 36.2263C51.9971 35.4381 53.6322 36.6428 50.8316 33.0389C51.2997 32.1319 51.7613 31.2291 52.2313 30.3264C52.6842 30.9603 53.1347 31.5891 53.5859 32.2184C53.4159 29.8966 53.2903 29.2532 54.8459 29.5105C54.136 29.0289 53.4236 28.5382 52.7157 28.0515C52.6475 27.586 52.5085 27.1089 52.4856 26.6529C53.3736 27.4636 55.6832 27.6212 56.2973 28.1824C56.9116 28.7438 55.8607 29.0186 56.0795 29.6006C57.8956 34.3985 57.4207 30.7739 58.4558 31.5251C59.0634 31.97 57.7867 32.6462 58.1062 32.8296C59.2924 33.5004 59.5355 30.8301 60.5133 30.6985C60.3137 32.2205 60.1199 33.7651 59.9314 35.2999C60.9499 35.1186 62.092 34.9908 63.0957 35.3721C63.4902 35.5207 63.3173 36.6551 63.3861 36.7231C63.731 37.0723 65.0211 37.5504 65.1542 37.5417C66.1433 37.451 66.0128 35.9168 66.9613 35.7364C66.5726 35.6446 66.2082 35.5633 65.8297 35.4751C65.4138 33.0085 64.9913 30.5426 64.5738 28.0715C65.4926 27.7964 66.4104 27.5249 67.3319 27.2492C66.731 28.1477 66.1214 29.0431 65.5209 29.9414C66.7943 31.8396 68.0731 33.7417 69.3501 35.6438C69.7862 34.3545 70.2162 33.0661 70.6499 31.777C72.2019 31.9478 72.4047 36.9815 72.6785 32.526C73.1634 32.8509 73.649 33.1756 74.1348 33.4957C74.007 32.877 73.8797 32.2569 73.752 31.6381C74.3313 31.9677 74.9077 32.2949 75.4875 32.6289C75.1457 34.9012 74.8292 37.2879 74.485 39.4948C75.5968 39.8677 75.4247 37.9872 75.5355 37.5022C75.8283 36.2177 76.8354 37.8072 77.0507 36.6241C77.1234 36.2181 75.956 35.0879 76.1692 33.6249C76.2122 33.3412 77.0665 27.9564 78.08 29.0758C78.1606 30.0272 78.2111 31.1988 78.2807 32.2357C78.3389 32.2568 78.3947 32.2661 78.4481 32.2645C79.5309 32.2333 79.6197 27.6061 79.3288 26.297C80.0629 27.2045 81.0017 27.1895 81.2897 28.6954C81.6212 28.6985 81.9499 28.7 82.2745 28.7038C81.5482 25.039 82.9882 25.5734 83.3993 28.7471C82.8512 28.8837 82.2939 29.0253 81.749 29.1614C82.5783 33.0176 81.1183 35.549 84.2772 31.569C84.7408 29.47 83.1109 31.9696 83.5008 30.3933C84.36 29.4102 85.3337 30.0568 86.1019 28.5488C87.0403 26.6672 85.4824 25.1137 88.3468 27.0862C83.1269 33.3189 89.5348 30.8053 92.4539 32.2671C92.6183 26.6314 94.7481 24.63 98.0943 25.9565C97.92 27.538 96.8469 26.8432 96.3183 27.4127C95.796 27.9816 96.5117 28.8353 95.8728 29.6317C95.2293 30.4284 93.8114 31.5682 93.1966 32.7366C93.9069 33.5478 97.15 35.3041 94.8862 33.0252C96.2323 31.3363 96.767 29.6887 98.592 29.2101C99.404 31.5656 99.5038 33.0739 101.326 32.9571C99.9146 29.7127 101.725 27.1715 100.919 23.7528C99.7232 24.6909 100.783 27.9854 100.205 29.6736C100.142 29.8429 98.8707 29.1205 98.592 29.2101C99.4876 26.0606 99.7866 24.8921 98.6753 21.3686C99.5593 21.596 100.052 21.0888 100.303 22.7999C100.404 22.0361 100.505 21.2715 100.604 20.5079C100.884 20.498 101.142 20.5413 101.437 20.4972C101.295 23.1317 101.922 21.4546 102.598 22.5733C103.277 23.6931 102.736 25.8163 104.276 25.6874C103.829 26.3462 103.407 26.9153 102.974 27.5401C104.033 28.1059 105.089 28.6767 106.151 29.2429C105.611 30.8983 104.355 33.404 104.605 35.4846C104.984 34.6507 106.676 35.8761 106.857 35.9153C107.536 36.0618 107.044 34.7835 107.091 34.746C108.061 34.0023 108.965 34.3632 109.156 32.3317C110.027 33.1519 110.564 32.5802 111.396 32.5483C111.854 32.5305 111.912 34.0027 112.151 33.6982C113.734 31.6685 111.864 29.9442 115.635 33.2055C115.322 34.266 115.018 35.3492 114.708 36.4188C115.13 36.7653 115.551 37.1142 115.975 37.4607C116.214 37.2498 116.454 37.0375 116.692 36.8269C116.468 34.6169 116.243 32.4024 116.02 30.1925C116.29 30.0441 116.563 29.8991 116.834 29.7507C116.326 29.5807 115.821 29.4109 115.31 29.2414C115.227 28.8568 115.147 28.4718 115.064 28.0873C115.732 27.4129 116.386 26.7346 117.052 26.0562C117.141 26.8238 117.231 27.5968 117.32 28.3644C118.842 27.1344 118.824 26.4789 120.574 28.447C121.766 28.3079 123.043 31.4307 123.863 32.7182C124.069 32.2634 124.273 31.8033 124.482 31.3484C124.701 31.9731 124.921 32.5948 125.141 33.2195C125.369 32.2995 125.602 31.379 125.832 30.4637C126.199 32.4674 126.349 33.0894 125.194 33.9152C125.853 36.3876 127.896 35.0752 128.693 34.1492C129.297 33.4465 128.363 31.4196 128.422 31.1568C128.618 30.2645 129.786 30.9092 130.002 30.7441C130.92 30.0553 131.614 30.0967 132.45 29.552C132.613 29.4434 132.97 28.0707 133.007 28.0253C133.153 27.8988 133.403 27.66 133.629 27.4474C133.862 27.2292 134.069 27.0386 134.113 27.0251C138.61 25.6184 134.233 31.8244 138.434 30.836C138.375 31.6077 138.325 32.3734 138.268 33.1448C138.593 33.1626 138.921 33.1779 139.246 33.1959C139.596 32.5245 139.002 31.412 139.893 32.2731C139.758 31.3407 139.622 30.4078 139.485 29.4803C139.882 29.9549 140.265 30.4268 140.669 30.9011C140.95 27.5991 142.955 26.6826 142.482 22.8768C142.321 21.5817 140.735 20.3752 141.393 18.9209C142.002 18.5934 141.707 20.1819 141.972 20.2412C143.888 20.6478 143.592 18.483 144.405 18.9988C144.603 19.921 144.809 20.861 145.011 21.7924C145.276 21.4947 145.54 21.1972 145.807 20.8995C145.926 21.5206 146.047 22.1421 146.166 22.7631C145.899 22.8272 145.6 22.8946 145.355 22.9571C145.901 25.3541 149.158 26.1864 147.782 24.2153C147.222 23.4151 146.345 23.8464 146.682 20.9322C147.573 21.2751 148.563 21.62 149.497 21.9615C149.476 21.3418 149.452 20.7212 149.431 20.1015C150.667 20.4059 149.766 22.9614 149.875 24.2843C150.152 24.2997 150.432 24.3103 150.71 24.3258C150.78 23.7183 150.842 23.0834 150.919 22.494C151.004 23.4454 151.334 25.6461 152.089 24.761C152.574 24.1856 151.559 21.847 152.591 22.1028C152.629 23.5943 152.404 25.4313 153.562 25.8243C153.556 24.2652 153.603 22.8329 153.566 21.1967C155.068 22.5816 155.536 20.1386 157.299 21.7524C158.429 22.7726 160.107 26.566 160.369 20.5222C161.116 20.3121 160.979 21.8222 161.226 22.1426C162.397 23.6589 162.997 20.7624 163.183 20.582C164.376 19.4258 165.01 20.3737 165.952 18.965C165.967 20.0794 166.004 21.1328 166.028 22.2186C164.983 20.6149 164.505 20.724 163.207 21.1695C163.664 21.363 164.123 21.5619 164.584 21.7558C164.57 22.6619 164.557 23.5681 164.546 24.4694C160.226 21.1909 161.568 26.734 165.054 27.7362C165.242 26.0488 165.433 24.3658 165.618 22.6742C167.762 25.0757 168.552 22.8228 170.754 22.1636C171.014 22.0878 172.055 22.991 172.464 23.015C172.457 23.0218 172.451 23.0286 172.444 23.0354C172.793 24.5963 172.487 25.3418 172.528 26.7527C172.761 26.9164 172.995 27.0793 173.229 27.243C173.67 26.1405 173.44 25.2686 174.452 25.4677C174.377 26.5447 174.306 27.6218 174.232 28.6987C175.325 28.674 175.95 27.4739 176.997 27.9205C176.804 27.5252 176.613 27.1287 176.421 26.7334C178.568 25.5813 176.474 19.3884 178.304 22.4291C178.381 21.8749 178.455 21.3155 178.532 20.7613C177.833 20.6631 177.156 20.5683 176.456 20.4713C176.399 19.6958 176.342 18.9236 176.288 18.148C177.047 18.3398 177.78 18.5409 178.534 18.7343C177.968 18.2418 177.401 17.7491 176.841 17.257C177.665 16.8394 178.505 16.4215 179.345 16.0048C178.584 18.9072 179.781 19.1948 179.705 22.0337C181.078 19.6029 182.114 16.4394 184.563 18.312C185.048 18.6853 184.882 20.6735 186.083 18.2066C185.912 21.3658 187.634 22.7641 187.56 25.7646C187.093 25.6418 186.614 25.5733 186.164 25.4175C186.618 24.3564 186.569 21.4987 185.762 20.6881C184.746 19.6544 183.392 21.7029 183.3 18.5328C182.916 18.7008 182.559 18.8065 182.189 18.9508C182.383 19.7287 182.574 20.5117 182.765 21.2898C181.638 20.111 180.957 20.5474 180.546 22.554C181.86 22.9435 183.153 23.3311 184.467 23.7196C184.283 23.8636 184.097 24.0087 183.914 24.148C184.984 26.1243 184.088 28.0883 185.905 28.435C185.85 27.51 185.797 26.5843 185.742 25.6547C186.511 28.0982 188.329 28.0007 187.88 30.8747C188.385 29.975 188.465 29.4171 188.842 30.9378C190.169 28.7096 190.994 25.9326 190.329 22.6894C190.889 23.1912 191.437 23.6947 191.993 24.1973C191.723 25.1038 191.454 26.0061 191.187 26.9127C192.102 26.8166 193.054 26.7208 193.971 26.631C193.957 23.9841 192.141 25.9056 192.586 23.5203C192.675 23.0414 193.223 24.0355 193.345 23.7628C194.605 20.8152 192.518 22.9945 192.831 20.7636C194.878 19.9922 193.048 16.3518 196.049 19.3516C196.094 18.5855 196.146 17.8038 196.184 17.0427C197.165 16.9573 197.154 18.684 198.019 18.976C198.559 19.1576 199.131 16.1043 199.787 18.1431C199.907 18.5192 199.06 22.2557 201.128 22.0141C202.742 21.8272 201.986 19.2377 202.814 18.2795C203.637 17.3216 205.805 20.8739 206.229 16.7445C205.797 17.3046 205.218 17.6191 204.721 18.084C204.485 17.291 204.254 16.5065 204.021 15.7182C205.231 16.709 206.384 15.4494 207.232 17.3308C208.698 14.3583 210.51 17.0099 210.153 20.3207C209.63 19.8625 210.133 18.4071 209.46 19.3463C209.414 20.1167 209.364 20.8835 209.318 21.6539C210.507 21.5208 211.353 21.515 210.724 19.1917C210.909 19.1297 211.093 19.0679 211.28 19.0059C211.368 20.6991 211.454 22.3987 211.543 24.0919C211.773 24.2755 212.005 24.4574 212.237 24.641C212.334 24.486 212.431 24.3304 212.529 24.1742C212.668 23.9474 212.807 23.7195 212.947 23.4916C212.529 20.8211 211.948 20.7506 213.797 19.1918C213.832 20.1179 213.869 21.0403 213.904 21.9664C215.458 20.7391 215.447 18.4931 217.44 18.5169C215.814 15.3463 215.142 21.0739 214.948 14.6221C214.572 15.0577 214.195 15.4991 213.823 15.9348C213.735 15.001 213.647 14.0659 213.562 13.132C215.666 13.5591 219.293 19.6107 220.549 15.4915C220.731 15.9847 220.911 16.4128 221.097 16.9431C222.388 14.4419 223.137 19.9543 224.419 16.7325C224.553 16.3945 224.108 11.2078 225.918 11.3455C225.891 12.0218 225.898 13.1587 225.884 14.0114C226.264 13.5867 226.643 13.1429 227.014 12.7092C227.1 13.331 227.19 13.9524 227.276 14.5788C226.627 14.8382 225.962 15.1022 225.305 15.3622C225.862 15.5614 226.432 15.7606 226.983 15.9603C226.296 16.9984 225.964 17.0181 226.445 18.6395C227.074 18.7206 227.692 18.8081 228.318 18.8896C228.393 19.3064 228.468 19.728 228.543 20.1448C228.274 21.4002 228.002 22.6283 227.735 23.9024C229.322 22.8404 230.746 22.7487 231.92 20.2645C232.122 19.8449 231.33 18.2382 232.814 19.668C232.815 18.8066 232.836 18.1066 232.842 17.3101C234.684 19.6777 235.232 18.9441 237.044 17.1585C235.884 18.812 236.928 17.7296 237.254 18.593C237.477 19.1879 236.659 19.1187 236.766 19.7448C236.874 20.3664 237.994 22.8601 237.095 23.1847C234.753 18.0746 234.298 24.2621 231.391 21.852C231.845 22.5068 232.302 23.163 232.758 23.8178C232.562 24.2742 232.388 24.6882 232.177 25.173C233.739 24.1233 232.984 24.7988 233.657 25.5785C234.336 26.3583 235.529 27.006 236.33 27.2057C236.582 27.2685 236.29 26.1167 236.853 25.9954C237.236 25.9117 238.336 27.6034 238.528 25.5738C238.656 24.2526 236.883 20.6643 239.216 20.6182C239.625 19.3163 238.515 19.7436 238.488 19.5886C238.248 18.0569 239.656 16.868 240.349 18.026C240.405 18.126 239.908 19.3354 240.49 19.7919C241.874 20.8827 242.623 19.492 243.458 17.6145C243.601 19.7914 244.8 22.3681 246.203 21.5313C246.289 22.1533 246.372 22.7809 246.458 23.4075C246.231 23.0823 246.005 22.7615 245.776 22.4363C245.544 22.8327 245.295 23.1231 245.071 23.5892C246.514 24.0933 246.775 27.0922 247.483 28.176C249.903 31.8787 248.314 23.9698 247.862 22.6104C247.57 23.1711 247.289 23.796 247.001 24.3846C247.018 23.6249 247.035 22.8594 247.049 22.0952C250.554 22.0424 247.475 17.157 249.226 15.7078C249.768 19.4318 251.076 19.7639 252.694 17.3595C252.879 17.3743 253.064 17.3752 253.25 17.3946C253.292 17.9384 253.308 18.7706 253.366 19.1283C255.385 19.7199 255.624 13.9624 255.803 13.4137C256.598 10.9802 257.325 14.31 257.574 14.3336C258.625 14.4289 258.899 12.9383 259.91 13.556C260.997 14.2236 260.286 15.3773 260.633 16.3903C260.911 17.1947 261.76 17.3222 262.126 18.1546C261.974 17.4709 261.806 16.8009 261.654 16.1146C262.748 15.157 263.639 14.2271 264.898 13.9745C266.419 18.9692 267.471 10.4741 267.111 17.3546C265.923 17.8478 265.269 18.6438 264.664 20.407C265.452 20.6152 266.242 20.8176 267.032 21.026C267.247 20.2675 267.395 19.5295 267.651 18.7562C268.269 20.3464 269.613 19.6334 270.157 20.0931C272.702 22.2484 271.976 24.9946 274.173 20.3613C272.519 19.9446 272.483 17.7147 270.856 18.0527C271.178 16.4536 272.014 16.768 271.441 14.869C273.029 15.3096 272.55 17.0236 273.192 18.5254C273.743 19.82 274.816 19.8732 274.786 21.5695C274.878 20.6355 274.946 19.7316 275.038 18.7987C276.062 18.7891 277.078 18.771 278.104 18.7615C277.648 17.7965 277.196 16.8297 276.744 15.8693C277.066 15.4957 277.386 15.1236 277.711 14.75C280.287 17.7303 284.521 12.1053 283.965 19.721C285.18 19.9413 285.31 18.9851 285.948 17.5345C286.032 18.1104 286.111 18.5893 286.195 19.2304C286.969 18.6121 287.608 20.7685 288.286 20.1929C288.964 19.6216 289.097 17.5716 289.259 21.0106C289.691 20.0155 290.123 19.1877 290.551 18.2626C290.834 19.0395 291.116 19.8074 291.394 20.5797C291.806 20.1625 292.217 19.747 292.627 19.3299C292.872 20.9685 294.524 20.2309 295.266 21.3211C295.926 19.5383 295.793 13.9645 297.444 14.9343C297.427 16.3176 297.41 17.697 297.392 19.0803C297.761 18.785 298.129 18.4906 298.498 18.1953C298.512 17.7437 298.524 17.292 298.538 16.8404C298.351 16.9834 298.165 17.1257 297.978 17.2734C298.129 16.5068 298.277 15.7438 298.426 14.9773C299.013 16.0985 299.599 17.2198 300.185 18.341C299.438 19.2112 298.686 20.082 297.931 20.9523C298.916 21.9502 299.566 20.9258 300.418 22.0424C301.119 20.1205 300.828 19.0254 300.492 16.9594C300.768 17.1313 301.047 17.2972 301.323 17.4692C301.107 15.4006 301.541 14.1581 299.958 14.3539C300.056 13.761 300.156 13.1957 300.25 12.5796C300.514 12.6681 300.675 12.1656 300.965 12.3883C301.758 12.9983 302.417 16.6265 302.387 17.9034C302.371 18.5722 301.581 17.3078 301.628 18.2521C301.745 20.5547 303.489 19.4887 300.988 21.8482C301.86 23.2998 302.029 22.1903 302.946 21.75C302.888 22.519 302.831 23.2832 302.775 24.0522C303.198 23.6907 303.62 23.3306 304.039 22.9692C303.367 19.0362 306.53 17.4975 303.601 14.0991C304.439 13.9071 305.289 13.7139 306.122 13.5125C305.942 13.1106 305.762 12.7128 305.581 12.3109C305.205 12.5319 304.83 12.7494 304.451 12.9658C304.888 12.2176 305.323 11.4737 305.756 10.7255C306.83 11.6237 307.252 13.0273 307.777 14.7598C306.569 16.053 306.946 14.3097 305.983 13.982C306.037 15.0842 306.011 16.0995 306.115 17.2566C306.566 14.9634 308.207 16.596 308.589 16.7008C309.737 17.0192 308.802 14.7911 309.562 14.7299C310.32 14.6695 311.239 15.9889 311.829 13.7515C311.841 14.9992 311.815 16.2908 311.791 17.4276C312.991 17.8152 312.723 16.3459 312.843 16.1527C314.72 12.9783 315.868 15.6071 318.104 15.8855C317.825 16.2774 317.535 16.6319 317.262 17.0005C319.015 19.6164 317.837 18.8279 316.404 19.7308C317.756 19.4396 318.616 21.6795 319.596 22.3311C320.564 22.9819 322.237 21.7897 322.82 20.8745C321.392 19.4499 319.915 20.4375 318.35 20.0671C318.503 18.7928 318.655 17.714 318.81 16.3141C319.806 18.963 320.308 17.169 320.607 16.8091C321.503 15.7532 321.523 18.0429 322.026 15.5695C322.02 16.417 322.018 17.1296 322.012 17.9212C323.867 17.5302 325.887 15.9902 327.165 19.0925C327.235 17.0556 327.279 15.0936 327.364 13.0145C328.201 14.5288 328.842 12.9458 329.505 13.2894C329.509 13.2911 329.512 13.2928 329.515 13.2945C330.19 13.649 329.976 15.2858 330.778 15.8984C330.926 16.0116 331.207 14.9757 331.581 15.7267C331.963 16.4815 333.39 22.1249 333.456 17.1652C334.139 17.1264 334.774 16.9307 335.425 16.8319C334.782 16.5672 334.132 16.3113 333.476 16.0467C334.004 14.833 334.524 13.6231 335.04 12.4095C335.134 13.4788 335.229 14.5674 335.319 15.6228C336.781 16.8936 337.882 15.1162 339.341 15.4963C339.592 15.5602 339.041 17.6916 340.152 17.1254C341.267 16.5585 341.934 12.5888 343.886 14.0683C343.983 14.1451 344.616 17.1577 345.224 15.0463C345.363 14.5677 344.712 13.8808 345.042 13.2486C345.36 12.6165 346.953 12.0633 347.027 10.5753C347.024 11.1016 346.94 11.649 346.906 12.1855C347.18 12.4301 347.455 12.6748 347.728 12.9147C347.729 11.9878 347.732 11.0594 347.733 10.137C349.344 12.2528 350.192 15.7497 352.475 14.5249C351.877 15.8871 351.24 17.2556 350.65 18.6172C350.452 17.6766 350.253 16.7297 350.057 15.7891C349.02 16.1933 347.957 16.5951 346.927 16.9983C346.726 15.9272 346.529 14.8591 346.327 13.788C346.049 13.9347 345.772 14.077 345.491 14.2237C345.582 14.9994 345.673 15.771 345.766 16.5466C345.197 16.3698 344.663 16.188 344.105 16.0107C345.318 20.573 347.23 15.5424 347.174 19.385C347.407 18.7831 347.638 18.1771 347.868 17.5707C348.019 19.4294 348.513 18.8808 349.406 18.5643C349.225 19.4867 349.02 20.3972 348.854 21.3286C349.708 20.0118 351.21 20.0985 352.118 19.5759C352.507 19.3467 352.077 18.0076 352.19 17.8459C352.77 17.0013 353.964 19.3255 354.212 19.1324C355.619 17.9851 356.44 13.495 358.069 16.3932C356.491 17.1646 357.351 16.8333 356.822 18.4835C356.657 19.0009 354.565 20.1287 357.202 19.5801C357.49 19.5136 362.166 16.2904 360.526 13.9729C361.332 14.7039 361.951 15.5581 362.67 16.3378C364.22 10.0562 363.791 15.9258 363.391 19.1624C363.676 19.1676 363.945 19.1921 364.232 19.1832C363.512 15.8184 366.628 15.5106 367.771 17.1822C368.145 17.7383 367.187 18.8543 368.025 19.3392C368.4 19.0892 368.851 18.7665 369.258 18.4872C368.724 20.6487 369.942 21.4334 369.996 23.6119C370.677 21.6456 371.134 17.5109 370.633 15.2962C371.296 16.1769 371.939 17.0568 372.61 17.9411C372.34 18.4681 372.049 18.9913 371.783 19.5181C373.779 18.0778 376.54 21.0879 376.787 16.4958C377.062 16.5174 377.336 16.5346 377.603 16.5563C377.718 17.3253 377.826 18.0961 377.946 18.8649C379.154 18.1442 380.349 17.4171 381.538 16.6919C380.434 16.2615 380.129 15.1735 379.012 16.1155C379.422 15.2082 379.834 14.2955 380.217 13.3887C382.041 15.7032 382.365 17.2654 384.915 16.4262C385.041 16.3879 386.886 14.2824 386.942 14.0828C387.203 13.1735 386.666 11.9014 386.779 11.4429C387.093 10.1587 389.203 6.85606 389.125 6.37931C388.225 0.543961 380.647 0.853965 378.565 0.62783C362.061 -1.09857 345.746 1.16876 329.271 2.24221C324.296 2.56494 319.251 2.76462 314.19 2.69227C313.964 2.6854 314.045 1.81473 313.951 1.77928C313.366 1.57197 312.816 2.9368 312.6 2.99671C312.137 3.12049 312.37 1.86465 312.03 1.87008C308.522 1.94916 305.21 2.74491 301.699 2.59355C301.469 2.58368 301.721 3.58047 301.315 3.41075C301.106 3.31757 300.422 1.7936 299.953 1.77872C298.334 1.72848 296.935 2.24586 295.227 2.25297C294.289 2.25575 292.853 2.41187 291.809 2.40716C291.345 2.40554 290.847 1.71163 290.385 1.69638C289.729 1.67546 289.888 3.09731 289.788 3.18757C289.352 3.58187 289.262 2.0198 288.842 2.0645C288.067 2.15286 288.045 3.19727 287.054 3.12653C286.347 3.07397 284.706 2.27911 283.815 2.05294C281.749 3.30106 279.117 2.86807 277.157 2.50348C276.003 2.28719 275.923 3.75045 275.453 3.75445C273.795 3.75674 272.505 1.91381 270.948 1.88249C268.878 1.84252 267.078 3.11128 265.076 3.2387C264.752 3.25893 264.801 1.91864 264.482 1.89046C263.302 1.78755 261.789 1.57343 260.743 1.78514C259.577 2.01814 259.184 3.97008 258.032 3.59734C257.694 3.4866 257.561 1.78464 256.994 1.57728C256.087 1.25148 255.132 2.77422 254.509 2.95485C253.654 3.19609 254.366 1.44472 253.211 1.70158C253.164 1.71262 253.016 2.95709 252.765 2.90308C252.036 2.75063 252.087 1.77192 251.028 1.88742C250.926 1.9024 249.546 3.11456 249.405 3.12235C248.58 3.15856 246.93 3.60844 246.439 3.36779C244.68 2.51201 246.008 0.615578 244.614 4.69915C243.938 3.7222 243.268 2.73176 242.556 1.78383C243.037 2.67198 241.197 4.01102 241.06 3.93041C239.952 3.28021 240.565 1.68912 239.189 1.98186C241.095 5.58048 237.427 2.49229 236.61 2.41898C232.734 2.05977 229.213 3.05725 225.319 3.13844C224.008 3.16408 222.25 2.44235 220.857 2.50054C220.535 2.5108 220.803 3.36542 220.52 3.3921C220.238 3.41292 220.524 2.43682 220.203 2.49721C218.218 2.88963 216.679 4.76177 214.773 2.53735C214.693 2.86991 214.704 3.1304 214.565 3.49723C213.826 2.56336 212.817 2.68756 211.853 3.12679C210.728 3.62743 209.666 4.53576 209.097 4.75567C207.418 5.39877 206.914 4.0337 205.696 4.35537C204.063 4.78493 201.706 7.57317 202.639 3.07966C201.529 2.98046 200.405 2.98391 199.299 3.44107C199.175 3.49283 199.305 4.62136 199.255 4.64656C198.943 4.82132 198.805 3.81175 198.582 3.77376C197.983 3.67169 199 4.84736 198.14 4.54132C197.688 4.37727 197.397 3.5032 196.174 3.53339C188.753 3.73242 180.72 4.4244 173.101 5.00642C172.575 5.04563 172.858 3.9323 172.204 4.03971C169.936 4.4108 165.965 6.50103 163.986 6.37939C161.995 6.25733 162.341 4.62984 161.062 4.04323C160.814 3.9293 161.072 4.82686 160.856 4.85543C159.413 5.037 157.786 6.57837 156.633 6.87611C155.866 7.0752 155.825 5.63837 155.28 5.57514C154.476 5.48437 153.746 6.99361 153.327 7.07177C151.337 7.42637 149.863 6.36861 148.039 7.11164C148.088 6.79072 148.113 6.49518 148.151 6.17979C145.933 6.40764 143.722 6.64178 141.514 6.88127C141.594 6.58467 141.67 6.28589 141.75 5.98465C139.163 6.36443 139.732 9.45823 139.39 2.85427C139.181 2.63873 138.956 2.38731 138.757 2.18967C139.124 5.57484 137.769 8.19249 135.857 9.23308C135.717 9.31095 134.439 6.09297 134.897 9.98904C134.556 9.05649 134.344 8.41156 134.052 7.59155C133.738 8.81195 133.417 10.0189 133.104 11.2348C132.861 11.0792 132.616 10.9302 132.373 10.7747C132.269 10.0125 132.223 9.21557 132.081 8.47089C132.022 8.46981 131.961 8.47225 131.896 8.47782C130.791 8.57331 128.894 9.59566 128.1 9.57736C126.009 9.52427 123.707 7.65557 122.313 10.044C121.51 9.8911 122.143 8.31518 120.996 8.61708C120.937 9.38982 120.884 10.1302 120.822 10.9266C119.546 7.62215 119.542 9.70748 118.31 10.5433C117.478 11.1109 116.816 10.3377 115.997 10.5816C115.789 10.6441 115.916 11.6378 115.767 11.6196C115.267 11.5648 113.749 10.3295 113.398 10.3269C110.248 10.2735 107.589 10.6957 104.667 11.3617C104.354 11.4308 104.665 10.406 104.341 10.4809C103.816 10.6004 104.282 12.0794 103.982 12.1848C103.142 12.4705 102.985 10.8768 101.774 10.9161C97.8187 11.0435 93.4223 12.7075 89.3377 13.2402C89.2105 13.2534 89.121 12.3195 88.9822 12.3246C88.0631 12.374 87.285 13.7302 86.457 13.8024C85.0918 13.9258 83.9255 12.7222 82.5837 12.8664C80.486 13.0882 78.61 13.7148 76.5895 14.1158C76.0688 14.2186 75.5376 14.3069 74.9897 14.3705C72.7769 14.6295 70.8445 14.7006 68.4149 14.9519C57.8092 16.0454 46.6974 14.1637 36.2262 16.7399C35.9582 16.8071 36.1464 17.622 36.0603 17.5941C35.2409 17.3107 35.0793 16.2024 35.0118 18.5611C33.9606 18.1953 33.4947 16.4715 32.2996 16.7076C31.6722 16.8312 32.3943 19.5041 31.1782 18.2028C30.0942 17.0242 31.0247 15.4413 28.2643 17.221C28.1864 17.2701 27.9776 18.9576 27.3208 18.5807C26.6755 18.2069 27.2791 16.96 25.7927 16.7285C24.2387 16.4839 22.5323 16.7097 20.85 17.0025L23.8988 17.0237C21.9591 17.0548 19.8157 17.1355 17.6097 16.6285C17.3897 16.5731 14.9044 15.3891 14.3002 14.9207C13.2062 14.0147 13.6549 12.8025 11.8334 12.3634C10.8484 12.1471 9.84061 12.6385 8.33636 12.9686L7.91017 12.9778C7.501 13.1573 7.06343 13.2765 6.5777 13.2025C6.41852 13.1765 6.05899 11.749 5.05662 11.9982ZM211.491 25.5665C211.689 26.5774 212.046 29.5467 212.733 30.5236C212.994 30.9038 213.304 30.9826 213.673 30.5276C213.799 30.3746 212.983 26.8237 213.724 26.2312C213.336 26.0499 212.958 25.9356 212.583 25.8377C212.217 25.745 211.854 25.6672 211.49 25.561C211.49 25.5628 211.49 25.5647 211.491 25.5665ZM1.31754 45.5227C2.3048 45.1753 3.29089 44.8335 4.26034 44.4968C3.52962 43.9228 2.7847 43.3542 2.0333 42.7821C1.79534 43.6947 1.55458 44.6095 1.31754 45.5227ZM129.61 33.3433C129.609 33.3434 129.608 33.3435 129.607 33.3436C130.751 33.9102 131.894 34.4789 133.035 35.0474C132.876 34.5662 132.717 34.083 132.558 33.6019C131.633 32.9062 130.707 32.2123 129.784 31.5176C129.726 32.1262 129.668 32.7347 129.61 33.3433ZM120.562 28.9559C119.927 29.6071 120.193 30.5756 119.906 31.5721C119.906 31.5703 119.906 31.5684 119.906 31.5666C119.829 31.8262 119.382 32.0904 119.205 32.1454C119.212 31.5224 119.238 30.9055 119.251 30.2866C117.493 28.9513 114.86 34.5651 119.149 36.3013C119.012 35.5287 118.878 34.7598 118.741 33.9873C120.791 34.0064 122.888 32.0996 120.562 28.9559ZM227.936 27.3396C229.736 29.8548 230.323 30.3798 232.377 28.5719C232.061 27.8536 231.745 27.1354 231.43 26.4171C231.1 27.1662 230.779 27.91 230.445 28.6592C230.444 28.6593 230.443 28.6593 230.442 28.6593C230.352 27.8837 230.262 27.1066 230.175 26.3309C229.426 26.6669 228.678 27.0033 227.936 27.3396ZM54.3407 37.542C54.3616 42.6806 54.203 39.7083 55.7071 40.7186C56.2245 41.0698 55.8474 42.0067 56.1588 42.1256C57.8441 42.7765 57.641 39.352 57.1024 37.6133C56.1768 37.5836 55.2516 37.5643 54.3437 37.5417C54.3427 37.5418 54.3417 37.5419 54.3407 37.542ZM11.7638 38.2936C11.7629 38.2935 11.7619 38.2934 11.761 38.2933C11.6013 39.5312 12.1651 39.9259 11.3689 41.0335C11.8795 41.0796 12.4077 41.1272 12.9472 41.1837C12.8024 41.0503 12.6541 40.9221 12.5099 40.7893C12.6951 40.3786 12.8843 39.9632 13.0721 39.5532C13.1038 41.0003 13.3728 40.1915 14.0032 39.782C13.6659 41.2852 13.3343 42.7903 13.0023 44.2943C13.7073 43.9162 14.438 43.5419 15.1717 43.1689C15.2252 42.7864 15.2789 42.4033 15.3325 42.0208C15.5305 42.5411 15.7284 43.0666 15.9312 43.5871C16.0555 43.1375 16.1769 42.6918 16.3 42.242C16.5726 42.6252 16.8477 43.0081 17.1265 43.3958C17.3492 42.2971 16.705 41.7394 17.9099 42.16C17.6561 40.9793 17.4083 39.8018 17.1647 38.6207C15.3285 38.5042 13.5057 38.3724 11.7638 38.2936ZM67.0774 37.8502C65.0646 37.838 65.7041 38.5867 66.4213 41.0604C66.6385 39.9904 66.8593 38.9204 67.0774 37.8502ZM169.457 26.1241C170.146 27.8131 170.815 29.4865 171.506 31.1156C172.747 32.0077 173.722 28.7975 172.774 27.616C171.625 26.1994 170.605 27.9203 169.457 26.1241ZM196.353 25.5486C194.929 26.4085 196.385 28.4038 196.757 29.5866C197.074 27.6488 197.631 27.7961 198.519 27.5373C197.67 27.4458 196.59 25.4028 196.353 25.5431C196.353 25.5449 196.353 25.5468 196.353 25.5486ZM146.443 29.7262C145.867 29.722 145.248 29.2894 144.783 29.917C145.077 31.5502 145.981 29.9662 145.449 32.4684C145.82 32.4794 146.194 32.489 146.561 32.5054C146.245 31.5133 146.494 30.7317 146.442 29.7318C146.442 29.7299 146.443 29.728 146.443 29.7262ZM86.6084 37.8071C87.5359 35.744 87.8532 36.5524 89.1232 37.7827C89.1212 36.1818 87.4763 33.671 86.5703 33.1749C86.5891 34.718 86.5968 36.2633 86.6084 37.8071ZM355.206 24.4821C354.876 22.4605 352.849 22.2506 351.857 22.877C351.986 23.1747 352.115 23.4765 352.243 23.7789C353.224 24.0138 354.217 24.2483 355.206 24.4821ZM198.941 27.3834C198.793 27.4487 198.652 27.4986 198.519 27.5373C198.669 27.5536 198.812 27.5134 198.941 27.3834ZM259.317 16.9302C258.801 15.0263 260.209 14.3549 258.499 15.1391C258.499 15.1372 258.499 15.1354 258.499 15.1336C257.369 15.6501 257.119 15.787 256.065 15.9575C256.496 18.4079 258.657 19.2429 255.714 19.8106C255.675 19.8136 255.722 18.3494 255.255 18.5591C255.11 18.6243 254.669 19.8343 253.968 20.1982C253.741 20.3146 252.027 20.7206 254.374 20.6952C254.34 22.4101 254.502 24.1418 254.53 25.8042C255.455 26.2684 256.089 22.8988 257.06 22.9614C258.503 23.0626 259.301 26.4409 259.488 21.984C258.258 20.9144 256.178 20.9304 255.963 23.6128C254.794 23.6694 254.413 21.4832 255.334 20.3788C259.404 21.6746 256.378 17.1003 259.953 18.78C260.007 19.3982 260.166 20.0615 260.156 20.6439C261.193 18.4438 259.502 17.6111 259.317 16.9302ZM250.961 21.838C251.686 23.1316 252.41 24.4358 253.133 25.7343C253.088 23.6019 252.664 21.6962 251.539 20.5182C251.347 20.9597 251.152 21.4011 250.961 21.838ZM309.73 21.3002C309.852 22.4578 310.138 23.5153 310.353 24.6153C310.535 23.6341 315.563 22.602 312.988 21.6905C312.618 21.5577 310.372 23.6501 309.73 21.3002ZM78.5454 36.8854C78.6528 36.71 78.7602 36.5346 78.8674 36.3591C79.2576 35.7014 79.6742 35.0404 80.07 34.3821C79.5849 34.1774 79.079 33.9713 78.6013 33.7609C78.1364 33.5629 77.6716 33.3638 77.2075 33.1654C77.654 34.4051 78.0983 35.6458 78.5454 36.8854ZM178.939 23.5478C178.691 23.6045 179.606 25.1532 178.608 24.9543C179.397 25.9338 180.127 26.7602 180.885 27.682C181.06 26.9175 181.238 26.1561 181.415 25.3917C181.607 25.8669 181.802 26.339 181.994 26.8143C181.838 25.7217 181.694 24.6542 181.531 23.5433C180.437 25.9585 180.049 23.3031 178.939 23.5478ZM142.76 21.7313C142.747 24.1296 144.613 25.3967 142.928 25.9233C143.387 27.4592 143.978 28.2348 144.99 28.29C145.101 27.6785 145.212 27.0713 145.323 26.4597C145.479 28.0584 145.789 28.6315 146.443 29.7262C146.443 29.7243 146.444 29.7224 146.444 29.7206C147.972 29.7112 147.842 29.1853 147.992 26.5239C146.497 28.141 146.258 25.7406 145.034 24.4032C144.193 23.4835 143.246 24.0121 142.76 21.7313ZM304.364 21.3701C305.554 23.3654 304.559 25.2644 306.555 23.0858C306.415 22.576 306.274 22.0705 306.134 21.5607C305.547 21.4921 304.957 21.4293 304.364 21.3701ZM137.836 30.3791C137.637 26.6846 138.459 23.722 139.172 29.6981C138.235 31.0106 138.444 27.5713 137.836 30.3791ZM195.62 19.7841C193.594 20.0401 194.161 24.194 195.073 26.2442C195.169 25.4805 195.266 24.7153 195.361 23.9563C195.73 24.2861 196.101 24.6166 196.473 24.9418C196.189 23.2241 195.904 21.5018 195.62 19.7841ZM101.952 29.7732C103.764 32.2421 100.441 31.4043 101.684 32.9342C102.676 34.1572 103.537 31.3947 102.94 29.7798C102.641 29.7635 102.303 29.7653 101.955 29.7729C101.954 29.773 101.953 29.7731 101.952 29.7732ZM110.936 29.6216C110.965 32.4542 111.247 31.5993 109.983 31.2161C109.618 31.1075 106.967 32.4402 107.892 29.997C108.875 29.8976 109.919 29.7516 110.936 29.6216ZM219.154 23.0988C219.135 21.87 216.913 19.2367 216.664 19.9195C216.664 19.9177 216.664 19.9158 216.664 19.914C215.983 21.7749 218.234 21.9687 217.336 24.5209C219.433 22.2362 220.241 27.5883 219.884 20.5168C218.604 20.2433 219.245 21.6845 219.154 23.0988ZM381.572 17.7901C381.573 17.79 381.574 17.79 381.575 17.7899C381.444 17.854 380.329 19.7085 380.5 20.326C381.916 19.7271 381.602 18.5531 383.017 20.4396C383.061 19.8086 383.095 19.197 383.144 18.5611C382.586 18.2145 382.284 17.4732 381.572 17.7901ZM315.122 18.7223C314.583 18.4111 313.665 19.7601 313.07 19.692C315.035 24.7698 317.249 19.9584 315.122 18.7223ZM32.0185 38.7818C32.0202 38.7835 32.0218 38.7852 32.0235 38.7869C32.0228 38.7841 32.0219 38.7815 32.0212 38.7788C32.0203 38.7798 32.0194 38.7808 32.0185 38.7818ZM274.685 22.5218C274.746 22.1887 274.779 21.8997 274.788 21.6464C274.787 21.6226 274.787 21.5988 274.786 21.575C274.756 21.8864 274.723 22.2014 274.685 22.5218ZM223.599 23.3434C224.444 21.6059 221.393 18.9652 220.457 19.643C220.546 20.4229 220.577 21.1313 220.759 22.0248C221.468 19.9782 223.47 23.6357 223.599 23.3434ZM156.188 25.862C158.509 25.6457 154.985 19.1194 155.252 24.5129C155.264 24.6168 156.126 25.8573 156.188 25.862ZM205.121 23.2143C204.449 21.1888 205.629 20.6019 203.723 21.0248C203.631 21.5591 203.539 22.0946 203.448 22.6288C204.002 22.8229 204.56 23.02 205.121 23.2143ZM170.939 15.9843C173.967 16.948 176.895 18.8062 175.292 24.5514C175.06 24.3826 174.826 24.2199 174.596 24.0512C174.41 21.3016 173.658 22.8502 172.469 23.0092C172.238 21.9266 171.553 21.7133 171.371 20.7927C171.021 19.013 171.722 17.706 170.939 15.9843ZM47.1261 31.9909C47.2185 32.4545 47.3101 32.9207 47.4022 33.3796C47.9147 33.8632 48.4317 34.3436 48.951 34.8263C48.7877 33.9353 48.6243 33.0443 48.4613 32.1533C48.0136 32.0988 47.5708 32.0431 47.1288 31.9879C47.1279 31.9889 47.127 31.9899 47.1261 31.9909ZM247.96 16.0867C248.34 21.2571 247.385 20.3237 245.428 17.7492C246.274 17.1948 247.115 16.6407 247.96 16.0867ZM123.672 21.8605C123.75 23.3305 123.83 24.796 123.906 26.2663C122.757 24.837 122.781 23.1427 123.078 21.1586C123.277 21.3919 123.472 21.6272 123.672 21.8605ZM109.13 22.6594C109.518 22.312 109.422 23.5152 109.464 23.487C110.451 22.7608 110.554 22.2029 111.933 22.9639C112.122 23.2586 112.31 23.5694 112.501 23.8733C112.208 26.9998 111.609 25.3713 110.523 27.3003C110.645 26.2256 110.767 25.1495 110.89 24.07C110.206 24.3631 109.533 24.6521 108.848 24.9457C108.731 24.6298 108.615 24.3168 108.499 24.0009C108.708 23.5588 108.919 23.0642 109.13 22.6594ZM41.8828 33.8404C41.2067 34.0267 40.5312 34.2174 39.8611 34.4026C39.7641 33.6493 39.6678 32.8908 39.5709 32.1376C40.3398 32.7054 41.1086 33.2736 41.8828 33.8404ZM262.126 18.1546C262.186 18.4227 262.244 18.6925 262.297 18.9671C262.286 18.6314 262.221 18.3705 262.126 18.1546ZM383.194 13.5463C383.936 12.9795 385.082 13.2715 385.921 13.1161C385.956 15.0218 383.752 14.6061 383.055 15.7938C382.915 15.4584 382.877 13.7851 383.194 13.5463ZM192.827 20.0683C192.59 19.1276 192.352 18.1914 192.118 17.2507C191.648 17.3734 191.18 17.502 190.713 17.6251C190.665 16.8487 190.617 16.0655 190.569 15.2892C192.699 16.2077 192.13 13.988 193.079 11.7339C192.999 14.5102 192.911 17.2871 192.827 20.0683ZM20.5935 30.4742C21.9949 31.1472 22.4397 32.1701 21.3784 34.4144C20.9012 33.8305 20.4302 33.2439 19.962 32.6558C20.1744 31.9292 20.386 31.2016 20.5935 30.4742ZM289.626 15.8866C290.911 16.7356 290.876 13.6045 292.14 15.3308C291.491 15.9198 290.84 16.5153 290.189 17.1044C290.003 16.6994 289.812 16.2916 289.626 15.8866ZM227.341 8.57679C227.846 7.47387 228.979 12.6238 230.392 8.76439C230.777 9.89573 231.028 10.9794 231.364 12.0888C231.512 10.8691 231.684 9.63338 231.824 8.42328C231.825 8.42325 231.826 8.42323 231.827 8.4232C233.202 8.79884 232.355 10.3449 232.418 11.6338C232.446 12.168 233.438 11.2492 233.15 12.4206C232.65 14.4313 230.588 13.334 230.646 15.7691C231.336 14.9552 232.751 15.5853 232.378 17.22C231.967 19.0144 230.591 16.0591 229.779 17.5605C230.888 13.6379 228.423 14.904 228.222 17.9003C226.711 15.6433 228.016 14.6718 229.518 14.7402C228.544 12.4733 229.923 13.6761 230.098 11.7665C229.116 10.6411 225.924 11.6839 227.341 8.57679ZM158.545 15.8565C159.569 15.9321 161.051 14.5176 161.879 16.4C162.358 17.4968 160.833 18.4743 162.044 20.1656C161.048 20.0601 160.78 19.3861 160.841 17.8277C160.605 17.6572 160.367 17.4916 160.132 17.3259C160.05 17.6348 159.965 17.94 159.881 18.249C159.719 17.6208 159.556 16.9978 159.396 16.3694C159.166 16.5114 158.933 16.6539 158.704 16.8006C158.654 16.4826 158.587 16.2075 158.545 15.8565ZM325.947 15.308C325.67 15.2952 325.394 15.2824 325.114 15.2649C325.137 14.8867 325.166 14.4928 325.193 14.1041C325.212 13.7969 325.231 13.4898 325.25 13.1826C325.12 14.2813 323.788 16.1303 323.228 14.9712C322.936 14.3899 323.532 12.2935 322.337 11.9537C323.2 12.0436 324 12.3118 324.855 12.4711C324.766 11.8534 324.681 11.229 324.592 10.6113C324.592 10.6103 324.593 10.6094 324.593 10.6085C324.871 10.4631 325.151 10.3109 325.426 10.1655C325.601 11.8807 325.773 13.5928 325.947 15.308ZM124.212 18.8872C125.28 20.0065 125.655 20.6052 125.393 22.6042C125.393 22.6052 125.392 22.6062 125.391 22.6072C124.956 21.7738 124.518 20.9411 124.081 20.1081C124.124 19.7017 124.167 19.2939 124.212 18.8872ZM270.212 11.5106C272.38 18.9362 267.729 14.447 268.55 11.8882C268.587 11.771 270.036 12.3384 270.212 11.5106ZM195.902 17.4747C195.337 17.4371 194.775 17.4054 194.215 17.3682C194.305 16.4462 194.399 15.5272 194.49 14.6052C194.959 15.56 195.43 16.5197 195.902 17.4747ZM25.9514 26.9414C26.3398 24.8522 27.7605 23.9838 28.6825 26.1393C28.3379 26.4316 27.9574 26.7271 27.6062 27.0195C28.3531 27.2114 29.0779 27.4304 29.8396 27.6055C30.1246 30.4461 29.1538 28.8706 27.9473 29.7659C27.7736 29.9087 26.8095 33.5488 26.1622 30.9229C26.036 30.3829 27.3116 29.8992 26.2643 28.3866C26.6482 28.2278 27.0092 28.2247 27.3833 28.1222C27.3517 27.4425 27.3197 26.762 27.2907 26.082C26.8472 26.3676 26.3856 26.6574 25.9514 26.9414ZM164.445 15.6797C165.813 15.4332 166.063 16.561 166.479 18.5546C165.817 18.3678 165.162 18.1846 164.507 17.9985C164.488 17.2271 164.465 16.4557 164.445 15.6797ZM38.1118 25.1829C38.8312 24.7837 38.6649 26.4477 38.9982 26.7295C40.2471 27.7898 40.926 26.5469 42.118 27.1715C42.0127 26.8634 41.9156 26.5754 41.8142 26.2763C41.8152 26.2762 41.8162 26.2761 41.8172 26.276C47.0407 24.3835 44.5764 28.3608 41.3247 28.0641C41.3083 28.6785 41.2965 29.2933 41.2773 29.9033C39.7339 28.9795 38.3214 28.082 38.1118 25.1829ZM252.193 11.6122C252.247 11.2291 251.673 8.81376 252.679 9.92907C253.531 13.4554 252.218 11.7237 251.928 13.0929C252.2 13.4272 252.479 13.7522 252.749 14.0866C251.181 15.121 250.933 14.2837 251.457 11.6826C251.494 11.5078 252.14 11.9941 252.193 11.6122ZM262.6 9.65436C262.921 14.8697 260.87 12.562 260.911 10.9403C261.186 10.8702 261.419 11.7497 261.705 11.3531C261.993 10.9562 262.045 9.73549 262.6 9.65436ZM205.129 12.3999C205.19 12.3744 205.702 10.1609 205.703 11.8795C205.117 15.9681 203.539 13.4064 203.749 11.9822C204.239 12.0345 204.587 12.6325 205.129 12.3944C205.129 12.3963 205.129 12.3981 205.129 12.3999ZM18.6557 25.6136C18.7021 25.4731 20.2061 24.7551 20.2933 25.587C20.342 26.5196 20.3114 27.51 20.3227 28.4712C19.6428 27.5104 17.9788 27.9969 18.6586 25.6139C18.6576 25.6138 18.6567 25.6137 18.6557 25.6136Z" fill="white"/>
</svg>
