<svg width="151" height="55" viewBox="0 0 151 55" fill="none" xmlns="http://www.w3.org/2000/svg">
<path d="M12.1237 49.6874C11.5688 51.6664 12.8056 50.4692 11.7393 53.3974C11.8656 53.618 11.9922 53.8451 12.1236 54.0663C12.2909 52.9558 12.4599 51.8482 12.6272 50.7376C12.4546 50.3851 12.2895 50.0335 12.1243 49.6819C12.1241 49.6838 12.1239 49.6856 12.1237 49.6874ZM13.4371 35.6898C13.2666 38.8922 13.7625 39.8081 12.7857 42.6698C12.8594 41.5725 12.9308 40.4751 13.0036 39.3777C12.6862 40.1992 12.3704 41.0211 12.0651 41.8401C12.034 41.4153 12.0034 40.9902 11.9725 40.5702C11.67 42.4578 11.3736 44.3514 11.0853 46.2455C11.193 45.9758 11.305 45.7018 11.4179 45.4329C11.5758 47.0093 11.822 47.4634 12.2666 47.8047C12.1736 48.2487 12.0818 48.6889 11.9887 49.133C12.3141 48.3967 12.6488 47.6598 12.9879 46.9253C12.8556 46.1509 12.7119 45.2901 12.5969 44.5695C13.2488 41.6308 13.6292 43.3518 13.8622 44.007C14.1788 44.9011 14.2468 43.4762 14.4903 44.1036C14.5295 44.2018 14.4104 45.3111 14.5069 45.341C14.9965 45.486 16.0574 45.0061 15.76 42.3551C14.8897 42.5971 14.4363 40.4401 13.5777 41.1102C14.1262 38.1433 13.8351 37.0784 13.4371 35.6898ZM30.2003 44.8424C29.7606 43.426 29.3448 44.0763 29.1495 45.1257C29.1491 45.1257 29.1487 45.1258 29.1484 45.1258C29.105 45.357 29.188 47.3058 29.4212 47.1952C29.7903 47.0097 29.5788 43.9525 30.0586 45.9833C30.1005 45.5878 30.1529 45.2339 30.2003 44.8424ZM31.0707 44.909C31.2123 44.1336 30.7955 41.8643 30.579 42.5225C30.5788 42.5207 30.5785 42.5189 30.5783 42.5171C30.4885 42.7922 30.9732 44.5652 30.2832 42.7921C30.3825 44.23 30.4681 45.5388 30.5602 46.9307C30.674 46.939 30.7764 46.9634 30.8939 46.9665C30.504 44.6332 30.9286 45.6786 31.0707 44.909ZM16.0455 43.6954C15.8595 45.8146 15.6919 45.7833 15.2455 47.2194C15.5239 47.1795 15.8046 47.1347 16.0882 47.0942C16.0698 45.9595 16.0562 44.8295 16.0455 43.6954ZM10.3588 43.4047C10.3585 43.4047 10.3582 43.4047 10.358 43.4047C10.3258 43.0653 10.2924 42.7249 10.2589 42.3905C10.1618 43.1442 10.0689 43.8951 9.97906 44.6495C9.84307 43.9244 9.71657 43.2024 9.59953 42.4789C9.50276 44.7952 9.78565 44.4329 9.85283 46.0639C10.1684 45.3875 10.4627 44.0635 10.6604 42.108C10.5581 42.5381 10.4558 42.9739 10.3588 43.4047ZM81.4921 26.4871C81.684 27.1081 81.8749 27.7297 82.0671 28.3507C81.9806 28.66 81.8852 28.9005 81.8053 29.256C81.0538 26.5432 81.3858 28.9925 80.9195 28.8883C79.4723 28.5675 79.2056 24.2198 78.907 30.6911C79.8515 30.2442 79.9158 33.2544 80.8464 35.4415C80.7103 33.6913 79.5408 29.8729 79.8169 29.0029C80.7791 30.733 81.6935 32.3417 82.6361 33.4112C82.6583 33.7139 82.6807 34.0177 82.7029 34.3204C82.5531 34.1497 82.4044 33.9776 82.2551 33.8068C82.5053 34.5888 82.7517 35.3643 83.0059 36.1551C82.5661 34.361 83.1478 35.3134 82.7789 33.2317C82.6146 32.305 82.2318 31.0426 81.9874 30.1702C82.2058 29.6434 82.4337 29.1567 82.6534 28.6438C82.3927 27.9248 82.1325 27.205 81.8736 26.4858C81.7467 26.4811 81.6203 26.4832 81.4932 26.4786C81.4928 26.4814 81.4925 26.4842 81.4921 26.4871ZM144.072 28.959C143.57 26.7965 142.846 26.4773 142.646 28.9293C143.107 28.939 143.601 28.9501 144.072 28.959ZM10.8302 40.4964C10.7618 40.8638 10.696 41.2274 10.629 41.595C10.7146 42.2945 10.8023 42.9902 10.8855 43.6908C11.02 42.6235 11.1571 41.5563 11.2958 40.4941C11.1364 40.4922 10.9804 40.4961 10.8302 40.4964ZM24.7028 42.1931C24.5583 42.1456 24.5505 42.1821 24.4015 42.3552C24.4016 42.3543 24.4017 42.3534 24.4018 42.3524C24.349 42.4169 23.84 43.1127 24.0082 43.926C24.2959 43.9047 24.6008 43.8527 24.8844 43.8172C24.8255 43.2757 24.7602 42.7394 24.7028 42.1931ZM19.2831 43.074C19.2826 43.0758 19.282 43.0776 19.2814 43.0794C19.159 43.1954 19.0319 43.4416 18.9126 43.4782C19.1034 44.3168 19.2816 43.7095 19.4646 43.3141L21.6242 43.2779C21.6768 43.0287 21.746 42.8516 21.9046 43.0804C22.3314 43.701 22.7202 44.9538 22.6266 41.7395C22.4596 41.2764 22.2655 40.6084 22.086 40.0669C21.7966 41.1397 21.5662 40.5816 21.2113 39.6921L19.757 39.7165C19.7098 39.4885 19.659 39.24 19.5989 38.9885C19.4932 40.3534 19.3882 41.7091 19.2831 43.074ZM76.3885 33.8005C76.0634 32.2483 76.1933 33.7997 76.1849 33.8199C76.1853 33.8217 76.1858 33.8234 76.1863 33.8252C75.1517 32.4974 76.4199 34.6764 75.6892 35.0354C75.8614 35.4098 76.0355 35.8062 76.2082 36.1852C76.2704 35.4038 76.326 34.5207 76.3885 33.8005ZM50.0269 37.8218C50.0851 38.2792 50.1419 38.7379 50.2001 39.1953C50.6459 39.023 51.027 40.8018 51.171 39.111C50.7926 38.6763 50.4067 38.2461 50.0261 37.8164C50.0264 37.8182 50.0267 37.82 50.0269 37.8218ZM26.639 38.5654C26.0108 37.7593 25.5803 37.4236 25.2596 38.8728C25.2595 38.8747 25.2593 38.8765 25.2592 38.8784C25.2415 38.9673 25.5013 39.9066 25.4948 40.1524C25.3742 40.0223 25.2413 39.8156 25.1177 39.6577C25.2011 40.4258 25.285 41.1936 25.3677 41.957C25.6277 41.7035 25.8933 41.4491 26.1651 41.1936C26.1784 41.6473 26.1901 42.0973 26.2034 42.551C26.4922 42.7487 26.7583 42.9483 27.039 43.1468C26.7899 41.9022 26.542 40.6571 26.2952 39.4074C26.4084 39.1253 26.5241 38.8526 26.639 38.5654ZM56.9723 31.7182C56.9641 32.2277 57.2351 33.0407 57.1723 33.4876C57.1076 33.9291 56.7399 33.0342 56.999 34.4315C57.1963 34.5956 57.4064 34.7861 57.6068 34.9591C57.4213 37.5739 56.5309 35.3619 56.9783 38.4921C57.3935 37.6034 57.889 37.9161 58.5295 38.7075C58.1459 36.2269 57.3184 34.1544 57.3025 31.7756C57.1938 31.7585 57.0776 31.7273 56.9742 31.7235C56.9736 31.7217 56.9729 31.72 56.9723 31.7182ZM1.50808 9.55269C1.17809 9.78425 0.254119 8.86604 0.00978173 10.3712C-0.0512043 10.742 0.189645 15.4173 0.27136 16.0272C0.54525 18.0814 0.992323 18.3089 0.721341 19.7048C0.871209 19.6998 1.02842 19.7582 1.18094 19.7765C1.32903 21.1614 1.47705 22.5425 1.6262 23.9225C1.41873 23.7376 1.21763 23.5509 1.00885 23.3617C1.05893 23.8201 1.10918 24.2795 1.15931 24.7379C1.80048 24.6653 1.64793 26.4788 2.18668 28.0816C1.98614 28.9518 1.7946 29.8172 1.59981 30.6875C1.76241 30.5631 1.95194 30.4623 2.09108 30.3225C2.41009 32.6618 1.97822 32.1497 1.97207 32.5917C1.9424 35.0881 3.54832 33.6251 4.11121 37.0192C3.88265 37.432 3.63359 37.8387 3.39999 38.2485C3.53551 38.6585 3.66766 39.0692 3.8033 39.4793C4.14841 37.0473 4.76909 36.1252 5.35065 34.5726C5.42785 34.6621 5.51018 34.7537 5.58656 34.8387C5.68689 35.9003 5.7882 36.9576 5.88929 38.019C6.00311 38.1326 6.1182 38.2452 6.23094 38.3592C5.5469 34.9029 5.95403 34.9042 6.23883 32.7199C5.83675 31.5215 5.57693 32.303 5.34739 30.0153C6.47899 31.6687 7.3753 29.0684 8.46716 30.9951C8.63562 31.3002 8.77781 32.6226 8.98279 33.4552L8.93025 33.4579C9.0177 33.9294 9.11205 34.2474 9.26123 34.1484C9.24572 33.8225 9.24027 33.2339 9.22744 32.8055C10.0502 34.2295 10.4072 35.1126 11.4617 33.7504C11.3116 34.807 11.1648 35.8686 11.0206 36.9259C10.8853 36.381 10.7478 35.8284 10.6058 35.2855C10.359 37.0331 10.4625 37.8165 9.99025 37.769C9.62196 37.736 9.87814 36.9711 9.79747 36.4451C9.68014 35.7276 9.52382 37.1243 9.4079 36.327C9.31149 35.7166 9.43154 34.2624 9.13787 34.633C9.28337 36.5124 9.36444 38.4561 9.4029 40.3619C9.45331 39.9389 9.51778 39.5101 9.59162 39.0839C9.54925 38.5792 9.50284 38.0814 9.45234 37.5774C9.64989 38.4847 9.82577 39.3462 10.0184 40.2965C10.1044 37.5765 10.3258 38.6127 10.4631 38.9463C10.6783 39.4676 10.6093 37.584 10.7577 37.9094C10.9096 38.2403 10.905 40.3391 11.2702 39.9258C11.2119 38.7036 11.5593 37.6468 11.6234 36.5302C11.6856 35.4133 11.3362 35.1311 11.8123 33.9519C12.4144 34.9437 11.2432 39.1028 11.6225 39.8344C12.0644 40.714 12.9664 33.8354 12.9531 32.3336C12.9436 31.1518 12.4418 31.3362 12.4198 30.1594C13.5064 28.1506 13.0659 32.2947 13.1199 33.12C13.3109 36.126 13.843 28.2185 14.1487 31.1353C14.3047 29.6629 14.446 28.3387 14.5949 26.9265C14.6728 27.2072 14.7042 27.572 14.8118 27.7999C14.0959 30.6216 14.4277 30.5351 14.5885 30.5581C14.8407 30.5964 14.2896 31.9495 14.3148 32.3181C14.3837 33.3044 14.723 32.8991 14.4008 34.1414C14.548 33.563 14.7011 32.9835 14.849 32.4099C15.0611 33.1762 15.0627 39.3963 14.5338 38.0796C14.3331 40.3676 14.6794 39.2966 14.8878 38.9688C15.0975 38.6414 14.9301 40.094 15.1118 39.8428C15.8347 38.8368 15.7174 36.3066 15.8448 34.348C16.4803 35.7777 15.6042 36.5806 16.6554 37.6039C16.5994 39.2045 15.8724 40.8405 16.2272 41.8062C16.6067 39.0557 17.1469 37.1095 17.8746 36.2562C17.8727 36.8972 17.8711 37.5439 17.8713 38.1851C18.4765 35.6705 18.5417 33.0018 18.8885 36.2242C19.0847 30.3723 18.982 34.1194 19.7526 31.7989C19.9067 31.3309 19.7547 30.1003 19.964 29.5016C20.0578 29.2315 20.15 30.1583 20.38 29.4683C20.4233 29.3369 20.5354 28.9276 20.6658 28.5361L19.9281 28.5484C20.0076 27.8953 20.1467 27.2769 20.3928 27.9105C20.5186 30.7467 21.333 33.0764 21.1476 35.4569C21.9349 34.7829 22.6601 36.0639 21.2777 32.3414C21.3823 31.466 21.4905 30.5936 21.602 29.7216C21.8357 30.3735 22.0589 31.0212 22.2869 31.6689C22.028 29.356 21.9175 28.7122 22.5533 29.046C22.2297 28.5326 21.9132 28.009 21.6026 27.4888C21.5375 27.0233 21.4446 26.5426 21.3976 26.0889C21.7974 26.9409 22.7195 27.2142 23.0002 27.8028C23.2872 28.3911 22.9033 28.6101 23.0385 29.1986C24.1563 34.0513 23.6802 30.4285 24.1368 31.2276C24.41 31.6999 23.9782 32.3053 24.1173 32.5036C24.6316 33.2298 24.4963 30.5928 24.8736 30.5105C24.9279 32.0103 24.9864 33.533 25.046 35.046C25.4422 34.9156 25.8665 34.8475 26.3014 35.2748C26.4715 35.4416 26.5043 36.5581 26.5377 36.6289C26.7093 36.9917 27.259 37.5301 27.3099 37.5281C27.6899 37.4873 27.5006 35.9594 27.8642 35.8265C27.6996 35.7167 27.5466 35.6184 27.3881 35.5124C26.9987 33.0462 26.6088 30.5801 26.2205 28.1091C26.554 27.8822 26.8961 27.6578 27.2243 27.4312C27.0737 28.2919 26.9223 29.1485 26.7629 30.0101C27.4489 31.9538 28.1069 33.9055 28.7938 35.8531C28.8496 34.5961 28.8994 33.34 28.9469 32.0839C29.5692 32.3304 30.1234 37.3295 29.8163 32.9262C30.0426 33.2716 30.2584 33.6181 30.4787 33.9594C30.3704 33.3399 30.2622 32.719 30.154 32.0993C30.4105 32.4548 30.6684 32.8075 30.9293 33.167C31.0086 35.4024 31.1082 37.7525 31.182 39.9227C31.6532 40.3472 31.4101 38.4746 31.4078 37.9994C31.4019 36.7407 31.954 38.3649 31.9276 37.2029C31.9204 36.8037 31.3461 35.6271 31.2938 34.1874C31.2887 33.9077 31.1053 28.6142 31.6102 29.7735C31.7326 30.7204 31.8642 31.8839 31.9904 32.9148C32.5284 33.4268 32.0929 28.4565 31.8417 27.0809C32.2153 28.0169 32.5796 28.0495 32.8375 29.5559C32.967 29.5758 33.0957 29.5938 33.2262 29.6135C32.5888 25.9459 33.2059 26.5477 33.6751 29.7125C33.4712 29.8205 33.2646 29.933 33.0613 30.0408C33.7564 33.9034 33.4269 36.338 34.2906 32.5526C34.2687 30.4965 33.873 32.8907 33.8734 31.3486C34.1138 30.4181 34.5587 31.1076 34.7149 29.6523C34.9065 27.8345 34.1445 26.2174 35.4554 28.3158C34.0083 34.2286 36.2847 32.0604 37.5767 33.6524C37.0923 28.0772 37.7258 26.2015 39.1764 27.6765C39.2651 29.2347 38.7691 28.4952 38.6207 29.0331C38.4721 29.5712 38.8379 30.4517 38.6653 31.2094C38.4964 31.9665 38.0421 33.0271 37.9163 34.154C38.2742 34.993 39.7319 36.8903 38.614 34.5224C38.9746 32.9157 39.0184 31.3103 39.6962 30.9232C40.2493 33.2955 40.4395 34.7945 41.1435 34.7659C40.2623 31.4853 40.7235 29.0539 40.063 25.6294C39.6849 26.5021 40.4324 29.8155 40.3748 31.46C40.3673 31.6246 39.7963 30.848 39.6962 30.9232C39.7337 27.8468 39.7323 26.7039 38.946 23.1603C39.314 23.4283 39.4539 22.9498 39.7249 24.6564C39.6882 23.9046 39.6519 23.1521 39.6142 22.4004C39.7232 22.4039 39.8289 22.4591 39.9402 22.4293C40.1479 25.0321 40.2294 23.4002 40.6053 24.5404C40.9834 25.6816 40.9855 27.7592 41.5749 27.704C41.465 28.3358 41.3602 28.8793 41.2531 29.4776C41.7228 30.0884 42.1972 30.7028 42.6725 31.3126C42.628 32.9274 42.3832 35.3511 42.6927 37.4234C42.7555 36.6156 43.5511 37.907 43.6257 37.9542C43.9115 38.13 43.5865 36.8414 43.6012 36.8064C43.9135 36.1135 44.2994 36.5131 44.1699 34.5092C44.5965 35.361 44.7506 34.8188 45.0779 34.8238C45.2586 34.8263 45.4302 36.2873 45.493 35.9964C45.9084 34.0555 44.9887 32.2672 46.8174 35.6602C46.8025 36.6972 46.7933 37.7572 46.7801 38.8033C46.9835 39.1648 47.1867 39.5283 47.3907 39.8896C47.4643 39.6909 47.5372 39.4909 47.609 39.2924C47.2922 37.0939 46.9743 34.8908 46.6576 32.6923C46.7484 32.5569 46.8403 32.425 46.9315 32.2896C46.714 32.0996 46.5 31.9094 46.2801 31.7197C46.2076 31.3353 46.1363 30.9505 46.0638 30.566C46.2581 29.9266 46.4422 29.2832 46.6328 28.6396C46.7477 29.4037 46.8633 30.1732 46.9782 30.9373C47.4487 29.7831 47.3752 29.1328 48.2685 31.1545C48.7199 31.0662 49.5526 34.2103 50.0119 35.5181C50.0455 35.0758 50.0784 34.628 50.1132 34.1856C50.2662 34.8128 50.4182 35.4374 50.5704 36.0648C50.5628 35.1626 50.5568 34.26 50.55 33.3623C50.9066 35.3613 51.0313 35.9835 50.6648 36.756C51.1843 39.2313 51.8526 38.01 52.0704 37.1221C52.2353 36.4485 51.6494 34.4059 51.645 34.1478C51.6286 33.2711 52.1561 33.9534 52.2234 33.7978C52.5103 33.1494 52.7875 33.2155 53.0594 32.7056C53.1119 32.6038 53.1051 31.2566 53.1148 31.2129C53.2051 30.9692 53.4094 30.2844 53.441 30.261C55.0544 29.0205 54.0063 35.022 55.5571 34.1805C55.6181 34.943 55.6822 35.7 55.7437 36.4624C55.8746 36.4904 56.0046 36.5162 56.1347 36.5444C56.1993 35.8903 55.8431 34.7696 56.2884 35.6506C56.1328 34.7226 55.9771 33.7942 55.8211 32.871C56.0293 33.3537 56.2321 33.8331 56.4437 34.3152C56.1906 31.0532 56.8801 30.2036 56.2697 26.4196C56.0637 25.1318 55.3069 23.8899 55.404 22.4686C55.6064 22.1621 55.6673 23.727 55.7775 23.7936C56.5675 24.2526 56.2121 22.0984 56.5862 22.6321C56.7669 23.5512 56.9527 24.4881 57.1359 25.4162C57.2059 25.1285 57.2762 24.8407 57.3474 24.5527C57.4637 25.1711 57.5813 25.79 57.6977 26.4084C57.6003 26.465 57.49 26.524 57.4012 26.5793C57.8859 28.9696 59.2562 29.8749 58.494 27.8881C58.1845 27.0815 57.8911 27.4862 57.6938 24.6076C58.0769 24.9705 58.5057 25.3358 58.9073 25.696C58.8283 25.0815 58.7485 24.4661 58.6695 23.8516C59.188 24.181 59.1276 26.6927 59.3204 28.006C59.4312 28.0274 59.5425 28.0441 59.6534 28.0655C59.6112 27.4652 59.5628 26.8374 59.5255 26.2551C59.6677 27.1995 60.0495 29.3873 60.2432 28.526C60.3669 27.9658 59.7007 25.628 60.1331 25.9024C60.3203 27.3809 60.4442 29.1969 60.9421 29.6089C60.7593 28.064 60.6116 26.6458 60.4076 25.024C61.1565 26.4241 61.0536 24.0121 61.9291 25.6392C62.4847 26.6685 63.5962 30.4487 62.9791 24.4634C63.2468 24.2641 63.3721 25.7588 63.5069 26.0792C64.1433 27.5955 64.03 24.7309 64.0811 24.554C64.406 23.4198 64.7666 24.3641 64.9626 22.9751C65.1035 24.0794 65.2455 25.1235 65.3867 26.1995C64.7842 24.603 64.6129 24.7073 64.161 25.1363C64.3626 25.3325 64.5651 25.5338 64.7669 25.73C64.8708 26.6277 64.9749 27.5255 65.0792 28.4184C63.0015 25.1278 64.1825 30.6361 65.6707 31.6598C65.5401 29.9894 65.4143 28.3228 65.2819 26.648C66.3667 28.9594 66.4371 26.9652 67.14 26.2415C67.1648 26.2153 67.1905 26.1909 67.2171 26.1683C67.3073 26.0942 67.8157 26.9924 67.9843 27.0155C67.9826 27.0222 67.9808 27.029 67.9791 27.0357C68.3103 28.5824 68.2812 29.3211 68.4717 30.7192C68.5846 30.8814 68.698 31.0427 68.812 31.2047C68.8497 30.1118 68.6476 29.2488 69.063 29.446C69.1692 30.513 69.2763 31.5802 69.3827 32.6471C69.799 32.623 69.9152 31.4293 70.3664 31.8706C70.2422 31.4795 70.1189 31.087 69.9952 30.6958C70.6795 29.5487 69.0832 23.42 70.1846 26.4248C70.1447 25.8753 70.1029 25.3207 70.063 24.7713C69.7767 24.6774 69.4945 24.5871 69.2166 24.4919C69.0969 23.7238 68.9773 22.9589 68.8587 22.1906C69.1692 22.3798 69.4886 22.575 69.8056 22.7632C69.523 22.2779 69.2373 21.7925 68.9573 21.3068C69.2257 20.8902 69.5015 20.4722 69.7648 20.0563C69.845 22.9348 70.3394 23.2145 70.6739 26.0269C70.9043 23.6099 70.8869 20.4718 72.0795 22.3041C72.3128 22.6698 72.5084 24.6409 72.6523 22.1851C72.9958 25.3166 73.8459 26.683 74.2083 29.6558C74.0103 29.5395 73.815 29.4769 73.62 29.3273C73.659 28.2714 73.2679 25.4413 72.8503 24.6465C72.3224 23.633 72.0651 25.6734 71.6192 22.534C71.4918 22.7037 71.3667 22.8113 71.2418 22.957C71.4171 23.7261 71.592 24.5003 71.7666 25.2695C71.1768 24.1108 70.9758 24.5462 71.0689 26.5372C71.6387 26.9136 72.1753 27.2899 72.7432 27.6617C72.6899 27.806 72.6359 27.9515 72.5823 28.0912C73.2553 30.0389 73.1605 31.9933 73.9103 32.3191C73.769 31.4034 73.6285 30.4869 73.4865 29.5666C74.102 31.9797 74.7991 31.8618 74.9981 34.714C75.0789 33.8167 75.0358 33.2632 75.381 34.765C75.6066 32.5415 75.5613 29.7793 74.879 26.5756C75.1651 27.0648 75.4432 27.556 75.7233 28.0461C75.7382 28.9478 75.7529 29.8453 75.7687 30.7469C76.1111 30.6391 76.4602 30.5313 76.8102 30.4272C76.452 27.8064 76.0049 29.7363 75.8626 27.3671C75.8337 26.8915 76.1758 27.8682 76.1868 27.5962C76.2923 24.6564 75.7644 26.848 75.5938 24.633C76.2867 23.8371 75.1033 20.26 76.6494 23.1838C76.5652 22.4243 76.4809 21.6492 76.3953 20.8946C76.7668 20.7927 76.9967 22.5023 77.3646 22.7769C77.596 22.9473 77.4026 19.9138 77.9329 21.9199C78.0296 22.2899 78.1964 26.008 78.9708 25.7275C79.5624 25.5115 78.9222 22.962 79.1174 21.9957C79.316 21.029 80.611 24.5033 80.2287 20.4026C80.1345 20.9673 79.9565 21.291 79.8306 21.7615C79.6349 20.9809 79.4405 20.2089 79.2446 19.4331C79.8402 20.3895 80.1139 19.1168 80.696 20.9605C80.8608 17.9837 81.9137 20.5666 82.2218 23.8544C81.9576 23.4131 81.9571 21.9595 81.8225 22.9059C81.9081 23.67 81.9916 24.4307 82.0772 25.1948C82.521 25.0346 82.8462 25.0081 82.2909 22.7223C82.3542 22.6564 82.417 22.5907 82.4805 22.5248C82.7426 24.1996 83.0042 25.8809 83.2664 27.5558C83.3798 27.732 83.4949 27.9063 83.6065 28.0828C83.6455 27.7005 83.6843 27.314 83.7241 26.9269C83.2024 24.2924 82.9694 24.2375 83.4734 22.6466C83.6116 23.563 83.7502 24.4756 83.8885 25.392C84.3238 24.1363 84.0122 21.9129 84.7845 21.883C83.729 18.7865 84.2463 24.476 83.3005 18.091C83.2148 18.5321 83.1291 18.979 83.0443 19.4201C82.8845 18.4974 82.7246 17.5735 82.5659 16.6507C83.434 17.0209 85.6434 22.9171 85.5715 18.8015C85.708 19.2848 85.8353 19.7038 85.9784 20.2239C86.1352 17.7104 87.1717 23.1484 87.2275 19.9203C87.2332 19.5815 86.361 14.4574 87.0738 14.5407C87.1549 15.2114 87.3115 16.3374 87.4216 17.1823C87.5097 16.7505 87.5947 16.2998 87.6811 15.8588C87.7986 16.4721 87.9176 17.0848 88.0352 17.7028C87.8169 17.9796 87.5994 18.2605 87.3823 18.5372C87.6233 18.7182 87.8662 18.8991 88.1084 19.08C87.9814 20.1292 87.8597 20.158 88.2627 21.75C88.5159 21.8116 88.768 21.8794 89.0184 21.9415C89.1035 22.3521 89.1892 22.7675 89.2744 23.1781C89.3411 24.4297 89.403 25.6542 89.473 26.9241C89.9377 25.8251 90.4719 25.6908 90.589 23.1936C90.6096 22.7717 90.089 21.2046 90.8507 22.5752C90.7346 21.7219 90.6482 21.0278 90.5426 20.2387C91.5658 22.5272 91.6864 21.7819 92.1363 19.9562C91.9156 21.6309 92.169 20.5257 92.4105 21.3706C92.5763 21.9528 92.2537 21.9102 92.3794 22.5269C92.5044 23.1393 93.2697 25.5742 92.9694 25.9242C91.386 20.9355 92.0375 27.0808 90.601 24.7823C90.8635 25.4169 91.1274 26.0529 91.3902 26.6875C91.3772 27.1456 91.3663 27.5611 91.3512 28.0478C91.8073 26.9599 91.6095 27.6522 91.9726 28.4038C92.3353 29.1556 92.8895 29.7584 93.22 29.9315C93.3249 29.9857 93.0576 28.854 93.2566 28.716C93.3919 28.621 94.0395 30.2622 93.8409 28.2452C93.7123 26.9322 92.5437 23.4351 93.4386 23.3137C93.4213 22.0107 93.0499 22.4701 93.0184 22.3174C92.7189 20.8079 93.1044 19.5842 93.5241 20.7092C93.559 20.8064 93.5317 22.0205 93.8159 22.4541C94.4917 23.4902 94.5933 22.0877 94.6632 20.2001C95.0128 22.3518 95.8155 24.8657 96.2411 23.9904C96.3577 24.6037 96.4738 25.2227 96.5911 25.8407C96.4601 25.526 96.3298 25.2157 96.1989 24.9011C96.1633 25.3014 96.1073 25.5972 96.0841 26.0664C96.7027 26.5187 97.2085 29.4806 97.6255 30.5309C99.0486 34.1191 97.38 26.3359 97.0247 25.0041C96.9873 25.5694 96.9631 26.1979 96.9311 26.7906C96.8357 26.0374 96.7396 25.2785 96.6424 24.5208C97.9803 24.3517 96.1443 19.614 96.6212 18.1198C97.3263 21.7917 97.8763 22.0763 98.1749 19.6395C98.2476 19.648 98.3187 19.6426 98.3922 19.6556C98.4809 20.193 98.5985 21.0171 98.6683 21.3696C99.5209 21.8876 98.8474 16.1739 98.8432 15.6241C98.8262 13.1855 99.5463 16.4605 99.6454 16.4754C100.061 16.5339 99.9694 15.0473 100.441 15.6247C100.948 16.2488 100.827 17.4165 101.095 18.4086C101.308 19.1963 101.65 19.2936 101.9 20.1059C101.752 19.4336 101.599 18.7753 101.449 18.1004C101.742 17.1139 101.962 16.1616 102.414 15.8676C103.655 20.7657 102.941 12.3095 103.708 19.1416C103.317 19.6714 103.172 20.4826 103.172 22.251C103.502 22.4301 103.83 22.6039 104.16 22.7833C104.143 22.0241 104.103 21.2875 104.099 20.5122C104.545 22.0671 104.969 21.3138 105.237 21.7509C106.492 23.8 106.573 26.5472 106.811 21.8786C106.123 21.5223 105.816 19.3134 105.237 19.7044C105.151 18.1082 105.513 18.391 105.045 16.5283C105.713 16.9102 105.753 18.6259 106.195 20.0923C106.578 21.3565 106.993 21.3727 107.202 23.0554C107.116 22.1262 107.024 21.2279 106.938 20.2999C107.329 20.2552 107.719 20.202 108.11 20.1575C107.811 19.2163 107.512 18.2734 107.213 17.3369C107.289 16.9554 107.365 16.5753 107.441 16.1938C108.812 19.0603 109.718 13.3375 110.48 20.9085C110.975 21.0856 110.904 20.1327 110.962 18.6728C111.067 19.2411 111.159 19.7133 111.273 20.3462C111.49 19.7069 112.009 21.8238 112.196 21.23C112.384 20.6405 112.176 18.6027 112.674 22.008C112.713 21.0068 112.773 20.1713 112.82 19.2394C112.995 19.887 113.17 20.5282 113.344 21.1712C113.375 21.2837 113.407 21.3963 113.438 21.509C113.551 21.0803 113.662 20.6536 113.77 20.2256C114.079 21.8415 114.612 21.0552 115.021 22.1131C115.042 20.3233 114.307 14.7967 115.058 15.7031C115.228 17.0754 115.398 18.4438 115.568 19.8162C115.671 19.5109 115.771 19.2068 115.871 18.9019C115.818 18.4536 115.764 18.0054 115.712 17.5571C115.66 17.705 115.61 17.8522 115.558 18.0048C115.517 17.2396 115.474 16.4782 115.431 15.7133C115.786 16.8069 116.166 17.8971 116.542 18.9878C116.35 19.8787 116.183 20.7665 116.012 21.6545C116.506 22.6119 116.624 21.5737 117.108 22.6498C117.132 20.7198 116.878 19.6441 116.484 17.6069C116.613 17.768 116.74 17.9229 116.866 18.0842C116.516 16.0408 116.531 14.7927 115.941 15.0422C115.904 14.4509 115.871 13.8867 115.829 13.2725C115.942 13.3511 115.938 12.8473 116.077 13.0584C116.455 13.6366 117.163 17.213 117.317 18.4799C117.398 19.1434 116.943 17.9156 117.081 18.8503C117.421 21.1297 117.938 20.0148 117.303 22.4376C117.824 23.8469 117.728 22.7434 118.029 22.2743C118.105 23.0391 118.18 23.7989 118.256 24.5635C118.381 24.1893 118.502 23.8169 118.619 23.4437C117.859 19.5667 118.855 17.9346 117.305 14.6644C117.614 14.4434 117.87 14.2287 118.188 13.997C118.065 13.6051 117.941 13.2172 117.817 12.8255C117.707 13.0568 117.598 13.2844 117.483 13.5116C117.553 12.7548 117.604 12.005 117.683 11.247C118.226 12.0985 118.569 13.4756 118.986 15.1764C118.699 16.4988 118.614 14.758 118.193 14.4676C118.357 15.5585 118.477 16.5661 118.668 17.7096C118.56 15.4182 119.38 16.9834 119.541 17.0741C120.036 17.3488 119.381 15.1727 119.669 15.0855C119.952 14.9998 120.47 16.2776 120.416 14.0384C120.58 15.2753 120.735 16.5571 120.871 17.6852C121.378 18.0299 121.085 16.5822 121.106 16.3866C121.452 13.173 122.203 15.7454 123.112 15.9545C123.051 16.3517 122.984 16.7119 122.916 17.0867C123.903 19.6323 123.351 18.8833 122.918 19.8223C123.401 19.4921 123.973 21.6944 124.413 22.3167C124.838 22.9393 125.304 21.7213 125.435 20.8001C124.769 19.4087 124.318 20.4256 123.693 20.1001C123.601 18.8307 123.529 17.7556 123.43 16.3606C124.126 18.9631 124.1 17.1705 124.188 16.804C124.428 15.7317 124.663 18.0098 124.61 15.538C124.693 16.3813 124.763 17.0902 124.84 17.8778C125.508 17.4482 126.182 15.8843 126.896 18.9661C126.774 16.9344 126.65 14.9775 126.537 12.903C126.988 14.4039 127.117 12.8214 127.423 13.1586C127.712 13.4977 127.722 15.1455 128.07 15.7566C128.134 15.8689 128.186 14.8337 128.379 15.5818C128.563 16.3343 129.429 21.9647 129.187 17.0134C129.439 16.9743 129.664 16.779 129.923 16.6795C129.65 16.416 129.392 16.1606 129.135 15.8967C129.266 14.6848 129.397 13.4767 129.543 12.2643C129.636 13.3319 129.729 14.4187 129.819 15.4724C130.452 16.7407 130.793 14.9666 131.364 15.3487C131.465 15.4129 131.357 17.5404 131.756 16.9768C132.179 16.4115 132.212 12.4505 133.057 13.9317C133.097 14.0087 133.471 17.0195 133.609 14.9126C133.641 14.4351 133.356 13.7473 133.454 13.1169C133.548 12.4865 134.14 11.9388 134.106 10.4527C134.131 10.9782 134.121 11.5248 134.133 12.0604C134.256 12.3052 134.362 12.5512 134.478 12.7918C134.435 11.8661 134.392 10.939 134.349 10.018C135.036 12.1384 135.605 15.629 136.374 14.4191C136.203 15.7769 136.055 17.1388 135.881 18.4968C135.756 17.557 135.631 16.6108 135.509 15.6709C135.11 16.0715 134.745 16.4674 134.366 16.8667C134.235 15.7966 134.106 14.7295 133.977 13.6593C133.874 13.8051 133.774 13.9463 133.674 14.0919C133.745 14.8668 133.817 15.6376 133.889 16.4124C133.664 16.234 133.444 16.0513 133.231 15.8722C133.895 20.4324 134.414 15.4138 134.577 19.2507C134.638 18.6505 134.693 18.0465 134.751 17.4417C134.898 19.2983 135.054 18.7527 135.382 18.4401C135.355 19.3605 135.32 20.269 135.302 21.1983C135.555 19.8873 136.185 19.9771 136.477 19.4612C136.613 19.2342 136.387 17.895 136.422 17.734C136.599 16.8935 137.183 19.2192 137.269 19.0276C137.786 17.8873 137.831 13.4114 138.624 16.3134C138.038 17.0754 138.362 16.749 138.236 18.3938C138.197 18.9095 137.469 20.0228 138.433 19.4911C138.555 19.4246 140.194 16.2375 139.458 13.9122C139.79 14.6484 140.072 15.5057 140.393 16.2891C140.7 10.0286 140.815 15.8859 140.807 19.1148C140.92 19.1222 141.028 19.1485 141.145 19.1415C140.725 15.7748 141.869 15.4961 142.396 17.1766C142.569 17.7354 142.245 18.8405 142.597 19.3326C142.736 19.0864 142.894 18.7689 143.044 18.4941C142.932 20.6468 143.454 21.4424 143.58 23.6179C143.751 21.6622 143.712 17.541 143.424 15.3234C143.71 16.211 144.002 17.0972 144.296 17.989C144.217 18.5117 144.136 19.0299 144.058 19.5526C144.736 18.1397 146.007 21.1832 145.855 16.6059C145.958 16.6322 146.062 16.654 146.166 16.6803C146.245 17.45 146.323 18.2212 146.403 18.9909C146.824 18.2931 147.256 17.5902 147.7 16.8908C147.239 16.4388 147.07 15.3468 146.685 16.2658C146.799 15.3679 146.917 14.4649 147.031 13.567C147.854 15.9142 148.056 17.478 148.98 16.7064C149.021 16.6712 149.648 14.6206 149.663 14.4236C149.727 13.5237 149.464 12.2388 149.489 11.7845C149.553 10.5112 150.265 7.27928 150.22 6.80149C149.579 0.943943 146.675 1.04785 145.81 0.797642C137.115 -1.70555 130.178 2.43255 119.951 2.98825C119.862 2.98902 119.785 2.12253 119.742 2.09069C119.48 1.90554 119.411 3.2815 119.345 3.34683C119.183 3.48494 119.113 2.23169 118.981 2.2486C117.606 2.44945 116.459 3.35121 115.088 3.32244C115.002 3.32011 115.224 4.3002 115.052 4.14519C114.962 4.05966 114.511 2.57115 114.326 2.57284C113.659 2.5841 113.276 3.13315 112.577 3.2043C112.231 3.23708 111.727 3.43683 111.311 3.46934C111.2 3.47817 111.052 3.23574 110.91 3.04347C110.82 2.91795 110.733 2.81366 110.661 2.81391C110.405 2.81553 110.646 4.22033 110.619 4.31324C110.501 4.71915 110.269 3.17288 110.112 3.23155C109.821 3.34596 109.945 4.38258 109.552 4.34647C109.271 4.31866 108.536 3.58666 108.16 3.3935C107.521 4.7024 106.444 4.36482 105.641 4.07127C105.165 3.89724 105.324 5.35069 105.143 5.37101C104.504 5.43081 103.764 3.64901 103.158 3.67232C102.355 3.70449 101.821 5.0256 101.067 5.22103C100.945 5.25232 100.788 3.9222 100.66 3.90541C100.189 3.84467 99.5769 3.68494 99.202 3.93082C98.783 4.20202 98.8887 6.15018 98.3948 5.82048C98.2497 5.72237 97.9724 4.04038 97.7262 3.85437C97.3346 3.56247 97.1669 5.10442 96.9504 5.30474C96.6526 5.57305 96.6936 3.81334 96.2825 4.10727C96.2657 4.11983 96.3749 5.35795 96.2713 5.31293C95.9701 5.18664 95.861 4.21491 95.4658 4.3656C95.4283 4.38396 95.0566 5.63194 95.0041 5.6443C94.6917 5.70792 94.1179 6.20877 93.8942 5.98703C93.0995 5.19816 93.3574 3.27493 93.37 7.36681C92.9792 6.42124 92.5899 5.46187 92.1854 4.54659C92.491 5.41054 91.9588 6.79812 91.897 6.7224C91.3844 6.11421 91.4052 4.51819 90.9167 4.8526C92.136 8.35566 90.3012 5.4163 89.9804 5.36899C88.4355 5.13759 87.2226 6.23375 85.7336 6.42929C85.2349 6.49302 84.458 5.82936 83.933 5.92572C83.8107 5.94491 84.0291 6.78388 83.9241 6.81821C83.8186 6.8467 83.7963 5.87195 83.6813 5.9407C82.9712 6.38469 82.6324 8.28039 81.6025 6.12626C81.6166 6.4577 81.656 6.71542 81.6524 7.0823C80.7761 5.14557 80.0812 8.02824 79.7217 8.46315C79.1657 9.13883 78.7909 7.79762 78.3623 8.14361C77.8012 8.60392 77.2588 11.4144 77.0199 6.94433C76.5702 6.87026 76.1635 6.89201 75.7877 7.3672C75.7465 7.42085 75.9471 8.53614 75.9313 8.56204C75.8335 8.74109 75.644 7.744 75.555 7.71021C75.3144 7.61953 75.8563 8.76631 75.4897 8.4781C75.2944 8.32364 75.0768 7.46182 74.6037 7.51367C71.7938 7.83493 68.8005 8.60469 65.9808 9.17391C65.7887 9.21182 65.7546 8.10954 65.5243 8.21432C65.249 8.33723 64.9219 8.64942 64.5958 9.00247C63.922 9.70712 63.193 10.5819 62.6774 10.489C61.9027 10.3488 61.8361 8.73957 61.2773 8.14384C61.1693 8.02792 61.3752 8.92036 61.2967 8.94603C60.7685 9.10852 60.3262 10.6127 59.919 10.889C59.6496 11.0736 59.4643 9.64923 59.2484 9.57723C58.9268 9.47379 58.8271 10.9549 58.6737 11.0244C57.9499 11.3373 57.2641 10.2565 56.6459 10.9493C56.6277 10.6326 56.6036 10.3404 56.5818 10.0288C55.7583 10.201 54.9311 10.3737 54.1083 10.5453C54.1058 10.2539 54.1016 9.96021 54.0985 9.66417C53.1466 9.963 53.7061 13.0439 52.8409 6.49186C52.7362 6.27184 52.622 6.01577 52.5233 5.81371C53.0408 9.1784 52.8095 11.7296 52.1827 12.6961C52.1365 12.7687 51.2888 9.5378 51.8926 13.4126C51.6581 12.4772 51.5055 11.8311 51.3028 11.0088C51.3142 12.2068 51.3216 13.3912 51.3326 14.5845C51.2214 14.4218 51.1101 14.2655 50.9991 14.1028C50.8762 13.3441 50.7715 12.5531 50.6358 11.8104C50.2214 11.7529 49.5362 12.8119 49.2093 12.7606C48.393 12.6293 47.297 10.6883 47.0114 12.9973C46.681 12.8136 46.7614 11.2783 46.3466 11.5308C46.4055 12.2938 46.4628 13.0249 46.5228 13.8112C45.6768 10.4861 45.897 12.5512 45.5074 13.3273C45.2412 13.8548 44.9026 13.061 44.6079 13.2677C44.5334 13.3207 44.6868 14.3103 44.6271 14.2859C44.427 14.2103 43.711 12.9205 43.5725 12.9026C42.3375 12.7124 41.3468 13.0097 40.2779 13.5329C40.1617 13.587 40.1803 12.5863 40.0606 12.6456C39.8679 12.7394 40.1999 14.226 40.0935 14.3164C39.796 14.5598 39.5684 12.9748 39.1062 12.9555C37.5737 12.8951 36.0314 14.3266 34.4934 14.649C34.4454 14.6557 34.3186 13.7261 34.264 13.7243C33.9096 13.7273 33.7351 15.032 33.4225 15.0613C32.9115 15.1133 32.3252 13.8638 31.8207 13.9381C30.8229 14.0803 30.0169 14.8718 29.0028 15.0471C28.1615 15.1942 27.4172 15.1682 26.506 15.2945C23.8217 15.6644 20.9067 14.6967 18.3209 14.5904L21.8041 14.532C20.7099 14.2449 19.5502 14.153 18.2278 14.529C18.1251 14.5596 18.0724 15.3878 18.0464 15.3488C17.8019 14.9604 17.8999 13.8458 17.5324 16.1613C17.2123 15.6602 17.2951 13.8984 16.8155 13.9698C16.5549 14.0062 16.4355 16.7377 16.1639 15.291C15.9073 13.9826 16.5434 12.5488 15.1328 13.9285C15.0926 13.9663 14.7535 15.6013 14.5276 15.142C14.296 14.6869 14.7548 13.5371 14.0995 13.1096C12.8532 12.3767 11.3795 12.7924 8.14122 13.0506L7.70513 13.0727C7.16799 13.1656 6.62768 13.213 6.11209 13.1461C5.97605 13.1275 4.71009 12.3535 4.44962 11.9702C3.93524 11.2228 3.892 9.98477 3.30492 9.74393C2.85248 9.55935 2.66894 10.9886 2.1617 10.7667C2.10122 10.7396 1.84057 9.3207 1.50808 9.55269ZM83.4447 29.0176C83.7407 30.4014 84.6617 35.52 84.9529 33.8774C84.9809 33.7226 84.1869 30.2264 84.3936 29.6207C84.0526 29.29 83.7647 29.2092 83.4438 29.0121C83.4441 29.0139 83.4444 29.0158 83.4447 29.0176ZM3.2596 42.7381C3.6088 42.4301 3.95963 42.125 4.30838 41.8185C3.96868 41.2274 3.62196 40.6388 3.27897 40.0442C3.26886 40.942 3.26695 41.8405 3.2596 42.7381ZM52.3473 36.3579C52.3469 36.3579 52.3465 36.358 52.3462 36.358C52.856 36.962 53.368 37.5668 53.8814 38.1701C53.7668 37.6879 53.6518 37.2036 53.5373 36.7213C53.0967 35.9994 52.6574 35.2783 52.2203 34.5559C52.2627 35.1566 52.3049 35.7571 52.3473 36.3579ZM48.3172 31.658C48.1369 32.2768 48.3422 33.2471 48.3323 34.2224C48.332 34.2206 48.3317 34.2188 48.3315 34.217C48.3283 34.471 48.179 34.7142 48.1148 34.7614C48.0525 34.1445 47.9988 33.5345 47.9394 32.922C47.105 31.5268 46.6521 36.9749 48.5244 38.8755C48.3898 38.1046 48.2569 37.3374 48.1224 36.5665C48.9398 36.6704 49.5583 34.8673 48.3172 31.658ZM90.0154 30.3227C91.0458 32.7603 91.3406 33.2628 91.8872 31.4084C91.669 30.7066 91.4516 30.0048 91.2327 29.3031C91.2065 30.0553 91.1809 30.8023 91.1553 31.5544C91.1549 31.5545 91.1546 31.5546 91.1542 31.5546C91.0148 30.789 90.8751 30.0221 90.7368 29.2564C90.4956 29.6118 90.2543 29.9675 90.0154 30.3227ZM23.0274 36.9904C23.4647 42.0908 23.149 39.134 23.838 40.2112C24.0786 40.5849 24.002 41.4964 24.1399 41.6294C24.8647 42.3596 24.4899 38.9518 24.128 37.1998C23.766 37.1231 23.3883 37.0587 23.0286 36.9903C23.0282 36.9903 23.0278 36.9904 23.0274 36.9904ZM6.78409 35.3636C6.78374 35.3637 6.78338 35.3637 6.78302 35.3637C6.89564 36.6065 7.16263 36.9166 7.02171 38.1195C7.22004 38.0943 7.41496 38.0649 7.61046 38.0415C7.54294 37.9312 7.47262 37.8267 7.40296 37.7167C7.41255 37.2852 7.42317 36.8483 7.43358 36.4169C7.64088 37.8379 7.62461 37.0017 7.7893 36.5051C7.87103 38.0361 7.95501 39.5681 8.04412 41.0986C8.2263 40.6233 8.41119 40.1475 8.59659 39.6748C8.56833 39.2897 8.54016 38.9039 8.51203 38.5188C8.63696 39.0039 8.75872 39.4948 8.87826 39.9807C8.86632 39.5193 8.85364 39.0622 8.84349 38.6008C8.97161 38.9415 9.09572 39.2826 9.21913 39.629C9.17889 38.5637 8.94171 38.0897 9.28475 38.2724L9.11674 38.2809C9.12232 38.2905 9.12862 38.3016 9.13574 38.3143C9.1243 38.1563 9.11231 37.9984 9.0997 37.8406L9.25718 37.8326C9.08902 36.8547 8.91233 35.8796 8.72908 34.9028C8.0877 35.041 7.44224 35.1977 6.78409 35.3636ZM28.1026 37.9281C27.2945 37.8184 27.6217 38.5915 28.1299 41.0797C28.1201 40.0292 28.1118 38.9788 28.1026 37.9281ZM67.1978 30.0884C67.5513 31.3395 67.904 32.581 68.2558 33.802C68.3744 34.2175 68.4931 34.6305 68.6119 35.0406C69.2001 35.9283 69.2035 32.7441 68.6763 31.5746C68.3027 30.7439 68.0878 31.001 67.8391 30.9787C67.6642 30.9639 67.4713 30.8166 67.1978 30.0884ZM77.5872 29.3167C77.1544 30.1916 77.9764 32.1445 78.2786 33.3094C78.1459 31.3844 78.391 31.5193 78.6939 31.2478C78.3611 31.1715 77.6567 29.1688 77.5864 29.3113C77.5867 29.3131 77.587 29.3149 77.5872 29.3167ZM58.5895 33.3142C58.3601 33.2955 58.07 32.8502 57.9567 33.4593C58.2547 35.0855 58.4343 33.5403 58.5042 36.0051C58.6521 36.0259 58.8 36.0453 58.9477 36.0708C58.7116 35.0798 58.7225 34.3118 58.5898 33.3198C58.5897 33.3179 58.5896 33.3161 58.5895 33.3142ZM35.8091 38.8501C35.9806 36.8518 36.1793 37.6692 36.8014 38.9511C36.6425 37.3653 35.7614 34.7944 35.3466 34.2589C35.5012 35.7889 35.6557 37.3199 35.8091 38.8501ZM137.916 24.374C137.689 22.3538 136.87 22.136 136.536 22.7562C136.598 23.0542 136.661 23.3562 136.723 23.6588C137.106 23.898 137.51 24.1363 137.916 24.374ZM78.8352 31.0879C78.7871 31.1552 78.7397 31.2071 78.6939 31.2478C78.7537 31.2613 78.8032 31.2189 78.8352 31.0879ZM100.66 18.9888C100.209 17.1198 100.661 16.4062 100.108 17.2419C100.108 17.2401 100.107 17.2383 100.107 17.2365C99.7412 17.787 99.6649 17.931 99.283 18.1359C99.775 20.5492 100.714 21.3033 99.6606 21.9659C99.6461 21.9703 99.4693 20.5177 99.3174 20.7415C99.2706 20.811 99.2621 22.025 99.0417 22.4093C98.9703 22.5324 98.3679 22.9925 99.2639 22.8881C99.4795 24.5885 99.7725 26.2989 100.005 27.9452C100.421 28.374 100.218 25.0131 100.596 25.0424C101.161 25.0938 101.916 28.4143 101.396 23.9912C100.781 22.9735 99.9901 23.0595 100.263 25.7251C99.8215 25.8209 99.3837 23.6676 99.5902 22.5419C101.324 23.6875 99.5534 19.258 101.15 20.8001C101.253 21.4109 101.402 22.0628 101.475 22.6403C101.582 20.4244 100.821 19.6573 100.66 18.9888ZM98.108 24.1354C98.56 25.3927 99.0125 26.6605 99.4614 27.923C99.159 25.8116 98.7449 23.9373 98.1537 22.8082C98.139 23.2522 98.1232 23.696 98.108 24.1354ZM120.579 21.5945C120.775 22.7381 121.02 23.7771 121.242 24.8608C121.177 23.8819 122.965 22.6935 121.863 21.8743C121.719 21.7526 121.12 23.9036 120.579 21.5945ZM32.5377 37.5357C32.6595 36.7343 32.7815 35.9314 32.905 35.1296C32.4861 34.6889 32.0698 34.2346 31.6589 33.7831C31.9512 35.0338 32.2436 36.2854 32.5377 37.5357ZM70.5739 27.5302C70.4858 27.5874 71.0358 29.1178 70.6244 28.925C71.0543 29.8921 71.4388 30.7075 71.8567 31.6152C71.8278 30.8567 71.8005 30.101 71.7722 29.3424C71.9085 29.8118 72.0461 30.278 72.1799 30.7477C71.9795 29.6664 71.7884 28.6096 71.5816 27.5104C71.4626 29.9108 70.9628 27.2839 70.5739 27.5302ZM56.2503 25.2928C56.512 27.6686 57.3828 28.9771 56.7828 29.4505C57.1333 30.9854 57.4517 31.7709 57.8563 31.853C57.8314 31.2501 57.8071 30.6516 57.7822 30.0487C58.0225 31.6367 58.2076 32.2129 58.5895 33.3142C58.5895 33.3124 58.5894 33.3106 58.5893 33.3087C59.1931 33.3381 59.0784 32.8136 58.8375 30.1805C58.4364 31.7452 58.0662 29.3613 57.438 28.0034C57.0059 27.0696 56.6932 27.5666 56.2503 25.2928ZM118.536 21.8472C119.249 23.7847 119.089 25.705 119.593 23.4735C119.473 22.973 119.352 22.4769 119.23 21.9765C118.976 21.9315 118.774 21.8851 118.536 21.8472ZM55.2709 33.7087C54.7908 30.042 54.7863 27.1342 55.7221 33.0769C55.4973 34.3473 55.2046 30.9466 55.2709 33.7087ZM76.5424 23.6191C75.8006 23.9045 76.5653 28.0099 77.1873 30.0264C77.1235 29.2684 77.0595 28.509 76.9955 27.7557C77.1809 28.0764 77.367 28.3978 77.5528 28.7137C77.2161 27.0171 76.8788 25.3158 76.5424 23.6191ZM41.0733 31.6416C42.0364 34.1724 40.6386 33.1861 41.2832 34.7601C41.7979 36.0183 41.8641 33.3218 41.4653 31.6944C41.3437 31.6645 41.2112 31.6503 41.0745 31.6414C41.0741 31.6415 41.0737 31.6415 41.0733 31.6416ZM44.5971 31.9045C44.8976 34.7115 44.9215 33.8775 44.3817 33.4416C44.2263 33.3179 43.3218 34.5167 43.4351 32.1392C43.8112 32.0858 44.2052 31.9886 44.5971 31.9045ZM86.0627 26.3748C85.8894 25.1584 84.679 22.6103 84.6748 23.293C84.6746 23.2912 84.6743 23.2894 84.674 23.2876C84.6627 25.1489 85.5566 25.2807 85.5552 27.8325C86.0542 25.5133 87.0883 30.7913 85.9949 23.7973C85.4647 23.5618 85.9069 24.9714 86.0627 26.3748ZM147.762 17.9877C147.762 17.9877 147.763 17.9876 147.763 17.9876C147.709 18.0489 147.356 19.8774 147.452 20.4972C147.973 19.9284 147.815 18.749 148.445 20.6639C148.432 20.0353 148.417 19.4257 148.407 18.7923C148.194 18.4323 148.025 17.6867 147.762 17.9877ZM122.301 18.8618C122.071 18.568 121.881 19.9369 121.639 19.8897C123.048 24.8591 123.264 20.0225 122.301 18.8618ZM13.436 35.6842C13.4364 35.686 13.4367 35.6879 13.4371 35.6898C13.4372 35.687 13.4373 35.6843 13.4374 35.6816C13.437 35.6824 13.4365 35.6833 13.436 35.6842ZM107.288 24.0029C107.268 23.6706 107.243 23.383 107.213 23.1316C107.21 23.108 107.206 23.0844 107.203 23.0608C107.232 23.3706 107.26 23.684 107.288 24.0029ZM87.8069 26.492C87.8973 24.7466 86.365 22.219 86.0974 22.9159C86.2372 23.6858 86.3448 24.3867 86.5354 25.2666C86.5322 23.2197 87.7934 26.7858 87.8069 26.492ZM61.9752 29.6934C62.861 29.5164 60.7178 22.9929 61.4523 28.3406C61.4693 28.4438 61.9507 29.6877 61.9752 29.6934ZM80.6701 26.8345C80.1407 24.8425 80.5212 24.2358 79.8378 24.6956C79.8734 25.2267 79.9092 25.7591 79.9449 26.2902C80.1858 26.4708 80.433 26.6533 80.6701 26.8345ZM66.5228 20.0466C67.8112 21.0095 69.1877 22.8394 69.2785 28.5366C69.1658 28.3699 69.0533 28.2093 68.9415 28.0425C68.5207 25.319 68.4416 26.8515 67.9858 27.0097C67.759 25.9373 67.4669 25.7248 67.2839 24.812C66.9295 23.0476 67.0347 21.7548 66.5228 20.0466ZM19.9974 31.0097C19.9752 31.4799 19.9522 31.9525 19.9307 32.4181C20.0338 32.8392 20.1396 33.2588 20.2477 33.6791L20.5184 33.6746C20.5713 33.7891 20.6244 33.9037 20.6779 34.0184C20.5458 33.125 20.4142 32.2316 20.283 31.3381C20.2712 31.3327 20.2593 31.3272 20.2475 31.3218L20.4396 31.3186C20.2913 31.2152 20.145 31.111 19.9988 31.0071C19.9984 31.0079 19.9979 31.0088 19.9974 31.0097ZM96.1874 18.5373C97.0271 23.6472 96.5333 22.7547 95.4357 20.2689C95.6847 19.6919 95.9371 19.1144 96.1874 18.5373ZM48.793 24.7555C48.9791 26.2147 49.165 27.6694 49.35 29.1288C48.7454 27.6679 48.5775 25.9902 48.4848 24.0368C48.5878 24.2758 48.6898 24.5165 48.793 24.7555ZM43.1728 24.9278C43.2892 24.6013 43.3751 25.7886 43.3884 25.7627C43.7052 25.0872 43.6864 24.5396 44.3041 25.3547C44.4086 25.6549 44.5143 25.9712 44.6203 26.2806C44.8263 29.3645 44.4285 27.7245 44.1964 29.5869C44.1349 28.5278 44.0739 27.4672 44.0109 26.4036C43.7722 26.6634 43.5333 26.92 43.2958 27.1796C43.2179 26.8613 43.1405 26.5461 43.0627 26.2279C43.0993 25.7995 43.1318 25.3192 43.1728 24.9278ZM17.8135 32.1447C17.5382 32.2379 17.261 32.335 16.9829 32.4266C17.0553 31.6709 17.1286 30.9102 17.2012 30.1545C17.4031 30.8182 17.607 31.482 17.8135 32.1447ZM101.9 20.1059C101.959 20.3696 102.017 20.635 102.073 20.9053C102.025 20.573 101.965 20.3167 101.9 20.1059ZM148.202 13.7886C148.458 13.2408 148.903 13.5622 149.224 13.4302C149.315 15.3325 148.458 14.8588 148.25 16.0283C148.183 15.6901 148.094 14.0192 148.202 13.7886ZM75.5006 23.9444C75.2854 23.0161 75.071 22.0922 74.8572 21.1637C74.6929 21.2919 74.5302 21.4256 74.367 21.5536C74.2467 20.7852 74.1251 20.0102 74.0046 19.2418C74.9434 20.123 74.431 17.932 74.4994 15.6854C74.8323 18.4369 75.1667 21.1883 75.5006 23.9444ZM9.49746 26.4072C10.2583 26.9463 10.3806 27.9462 9.94381 30.2611C9.74833 29.7182 9.53212 29.1771 9.28933 28.6417C9.35317 27.8968 9.42107 27.1514 9.49746 26.4072ZM112.165 16.9138C112.554 17.4319 112.518 16.3085 112.638 15.91C112.707 15.6935 112.822 15.6899 113.074 16.2762C112.986 16.5697 112.896 16.8649 112.806 17.1603C112.715 17.475 112.625 17.7898 112.534 18.1028C112.412 17.7073 112.287 17.3092 112.165 16.9138ZM87.2481 11.7558C87.2929 10.6482 88.4233 15.7156 88.4444 11.8495C88.7467 12.9582 88.9922 14.0235 89.2701 15.1122C89.1619 13.8996 89.0608 12.6702 88.9511 11.4672C88.9515 11.4672 88.9519 11.4671 88.9523 11.4671C89.5303 11.7967 89.4145 13.3543 89.6129 14.6291C89.6956 15.1574 89.9517 14.2165 89.9996 15.3858C90.0801 17.3931 89.1407 16.3695 89.4896 18.7802C89.6506 17.952 90.2739 18.5331 90.3529 20.1638C90.4401 21.9535 89.5048 19.0696 89.3988 20.5811C89.293 16.6621 88.5195 17.9908 88.8478 20.9645C87.9624 18.774 88.3319 17.773 88.9172 17.7954C88.2371 15.5793 88.9283 16.7291 88.7369 14.8323C88.2088 13.7476 87.1239 14.8757 87.2481 11.7558ZM61.718 19.8158C62.1225 19.9057 62.5304 18.522 63.0731 20.3967C63.3896 21.4888 62.9176 22.44 63.588 24.1296C63.1902 24.0138 63.0048 23.3425 62.843 21.7991C62.7312 21.6273 62.6182 21.4604 62.5068 21.2933C62.5114 21.5984 62.5144 21.8997 62.519 22.2048C62.3816 21.5802 62.2446 20.9606 62.1083 20.3359C62.0362 20.4734 61.963 20.6114 61.8917 20.7535C61.8344 20.4377 61.7758 20.1642 61.718 19.8158ZM126.14 15.2068C126.028 15.1978 125.917 15.1891 125.806 15.1758C125.784 14.7987 125.762 14.4057 125.742 14.0179C125.724 13.7116 125.707 13.4052 125.689 13.0988C125.72 14.1958 125.368 16.058 125.032 14.9165C124.859 14.3443 124.912 12.2432 124.381 11.9331C124.75 12.0017 125.107 12.2521 125.47 12.3962C125.383 11.7823 125.294 11.1618 125.205 10.548C125.205 10.5471 125.205 10.5462 125.205 10.5452C125.311 10.395 125.414 10.2387 125.519 10.0891C125.73 11.7957 125.936 13.4995 126.14 15.2068ZM48.6886 21.832C49.2229 22.9831 49.4348 23.5903 49.5442 25.5602C49.544 25.5611 49.5437 25.5621 49.5435 25.5631C49.2844 24.7207 49.0256 23.8786 48.7671 23.0361C48.7407 22.6353 48.7139 22.233 48.6886 21.832ZM104.133 13.2418C105.938 20.5276 103.565 16.2381 103.543 13.6736C103.543 13.5561 104.175 14.0683 104.133 13.2418ZM76.3444 21.3271C76.1235 21.299 75.9042 21.2765 75.6849 21.2481C75.5975 20.3335 75.5118 19.4219 75.4246 18.5072C75.7301 19.4457 76.0374 20.3889 76.3444 21.3271ZM12.7666 23.2168C13.2171 21.201 13.9504 20.5306 14.0056 22.7789C13.8226 23.0213 13.632 23.2635 13.4475 23.5064C13.7209 23.7925 13.9841 24.1048 14.248 24.3777C13.9472 27.2169 13.7988 25.5331 13.2003 26.2613C13.1025 26.3784 12.2473 29.853 12.332 27.1785C12.3457 26.628 12.9386 26.3114 12.7072 24.6846C12.8916 24.5764 13.0344 24.6189 13.2009 24.5659C13.2824 23.8908 13.3642 23.2149 13.4474 22.5399C13.2212 22.764 12.9947 22.9915 12.7666 23.2168ZM63.9788 19.7082C64.4825 19.4748 64.7125 20.5939 65.116 22.5721C64.8385 22.3824 64.5611 22.1961 64.283 22.0064C64.1823 21.2418 64.0801 20.4773 63.9788 19.7082ZM17.6737 23.1029C17.9876 22.8057 17.6891 24.4237 17.7674 24.7461C18.0667 25.9589 18.4762 24.8229 18.8157 25.5966C18.8203 25.2788 18.8253 24.9818 18.8298 24.6733C18.8302 24.6733 18.8306 24.6733 18.8309 24.6734C20.8961 23.4849 19.5433 27.0967 18.4101 26.3722C18.3195 26.9762 18.2295 27.581 18.1387 28.1802C17.7113 27.0635 17.3313 25.9887 17.6737 23.1029ZM97.2152 13.9617C97.1845 13.5803 96.6415 11.2064 97.1765 12.2776C97.9742 15.7429 97.2395 14.0714 97.3111 15.4378C97.4606 15.7598 97.6106 16.0725 97.7588 16.3947C97.2966 17.4723 97.0859 16.6515 96.9409 14.0564C96.9321 13.8819 97.2461 14.3418 97.2152 13.9617ZM100.958 11.6655C101.771 16.8232 100.678 14.6066 100.479 12.998C100.576 12.9191 100.781 13.7827 100.839 13.3799C100.897 12.9766 100.756 11.765 100.958 11.6655ZM79.2228 16.1236C79.2415 16.0973 79.1419 13.8937 79.373 15.5958C79.696 19.6583 78.7514 17.1533 78.6395 15.7385C78.8378 15.7798 79.0487 16.3651 79.222 16.1181C79.2223 16.12 79.2226 16.1218 79.2228 16.1236ZM7.8122 21.8426C7.81367 21.7581 8.01801 21.4128 8.2205 21.2945L8.45949 21.2823C8.70681 21.1956 8.93619 21.2351 8.99134 21.5799C9.10981 22.5004 9.16493 23.4883 9.23717 24.4425C9.06582 24.1221 8.81241 24.0096 8.56014 23.8855L8.38349 23.8945C8.08085 23.6775 7.80415 23.4057 7.81355 21.8425C7.81311 21.8426 7.81265 21.8426 7.8122 21.8426Z" fill="white"/>
</svg>
