<svg width="172" height="51" viewBox="0 0 172 51" fill="none" xmlns="http://www.w3.org/2000/svg">
<path d="M16.1995 46.4599C15.9733 48.515 17.179 47.08 16.5557 50.1729C16.7547 50.3618 16.9562 50.557 17.1566 50.7457C17.1099 49.6234 17.0644 48.5036 17.0175 47.3813C16.7439 47.0724 16.4714 46.7635 16.1991 46.4545C16.1992 46.4563 16.1994 46.4581 16.1995 46.4599ZM14.7094 32.4789C15.1922 35.6512 15.9701 36.4431 15.4518 39.4504C15.3007 38.3605 15.1483 37.2709 14.9976 36.1809C14.8049 37.0519 14.6114 37.9226 14.4199 38.7886C14.2919 38.3788 14.1642 37.9685 14.0372 37.5633C14.076 39.4757 14.1066 41.3939 14.1368 43.3116C14.2246 43.0241 14.3177 42.7313 14.3983 42.4443C14.9436 43.9553 15.3539 44.347 15.9569 44.5868C15.9433 45.0412 15.9293 45.4916 15.9157 45.9461C16.1462 45.156 16.3775 44.3638 16.6088 43.5735C16.2897 42.8433 15.9352 42.031 15.6422 41.3499C15.7702 38.3356 16.5756 39.9403 16.9798 40.5329C17.5297 41.3419 17.3023 39.9326 17.7094 40.4963C17.7742 40.5843 17.875 41.6954 17.989 41.7047C18.5411 41.7469 19.5653 41.0659 18.7169 38.5255C17.852 38.9357 16.8692 36.9207 16.0321 37.7569C16.021 34.7371 15.458 33.7563 14.7094 32.4789ZM32.326 40.5557C31.9158 39.1251 31.4075 39.7639 31.1203 40.809C31.1199 40.8091 31.1194 40.8091 31.119 40.8092C31.0558 41.0394 31.0427 42.9915 31.3082 42.8879C31.7408 42.7123 31.6788 39.6468 32.1019 41.6931C32.1717 41.2986 32.2507 40.946 32.326 40.5557ZM33.3177 40.6469C33.5254 39.8749 33.1893 37.5915 32.9012 38.2443C32.901 38.2424 32.9009 38.2406 32.9007 38.2388C32.7806 38.5117 33.229 40.2998 32.5447 38.5058C32.5706 39.9479 32.5863 41.2605 32.6091 42.6561C32.7373 42.6678 32.8559 42.6948 32.9901 42.7012C32.6854 40.3549 33.1096 41.413 33.3177 40.6469ZM19.2892 39.7832C19.5136 41.8988 19.3316 41.9009 19.1505 43.3977C19.4338 43.3035 19.7181 43.2044 20.0026 43.1098C19.7636 41.9997 19.527 40.8935 19.2892 39.7832ZM12.4527 40.6812C12.4522 40.6812 12.4518 40.6813 12.4513 40.6813C12.3285 40.3548 12.2056 40.027 12.0849 39.7049C12.0881 40.4662 12.0917 41.2241 12.0948 41.9854C11.7007 41.302 11.308 40.6183 10.9202 39.9294C11.1415 42.238 11.7103 41.8147 12.1737 43.4035C12.6156 42.6675 12.7508 41.3063 12.6257 39.3448C12.5681 39.7884 12.5113 40.2375 12.4527 40.6812ZM92.2215 24.0059C92.3934 24.6353 92.5638 25.2654 92.7353 25.8948C92.6122 26.2006 92.4838 26.4371 92.3634 26.7895C91.7091 24.044 91.902 26.5081 91.378 26.3839C89.7672 25.9996 89.7807 21.6404 88.943 28.1017C90.0605 27.6942 89.8966 30.709 90.7953 32.936C90.7761 31.1792 89.7313 27.3098 90.1167 26.4509C91.0876 28.2221 91.9803 29.873 92.9918 30.9818C92.9935 31.2856 92.9955 31.5905 92.9972 31.8943C92.8384 31.7171 92.6804 31.5387 92.5212 31.3616C92.7484 32.1545 92.9713 32.9407 93.2011 33.7427C92.837 31.929 93.4297 32.9066 93.1695 30.8083C93.0538 29.8742 92.7139 28.5949 92.501 27.7118C92.7928 27.194 93.0958 26.7164 93.3904 26.2125C93.1469 25.4822 92.9029 24.7511 92.6597 24.0208C92.5139 24.0108 92.3696 24.0074 92.2234 23.9974C92.2227 24.0003 92.2221 24.0031 92.2215 24.0059ZM164.748 28.899C164.156 26.7484 163.348 26.4442 163.108 28.9033C163.655 28.9014 164.204 28.9022 164.748 28.899ZM12.5286 37.727C12.5097 38.1018 12.492 38.4725 12.4731 38.8473C12.743 39.517 13.0152 40.1816 13.2879 40.8509C13.2429 39.7757 13.1988 38.7002 13.1553 37.6296C12.9458 37.6605 12.7362 37.6963 12.5286 37.727ZM26.2682 37.7555C26.1086 37.7044 26.0981 37.7407 25.9206 37.9105C25.9207 37.9096 25.9209 37.9087 25.921 37.9077C25.8545 37.9712 25.2615 38.6545 25.4063 39.4728C25.7359 39.4575 26.0655 39.4142 26.3893 39.3853C26.3507 38.842 26.3048 38.3036 26.2682 37.7555ZM22.5514 38.5692C22.5512 38.5711 22.5509 38.573 22.5506 38.5748C22.4465 38.7102 22.3599 38.9747 22.2455 39.0315C22.7857 40.2924 22.6498 37.9575 23.0974 38.5821C23.5459 39.2112 23.9023 40.4747 23.9546 37.2549C23.7883 36.7881 23.5947 36.1162 23.4184 35.5707C22.975 36.8953 22.7206 35.7078 22.169 34.4893C22.2968 35.8524 22.4236 37.2062 22.5514 38.5692ZM85.8236 31.1074C85.5702 29.5409 85.5973 31.0988 85.5869 31.1186C85.5872 31.1204 85.5876 31.1222 85.588 31.124C84.5134 29.7521 85.7926 31.985 84.9298 32.314C85.0987 32.6956 85.2675 33.0995 85.4354 33.4858C85.5658 32.7067 85.6928 31.8257 85.8236 31.1074ZM55.4135 34.1565C55.4488 34.6163 55.4824 35.0773 55.5177 35.5371C56.0397 35.3795 56.3488 37.1733 56.6335 35.4855C56.2266 35.038 55.8195 34.5939 55.413 34.151C55.4132 34.1528 55.4134 34.1547 55.4135 34.1565ZM28.6548 34.1742C27.9795 33.3514 27.5069 33.0046 27.0653 34.4469C27.0651 34.4488 27.0648 34.4506 27.0645 34.4525C27.0395 34.5411 27.2837 35.4876 27.2628 35.7335C27.133 35.6003 26.9925 35.3902 26.8593 35.2292C26.9123 36 26.966 36.7705 27.0185 37.5367C27.331 37.289 27.6447 37.0412 27.9606 36.7931C27.9515 37.2474 27.9409 37.698 27.9319 38.1524C28.2373 38.3587 28.5425 38.5641 28.8498 38.7701C28.6364 37.5179 28.4234 36.2654 28.2113 35.0084C28.3587 34.7287 28.5074 34.4586 28.6548 34.1742ZM63.7792 28.2868C63.7338 28.7964 63.9873 29.6196 63.8836 30.0646C63.7793 30.5042 63.4223 29.5955 63.6205 31.0031C63.8341 31.1743 64.06 31.3725 64.278 31.5526C63.8822 34.163 63.0219 31.9177 63.3139 35.0662C63.8505 34.1914 64.3922 34.522 65.0703 35.3365C64.8063 32.8404 64.0042 30.7371 64.1539 28.3557C64.0305 28.3348 63.8995 28.2995 63.781 28.2921C63.7804 28.2903 63.7798 28.2886 63.7792 28.2868ZM1.67538 6.97944C1.32238 7.19512 0.446065 6.22698 0.111455 7.71379C0.0286889 8.08031 -0.0267818 12.7616 0.0133504 13.3756C0.153841 15.4432 0.60961 15.6968 0.227271 17.0744C0.385115 17.0784 0.543729 17.1463 0.70468 17.1732C0.765958 18.5646 0.826897 19.9524 0.888546 21.3391C0.680645 21.1425 0.474681 20.9445 0.271026 20.7427C0.290596 21.2034 0.310241 21.6652 0.329765 22.1259C1.02037 22.0916 0.724892 23.8934 1.19527 25.5246C0.911269 26.3828 0.628065 27.2364 0.352092 28.0931C0.534753 27.9792 0.755559 27.8893 0.917987 27.7577C1.08981 30.1126 0.648601 29.5764 0.607798 30.0172C0.36254 32.5108 2.29844 31.1372 2.71632 34.5517C2.40473 34.9551 2.08002 35.3497 1.76861 35.7477C1.89202 36.1644 2.0174 36.5812 2.14223 36.9978C2.75047 34.5835 3.61439 33.6837 4.35913 32.1517C4.44515 32.2436 4.53182 32.3381 4.61686 32.4254C4.66862 33.4904 4.72122 34.5514 4.77274 35.6164C4.90235 35.7334 5.03396 35.8491 5.16475 35.9659C4.55882 32.4889 5.05454 32.502 5.50527 30.3216C5.09416 29.1142 4.75759 29.8881 4.62133 27.593C5.84864 29.279 6.92632 26.6924 8.12707 28.6036C8.4284 29.0755 8.65181 32.0331 9.26093 31.7117C9.21437 31.3884 9.16531 30.8018 9.11844 30.3757C10.3373 31.7059 10.9911 32.5061 12.0038 30.9718C12.0246 32.0395 12.0467 33.1116 12.0673 34.1794C11.7875 33.6692 11.5083 33.1504 11.2331 32.6397C11.2135 34.407 11.5084 35.163 10.8108 35.1995C10.242 35.2302 10.5192 34.4288 10.3244 33.9209C10.0642 33.227 9.98147 34.6385 9.6841 33.8634C9.45581 33.2692 9.53823 31.8061 9.09694 32.2092C9.43015 34.0706 9.77417 35.9926 10.1149 37.8766C10.197 37.4451 10.2852 37.0066 10.3582 36.5711C10.2114 36.0781 10.051 35.5928 9.89613 35.1003C10.386 35.9683 10.8031 36.7903 11.2927 37.6905C10.9447 34.9898 11.4489 35.9728 11.7072 36.2746C12.1094 36.7465 11.65 34.9054 11.9125 35.1974C12.1757 35.4942 12.6008 37.5581 13.0018 37.0771C12.6704 35.8893 12.9009 34.7815 12.7494 33.6726C12.5974 32.5637 12.1192 32.3541 12.4617 31.103C13.3878 31.9578 12.8059 36.2746 13.4398 36.9149C14.2132 37.6836 13.7783 30.7587 13.4648 29.2882C13.2224 28.1305 12.6759 28.4119 12.4205 27.2597C13.2566 25.0753 13.5723 29.2277 13.8112 30.0259C14.6547 32.9329 13.5999 25.0756 14.5495 27.8706C14.4138 26.3962 14.2931 25.07 14.1624 23.6559C14.3079 23.9149 14.4194 24.2658 14.5866 24.4668C14.3848 27.3783 14.7347 27.2252 14.9212 27.2142C15.2151 27.1991 14.879 28.639 14.9866 28.9946C15.2763 29.9459 15.5729 29.4782 15.4742 30.7619C15.5167 30.1648 15.5668 29.5654 15.6122 28.9727C16.0167 29.6785 17.3561 35.7673 16.4711 34.5893C16.7356 36.8712 16.896 35.7503 17.0646 35.3855C17.2332 35.0211 17.3525 36.4785 17.5045 36.1946C18.0804 35.0615 17.4323 32.6062 17.1623 30.6614C18.1559 31.9325 17.3654 32.8965 18.7205 33.6877C18.9808 35.2686 18.5321 37.0177 19.1052 37.8942C18.9604 35.1214 19.1528 33.1042 19.7901 32.1238C19.9145 32.7535 20.0394 33.3888 20.1641 34.0185C20.3372 31.4325 19.904 28.7966 20.9098 31.8974C20.0068 26.1092 20.6208 29.8091 21.0395 27.3842C21.1263 26.8951 20.7243 25.713 20.8501 25.0849C20.9072 24.8017 21.1842 25.6963 21.322 24.9748C21.3889 24.6184 21.6475 22.3335 22.0586 23.3718C22.0733 26.213 22.8886 28.5595 22.5751 30.9386C23.4837 30.2791 24.2817 31.5732 22.8614 27.8228C23.0302 26.9477 23.2001 26.0761 23.3703 25.2055C23.6007 25.863 23.8327 26.515 24.0651 27.1677C23.885 24.8473 23.8036 24.1992 24.5133 24.5471C24.1754 24.0257 23.8293 23.4959 23.4873 22.9701C23.4359 22.5028 23.352 22.0199 23.3215 21.5648C23.7642 22.423 24.8008 22.7169 25.0933 23.3125C25.3892 23.9079 24.9392 24.1183 25.062 24.7105C26.0807 29.5933 25.7104 25.958 26.2031 26.7675C26.4931 27.2465 25.9568 27.8429 26.107 28.0445C26.6632 28.783 26.6542 26.1403 27.0848 26.0678C27.0647 27.5702 27.0478 29.0955 27.0325 30.6114C27.4799 30.4917 27.988 30.4326 28.458 30.8718C28.6424 31.0431 28.6159 32.1616 28.65 32.2333C28.8188 32.6015 29.4326 33.1533 29.4855 33.1531C29.9173 33.1228 29.7904 31.5885 30.203 31.4664C30.0261 31.3516 29.8605 31.2487 29.6882 31.1381C29.3893 28.6591 29.0892 26.1803 28.7903 23.6965C29.1831 23.4785 29.5779 23.264 29.9751 23.0455C29.7485 23.9031 29.5211 24.7567 29.2957 25.6141C29.9483 27.5796 30.6044 29.5493 31.2635 31.5186C31.3983 30.2624 31.5323 29.0065 31.6676 27.7502C32.372 28.0138 32.6964 33.0336 32.6149 28.6176C32.8488 28.9701 33.083 29.3223 33.3173 29.67C33.231 29.0468 33.145 28.4223 33.0588 27.799C33.3361 28.1617 33.6034 28.5227 33.8772 28.8903C33.8313 31.1298 33.8074 33.4842 33.7517 35.6591C34.2689 36.0973 34.1 34.2165 34.1274 33.7408C34.1971 32.481 34.7185 34.1235 34.7595 32.9599C34.7726 32.5604 34.2004 31.3649 34.2265 29.9227C34.2319 29.6432 34.3597 24.3388 34.8642 25.5142C34.9449 26.4655 35.0224 27.634 35.1022 28.6696C35.684 29.1981 35.4945 24.2108 35.2952 22.8264C35.6673 23.774 36.0882 23.817 36.2877 25.3325C36.4358 25.3562 36.5828 25.378 36.7312 25.4016C36.2356 21.7115 36.9029 22.3325 37.2396 25.5143C36.9974 25.6163 36.7557 25.7225 36.5143 25.8245C37.0652 29.7114 36.5291 32.1385 37.7654 28.3753C37.8743 26.3165 37.2592 28.7016 37.3613 27.1579C37.704 26.2331 38.1633 26.9374 38.4325 25.4858C38.766 23.6726 37.9924 22.031 39.3663 24.1709C37.3294 30.0444 40.069 27.9446 41.4518 29.5778C41.2672 23.982 42.1142 22.1245 43.6719 23.6474C43.6718 25.2097 43.1555 24.4535 42.95 24.9872C42.7445 25.5211 43.1054 26.4139 42.8577 27.167C42.6096 27.9199 42.0339 28.9658 41.8102 30.0903C42.172 30.9406 43.6991 32.8872 42.5822 30.4812C43.0971 28.8847 43.2582 27.2787 44.0517 26.9136C44.5258 29.3059 44.6491 30.8118 45.4583 30.8056C44.6662 27.494 45.3575 25.0749 44.8286 21.6263C44.3362 22.4877 44.9728 25.828 44.7965 27.4722C44.7779 27.6367 44.1687 26.8418 44.0517 26.9136C44.2994 23.8356 44.3774 22.6912 43.7086 19.1197C44.1158 19.3993 44.3083 18.9248 44.5055 20.6416C44.5137 19.8879 44.5223 19.1336 44.5293 18.38C44.6542 18.3869 44.7716 18.4455 44.9009 18.4193C44.9667 21.031 45.1641 19.4007 45.5238 20.5535C45.883 21.7077 45.7468 23.7872 46.4275 23.7508C46.261 24.3794 46.1006 24.9204 45.9355 25.5161C46.4407 26.1418 46.9391 26.7724 47.4394 27.3984C47.2829 29.0129 46.8442 31.4306 47.0579 33.5149C47.1859 32.7082 48.0044 34.0271 48.0858 34.0768C48.3982 34.2623 48.1141 32.962 48.1331 32.9274C48.5314 32.2446 48.9527 32.6565 48.9378 30.6467C49.3689 31.5132 49.581 30.9756 49.953 30.9915C50.1577 31.0001 50.2578 32.4678 50.3496 32.1787C50.9595 30.2495 50.0314 28.4289 51.8903 31.8857C51.8049 32.923 51.7237 33.9835 51.6373 35.0301C51.8459 35.3986 52.053 35.7692 52.2601 36.1378C52.3565 35.9415 52.4519 35.7438 52.5484 35.5475C52.335 33.3365 52.1207 31.121 51.9074 28.91C52.0211 28.7775 52.1356 28.6484 52.2493 28.5159C52.0137 28.3185 51.7776 28.1214 51.5422 27.924C51.4855 27.5368 51.4301 27.1493 51.3734 26.7621C51.6348 26.129 51.8947 25.4905 52.156 24.8527C52.2355 25.6213 52.3155 26.3954 52.395 27.164C53.0127 26.0243 52.9676 25.3716 53.8551 27.4246C54.3806 27.351 55.1184 30.5259 55.5535 31.8504C55.6219 31.4089 55.69 30.9618 55.7596 30.5202C55.8911 31.1532 56.023 31.7834 56.1545 32.4164C56.2089 31.5131 56.264 30.6094 56.3182 29.7108C56.5887 31.7236 56.6898 32.3504 56.215 33.1114C56.6418 35.6062 57.4891 34.4066 57.797 33.5256C58.0305 32.8571 57.5028 30.7927 57.5153 30.5343C57.5554 29.6564 58.1127 30.3572 58.2011 30.2037C58.5754 29.5644 58.8879 29.6401 59.2335 29.1392C59.3005 29.0391 59.3854 27.6906 59.3994 27.6472C59.5179 27.4066 59.8022 26.7279 59.8398 26.7055C61.7753 25.5194 60.158 31.4898 61.9879 30.7016C62.0042 31.467 62.0246 32.2268 62.0421 32.992C62.1892 33.0246 62.3375 33.0548 62.4846 33.0875C62.6045 32.4351 62.275 31.301 62.7234 32.1983C62.6103 31.2641 62.497 30.3295 62.383 29.4001C62.5877 29.8905 62.7863 30.3772 62.9946 30.8672C62.9339 27.5935 63.7786 26.7678 63.3477 22.9591C63.2011 21.6631 62.4245 20.3934 62.6345 18.9744C62.887 18.6748 62.847 20.2432 62.9685 20.3136C63.8437 20.8005 63.5875 18.6321 63.9785 19.1794C64.1205 20.1056 64.2671 21.0499 64.4113 21.9852C64.5114 21.6998 64.6123 21.4141 64.7142 21.1285C64.8038 21.7515 64.8947 22.3751 64.9842 22.9981C64.8688 23.0512 64.7379 23.1065 64.6327 23.1587C65.0178 25.568 66.5259 26.5224 65.7926 24.507C65.4943 23.6889 65.1291 24.0836 65.1069 21.1957C65.5222 21.5722 65.9886 21.9529 66.423 22.3277C66.3762 21.7099 66.3285 21.0911 66.2817 20.4734C66.8521 20.8215 66.6044 23.3331 66.732 24.6543C66.8573 24.6797 66.9833 24.7004 67.1086 24.7258C67.1029 24.1234 67.092 23.4934 67.0906 22.9093C67.1866 23.8596 67.4665 26.0629 67.7503 25.2078C67.9321 24.6516 67.3355 22.2881 67.8116 22.5781C67.9204 24.0645 67.9331 25.8864 68.4734 26.3167C68.3743 24.764 68.3064 23.3393 68.1886 21.7088C68.9463 23.1371 68.9945 20.72 69.8867 22.3795C70.4515 23.4296 71.4519 27.2533 71.1763 21.2408C71.4969 21.0512 71.5328 22.5517 71.6641 22.8772C72.284 24.418 72.3607 21.5472 72.4319 21.3719C72.8854 20.249 73.2278 21.2075 73.5517 19.8249C73.6329 20.9353 73.7196 21.9854 73.8031 23.0675C73.231 21.4472 73.0288 21.5451 72.4812 21.9576C72.6976 22.1615 72.9143 22.3705 73.1304 22.5744C73.1843 23.4766 73.2386 24.3789 73.2934 25.2763C71.1561 21.9062 72.1114 27.4621 73.735 28.5422C73.7059 26.8657 73.6821 25.1933 73.6513 23.5123C74.7631 25.9512 74.9719 23.722 75.9095 23.104C76.0214 23.0329 76.54 23.9508 76.728 23.9807C76.7255 23.9873 76.7231 23.994 76.7206 24.0007C76.9842 25.5613 76.8984 26.2992 77.0136 27.7055C77.1298 27.8722 77.2459 28.0382 77.362 28.2049C77.4819 27.1131 77.3205 26.2411 77.7808 26.4546C77.8233 27.5264 77.8666 28.5984 77.9092 29.6702C78.3905 29.6619 78.5914 28.4739 79.0834 28.9324C78.9691 28.5363 78.8583 28.1386 78.7453 27.7424C79.6204 26.6208 78.2515 20.4255 79.285 23.4758C79.2802 22.9244 79.2735 22.3679 79.2687 21.8166C78.952 21.7109 78.6349 21.6095 78.3187 21.5039C78.2392 20.7305 78.1594 19.9605 78.0811 19.187C78.4285 19.3879 78.7789 19.5959 79.1258 19.7969C78.8393 19.3001 78.551 18.8028 78.2638 18.3061C78.6065 17.8994 78.9487 17.4926 79.2901 17.0861C79.1598 19.97 79.7111 20.269 79.8805 23.0966C80.3239 20.6876 80.5549 17.5455 81.7665 19.4286C82.0066 19.8038 82.0824 21.7838 82.4315 19.3328C82.5856 22.48 83.4518 23.8821 83.6394 26.8714C83.4222 26.7469 83.2041 26.6762 82.9945 26.5183C83.1176 25.4637 82.8865 22.6159 82.4714 21.8035C81.9417 20.7682 81.5004 22.7986 81.2279 19.6394C81.0703 19.804 80.9187 19.9065 80.7635 20.0474C80.9063 20.824 81.0481 21.6057 81.1895 22.3824C80.5987 21.1996 80.337 21.6271 80.2948 23.6229C80.9055 24.0235 81.5126 24.4196 82.1189 24.8161C82.0485 24.9582 81.977 25.1014 81.9061 25.2389C82.5234 27.2155 82.2642 29.1674 83.0994 29.5236C83.0076 28.6016 82.9167 27.6789 82.8244 26.7523C83.3425 29.192 84.1453 29.103 84.1561 31.9648C84.3167 31.0703 84.3142 30.5144 84.5952 32.031C85.0311 29.8149 85.1834 27.0501 84.6513 23.8163C84.9371 24.318 85.2227 24.8204 85.5063 25.3223C85.4534 26.2251 85.4 27.1238 85.347 28.0267C85.7526 27.9325 86.16 27.8392 86.5623 27.7501C86.3554 25.113 85.7002 27.0249 85.7183 24.6486C85.7219 24.1716 86.037 25.1631 86.0698 24.8915C86.41 21.9552 85.6475 24.125 85.6206 21.9021C86.4653 21.1354 85.3948 17.5065 86.9319 20.4968C86.8938 19.7334 86.8568 18.9545 86.8167 18.196C87.2504 18.1095 87.3774 19.83 87.7855 20.1193C88.0412 20.2992 88.0576 17.2558 88.5091 19.2852C88.5904 19.6596 88.4963 23.386 89.3996 23.1386C90.0992 22.9469 89.5617 20.3694 89.86 19.4109C90.1599 18.4524 91.3625 21.9842 91.2451 17.8653C91.0916 18.4264 90.8675 18.7422 90.6861 19.2077C90.5222 18.4185 90.3614 17.6377 90.199 16.8531C90.8017 17.8356 91.2136 16.574 91.7411 18.443C92.1654 15.4716 93.1784 18.1 93.2717 21.4025C93.003 20.9497 93.1171 19.4955 92.8874 20.4366C92.9254 21.2047 92.9614 21.9693 92.9994 22.7375C93.5247 22.5958 93.8946 22.5836 93.4391 20.273C93.5164 20.2098 93.593 20.1468 93.6702 20.0836C93.8393 21.7704 94.0072 23.4636 94.1762 25.1505C94.2917 25.3316 94.4074 25.5113 94.5226 25.6925C94.5975 25.3117 94.6722 24.9267 94.7478 24.5412C94.3562 21.8833 94.097 21.8179 94.7932 20.2487C94.8796 21.1714 94.9669 22.0904 95.0533 23.0131C95.6404 21.7767 95.4538 19.5393 96.3559 19.5416C95.3795 16.399 95.5226 22.1133 94.9438 15.6846C94.8144 16.1219 94.6839 16.5651 94.5541 17.0024C94.4436 16.0725 94.3332 15.1413 94.2239 14.2112C95.1542 14.6222 97.2713 20.6122 97.5048 16.4929C97.6232 16.9824 97.7359 17.4071 97.8585 17.9337C98.2347 15.4264 98.9828 20.9126 99.2968 17.6865C99.3296 17.348 98.7336 12.1839 99.556 12.2978C99.5957 12.9723 99.6857 14.1056 99.7447 14.9556C99.882 14.5275 100.016 14.0803 100.151 13.643C100.237 14.2617 100.324 14.8799 100.411 15.5032C100.138 15.7705 99.8642 16.0419 99.5885 16.3095C99.8543 16.5009 100.121 16.6925 100.385 16.8841C100.155 17.928 100.011 17.9516 100.348 19.5618C100.635 19.6346 100.921 19.7134 101.205 19.7866C101.27 20.201 101.335 20.6204 101.401 21.0348C101.377 22.2898 101.35 23.5175 101.328 24.791C101.956 23.7116 102.568 23.6023 102.895 21.1105C102.951 20.6896 102.484 19.0981 103.239 20.5043C103.174 19.6456 103.13 18.9475 103.072 18.1535C104.058 20.4893 104.27 19.7481 104.936 17.9426C104.546 19.6075 104.928 18.5136 105.137 19.3698C105.281 19.9597 104.913 19.9023 105.007 20.5249C105.102 21.143 105.784 23.6135 105.411 23.9497C103.993 18.8878 104.221 25.0661 102.784 22.6999C103.033 23.3466 103.283 23.9948 103.53 24.6418C103.48 25.0992 103.435 25.5142 103.38 26.0002C103.98 24.9337 103.701 25.6169 104.053 26.3854C104.416 27.1532 105.004 27.7814 105.374 27.9692C105.491 28.0282 105.275 26.8841 105.515 26.7552C105.68 26.6663 106.288 28.3377 106.221 26.3115C106.179 24.9925 105.128 21.4401 106.153 21.3612C106.236 20.0575 105.78 20.4991 105.756 20.345C105.535 18.8213 106.068 17.6161 106.455 18.7611C106.487 18.86 106.361 20.0726 106.648 20.5198C107.321 21.5891 107.566 20.1903 107.803 18.3057C108.028 20.474 108.755 23.0252 109.31 22.1707C109.393 22.7897 109.476 23.4143 109.559 24.0379C109.436 23.7168 109.312 23.4002 109.188 23.0793C109.115 23.4779 109.026 23.771 108.961 24.2391C109.634 24.7209 109.968 27.7075 110.355 28.7783C111.669 32.4372 110.411 24.5723 110.116 23.2231C110.029 23.7863 109.952 24.4134 109.869 25.0044C109.821 24.2467 109.773 23.4831 109.723 22.7208C111.244 22.6192 109.553 17.7904 110.208 16.321C110.694 20.0286 111.335 20.3375 111.881 17.9163C111.965 17.9283 112.047 17.9265 112.131 17.9432C112.188 18.485 112.253 19.3148 112.304 19.6707C113.236 20.232 112.935 14.4867 112.977 13.9368C113.157 11.4987 113.693 14.8109 113.816 14.8301C114.303 14.9093 114.328 13.4184 114.824 14.0203C115.355 14.6712 115.113 15.8319 115.335 16.8378C115.513 17.6365 115.895 17.7525 116.109 18.5783C115.998 17.8982 115.88 17.2318 115.768 16.5492C116.194 15.579 116.486 14.6426 117.057 14.3726C118.069 19.3358 118.005 10.8461 118.27 17.7168C117.771 18.2235 117.522 19.0268 117.357 20.7944C117.731 20.9913 118.1 21.1832 118.462 21.3816C118.51 20.6221 118.531 19.8838 118.596 19.1091C118.968 20.6887 119.507 19.9627 119.764 20.4163C121.008 22.5409 120.862 25.2884 121.567 20.6426C120.818 20.2418 120.673 18.0164 119.943 18.3728C120 16.7727 120.403 17.0769 120.03 15.1879C120.786 15.6096 120.66 17.3264 121.033 18.8189C121.354 20.1057 121.82 20.1498 121.899 21.8437C121.888 20.9104 121.868 20.0074 121.858 19.0753C122.294 19.0578 122.736 19.032 123.211 19.0143C122.959 18.0539 122.701 17.0922 122.439 16.1375C122.572 15.7614 122.705 15.3869 122.836 15.0112C123.493 16.4596 124.197 15.8444 124.74 15.7399C125.346 15.6291 125.79 16.0662 125.824 19.9461C126.375 20.1613 126.393 19.2055 126.612 17.754C126.672 18.3291 126.727 18.8072 126.791 19.4473C127.104 18.8267 127.47 20.9787 127.744 20.401C128.027 19.8271 128.001 17.7785 128.218 21.2133C128.369 20.2175 128.526 19.3886 128.677 18.4626C128.835 19.2375 128.992 20.0034 129.148 20.7737C129.312 20.3551 129.476 19.9383 129.638 19.5199C129.82 21.1556 130.498 20.4125 130.886 21.4975C131.105 19.7134 130.817 14.1455 131.582 15.107C131.634 16.489 131.686 17.8669 131.737 19.2489C131.886 18.9523 132.035 18.6566 132.184 18.36C132.17 17.9087 132.156 17.4575 132.143 17.0063C132.067 17.15 131.992 17.2929 131.916 17.4413C131.95 16.6749 131.982 15.912 132.013 15.1456C132.321 16.263 132.614 17.3811 132.932 18.4978C132.63 19.371 132.35 20.2437 132.054 21.1166C132.532 22.1088 132.757 21.0834 133.197 22.194C133.427 20.2706 133.25 19.1782 133.011 17.116C133.142 17.2864 133.273 17.4507 133.403 17.6212C133.216 15.5559 133.36 14.3124 132.658 14.516C132.677 13.9233 132.698 13.358 132.715 12.7421C132.836 12.8291 132.886 12.3264 133.024 12.5475C133.402 13.153 133.852 16.7741 133.894 18.0497C133.916 18.7179 133.511 17.4587 133.572 18.4017C133.724 20.7013 134.453 19.628 133.443 21.9972C133.894 23.443 133.921 22.3338 134.309 21.8895C134.316 22.658 134.324 23.4216 134.333 24.1901C134.505 23.8269 134.676 23.4651 134.846 23.1021C134.383 19.1763 135.685 17.6255 134.265 14.2437C134.626 14.048 134.975 13.8518 135.347 13.6459C135.249 13.2454 135.15 12.849 135.052 12.4485C134.89 12.6714 134.74 12.8901 134.586 13.1079C134.74 12.3586 134.897 11.6136 135.061 10.8639C135.581 11.7556 135.837 13.1552 136.141 14.8834C135.663 16.1811 135.751 14.438 135.306 14.1156C135.378 15.2164 135.411 16.2307 135.508 17.386C135.613 15.0928 136.413 16.7155 136.582 16.8185C137.098 17.1313 136.591 14.91 136.92 14.8454C137.243 14.7819 137.722 16.0946 137.881 13.857C137.942 15.1032 137.988 16.3936 138.028 17.5291C138.578 17.9104 138.393 16.4441 138.438 16.2505C139.132 13.0705 139.74 15.6918 140.753 15.9591C140.648 16.3518 140.54 16.707 140.432 17.0766C141.321 19.6817 140.779 18.8986 140.168 19.8081C140.77 19.51 141.237 21.7442 141.698 22.3909C142.146 23.0371 142.851 21.8382 143.063 20.922C142.368 19.5049 141.745 20.4984 141.05 20.1347C141.059 18.8613 141.076 17.7831 141.08 16.3842C141.637 19.0258 141.77 17.2322 141.895 16.8709C142.247 15.8122 142.359 18.0992 142.469 15.6267C142.505 16.4732 142.537 17.1849 142.57 17.9756C143.38 17.5769 144.188 16.0321 144.907 19.1257C144.843 17.0912 144.771 15.1316 144.711 13.0548C145.148 14.5646 145.344 12.9825 145.668 13.323C145.987 13.6642 145.967 15.3125 146.352 15.9252C146.423 16.0378 146.498 15.0026 146.698 15.7515C146.901 16.5044 147.802 22.1363 147.59 17.1834C147.892 17.1428 148.166 16.9455 148.452 16.845C148.153 16.5824 147.851 16.3287 147.546 16.0663C147.724 14.8527 147.898 13.643 148.07 12.4296C148.163 13.4972 148.257 14.5841 148.347 15.6378C149.068 16.9023 149.439 15.1264 150.123 15.5012C150.237 15.5645 150.105 17.6937 150.556 17.1264C150.995 16.5592 151.146 12.5906 152.054 14.0654C152.103 14.1417 152.515 17.1496 152.696 15.0389C152.736 14.5607 152.404 13.8767 152.524 13.2444C152.646 12.6118 153.307 12.0572 153.267 10.5712C153.292 11.0967 153.283 11.6435 153.295 12.1792C153.427 12.4229 153.56 12.6668 153.693 12.9058C153.646 11.9803 153.601 11.0533 153.555 10.1324C154.371 12.242 154.932 15.7313 155.873 14.5053C155.671 15.8667 155.472 17.2332 155.279 18.5938C155.143 17.6551 155.006 16.7101 154.871 15.7713C154.431 16.1768 153.978 16.5801 153.546 16.9846C153.404 15.9155 153.264 14.8494 153.121 13.7803C153.007 13.9272 152.892 14.0698 152.776 14.2168C152.855 14.9912 152.933 15.7614 153.013 16.5357C152.755 16.3602 152.492 16.1809 152.246 16.0045C153.009 20.5575 153.61 15.5301 153.775 19.3671C153.848 18.7658 153.919 18.1603 153.99 17.5543C154.15 19.4099 154.343 18.8611 154.723 18.5434C154.689 19.4647 154.645 20.3742 154.618 21.3045C154.933 19.9879 155.6 20.0719 155.974 19.5488C156.137 19.3191 155.874 17.9831 155.917 17.8214C156.134 16.977 156.789 19.2953 156.881 19.1026C157.443 17.9554 157.566 13.4721 158.446 16.3633C157.78 17.1356 158.15 16.8035 158.005 18.4513C157.961 18.9679 157.108 20.0953 158.229 19.5458C158.36 19.4783 160.251 16.2579 159.399 13.9458C159.795 14.675 160.12 15.5271 160.481 16.3051C160.801 10.0365 160.955 15.8937 160.95 19.1247C161.079 19.1297 161.202 19.1539 161.332 19.1448C160.824 15.7865 162.192 15.4793 162.785 17.1495C162.982 17.7048 162.624 18.8175 163.023 19.3021C163.173 19.0531 163.357 18.7314 163.522 18.4532C163.41 20.6094 163.999 21.3937 164.152 23.5674C164.344 21.6061 164.291 17.4824 163.939 15.2716C164.287 16.1514 164.634 17.0299 164.976 17.9144C164.889 18.4395 164.798 18.9603 164.708 19.4855C165.5 18.0527 166.925 21.065 166.742 16.4868C166.861 16.5099 166.985 16.5282 167.109 16.5508C167.209 17.3183 167.308 18.0874 167.408 18.8549C167.894 18.1427 168.382 17.4249 168.866 16.7109C168.339 16.274 168.143 15.1862 167.706 16.119C167.827 15.2169 167.955 14.3091 168.068 13.4073C169.02 15.7292 169.267 17.2878 170.347 16.4776C170.4 16.4404 171.079 14.3642 171.092 14.1663C171.146 13.2637 170.825 11.9886 170.844 11.5332C170.896 10.2568 171.607 6.99716 171.54 6.52148C170.739 0.68664 167.448 0.902331 166.522 0.671324C157.039 -1.70357 147.985 3.00147 138.429 2.79924C138.332 2.79328 138.328 1.92328 138.285 1.8883C138.017 1.68396 137.835 3.04984 137.743 3.11072C137.544 3.23656 137.591 1.98104 137.441 1.98808C135.891 2.08401 134.469 2.89482 132.925 2.75963C132.823 2.75087 132.978 3.74539 132.791 3.57778C132.694 3.48573 132.326 1.96658 132.115 1.95409C131.392 1.91184 130.829 2.4335 130.059 2.44914C129.632 2.45679 129.025 2.61808 128.563 2.61791C128.359 2.61824 128.111 1.92712 127.906 1.91383C127.616 1.89569 127.746 3.31544 127.706 3.40603C127.529 3.80178 127.424 2.24164 127.239 2.28811C126.896 2.37982 126.924 3.42357 126.493 3.35639C126.185 3.30644 125.436 2.5183 125.029 2.29591C124.753 2.69651 124.443 2.9262 124.117 3.0417C123.423 3.28783 122.636 3.02053 121.975 2.78585C121.384 2.58246 121.463 4.04223 121.245 4.05068C120.504 4.06736 119.803 2.24174 119.055 2.23052C118.106 2.21455 117.394 3.50135 116.464 3.65712C116.314 3.68193 116.252 2.3438 116.1 2.32033C115.543 2.23455 114.883 2.03901 114.418 2.26545C113.906 2.51443 113.857 4.46747 113.301 4.11316C113.137 4.00788 112.961 2.31211 112.682 2.11423C112.262 1.80166 111.947 3.33385 111.682 3.52303C111.318 3.77605 111.514 2.01878 111.014 2.29204C110.994 2.30376 111.014 3.54715 110.898 3.49703C110.558 3.35598 110.513 2.379 110.038 2.51069C109.994 2.5271 109.443 3.75818 109.381 3.76801C109.026 3.81549 108.332 4.28792 108.094 4.05532C107.247 3.22819 107.702 1.31732 107.376 5.41009C107.002 4.44612 106.627 3.46882 106.232 2.53481C106.519 3.41264 105.767 4.77752 105.715 4.69785C105.184 4.06497 105.335 2.47001 104.751 2.78135C105.86 6.34204 104.009 3.31552 103.638 3.25417C101.837 2.95572 100.421 3.99205 98.6608 4.12486C98.0597 4.16864 97.2541 3.46763 96.6428 3.54117C96.5014 3.55496 96.6853 4.40381 96.5624 4.43353C96.4392 4.45741 96.4907 3.48135 96.3532 3.5451C95.4997 3.95856 94.9587 5.84053 93.936 3.64206C93.9269 3.97418 93.9517 4.23369 93.9201 4.60045C93.0822 2.62375 92.0585 5.47787 91.6104 5.89781C90.9102 6.55094 90.5894 5.19283 90.0628 5.52154C89.3851 5.95807 88.558 8.74574 88.6278 4.26393C88.1233 4.17036 87.6443 4.17604 87.1818 4.6352C87.1304 4.68716 87.2737 5.81142 87.2535 5.83667C87.1273 6.01172 86.9873 5.00622 86.8874 4.96874C86.6165 4.86814 87.1521 6.03784 86.7509 5.73445C86.5388 5.57179 86.3464 4.70132 85.8004 4.73345C82.5681 4.93658 79.0624 5.5857 75.7574 6.04951C75.5311 6.08037 75.5771 4.97571 75.2986 5.07236C74.3337 5.40753 72.7166 7.41339 71.8432 7.24446C70.9664 7.07555 71.0065 5.46265 70.408 4.84605C70.2923 4.72611 70.4639 5.62677 70.3717 5.64961C69.7511 5.79319 69.1357 7.28243 68.6451 7.54456C68.3209 7.71978 68.2112 6.28757 67.9668 6.2079C67.6017 6.09313 67.3851 7.57147 67.2035 7.63563C66.3514 7.92275 65.6397 6.81692 64.8806 7.48845C64.8823 7.17076 64.8755 6.87749 64.8728 6.56491C63.9115 6.70849 62.9496 6.8523 61.991 6.99566C62.0089 6.70388 62.0251 6.40977 62.0425 6.11335C60.9258 6.37961 61.3535 9.48242 60.8224 2.89465C60.7178 2.67081 60.6048 2.41056 60.5057 2.20491C60.8625 5.59046 60.4154 8.13596 59.6262 9.08198C59.5685 9.15302 58.8227 5.89014 59.2436 9.78911C59.0402 8.84487 58.9104 8.19297 58.7353 7.36298C58.6642 8.56245 58.5892 9.74817 58.5176 10.943C58.4011 10.7764 58.2839 10.6161 58.1674 10.4496C58.0794 9.68607 58.0146 8.89077 57.9107 8.14281C57.4373 8.07124 56.58 9.10768 56.2057 9.04558C55.2748 8.88678 54.1568 6.90672 53.6636 9.20888C53.2977 9.01397 53.4958 7.47994 53.0023 7.71882C53.0172 8.48447 53.0325 9.21821 53.0471 10.0072C52.3045 6.65097 52.4147 8.72534 51.9102 9.48961C51.5694 10.0087 51.2369 9.20278 50.8845 9.39995C50.7952 9.45057 50.9036 10.4462 50.8367 10.4198C50.6132 10.3374 49.8734 9.02343 49.7194 9.00069C48.3158 8.7697 47.1509 9.03584 45.8878 9.52529C45.7518 9.57562 45.8393 8.57463 45.6989 8.63006C45.4729 8.7176 45.753 10.2164 45.6255 10.3033C45.2684 10.5374 45.1179 8.94317 44.5825 8.90974C42.8117 8.80174 40.9678 10.184 39.1541 10.4618C39.0975 10.4671 39.0132 9.53271 38.9508 9.52921C38.5458 9.52114 38.2594 10.8218 37.8957 10.8418C37.2928 10.8795 36.7201 9.60923 36.1309 9.66883C34.967 9.78201 33.9809 10.5514 32.7974 10.6981C31.8346 10.8198 30.9635 10.7743 29.8895 10.8773C25.2071 11.3243 20.2138 8.78088 15.6549 10.7564C15.5415 10.8081 15.659 11.63 15.6204 11.5973C15.2535 11.2685 15.1168 10.1575 15.1909 12.5018C14.7038 12.0796 14.4156 10.3379 13.8922 10.5078C13.614 10.5971 14.0513 13.2975 13.4562 11.9359C12.9221 10.7044 13.2664 9.1765 12.1279 10.8026C12.0974 10.8472 12.072 12.5173 11.7716 12.1076C11.4625 11.7029 11.6813 10.4908 10.9958 10.1867C9.39842 9.4753 7.61562 11.0575 5.83907 10.7471C5.72856 10.7275 4.63489 9.91745 4.37969 9.52492C3.91399 8.76035 3.90829 7.52223 3.36705 7.25752C2.95123 7.05379 2.72374 8.47275 2.24864 8.22561C2.19154 8.1955 2.01098 6.76522 1.67538 6.97944ZM94.2665 26.6204C94.4955 28.0177 95.1504 33.1779 95.6096 31.5475C95.6533 31.3939 95.0201 27.8619 95.3018 27.2651C94.9416 26.9191 94.6117 26.8265 94.266 26.615C94.2661 26.6168 94.2663 26.6186 94.2665 26.6204ZM1.21784 40.2268C1.65364 39.9384 2.09919 39.6511 2.55104 39.3601C2.18642 38.7539 1.82698 38.1483 1.47465 37.5359C1.38869 38.4325 1.304 39.3304 1.21784 40.2268ZM58.1651 32.7703C58.1647 32.7703 58.1642 32.7704 58.1638 32.7704C58.7073 33.3921 59.2514 34.0149 59.7953 34.6365C59.6977 34.1499 59.5999 33.6613 59.5024 33.1747C59.0494 32.4369 58.5963 31.7002 58.1447 30.9623C58.1516 31.565 58.1583 32.1676 58.1651 32.7703ZM53.8763 27.9302C53.6257 28.5436 53.7948 29.5216 53.718 30.4974C53.7178 30.4955 53.7176 30.4937 53.7174 30.4919C53.6968 30.746 53.5106 30.9844 53.4341 31.0294C53.4047 30.4099 53.3847 29.7976 53.3583 29.1826C52.5015 27.758 51.6119 33.196 53.6236 35.1607C53.5222 34.3846 53.4224 33.6123 53.321 32.8362C54.2405 32.9683 55.0827 31.1833 53.8763 27.9302ZM101.68 28.2145C102.673 30.6983 102.964 31.2148 103.726 29.3858C103.534 28.6738 103.341 27.9619 103.148 27.25C103.061 28.001 102.975 28.7468 102.887 29.4978C102.887 29.4978 102.886 29.4979 102.886 29.4979C102.787 28.7259 102.689 27.9525 102.591 27.1803C102.29 27.5247 101.985 27.8697 101.68 28.2145ZM24.6416 32.5097C24.8766 37.6247 24.6751 34.6574 25.4006 35.751C25.647 36.1312 25.5212 37.041 25.6649 37.1778C26.4414 37.9259 26.1944 34.5067 25.8779 32.7443C25.4681 32.6593 25.0583 32.5849 24.6429 32.5096C24.6425 32.5096 24.642 32.5097 24.6416 32.5097ZM6.02338 32.9771C6.02293 32.9771 6.02248 32.9771 6.02203 32.9772C6.0934 34.2231 6.41437 34.5362 6.16604 35.7397C6.41785 35.7167 6.68134 35.6874 6.92847 35.6645C6.85084 35.5537 6.76357 35.449 6.67959 35.3386C6.71409 34.9064 6.75317 34.4685 6.78172 34.0367C6.97286 35.4608 6.99076 34.6235 7.20945 34.1262C7.25292 35.6593 7.29654 37.1936 7.3394 38.7267C7.60211 38.2497 7.86778 37.7707 8.13447 37.293C8.10912 36.9076 8.08383 36.5217 8.05846 36.1364C8.20892 36.6199 8.35922 37.1089 8.51083 37.5922C8.50702 37.1302 8.50234 36.6725 8.49847 36.2105C8.66278 36.5482 8.82802 36.8855 8.99412 37.2276C8.95137 36.111 8.60752 35.6534 9.17317 35.8945C8.91813 34.7652 8.66507 33.6392 8.4117 32.5097C7.59717 32.6652 6.87384 32.817 6.02338 32.9771ZM30.3522 33.5763C29.4566 33.4426 29.777 34.2261 30.2086 36.7305C30.2559 35.679 30.3048 34.6278 30.3522 33.5763ZM75.5983 27.0264C76.0185 28.722 76.4378 30.4004 76.8575 32.0352C77.47 32.9453 77.6916 29.7608 77.1836 28.5694C76.5721 27.1401 76.2358 28.8369 75.5983 27.0264ZM87.5311 26.6721C86.9744 27.5287 87.7594 29.5174 88.0124 30.6958C88.0094 28.7643 88.2758 28.9098 88.6524 28.6501C88.2683 28.5606 87.619 26.5272 87.5306 26.6666C87.5308 26.6684 87.531 26.6702 87.5311 26.6721ZM65.5173 29.9411C65.2559 29.9143 64.9567 29.4582 64.7842 30.0638C65.0107 31.7018 65.3239 30.1618 65.2311 32.631C65.3985 32.6571 65.5653 32.6819 65.7326 32.7126C65.5324 31.7124 65.5991 30.9442 65.5172 29.9467C65.5172 29.9448 65.5172 29.943 65.5173 29.9411ZM39.0952 34.7252C39.4135 32.7309 39.586 33.5554 40.218 34.8574C40.1407 33.2651 39.2895 30.6655 38.859 30.1159C38.9382 31.6519 39.0173 33.189 39.0952 34.7252ZM157.601 24.4421C157.34 22.4249 156.45 22.217 156.026 22.8451C156.1 23.1421 156.173 23.4431 156.247 23.7448C156.707 23.9768 157.148 24.2101 157.601 24.4421ZM88.8289 28.4958C88.7679 28.5611 88.7089 28.6112 88.6524 28.6501C88.7207 28.6659 88.7814 28.6256 88.8289 28.4958ZM114.783 17.3947C114.423 15.5028 115.014 14.8127 114.293 15.6198C114.293 15.618 114.293 15.6161 114.293 15.6143C113.811 16.1465 113.709 16.2866 113.266 16.4706C113.623 18.9088 114.609 19.7135 113.38 20.3185C113.364 20.322 113.283 18.8609 113.094 19.0765C113.036 19.1435 112.928 20.3563 112.645 20.7291C112.553 20.8485 111.826 21.2778 112.858 21.2192C112.962 22.9301 113.154 24.655 113.283 26.3127C113.718 26.763 113.758 23.3936 114.177 23.4436C114.823 23.5243 115.417 26.8825 115.199 22.4339C114.57 21.3847 113.652 21.4298 113.752 24.1076C113.251 24.1796 112.93 22.0046 113.255 20.8903C115.095 22.1296 113.484 17.6057 115.192 19.2311C115.257 19.8471 115.372 20.5067 115.406 21.0878C115.721 18.8788 114.914 18.0712 114.783 17.3947ZM111.421 22.4086C111.84 23.6877 112.255 24.9778 112.665 26.2626C112.495 24.1364 112.176 22.2417 111.587 21.0836C111.533 21.5269 111.476 21.97 111.421 22.4086ZM137.285 21.4076C137.39 22.5633 137.562 23.6183 137.705 24.7161C137.75 23.7345 139.933 22.6794 138.75 21.7814C138.584 21.6503 137.661 23.7523 137.285 21.4076ZM35.4385 33.3108C35.6275 32.5123 35.8156 31.7125 36.0041 30.914C35.5579 30.4599 35.1115 29.9927 34.6672 29.529C34.9243 30.7893 35.1807 32.0506 35.4385 33.3108ZM79.6477 24.5973C79.5413 24.6512 80.0589 26.204 79.5995 25.9951C80.0207 26.9796 80.4057 27.8103 80.8124 28.7355C80.8361 27.9754 80.861 27.2183 80.8846 26.4582C81.004 26.9335 81.1245 27.4056 81.2438 27.8809C81.0962 26.7908 80.9557 25.7259 80.8038 24.6176C80.4931 27.014 80.119 24.3656 79.6477 24.5973ZM63.4054 21.8306C63.5377 24.2175 64.4437 25.5577 63.7222 26.0105C64.0158 27.5589 64.3256 28.3562 64.7823 28.4527C64.7962 27.8485 64.8104 27.2486 64.8242 26.6443C64.9875 28.2421 65.1578 28.8254 65.5173 29.9411C65.5173 29.9393 65.5174 29.9374 65.5174 29.9356C66.2046 29.9865 66.113 29.4574 66.0236 26.8135C65.4506 28.3655 65.1976 25.9664 64.5747 24.5851C64.1465 23.6353 63.7528 24.1218 63.4054 21.8306ZM134.916 21.5034C135.523 23.491 135.156 25.3934 135.961 23.2066C135.876 22.698 135.79 22.1938 135.705 21.6853C135.435 21.6201 135.175 21.56 134.916 21.5034ZM61.6936 30.2194C61.3986 26.5332 61.5997 23.6225 62.255 29.6028C61.9082 30.8664 61.8095 27.4529 61.6936 30.2194ZM86.7776 20.9277C85.909 21.1822 86.4646 25.3217 87.0225 27.365C87.0079 26.604 86.9932 25.8415 86.9779 25.0852C87.1648 25.4139 87.3515 25.7433 87.5375 26.0674C87.2845 24.3557 87.0309 22.6394 86.7776 20.9277ZM45.5855 27.6762C46.5184 30.2403 44.9858 29.2081 45.6188 30.8042C46.1242 32.0801 46.377 29.3836 46.0294 27.7418C45.8927 27.7079 45.7425 27.6894 45.5868 27.6761C45.5864 27.6761 45.586 27.6762 45.5855 27.6762ZM49.5999 28.0539C49.7551 30.8732 49.8385 30.0391 49.2517 29.585C49.0838 29.456 47.9636 30.6268 48.2548 28.2507C48.6908 28.2093 49.1482 28.1249 49.5999 28.0539ZM97.4691 24.0904C97.3683 22.8658 96.1773 20.2646 96.1146 20.9477C96.1144 20.9459 96.1142 20.9441 96.1141 20.9423C95.9503 22.8042 96.9773 22.9737 96.7696 25.5268C97.5316 23.2278 98.295 28.5534 97.5949 21.509C97.0043 21.2504 97.4015 22.6798 97.4691 24.0904ZM168.951 17.8061C168.952 17.8061 168.952 17.806 168.953 17.806C168.891 17.8694 168.524 19.7098 168.638 20.3269C169.217 19.7408 169.017 18.5666 169.763 20.46C169.741 19.8314 169.717 19.2219 169.697 18.5884C169.432 18.2374 169.244 17.4961 168.951 17.8061ZM139.553 18.8068C139.31 18.498 138.964 19.8498 138.697 19.7847C139.798 24.847 140.543 20.0319 139.553 18.8068ZM14.707 32.4736C14.7078 32.4754 14.7086 32.4771 14.7094 32.4789C14.709 32.4762 14.7085 32.4735 14.7081 32.4707C14.7077 32.4717 14.7073 32.4726 14.707 32.4736ZM121.906 22.7954C121.915 22.4623 121.913 22.1735 121.903 21.9205C121.902 21.8967 121.9 21.873 121.899 21.8492C121.902 22.1604 121.905 22.4752 121.906 22.7954ZM99.4461 24.2853C99.6809 22.544 98.1492 19.9459 97.7829 20.6318C97.8824 21.4081 97.9504 22.1138 98.0994 23.0024C98.2593 20.9545 99.4086 24.5785 99.4461 24.2853ZM69.6461 26.4389C70.677 26.2935 68.6848 19.6877 69.1461 25.0659C69.1582 25.1698 69.6187 26.4323 69.6461 26.4389ZM91.2521 24.3186C90.8034 22.303 91.2775 21.713 90.4718 22.1428C90.4718 22.6757 90.472 23.2097 90.472 23.7425C90.7325 23.9335 90.9928 24.1275 91.2521 24.3186ZM75.5674 16.9512C76.9755 17.9633 78.3979 19.8502 78.0913 25.5533C77.9764 25.382 77.8606 25.2167 77.7456 25.0454C77.4703 22.3034 77.2516 23.8352 76.7301 23.975C76.551 22.893 76.2328 22.6691 76.0894 21.7488C75.8123 19.9699 76.031 18.6798 75.5674 16.9512ZM21.1684 26.5624C21.23 27.0292 21.2913 27.4985 21.3525 27.9606C21.6016 28.4718 21.8519 28.9803 22.1026 29.4913C21.9908 28.5949 21.8789 27.6987 21.7672 26.8023C21.5672 26.7217 21.3685 26.6403 21.1695 26.5596C21.1691 26.5605 21.1688 26.5615 21.1684 26.5624ZM109.686 16.7164C110.224 21.8671 109.747 20.9491 108.692 18.4106C109.026 17.8455 109.358 17.2807 109.686 16.7164ZM54.8957 21.0374C55.0086 22.5042 55.1216 23.9664 55.2333 25.4333C54.6427 23.9506 54.565 22.2659 54.5927 20.3077C54.6941 20.5504 54.7942 20.7947 54.8957 21.0374ZM48.4408 21.0242C48.5959 20.7012 48.6144 21.8924 48.6314 21.8669C49.0386 21.2012 49.0525 20.6527 49.7103 21.4883C49.8101 21.7922 49.9102 22.1121 50.011 22.4253C50.0381 25.5187 49.6863 23.8648 49.2978 25.721C49.2986 24.659 49.2989 23.5956 49.2992 22.5289C49.0089 22.781 48.7199 23.0299 48.4301 23.282C48.3624 22.9609 48.2948 22.6429 48.2271 22.3219C48.298 21.8942 48.3676 21.4146 48.4408 21.0242ZM18.8978 28.1016C18.6049 28.2483 18.3124 28.3996 18.0224 28.5459C17.9469 27.7905 17.8714 27.03 17.7959 26.2746C18.1608 26.8837 18.5289 27.493 18.8978 28.1016ZM116.109 18.5783C116.153 18.8451 116.196 19.1135 116.237 19.3868C116.21 19.0521 116.165 18.7926 116.109 18.5783ZM169.393 13.5892C169.689 13.0307 170.211 13.3346 170.574 13.19C170.716 15.0893 169.717 14.6495 169.477 15.8287C169.393 15.493 169.267 13.8244 169.393 13.5892ZM85.5669 21.2092C85.3925 20.2714 85.2185 19.3382 85.0451 18.4003C84.847 18.5218 84.6486 18.649 84.4487 18.7707C84.3699 17.9969 84.2905 17.2165 84.2117 16.4427C85.2286 17.3622 84.8059 15.1493 85.0552 12.9045C85.2251 15.6712 85.3965 18.4379 85.5669 21.2092ZM8.89043 23.975C9.61885 24.4462 9.89773 25.41 9.72083 27.7642C9.45468 27.248 9.1579 26.7336 8.88018 26.2181C8.88408 25.4706 8.88792 24.7224 8.89043 23.975ZM128.166 16.0929C128.773 16.9355 128.625 13.8078 129.255 15.527C128.994 16.1181 128.731 16.7158 128.467 17.3071C128.368 16.9033 128.266 16.4967 128.166 16.0929ZM99.9821 9.51946C100.125 8.41335 101.023 13.5321 101.348 9.66671C101.604 10.7894 101.798 11.8663 102.029 12.9678C102.002 11.75 101.983 10.5159 101.953 9.30777C101.953 9.30774 101.954 9.3077 101.954 9.30766C102.583 9.6642 102.331 11.2165 102.456 12.5004C102.509 13.0326 102.87 12.1039 102.834 13.2753C102.772 15.2861 101.784 14.2192 101.993 16.646C102.237 15.8254 102.902 16.4352 102.863 18.0696C102.823 19.8635 101.989 16.936 101.749 18.4429C101.937 14.5185 100.95 15.8122 101.087 18.8017C100.239 16.5717 100.753 15.586 101.419 15.6349C100.817 13.3877 101.517 14.5689 101.447 12.6631C100.936 11.5537 99.5837 12.6353 99.9821 9.51946ZM70.0663 16.5436C70.5242 16.6482 71.0918 15.2784 71.5786 17.1743C71.8622 18.2789 71.2522 19.2136 71.8983 20.9291C71.4508 20.7986 71.2864 20.12 71.2127 18.5695C71.0967 18.3935 70.9798 18.2223 70.8641 18.051C70.8474 18.3565 70.8291 18.6581 70.8124 18.9636C70.6999 18.3335 70.5877 17.7085 70.4765 17.0783C70.3839 17.2133 70.29 17.3487 70.1978 17.4884C70.1549 17.1703 70.1074 16.8944 70.0663 16.5436ZM144.189 15.3505C144.063 15.3388 143.938 15.3271 143.812 15.3108C143.805 14.933 143.799 14.5394 143.794 14.151C143.788 13.8442 143.783 13.5373 143.777 13.2305C143.758 14.329 143.285 16.179 142.974 15.0241C142.818 14.4448 142.986 12.3484 142.441 12.014C142.829 12.1001 143.191 12.365 143.567 12.5215C143.498 11.9049 143.432 11.2816 143.366 10.6649C143.366 10.664 143.366 10.663 143.366 10.6621C143.48 10.516 143.602 10.3626 143.718 10.2163C143.875 11.9287 144.031 13.638 144.189 15.3505ZM54.9795 18.1076C55.5139 19.2776 55.7143 19.8925 55.7038 21.8678C55.7034 21.8688 55.7031 21.8697 55.7027 21.8707C55.4638 21.0188 55.2251 20.1673 54.986 19.3155C54.9837 18.9133 54.9808 18.5099 54.9795 18.1076ZM119.279 11.8496C120.652 19.2391 118.38 14.8061 118.575 12.2444C118.586 12.1269 119.254 12.6773 119.279 11.8496ZM86.7266 18.6265C86.4785 18.5888 86.2299 18.5571 85.9796 18.5197C85.9505 17.601 85.923 16.6853 85.8938 15.7666C86.1715 16.7182 86.4497 17.6747 86.7266 18.6265ZM11.4942 20.369C11.5832 18.306 12.2104 17.5102 12.6954 19.7065C12.5528 19.9798 12.4061 20.2538 12.2529 20.5279C12.6094 20.7558 12.924 21.0128 13.2647 21.2277C13.5124 24.0718 13.0245 22.4502 12.5234 23.2807C12.4451 23.4145 12.1663 26.9924 11.7586 24.3457C11.6753 23.8017 12.2418 23.3814 11.6986 21.8238C11.8695 21.684 12.0285 21.6991 12.1952 21.6155C12.1526 20.9368 12.1098 20.2573 12.0684 19.5785C11.8755 19.8412 11.6852 20.1066 11.4942 20.369ZM72.6644 16.5188C73.2555 16.3042 73.4387 17.4326 73.7579 19.4273C73.4507 19.2273 73.1504 19.0302 72.8461 18.83C72.7863 18.0612 72.7247 17.2923 72.6644 16.5188ZM16.8507 19.2684C17.1502 18.912 17.1493 20.559 17.3079 20.8585C17.9083 21.985 18.1522 20.787 18.7164 21.4766C18.656 21.1639 18.6 20.8716 18.5417 20.5681C18.5421 20.5681 18.5425 20.5681 18.543 20.568C20.812 18.9836 19.8715 22.8008 18.3985 22.3199C18.4176 22.9306 18.438 23.5419 18.4566 24.148C17.7312 23.1399 17.0691 22.1663 16.8507 19.2684ZM111.253 12.1917C111.25 11.8088 110.822 9.40843 111.352 10.5058C111.981 14.0102 111.273 12.3024 111.238 13.6724C111.384 14.0018 111.532 14.3217 111.676 14.6513C111.047 15.706 110.871 14.8752 110.925 12.273C110.93 12.098 111.256 12.5733 111.253 12.1917ZM115.761 10.0916C116.242 15.2908 115.19 13.015 115.098 11.3968C115.216 11.3232 115.377 12.1975 115.478 11.7981C115.579 11.3983 115.522 10.1797 115.761 10.0916ZM90.4285 13.5415C90.452 13.5159 90.5076 11.3073 90.6397 13.02C90.6957 17.0978 89.8126 14.5512 89.7945 13.1311C90.0138 13.1812 90.2116 13.7756 90.428 13.536C90.4282 13.5378 90.4283 13.5396 90.4285 13.5415ZM7.41359 19.4555C7.41395 19.3094 7.99233 18.3806 8.14052 19.1904C8.28082 20.1042 8.3915 21.0867 8.51747 22.0343C8.08637 21.1803 7.41946 21.9072 7.41488 19.4554C7.41446 19.4554 7.41403 19.4554 7.41359 19.4555Z" fill="white"/>
</svg>
