<svg preserveAspectRatio="none" width="100%" height="100%" overflow="visible" style="display: block;" viewBox="0 0 147.081 45.1912" fill="none" xmlns="http://www.w3.org/2000/svg">
<path id="Vector" d="M137.918 40.8317C138.539 42.7838 137.389 41.6327 138.517 44.513C138.429 44.736 138.334 44.9669 138.24 45.1912C138.013 44.0916 137.785 42.9949 137.556 41.8956C137.678 41.5384 137.801 41.1815 137.917 40.8263C137.917 40.8281 137.917 40.8299 137.918 40.8317ZM135.805 26.9328C136.157 30.1198 135.765 31.0537 136.85 33.8645C136.711 32.7737 136.575 31.6827 136.438 30.5915C136.786 31.3969 137.125 32.2043 137.451 33.0102C137.453 32.5857 137.455 32.1608 137.46 31.7407C137.845 33.6128 138.216 35.4925 138.579 37.3732C138.47 37.1071 138.359 36.8365 138.245 36.5715C138.208 38.1468 138.028 38.6057 137.661 38.9613C137.774 39.4003 137.886 39.8355 137.997 40.2748C137.661 39.5525 137.314 38.831 136.959 38.1133C137.02 37.3367 137.09 36.4732 137.147 35.7503C136.363 32.8471 136.118 34.5819 135.957 35.245C135.73 36.1513 135.565 34.7349 135.386 35.3727C135.357 35.4725 135.551 36.5713 135.464 36.6061C135.029 36.7747 134.009 36.3591 134.077 33.7008C134.902 33.8919 135.174 31.7173 136.017 32.3447C135.308 29.4133 135.507 28.337 135.805 26.9328ZM120.457 37.9464C120.755 36.4942 121.225 37.1012 121.514 38.1265C121.514 38.1265 121.515 38.1265 121.515 38.1265C121.577 38.3523 121.681 40.2999 121.443 40.2126C121.065 40.0638 120.983 37.0006 120.704 39.0683C120.625 38.6787 120.54 38.3315 120.457 37.9464ZM119.612 38.097C119.4 37.3389 119.596 35.0401 119.869 35.6743C119.869 35.6724 119.869 35.6706 119.87 35.6688C119.983 35.9339 119.676 37.7455 120.184 35.9139C120.221 37.3546 120.262 38.6655 120.3 40.0597C120.192 40.0791 120.093 40.1133 119.979 40.1277C120.141 37.7677 119.824 38.8493 119.612 38.097ZM133.917 35.0528C134.26 37.1524 134.411 37.1114 134.935 38.5164C134.676 38.4923 134.418 38.4635 134.155 38.4401C134.076 37.3094 133.998 36.1831 133.917 35.0528ZM139.005 34.5307C139.005 34.5307 139.005 34.5307 139.006 34.5306C139.012 34.1921 139.022 33.8522 139.031 33.5186C139.142 34.2699 139.247 35.0188 139.349 35.7714C139.401 35.0494 139.442 34.331 139.464 33.6114C139.602 35.9257 139.469 35.5569 139.509 37.1823C139.275 36.5044 138.96 35.1882 138.694 33.2409C138.803 33.6682 138.907 34.1018 139.005 34.5307ZM68.6704 24.6106C68.5341 25.2465 68.4013 25.8832 68.2695 26.5194C68.3781 26.8191 68.5106 27.0505 68.6096 27.3963C69.0845 24.6243 69.0085 27.0953 69.4428 26.9469C70.8253 26.4903 70.6982 22.1376 71.5814 28.55C70.6 28.1949 70.8496 31.1991 70.1122 33.4633C70.081 31.708 70.8917 27.7966 70.5298 26.9563C69.7707 28.7713 68.984 30.4572 68.1702 31.6108C68.1765 31.9143 68.1828 32.2188 68.1894 32.5223C68.3245 32.3386 68.4436 32.1527 68.576 31.9687C68.3992 32.7706 68.2436 33.5666 68.0568 34.3772C68.3316 32.5502 67.8344 33.5521 68.0115 31.4452C68.0869 30.5072 68.3576 29.2151 68.5157 28.3236C68.2417 27.8189 68.0001 27.3569 67.7199 26.8657C67.9169 26.126 68.1052 25.3849 68.292 24.6447C68.4141 24.6281 68.5386 24.6184 68.6685 24.6022C68.6691 24.605 68.6697 24.6078 68.6704 24.6106ZM8.00012 36.7834C8.29837 34.5828 8.9479 34.1967 9.38759 36.6173C8.93076 36.672 8.46901 36.7297 8.00012 36.7834ZM138.468 31.6362C138.546 32.0014 138.62 32.363 138.694 32.7288C138.656 33.428 138.624 34.1228 138.593 34.823C138.419 33.7615 138.242 32.7003 138.063 31.6444C138.202 31.6386 138.341 31.6385 138.468 31.6362ZM125.604 34.7726C125.741 34.711 125.752 34.7465 125.915 34.9039C125.915 34.903 125.914 34.9021 125.914 34.9012C125.919 34.9054 125.926 34.9128 125.935 34.923L127.754 34.8088C127.903 34.916 128.494 35.4279 128.552 36.196C128.368 36.2335 128.173 36.261 127.977 36.2877L125.899 36.4181C125.794 36.4139 125.689 36.4094 125.584 36.4067C125.589 35.8621 125.601 35.3219 125.604 34.7726ZM130.853 34.6533C130.853 34.6551 130.854 34.6568 130.855 34.6585C130.979 34.7649 131.12 35.0004 131.235 35.0279C131.071 36.3783 130.615 34.0845 130.377 34.7954C130.138 35.511 130.123 36.8208 129.306 33.7092C129.341 33.2176 129.348 32.5209 129.369 31.951C130.072 33.1325 130.008 31.9208 130.183 30.6106C130.407 31.9612 130.629 33.3027 130.853 34.6533ZM74.3427 31.4017C74.5162 29.8254 74.5358 31.3821 74.5453 31.4013C74.545 31.4032 74.5447 31.405 74.5444 31.4068C75.4242 29.9846 74.3938 32.2765 75.1394 32.5628C75.0058 32.9521 74.873 33.3635 74.7402 33.7575C74.6068 32.9859 74.4744 32.1126 74.3427 31.4017ZM100.436 32.8653C100.421 33.3262 100.408 33.7882 100.394 34.2491C99.9411 34.1203 99.7421 35.9279 99.442 34.2586C99.775 33.7898 100.102 33.3241 100.436 32.8599C100.436 32.8617 100.436 32.8635 100.436 32.8653ZM123.352 31.3531C123.891 30.4894 124.28 30.1131 124.734 31.5236C124.734 31.5255 124.734 31.5273 124.735 31.5292C124.761 31.6159 124.597 32.5762 124.627 32.8202C124.732 32.6789 124.842 32.4601 124.948 32.2907C124.94 33.0632 124.932 33.8355 124.924 34.6034C124.646 34.3768 124.361 34.1499 124.067 33.9222C124.098 34.375 124.13 34.8239 124.161 35.2768C123.893 35.5018 123.655 35.7266 123.397 35.9515C123.523 34.6885 123.647 33.4252 123.769 32.1574C123.632 31.8877 123.492 31.6276 123.352 31.3531ZM93.0953 27.4569C93.151 27.9632 92.96 28.7984 93.0637 29.2372C93.1678 29.6705 93.4444 28.7444 93.3202 30.1601C93.1431 30.3423 92.9534 30.552 92.7744 30.7435C93.1986 33.3284 93.863 31.0412 93.7151 34.1998C93.2287 33.3551 92.77 33.7137 92.2203 34.563C92.366 32.0572 92.9814 29.9149 92.7783 27.5457C92.8829 27.5182 92.9922 27.4759 93.0939 27.4623C93.0943 27.4605 93.0948 27.4587 93.0953 27.4569ZM145.333 0.146246C145.666 0.346992 146.467 -0.652092 146.833 0.82394C146.927 1.18772 147.098 5.86485 147.074 6.47978C146.99 8.55045 146.574 8.81807 146.962 10.1831C146.813 10.1918 146.673 10.2648 146.523 10.2969C146.501 11.6894 146.479 13.0783 146.456 14.4662C146.639 14.2628 146.821 14.0585 147.005 13.8507C146.997 14.3118 146.988 14.7739 146.98 15.2349C146.35 15.2218 146.661 17.0135 146.277 18.6591C146.547 19.507 146.813 20.3511 147.081 21.1996C146.91 21.0908 146.719 21.008 146.569 20.8815C146.466 23.2403 146.841 22.6905 146.887 23.13C147.14 25.6131 145.437 24.304 145.186 27.7348C145.451 28.1254 145.724 28.5074 145.995 28.8942C145.899 29.3149 145.802 29.7358 145.708 30.1566C145.153 27.7665 144.46 26.9044 143.755 25.4092C143.684 25.5051 143.614 25.6037 143.546 25.695C143.538 26.7612 143.529 27.8234 143.521 28.8896C143.42 29.0127 143.313 29.1349 143.211 29.2582C143.592 25.7555 143.184 25.7926 142.726 23.6405C143.019 22.4122 143.34 23.1682 143.37 20.8692C142.4 22.615 141.334 20.0978 140.409 22.0966C140.184 22.5909 140.198 25.5554 139.693 25.2872C139.706 24.961 139.703 24.3724 139.709 23.9439C139.473 24.3302 139.266 24.6758 139.071 24.9464L139.125 24.9446C138.708 25.6851 138.364 25.8854 137.588 24.9181C137.776 25.9687 137.959 27.0246 138.135 28.0768C138.232 27.5298 138.335 26.9751 138.447 26.43C138.724 28.1722 138.674 28.954 139.056 28.9043C139.34 28.8716 139.124 28.1071 139.177 27.5814C139.192 27.441 139.21 27.3816 139.23 27.371L139.124 27.3745C139.254 27.3316 139.39 28.1097 139.523 27.4676C139.654 26.8557 139.481 25.4049 139.859 25.7688C139.726 27.6516 139.606 29.5962 139.501 31.503C139.411 31.0806 139.321 30.6519 139.227 30.2254C139.302 29.7207 139.377 29.2228 139.456 28.7185C139.359 29.0198 139.265 29.3157 139.173 29.6112L139.327 29.6062C139.258 30.2006 139.189 30.7946 139.12 31.4285C138.956 28.7126 138.812 29.7486 138.709 30.0836C138.551 30.6068 138.528 28.7256 138.412 29.0531C138.289 29.3867 138.399 31.48 138.055 31.0768C138.043 29.8561 137.679 28.8108 137.563 27.6986C137.447 26.5861 137.772 26.292 137.263 25.1309C136.739 26.1424 138.042 30.2538 137.735 30.9956C137.392 31.8853 136.149 25.0611 136.083 23.5611C136.034 22.38 136.532 22.5428 136.503 21.3664C135.328 19.4079 135.969 23.5282 135.964 24.3534C135.947 27.3624 134.985 19.4958 134.849 22.4235C134.611 20.9621 134.396 19.6479 134.169 18.2461C134.104 18.5311 134.093 18.8972 134 19.1307C134.871 21.9078 134.539 21.8394 134.382 21.8713C134.134 21.9241 134.761 23.2431 134.756 23.6127C134.746 24.6011 134.396 24.2145 134.784 25.4367C134.607 24.8673 134.421 24.2977 134.24 23.7339C134.077 24.5109 134.505 30.7127 134.916 29.3712C135.261 31.642 134.866 30.5916 134.643 30.2768C134.42 29.9624 134.684 31.4007 134.495 31.1603C133.739 30.1992 133.661 27.6714 133.403 25.7256C132.894 27.1903 133.788 27.9363 132.865 29.0219C133.045 30.6128 133.853 32.1986 133.598 33.182C133.025 30.4653 132.361 28.5602 131.593 27.7613C131.646 28.3998 131.701 29.044 131.754 29.6827C130.97 27.2206 130.679 24.5674 130.617 27.8034C129.932 21.9895 130.352 25.7127 129.401 23.4631C129.21 23.0094 129.254 21.771 128.997 21.1917C128.882 20.9303 128.868 21.8617 128.582 21.1937C128.44 20.8638 127.684 18.7065 127.6 19.8055C128.265 22.5653 128.145 25.0275 128.977 27.2635C128.053 26.8325 127.702 28.2648 127.997 24.3054C127.651 23.494 127.31 22.6849 126.972 21.8759C126.937 22.5654 126.9 23.2496 126.86 23.9349C126.477 21.6389 126.397 20.9917 125.908 21.4807C126.065 20.9012 126.217 20.3125 126.368 19.7278C126.303 19.2623 126.259 18.7747 126.18 18.3256C126.086 18.9163 125.745 19.3366 125.479 19.7285L126.306 19.6766C126.121 19.8712 125.957 20.0613 125.877 20.2846C125.655 20.8984 126.047 21.0781 125.973 21.6772C125.354 26.6169 125.466 22.9647 125.097 23.8051C124.877 24.3021 125.353 24.8617 125.237 25.0728C124.808 25.8464 124.688 23.2089 124.31 23.164C124.401 24.6619 124.489 26.1829 124.576 27.6945C124.173 27.6036 123.756 27.5776 123.37 28.0452C123.219 28.2278 123.293 29.3422 123.267 29.4159C123.131 29.7937 122.648 30.3832 122.597 30.3862C122.222 30.3826 122.262 28.8435 121.893 28.7466C122.043 28.6214 122.185 28.5086 122.33 28.3877C122.478 25.8954 122.626 23.4031 122.772 20.906C122.425 20.7128 122.071 20.5227 121.73 20.3291C121.958 21.171 122.182 22.0088 122.421 22.8508C121.93 24.8519 121.48 26.8585 120.988 28.8634C120.814 27.6176 120.649 26.3725 120.486 25.1269C119.902 25.4325 119.827 30.4616 119.715 26.0494C119.525 26.415 119.348 26.7807 119.165 27.1418C119.213 26.5147 119.261 25.8862 119.308 25.2591C119.092 25.6377 118.873 26.0136 118.652 26.3966C118.783 28.6292 118.905 30.9778 119.035 33.1449C118.615 33.6131 118.677 31.7257 118.635 31.2525C118.523 29.9992 118.136 31.6691 118.051 30.5099C118.023 30.112 118.474 28.8854 118.39 27.4475C118.369 27.1685 118.055 21.8823 117.671 23.0849C117.64 24.0391 117.619 25.2098 117.592 26.2481C117.115 26.8096 117.077 21.8205 117.194 20.4272C116.912 21.3947 116.565 21.4624 116.453 22.9866C116.329 23.0189 116.205 23.0492 116.08 23.0814C116.36 19.3696 115.816 20.0281 115.65 23.2232C115.861 23.3111 116.071 23.4031 116.28 23.4909C115.959 27.4022 116.511 29.7939 115.311 26.1092C115.14 24.0606 115.754 26.4056 115.609 24.8708C115.282 23.9675 114.919 24.6969 114.631 23.2634C114.276 21.4726 114.868 19.7897 113.782 22.0043C115.746 27.7503 113.324 25.8115 112.204 27.5199C112.168 21.9245 111.361 20.1178 110.095 21.7258C110.152 23.2853 110.565 22.5015 110.758 23.0225C110.951 23.5438 110.678 24.4554 110.914 25.1929C111.158 25.9307 111.696 26.9425 111.921 28.0519C111.654 28.9216 110.4 30.9499 111.277 28.4858C110.766 26.9208 110.583 25.3274 109.888 25.0074C109.571 27.4219 109.51 28.9316 108.826 28.971C109.38 25.6209 108.711 23.2454 109.038 19.7734C109.484 20.6055 109.063 23.9754 109.269 25.6066C109.289 25.7696 109.786 24.9423 109.888 25.0074C109.564 21.9488 109.454 20.8108 109.899 17.2085C109.556 17.5102 109.385 17.0477 109.276 18.7724C109.243 18.0206 109.21 17.2681 109.178 16.5164C109.072 16.5303 108.975 16.5954 108.864 16.5765C108.9 19.1871 108.676 17.5709 108.41 18.7416C108.144 19.9137 108.336 21.982 107.75 21.9834C107.916 22.6016 108.073 23.1327 108.235 23.7181C107.825 24.3708 107.421 25.028 107.017 25.6808C107.207 27.2836 107.667 29.6724 107.559 31.7649C107.416 30.9665 106.77 32.3288 106.701 32.3829C106.44 32.5854 106.637 31.2716 106.619 31.2382C106.254 30.5787 105.905 31.013 105.846 29.006C105.509 29.8948 105.312 29.3701 104.996 29.4066C104.821 29.4265 104.787 30.8971 104.698 30.6135C104.111 28.7215 104.832 26.8527 103.374 30.406C103.483 31.4367 103.588 32.4908 103.696 33.5307C103.532 33.91 103.369 34.2915 103.204 34.6707C103.115 34.4801 103.027 34.288 102.937 34.0973C103.043 31.8786 103.15 29.6553 103.257 27.4366C103.155 27.3106 103.052 27.188 102.95 27.062C103.145 26.8521 103.341 26.6424 103.535 26.4324C103.57 26.0427 103.604 25.6529 103.639 25.2632C103.394 24.6457 103.15 24.0226 102.903 23.4002C102.861 24.1718 102.819 24.9488 102.778 25.7204C102.205 24.6164 102.23 23.9627 101.541 26.0606C101.092 26.0159 100.562 29.225 100.239 30.571C100.166 30.1341 100.094 29.6916 100.02 29.2545C99.9296 29.8936 99.8385 30.5299 99.7477 31.1689C99.6716 30.2702 99.5937 29.3711 99.5172 28.477C99.3532 30.5009 99.289 31.1321 99.7193 31.866C99.4409 34.3796 98.6701 33.2278 98.3775 32.3651C98.1572 31.7105 98.5376 29.6211 98.5185 29.3638C98.4558 28.4897 98.0048 29.2195 97.9242 29.0711C97.5837 28.4532 97.3186 28.5456 97.005 28.0641C96.9439 27.9678 96.8263 26.6262 96.8136 26.5837C96.7055 26.3499 96.4419 25.6878 96.4091 25.6675C94.7187 24.5876 96.296 30.4606 94.7041 29.7718C94.7148 30.5367 94.7218 31.2962 94.7315 32.061C94.6077 32.1015 94.4826 32.1397 94.3585 32.1801C94.2354 31.5353 94.4795 30.3856 94.1263 31.3053C94.1926 30.3667 94.259 29.4277 94.3261 28.4939C94.1676 28.9943 94.0139 29.4908 93.8518 29.9911C93.7982 26.72 93.0462 25.9404 93.2921 22.1155C93.3756 20.814 94.0001 19.5053 93.774 18.0999C93.5479 17.8142 93.6331 19.3777 93.5312 19.4545C92.8019 19.9872 92.9515 17.809 92.6357 18.3761C92.544 19.3083 92.4491 20.2586 92.3559 21.2001C92.2611 20.9204 92.166 20.6406 92.07 20.3609C92.0134 20.9876 91.9557 21.6148 91.8991 22.2415C91.9994 22.2885 92.1125 22.3367 92.2042 22.3832C91.9527 24.8088 90.6947 25.8413 91.2561 23.7906C91.4851 22.9582 91.8101 23.3329 91.7369 20.4488C91.3919 20.8465 91.0113 21.2515 90.6524 21.6485C90.6729 21.0294 90.6942 20.4091 90.7146 19.79C90.2396 20.1676 90.5295 22.6617 90.4623 23.9874C90.3563 24.0194 90.2494 24.0467 90.1433 24.0787C90.1291 23.477 90.1185 22.8475 90.1013 22.2644C90.0492 23.218 89.8797 25.4323 89.6094 24.5936C89.4358 24.0478 89.8725 21.6571 89.4734 21.9716C89.4277 23.4612 89.4724 25.2805 89.0256 25.7385C89.0618 24.1832 89.0755 22.7575 89.1251 21.1236C88.5242 22.5892 88.4055 20.1787 87.6971 21.882C87.2462 22.9597 86.515 26.8293 86.5653 20.8126C86.2862 20.64 86.3013 22.1397 86.1992 22.4715C85.7168 24.0418 85.5621 21.1797 85.4956 21.0085C85.075 19.9109 84.8117 20.8855 84.4921 19.5217C84.4563 20.6344 84.4139 21.6872 84.3754 22.7718C84.8163 21.1249 84.9918 21.2122 85.4714 21.5957C85.2926 21.8104 85.1146 22.0303 84.9361 22.2449C84.9174 23.1484 84.8984 24.052 84.8788 24.9508C86.6044 21.476 85.9573 27.0719 84.6006 28.2338C84.5744 26.5587 84.5439 24.8878 84.519 23.2081C83.6427 25.7 83.3996 23.4854 82.5839 22.9165C82.4867 22.8512 82.0711 23.794 81.9111 23.8334C81.9134 23.8399 81.9157 23.8465 81.918 23.853C81.7388 25.4244 81.8342 26.1568 81.7775 27.5666C81.683 27.7389 81.5884 27.9105 81.4939 28.0828C81.3583 26.9989 81.4707 26.1201 81.082 26.3565C81.0771 27.4287 81.0722 28.5012 81.0677 29.5734C80.6547 29.5894 80.4471 28.4134 80.0385 28.8959C80.1237 28.4946 80.2082 28.0921 80.2933 27.6908C79.5145 26.6153 80.5024 20.361 79.7112 23.4585C79.6995 22.9078 79.6892 22.3519 79.6776 21.8012C79.9439 21.6798 80.2099 21.5625 80.4747 21.4409C80.5201 20.6648 80.5657 19.892 80.6101 19.1158C80.3214 19.3341 80.0306 19.5595 79.7413 19.7777C79.9707 19.2672 80.2012 18.7562 80.4302 18.2458C80.1285 17.8571 79.8261 17.4682 79.5241 17.0795C79.7172 19.9522 79.2568 20.2784 79.1934 23.1099C78.7479 20.7271 78.4637 17.6018 77.478 19.5418C77.2823 19.9283 77.2745 21.9089 76.9048 19.4789C76.8607 22.6287 76.1629 24.0714 76.0864 27.0652C76.2666 26.9301 76.4503 26.8487 76.6267 26.6808C76.4904 25.6338 76.6079 22.7793 76.9411 21.9477C77.3655 20.888 77.8036 22.8934 77.946 19.7257C78.0856 19.8821 78.2181 19.977 78.3547 20.1099C78.2549 20.8924 78.1561 21.6799 78.0574 22.4624C78.5288 21.252 78.7634 21.6658 78.8562 23.6562C78.3479 24.0867 77.84 24.5124 77.3304 24.9382C77.395 25.0766 77.4605 25.2161 77.5253 25.3498C77.052 27.3538 77.331 29.2898 76.6228 29.6866C76.6753 28.7615 76.727 27.8358 76.7797 26.9061C76.4015 29.3674 75.7184 29.3182 75.7878 32.1759C75.627 31.2909 75.6138 30.7357 75.4165 32.2638C74.9844 30.0726 74.7773 27.3195 75.1424 24.0648C74.9126 24.5796 74.6833 25.0953 74.4546 25.6101C74.5246 26.509 74.595 27.4037 74.665 28.3026C74.3164 28.2284 73.9649 28.1549 73.6167 28.0854C73.7219 25.4424 74.336 27.3196 74.2548 24.9478C74.2387 24.4718 73.9962 25.477 73.9604 25.2074C73.5877 22.292 74.3013 24.4217 74.2629 22.2008C73.534 21.4921 74.3024 17.9624 73.1768 20.6674C73.1502 20.7286 73.1227 20.7929 73.0942 20.8605C73.1047 20.0964 73.114 19.3168 73.1267 18.5575C72.7462 18.4915 72.687 20.2156 72.3553 20.5244C72.1593 20.7171 72.0473 17.6781 71.7178 19.7259C71.6614 20.1037 71.8231 23.8195 71.068 23.6159C70.4492 23.4563 70.8492 20.8579 70.5742 19.9148C70.2996 18.9719 69.3528 22.553 69.347 18.4342C69.4885 18.9875 69.7041 19.2935 69.86 19.7495C69.9797 18.954 70.0981 18.167 70.2188 17.3761C69.7365 18.3853 69.3344 17.1429 68.9503 19.034C68.5195 16.0858 67.7277 18.7554 67.7178 22.0573C67.9319 21.5931 67.8053 20.146 68.02 21.0756C68.0048 21.8444 67.9915 22.6095 67.9768 23.3783C67.5307 23.2602 67.2072 23.2636 67.5487 20.9365C67.4801 20.8767 67.4135 20.8171 67.3476 20.7574C67.2402 22.4493 67.1339 24.1475 67.0265 25.8393C66.9361 26.0255 66.8372 26.2096 66.7408 26.3954C66.6667 26.0183 66.5951 25.637 66.525 25.2555C66.7957 22.5839 67.028 22.5082 66.3899 20.9704C66.336 21.8957 66.2813 22.8171 66.2274 23.7424C65.6928 22.5325 65.8041 20.2898 65.0418 20.3326C65.7967 17.1505 65.8015 22.8638 66.1576 16.4188C66.2763 16.8498 66.4028 17.2871 66.5248 17.7184C66.5987 16.7849 66.6727 15.8502 66.7459 14.9167C65.93 15.3648 64.2984 21.443 63.9798 17.3416C63.892 17.8361 63.8066 18.2655 63.7145 18.7971C63.3197 16.3118 62.8343 21.8264 62.4644 18.6209C62.4292 18.2848 62.7625 13.0977 62.0809 13.254C62.0682 13.9295 62.0269 15.0655 62.003 15.9172C61.878 15.4969 61.735 15.0567 61.6141 14.6273C61.5616 15.2494 61.5076 15.8713 61.4546 16.498C61.6801 16.7502 61.9466 17.0083 62.1695 17.2606C61.9623 17.4658 61.7383 17.6705 61.5152 17.8752C61.7501 18.9059 61.871 18.9221 61.6345 20.547C61.3778 20.6336 61.1658 20.7283 60.916 20.8154C60.8732 21.2325 60.8301 21.6545 60.787 22.0716C60.8512 23.3235 60.9142 24.5479 60.9706 25.8182C60.3901 24.7722 59.8652 24.6945 59.5142 22.2235C59.4496 21.8059 59.8105 20.1938 59.1892 21.6352C59.2167 20.7745 59.2308 20.0752 59.2544 19.2795C58.5089 21.6626 58.2865 20.9326 57.6825 19.1642C58.0639 20.8068 57.7092 19.734 57.5557 20.5993C57.4516 21.1955 57.7642 21.1198 57.7026 21.7462C57.6434 22.3682 57.1347 24.869 57.4667 25.1861C58.4944 20.0597 58.4722 26.239 59.6592 23.8047C59.4705 24.4633 59.2757 25.1231 59.0769 25.7813C59.1382 26.2357 59.1919 26.6478 59.2561 27.1304C58.6871 26.095 58.9539 26.7633 58.6812 27.5487C58.4204 28.3348 57.903 28.9903 57.6199 29.1975C57.5248 29.2624 57.6715 28.1091 57.4657 27.9926C57.3284 27.9123 56.8434 29.6109 56.8372 27.5844C56.8305 26.2651 57.6141 22.6656 56.7481 22.6383C56.6394 21.3407 57.0358 21.7588 57.0492 21.6035C57.1881 20.0711 56.7126 18.8948 56.4046 20.0567C56.3798 20.157 56.5316 21.3619 56.293 21.8223C55.7066 22.9213 55.5138 21.5388 55.2462 19.6679C55.1224 21.8442 54.5649 24.4264 54.0832 23.6002C54.0305 24.2223 53.9787 24.8499 53.9255 25.4766C54.0218 25.1502 54.1172 24.8281 54.2121 24.5016C54.2847 24.8961 54.3659 25.1845 54.4319 25.6487C53.8898 26.1628 53.6838 29.1606 53.378 30.2479C52.3145 33.9616 53.1901 26.0494 53.4132 24.6886C53.5089 25.2472 53.5967 25.87 53.6874 26.4564C53.7059 25.6974 53.7245 24.9326 53.7442 24.169C52.3976 24.1368 53.7317 19.2366 53.1295 17.7995C52.8107 21.5244 52.3001 21.8636 51.7577 19.4693C51.6901 19.4852 51.6224 19.4872 51.5539 19.5077C51.5203 20.0513 51.4863 20.883 51.4531 21.2408C50.6859 21.8431 50.7717 16.0902 50.7232 15.5428C50.4893 13.1145 50.1147 16.4457 50.0226 16.4706C49.6328 16.5711 49.5795 15.083 49.1741 15.7046C48.7344 16.3763 48.9691 17.5261 48.8017 18.5398C48.7081 19.1014 48.5169 19.3348 48.35 19.7073C48.2774 19.8688 48.2111 20.0567 48.1613 20.3089C48.2376 19.6383 48.3232 18.981 48.4074 18.3091C48.409 18.2955 48.4107 18.2818 48.4123 18.2682C48.4113 18.2658 48.4103 18.2635 48.4094 18.2611C47.9891 17.3102 47.6128 16.3927 47.0586 16.1655C46.517 21.1889 45.8349 12.7378 46.2232 19.6006C46.7047 20.0578 46.9747 20.8409 47.1978 22.5922C46.9195 22.8149 46.6474 23.0361 46.3806 23.2669C46.2804 22.5151 46.1993 21.7821 46.0713 21.0178C45.9127 22.625 45.395 21.9629 45.229 22.4449C44.4642 24.7062 45.0548 27.4011 43.8101 22.9045C44.3565 22.4036 44.1742 20.1802 44.8222 20.4406C44.5761 18.8608 44.266 19.216 44.3349 17.2956C43.7324 17.8152 44.0847 19.4983 43.984 21.0261C43.9011 22.3432 43.5276 22.4541 43.7202 24.1389C43.587 23.2154 43.4639 22.3209 43.3271 21.3991C42.9443 21.4481 42.5657 21.4918 42.1853 21.5468C42.2265 20.5616 42.2854 19.5731 42.3441 18.5916C42.1749 18.2409 42.0011 17.8925 41.829 17.5427C41.2213 20.6612 38.8844 15.381 40.1502 22.8832C39.7183 23.1858 39.5507 22.2462 39.1075 20.8543C39.1581 21.43 39.1964 21.9094 39.2557 22.5498C38.8788 21.9912 38.9454 24.1696 38.6159 23.6458C38.2838 23.1268 37.9424 21.107 38.3673 24.5222C38.0647 23.5671 37.7831 22.7777 37.5004 21.8902C37.5065 22.6783 37.5102 23.4575 37.5141 24.2411C37.3023 23.8561 37.0888 23.4729 36.8737 23.0881C36.9984 24.7288 36.3059 24.1061 36.1644 25.2368C35.6683 23.5155 34.9679 17.9847 34.5012 19.0512C34.6905 20.4211 34.8794 21.787 35.0691 23.1568C34.8937 22.888 34.7171 22.6203 34.5385 22.3517C34.474 21.9049 34.4105 21.458 34.346 21.0112C34.4355 21.1408 34.5236 21.2698 34.613 21.404C34.4556 20.654 34.3001 19.9073 34.1442 19.1571C34.0676 20.307 34.0013 21.4555 33.9286 22.6044C34.312 23.4205 34.7148 24.2343 35.1153 25.0472C34.8714 26.1013 34.4899 25.1281 34.3161 26.2896C33.8091 24.4282 33.7801 23.3235 33.6386 21.2536C33.5598 21.4415 33.478 21.6234 33.3973 21.8114C33.2143 19.7462 32.9015 18.5409 33.4998 18.6365C33.3882 18.0548 33.2794 17.5004 33.1663 16.8954C33.0834 16.9994 32.9617 16.511 32.8849 16.7498C32.6767 17.4037 32.8796 21.0446 33.0502 22.3094C33.141 22.9718 33.2813 21.6675 33.3818 22.6072C33.6292 24.8983 32.8285 23.9526 34.0784 26.1332C33.935 27.6282 33.7207 26.5397 33.3183 26.1606C33.4353 26.92 33.5512 27.6746 33.6676 28.4341C33.4656 28.1018 33.2625 27.7707 33.0583 27.4382C32.8225 23.4948 31.4773 22.1591 32.1344 18.6093C31.8073 18.4694 31.4753 18.3285 31.1362 18.1793C31.1565 17.7693 31.1765 17.3635 31.1954 16.9537C31.3613 17.1504 31.525 17.3437 31.6884 17.5358C31.4396 16.8194 31.1906 16.1072 30.9413 15.3904C30.6534 16.3462 30.6724 17.7635 30.6826 19.5147C31.2738 20.7282 30.9275 19.0197 31.2443 18.6369C31.3553 19.7344 31.4861 20.7407 31.5838 21.8959C31.1421 19.6467 30.7424 21.3632 30.6088 21.4899C30.2159 21.8737 30.3122 19.6054 30.02 19.5893C29.7175 19.5748 29.5451 20.9363 29.0832 18.746C29.2153 19.9867 29.3662 21.2689 29.4996 22.3973C29.0981 22.8506 29.0354 21.3751 28.9705 21.1898C27.9002 18.1431 27.8171 20.8139 26.9852 21.2147C27.1296 21.5894 27.2714 21.9265 27.4143 22.2778C27.0159 24.9759 27.3788 24.1278 28.0179 24.9461C27.4785 24.7311 27.3581 27.0079 27.0641 27.7082C26.762 28.4082 26.0172 27.3105 25.7025 26.4309C26.122 24.9363 26.7535 25.842 27.3099 25.3881C27.1241 24.1288 26.9588 23.0638 26.7608 21.6795C26.6616 24.3677 26.2945 22.6096 26.1489 22.2673C25.7183 21.2635 25.9282 23.5435 25.5061 21.1081C25.5882 21.9515 25.6563 22.6606 25.7336 23.4482C24.9627 23.1603 24.131 21.7258 23.9032 24.8828C23.6981 22.8577 23.5101 20.906 23.297 18.8395C23.1152 20.3906 22.7387 18.8465 22.5256 19.222C22.3092 19.5982 22.5278 21.2309 22.2838 21.8845C22.2383 22.0047 22.0492 20.9866 21.9711 21.7536C21.8961 22.5245 21.7914 28.2212 21.3737 23.2814C21.1062 23.2771 20.8741 23.1118 20.6206 23.0453C20.8425 22.7499 21.0459 22.4643 21.2767 22.1677C20.9737 20.9849 20.7049 19.803 20.4191 18.6186C20.468 19.6889 20.5178 20.7786 20.5661 21.835C20.1096 23.1736 19.5875 21.4533 19.0431 21.9037C18.955 21.9794 19.3031 24.0792 18.8648 23.5664C18.4218 23.0531 17.8813 19.1268 17.2648 20.6929C17.2342 20.774 17.1995 23.8087 16.8184 21.7315C16.7324 21.2607 16.9385 20.5447 16.7679 19.9297C16.5863 19.3153 15.9991 18.8346 15.8678 17.3538C15.9032 17.8788 15.9695 18.4211 16.0168 18.9547C15.9328 19.2112 15.8472 19.468 15.7607 19.7199C15.7004 18.7951 15.6393 17.8691 15.5793 16.949C15.1354 19.1327 15.0018 22.6625 14.0858 21.5437C14.3821 22.8763 14.7091 24.2124 15.0237 25.5436C15.042 24.596 15.0594 23.642 15.0753 22.6944C15.4956 23.0499 15.9122 23.4022 16.3235 23.7568C16.3274 22.6791 16.3296 21.6046 16.332 20.5269C16.442 20.6606 16.5504 20.79 16.6598 20.9236C16.6791 21.7014 16.6978 22.4752 16.7157 23.2532C16.9095 23.0509 17.1179 22.8435 17.3148 22.6406C17.1429 27.2495 16.119 22.3183 16.3875 26.1491C16.2614 25.5595 16.1351 24.9656 16.009 24.3712C16.0707 26.2326 15.8515 25.7081 15.4971 25.4333C15.6239 26.3452 15.7584 27.2443 15.8799 28.1658C15.4817 26.8911 14.8933 27.0479 14.5214 26.5678C14.3649 26.3566 14.4416 25.001 14.3904 24.8447C14.1288 24.0281 13.8185 26.4018 13.718 26.2202C13.1218 25.1393 12.5645 20.695 12.0969 23.6625C12.7519 24.3599 12.3991 24.0688 12.6956 25.6915C12.7882 26.2003 13.639 27.2308 12.6135 26.8033C12.4715 26.7513 10.5736 23.7456 11.053 21.358C10.8011 22.124 10.6126 23.0051 10.3795 23.8164C9.4751 17.6169 9.93587 23.4567 10.2581 26.6691C10.1508 26.6874 10.0491 26.7242 9.93729 26.7287C10.0367 23.3365 8.82825 23.1738 8.50577 24.8956C8.39318 25.4683 8.80709 26.5375 8.51665 27.0609C8.3603 26.829 8.18106 26.5279 8.01439 26.2684C8.31979 28.4009 7.9006 29.242 7.98307 31.4196C7.62343 29.4893 7.26068 25.3833 7.34176 23.1482C7.13575 24.0592 6.92549 24.9691 6.71371 25.8846C6.84323 26.3975 6.97406 26.9058 7.10357 27.4187C6.24689 26.0779 5.39965 29.2209 5.0885 24.6501C4.98757 24.6858 4.88513 24.717 4.78359 24.7526C4.77473 25.5263 4.76681 26.3015 4.75761 27.0752C4.27296 26.4186 3.77647 25.7574 3.29243 25.0996C3.69295 24.6089 3.76888 23.506 4.23006 24.3868C4.03632 23.5028 3.83937 22.614 3.64898 21.7298C3.04661 24.1408 3.02846 25.7154 2.03103 25.0275C1.98661 24.9961 1.19711 23.007 1.16664 22.8119C1.02939 21.9207 1.17629 20.6181 1.11395 20.1676C0.941341 18.9047 -0.00643682 15.7441 3.29614e-05 15.2641C0.123691 9.37498 2.91579 9.23012 3.70983 8.90264C11.5675 5.53624 19.4659 9.34786 27.0382 7.8833C27.115 7.86455 26.996 7.00309 27.0261 6.9627C27.2165 6.72449 27.5573 8.05125 27.6405 8.09896C27.8169 8.19676 27.5994 6.96115 27.7185 6.94807C28.9299 6.83797 30.1945 7.43792 31.3881 7.07935C31.468 7.05571 31.504 8.05973 31.6261 7.8668C31.689 7.76165 31.7329 6.20919 31.8909 6.16637C32.4353 6.0199 33.0021 6.44478 33.5994 6.34399C33.9451 6.28525 34.4368 6.35223 34.8301 6.27615C34.9986 6.24367 35.0799 5.52379 35.2407 5.47842C35.4688 5.41477 35.6117 6.83281 35.6593 6.91567C35.8742 7.27658 35.6888 5.72398 35.8487 5.73983C36.1466 5.77458 36.3033 6.80671 36.6514 6.67005C36.9172 6.56806 37.4019 5.67025 37.728 5.38203C38.6904 6.47378 39.7136 5.85457 40.5333 5.35598C41.0303 5.05925 41.2421 6.50726 41.453 6.47947C42.2122 6.36962 42.6571 4.45209 43.4818 4.32965C44.5834 4.17 45.681 5.35554 46.8169 5.43609C47.0022 5.449 46.9545 4.11004 47.1434 4.07555C47.7122 3.97311 48.4153 3.8075 48.9999 3.87018C49.0878 3.88262 49.1704 3.90656 49.2457 3.94563C49.6896 4.17387 49.7732 6.12265 50.2146 5.74461C50.3433 5.63226 50.4499 3.93093 50.6637 3.72071C51.0016 3.39021 51.3415 4.90831 51.5657 5.08541C51.8792 5.32202 51.6724 3.57581 52.0923 3.82611C52.1094 3.83688 52.1224 5.07958 52.2156 5.02414C52.4843 4.86739 52.5015 3.88989 52.908 3.99982C52.9487 4.01437 53.432 5.21784 53.4815 5.22462C53.7754 5.25535 54.3965 5.69531 54.5918 5.45174C55.2806 4.58519 54.8491 2.69909 55.224 6.76973C55.5044 5.78874 55.8102 4.79532 56.107 3.84298C55.8988 4.73397 56.5414 6.05865 56.5874 5.97667C57.0351 5.31917 56.8572 3.73396 57.3685 4.01614C56.538 7.62674 57.9963 4.51197 58.3272 4.43257C59.8114 4.04252 61.0806 5.00514 62.5849 5.04813C63.0898 5.06087 63.7932 4.32208 64.3378 4.36683C64.4687 4.37421 64.3289 5.23038 64.4419 5.25445C64.5537 5.27264 64.476 4.3002 64.6014 4.35753C65.3787 4.73117 65.9151 6.58794 66.7501 4.34874C66.7667 4.68009 66.7523 4.94039 66.7887 5.30535C67.4813 3.29633 68.4075 6.10226 68.7858 6.50106C69.3864 7.1219 69.6331 5.75155 70.0642 6.0547C70.6537 6.46025 71.4165 9.20486 71.2566 4.73342C71.6585 4.61531 72.0919 4.59997 72.4733 5.03533C72.5177 5.08474 72.425 6.2141 72.4426 6.23835C72.5534 6.40711 72.6472 5.39653 72.7322 5.35442C72.9644 5.24133 72.5306 6.43427 72.8721 6.1127C73.0459 5.94005 73.1701 5.06091 73.6316 5.06657C73.7511 5.06869 73.8731 5.07169 73.9976 5.07553C76.6624 5.15505 79.5087 5.60031 82.2099 5.88245C82.4043 5.9018 82.3325 4.80128 82.5731 4.88363C83.4083 5.16943 84.8284 7.08808 85.5711 6.87447C86.3121 6.66049 86.229 5.05235 86.721 4.40583C86.816 4.2801 86.6971 5.18813 86.7764 5.20615C87.3102 5.31733 87.8748 6.7717 88.2988 7.00766C88.5801 7.16562 88.6295 5.73013 88.8345 5.63777C89.1397 5.50398 89.3721 6.96851 89.528 7.023C90.2584 7.26465 90.8364 6.12354 91.5001 6.75357C91.4887 6.43654 91.4854 6.14342 91.478 5.83125C92.293 5.92334 93.1237 6.01615 93.9387 6.10785C93.9144 5.81754 93.8914 5.52482 93.8673 5.22986C94.8249 5.43598 94.5627 8.55624 94.8031 1.95168C94.885 1.72264 94.973 1.45681 95.0507 1.24622C94.8556 4.64489 95.3173 7.16197 96.0161 8.06373C96.0681 8.13156 96.5983 4.83443 96.3662 8.74909C96.509 7.7956 96.5984 7.13787 96.7205 6.29994C96.82 7.49344 96.9221 8.673 97.0215 9.86182C97.115 9.68925 97.2093 9.52292 97.3025 9.35034C97.3526 8.58344 97.3818 7.78606 97.4457 7.03382C97.8397 6.93652 98.6121 7.92515 98.9259 7.84271C99.7054 7.63335 100.603 5.59656 101.093 7.86731C101.395 7.65266 101.178 6.13233 101.602 6.34364C101.615 7.10873 101.627 7.84199 101.641 8.63041C102.162 5.23967 102.138 7.31633 102.592 8.05151C102.9 8.55093 103.149 7.72796 103.459 7.90556C103.538 7.95121 103.479 8.95094 103.536 8.92096C103.725 8.82651 104.311 7.47426 104.441 7.44304C105.622 7.13481 106.612 7.33544 107.713 7.75406C107.831 7.79672 107.721 6.80245 107.843 6.84995C108.038 6.92472 107.852 8.43638 107.963 8.51603C108.275 8.72969 108.343 7.12989 108.801 7.06674C110.282 6.85897 111.933 8.13628 113.458 8.30897C113.506 8.31105 113.544 7.37358 113.597 7.36654C113.942 7.33543 114.231 8.61713 114.536 8.61613C115.047 8.61909 115.497 7.31871 115.994 7.34395C116.984 7.38953 117.841 8.09957 118.842 8.17592C119.678 8.24107 120.398 8.14314 121.295 8.18033C123.057 8.25239 124.896 7.71309 126.608 7.23779L123.624 7.42515C125.431 6.51576 127.303 5.66228 129.69 6.11207C129.802 6.13437 129.908 6.95771 129.933 6.91662C130.172 6.50887 130 5.40345 130.526 7.68856C130.837 7.16372 130.65 5.40919 131.172 5.44468C131.452 5.46262 131.719 8.18436 131.936 6.71937C132.149 5.39392 131.393 4.00175 132.988 5.28751C133.032 5.32304 133.469 6.93613 133.694 6.46347C133.928 5.9946 133.384 4.87102 134.096 4.40394C135.018 3.83089 136.231 3.8398 138.219 3.95835L138.612 3.94559C139.56 4.11626 140.515 4.32348 141.368 4.12177C141.486 4.09361 142.571 3.21906 142.782 2.81411C143.197 2.02553 143.141 0.788565 143.664 0.497393C144.068 0.273809 144.356 1.68099 144.816 1.41435C144.868 1.38186 145.002 -0.0545044 145.333 0.146246ZM66.9807 27.3112C66.8217 28.7168 66.3635 33.8976 65.936 32.2891C65.8945 32.1376 66.3637 28.5834 66.1061 27.9992C66.4149 27.6388 66.692 27.532 66.9811 27.3057C66.981 27.3075 66.9808 27.3093 66.9807 27.3112ZM146.535 33.3518C146.167 33.0773 145.789 32.8055 145.42 32.5322C145.703 31.9126 145.987 31.2946 146.274 30.6711C146.364 31.5642 146.447 32.4586 146.535 33.3518ZM98.0396 31.6311C98.04 31.6311 98.0404 31.6312 98.0408 31.6312C97.5984 32.2812 97.1534 32.9323 96.7064 33.5819C96.774 33.091 96.8417 32.5979 96.9092 32.107C97.2737 31.3462 97.6368 30.5863 97.9973 29.8253C98.0113 30.4273 98.0256 31.0291 98.0396 31.6311ZM101.54 26.5665C101.775 27.165 101.664 28.1505 101.762 29.1203C101.762 29.1185 101.762 29.1166 101.762 29.1148C101.788 29.3673 101.955 29.595 102.021 29.6357C102.025 29.0158 102.022 28.4035 102.024 27.7882C102.702 26.319 103.663 31.699 101.999 33.7699C102.059 32.9897 102.118 32.2133 102.178 31.433C101.403 31.6156 100.619 29.8796 101.54 26.5665ZM60.7802 29.2545C60.0054 31.7848 59.7682 32.3152 59.0691 30.5283C59.213 29.8078 59.3546 29.0872 59.494 28.3664C59.5855 29.1115 59.6909 29.852 59.7935 30.5976C59.7939 30.5976 59.7942 30.5976 59.7946 30.5976C59.8545 29.8217 59.9143 29.0445 59.9729 28.2686C60.2413 28.597 60.5085 28.9257 60.7802 29.2545ZM127.604 29.2558C128.585 34.28 128.072 31.3514 127.699 32.5761C127.567 33.0013 127.89 33.8575 127.792 34.0232C127.747 34.0996 127.702 34.1454 127.656 34.1641L125.951 34.2712C125.471 34.3868 125.513 31.3759 125.683 29.7469C125.811 29.7059 125.939 29.6662 126.064 29.6272L126.964 29.5707C127.18 29.4643 127.392 29.3606 127.603 29.256C127.603 29.2559 127.603 29.2559 127.604 29.2558ZM142.407 26.3208C142.407 26.3208 142.408 26.3208 142.408 26.3208C142.399 27.5686 142.158 27.8999 142.401 29.0868C142.199 29.0783 142.001 29.0651 141.8 29.0576C141.86 28.9422 141.923 28.8323 141.983 28.717C141.938 28.2877 141.892 27.8531 141.845 27.4239C141.753 28.857 141.699 28.0223 141.495 27.5403C141.535 29.0729 141.573 30.6068 141.61 32.1395C141.382 31.6802 141.15 31.2201 140.919 30.7626C140.918 30.3765 140.917 29.9897 140.917 29.6036C140.825 30.0966 140.736 30.5952 140.648 31.0885C140.625 30.6275 140.603 30.1707 140.579 29.7097C140.473 30.0587 140.369 30.4078 140.266 30.762C140.229 29.6456 140.46 29.1617 140.049 29.4476C140.167 28.3012 140.293 27.1587 140.425 26.013C141.081 26.1053 141.74 26.2105 142.407 26.3208ZM121.858 30.8614C122.641 30.6737 122.393 31.4748 122.131 34.0007C122.04 32.9542 121.949 31.908 121.858 30.8614ZM82.9645 26.8163C82.6574 28.5307 82.3499 30.2277 82.0399 31.8812C81.5436 32.821 81.2575 29.6529 81.6577 28.4377C82.1389 26.9797 82.476 28.6566 82.9645 26.8163ZM72.7474 27.055C72.7797 27.1058 72.8077 27.1609 72.8319 27.2201C73.0689 27.8348 72.8892 28.8818 72.6939 29.8404C72.5971 30.2977 72.4974 30.7349 72.4395 31.0954C72.3845 29.1664 72.1583 29.3244 71.842 29.0836C72.1546 28.9754 72.6592 26.9142 72.7477 27.0495C72.7476 27.0514 72.7475 27.0532 72.7474 27.055ZM91.6653 29.2007C91.8874 29.1601 92.1293 28.6889 92.2958 29.2843C92.1549 30.9315 91.8376 29.4108 91.9963 31.8708C91.8541 31.9057 91.7116 31.9393 91.5698 31.9788C91.7089 30.9698 91.6274 30.2064 91.6656 29.2062C91.6655 29.2044 91.6654 29.2026 91.6653 29.2007ZM114.415 32.5235C114.066 30.5512 113.938 31.3834 113.453 32.7194C113.458 31.1256 114.089 28.4823 114.441 27.9092C114.432 29.4469 114.423 30.9857 114.415 32.5235ZM13.6583 31.6042C13.6694 29.5715 14.4105 29.2702 14.8223 29.8497C14.791 30.1528 14.7582 30.46 14.7302 30.7675C14.3786 31.0465 14.0204 31.3257 13.6583 31.6042ZM71.6946 28.9383C71.7454 29.0005 71.7947 29.0476 71.842 29.0836C71.7863 29.1028 71.7359 29.0655 71.6946 28.9383ZM49.2865 19.0737C49.5445 17.1688 49.0382 16.5045 49.6536 17.2801C49.6536 17.2783 49.6537 17.2764 49.6538 17.2746C50.0618 17.7854 50.1213 17.9198 50.5373 18.086C50.2833 20.5363 49.431 21.3809 50.5459 21.9347C50.5606 21.9375 50.5915 20.4746 50.7636 20.6819C50.8165 20.7464 50.9456 21.9533 51.1947 22.3132C51.2753 22.4283 51.8962 22.8244 51.0262 22.812C50.9821 24.5255 50.8637 26.2568 50.7975 27.9181C50.4349 28.3868 50.2971 25.0224 49.9195 25.0893C49.3929 25.1981 48.9739 28.5774 49.0528 24.1246C49.5551 23.0504 50.3154 23.0553 50.3237 25.7353C50.7723 25.7864 50.9862 23.5997 50.673 22.5006C49.0628 23.8142 50.3952 19.2304 48.9831 20.9249C48.9418 21.5429 48.8588 22.2065 48.8434 22.7884C48.5182 20.5941 49.1962 19.7551 49.2865 19.0737ZM52.2759 23.9354C51.9611 25.2322 51.6123 26.5381 51.3178 27.8405C51.4081 25.7095 51.6128 23.8022 52.097 22.6196C52.1567 23.0598 52.217 23.4998 52.2759 23.9354ZM30.7001 26.1263C30.7843 27.2835 30.7915 28.3514 30.8296 29.4572C30.659 28.4937 28.6205 27.7574 29.5142 26.7027C29.649 26.5489 30.7016 28.5012 30.7001 26.1263ZM117.488 30.9001C117.295 30.1142 117.101 29.3269 116.905 28.5407C117.274 28.0617 117.638 27.5694 117.996 27.0803C117.827 28.3533 117.659 29.6272 117.488 30.9001ZM79.4347 24.5965C79.5269 24.6449 79.1305 26.2212 79.5158 25.9895C79.1854 26.9937 78.8811 27.8423 78.5612 28.7864C78.5193 28.0287 78.4764 27.2741 78.4345 26.5164C78.3462 26.9969 78.2568 27.4743 78.1685 27.9547C78.2635 26.8591 78.3529 25.7888 78.4509 24.6747C78.7847 27.0517 79.0257 24.3888 79.4347 24.5965ZM93.2075 20.9921C93.1709 23.3819 92.4431 24.768 93.0708 25.1816C92.8705 26.7429 92.6327 27.5553 92.2458 27.676C92.2146 27.0735 92.1833 26.4754 92.1521 25.8729C92.0639 27.4765 91.9365 28.0679 91.6653 29.2007C91.6652 29.1989 91.6651 29.1971 91.665 29.1952C91.0793 29.2824 91.1394 28.7493 91.1321 26.1053C91.6724 27.6244 91.8111 25.216 92.2994 23.8041C92.6348 22.8332 92.9851 23.2978 93.2075 20.9921ZM32.7418 25.8714C32.5346 27.9248 33.144 29.7486 32.1083 27.7099C32.0987 27.1955 32.0957 26.6847 32.0893 26.1699C32.3099 26.0653 32.5275 25.9665 32.7418 25.8714ZM94.9392 29.2747C95.0696 25.5791 94.8074 22.6845 94.4417 28.6893C94.7776 29.9321 94.7505 26.5192 94.9392 29.2747ZM73.2424 21.2836C73.997 21.496 73.6337 25.656 73.21 27.7229C73.2014 26.9623 73.1929 26.2003 73.1851 25.4444C73.0871 25.6618 72.9891 25.8795 72.8911 26.0959C72.8346 26.2149 72.7786 26.3335 72.7229 26.4514C72.8261 25.4306 72.9298 24.4082 73.0337 23.3861C73.1033 22.6849 73.1729 21.9838 73.2424 21.2836ZM108.609 25.8546C107.907 28.4663 109.171 27.35 108.69 28.9787C108.307 30.2806 107.995 27.6031 108.234 25.9449C108.349 25.9035 108.476 25.8766 108.608 25.8546C108.608 25.8546 108.608 25.8546 108.609 25.8546ZM105.195 26.4547C105.16 29.2775 105.061 28.4496 105.543 27.9638C105.675 27.8254 106.685 28.9325 106.349 26.5767C105.969 26.5593 105.582 26.5006 105.195 26.4547ZM64.2117 24.9262C64.2672 23.6985 65.2083 21.0462 65.2767 21.7259C65.2768 21.724 65.2769 21.7222 65.277 21.7204C65.454 23.5721 64.5997 23.788 64.829 26.328C64.1425 24.0673 63.6333 29.4221 64.041 22.3547C64.5319 22.0684 64.2338 23.5145 64.2117 24.9262ZM3.32787 26.1976C3.3275 26.1976 3.32714 26.1976 3.32677 26.1977C3.37443 26.2542 3.88914 28.044 3.84913 28.6699C3.27716 28.1498 3.35786 26.9603 2.91154 28.923C2.86814 28.2957 2.82918 27.6872 2.78371 27.0554C2.97004 26.6779 3.05833 25.9206 3.32787 26.1976ZM28.3883 23.8727C28.5421 23.5348 29.048 24.8226 29.2671 24.7208C29.0248 29.8851 27.7391 25.2177 28.3883 23.8727ZM135.805 26.9271C135.805 26.929 135.805 26.9309 135.805 26.9328C135.805 26.93 135.804 26.9273 135.804 26.9245C135.804 26.9254 135.805 26.9262 135.805 26.9271ZM43.8579 25.0801C43.8011 24.7522 43.7584 24.4667 43.728 24.2154C43.7256 24.1917 43.7232 24.1681 43.7208 24.1444C43.7652 24.4523 43.8105 24.7636 43.8579 25.0801ZM62.5429 25.2172C62.2876 23.4902 63.5213 20.8197 63.8569 21.4877C63.7939 22.2676 63.7555 22.9756 63.6539 23.87C63.4533 21.8324 62.5878 25.5082 62.5429 25.2172ZM88.0274 25.9219C87.1446 25.8306 88.6379 19.132 88.4125 24.5251C88.4056 24.6294 88.0508 25.9138 88.0274 25.9219ZM69.5013 24.879C69.8364 22.8458 69.4068 22.2778 70.1209 22.671C70.1353 23.2031 70.1534 23.7367 70.1652 24.2687C69.9382 24.4709 69.7136 24.676 69.5013 24.879ZM82.6938 16.7565C81.5224 17.8387 80.358 19.794 80.7896 25.4724C80.883 25.2955 80.9772 25.1247 81.0705 24.9478C81.2246 22.1963 81.4585 23.7147 81.9091 23.8278C82.0303 22.7385 82.2954 22.4988 82.3904 21.5727C82.5742 19.7826 82.3496 18.5059 82.6938 16.7565ZM129.093 22.6969C129.156 23.1634 129.219 23.6324 129.28 24.0944C129.197 24.6476 129.112 25.198 129.025 25.7514C128.902 24.8566 128.779 23.9619 128.656 23.0673C128.803 22.9431 128.945 22.819 129.092 22.6944C129.092 22.6952 129.093 22.6961 129.093 22.6969ZM53.5878 18.1702C53.2669 23.3387 53.6884 22.4017 54.4953 19.8156C54.2038 19.2676 53.9006 18.7191 53.5878 18.1702ZM100.439 19.7418C100.392 21.212 100.345 22.6778 100.298 24.1481C100.75 22.6357 100.759 20.9499 100.672 18.9967C100.594 19.2445 100.517 19.494 100.439 19.7418ZM105.937 19.3737C105.795 19.0599 105.82 20.2499 105.804 20.2253C105.436 19.5836 105.406 19.0369 104.873 19.9072C104.798 20.216 104.724 20.5409 104.648 20.859C104.733 23.9484 104.977 22.2781 105.371 24.1094C105.334 23.0494 105.297 21.9879 105.26 20.9232C105.516 21.1588 105.77 21.3912 106.023 21.6266C106.069 21.3024 106.115 20.9812 106.162 20.657C106.087 20.2341 106.012 19.7593 105.937 19.3737ZM131.326 23.6596C131.601 23.7331 131.882 23.8101 132.159 23.8829C132.033 23.1344 131.905 22.3808 131.779 21.6323C131.628 22.308 131.476 22.9845 131.326 23.6596ZM48.1613 20.3089C48.1307 20.5773 48.1012 20.8473 48.0744 21.1221C48.0873 20.7866 48.1186 20.5253 48.1613 20.3089ZM2.54839 22.053C2.24641 21.5297 1.83596 21.8885 1.51068 21.7846C1.58229 23.6878 2.38577 23.1417 2.69693 24.2883C2.73366 23.9455 2.67606 22.2732 2.54839 22.053ZM74.2898 21.5064C74.4133 20.5616 74.5364 19.6214 74.6587 18.6765C74.8311 18.7882 75.0036 18.9055 75.1769 19.0172C75.2229 18.2408 75.2691 17.4577 75.3151 16.6813C74.475 17.6491 74.7738 15.4189 74.5 13.1897C74.4304 15.9604 74.3595 18.7311 74.2898 21.5064ZM139.396 17.5482C139.187 17.7328 139.027 17.972 138.926 18.301L138.839 18.3038C138.609 18.9349 138.678 19.8793 138.972 21.3903L138.993 21.3896C138.994 21.3926 138.994 21.3955 138.995 21.3985C139.188 20.8588 139.386 20.3194 139.589 19.7814C139.525 19.0372 139.461 18.2923 139.396 17.5482ZM37.5067 19.4755C37.1505 20.4033 36.736 17.2997 36.5032 19.095C36.8291 19.634 37.1521 20.1796 37.4693 20.7194C37.4781 20.3062 37.4938 19.8892 37.5067 19.4755ZM61.6321 10.5018C61.473 9.40461 60.8841 14.5619 60.4633 10.7183C60.2744 11.8521 60.1549 12.9376 59.9917 14.0492C59.9768 12.832 59.9522 11.5988 59.938 10.3909C59.9377 10.3909 59.9373 10.3909 59.9369 10.3909C59.3921 10.7781 59.6699 12.3156 59.6043 13.604C59.5712 14.1379 59.2317 13.2288 59.3004 14.3966C59.4244 16.4015 60.2419 15.2862 60.1354 17.7196C59.913 16.9134 59.3487 17.5554 59.4384 19.1855C59.5436 20.9751 60.1431 18.0088 60.4117 19.5017C60.1291 15.5932 60.9878 16.8334 60.9858 19.826C61.6411 17.5563 61.1565 16.5977 60.6029 16.6812C61.0394 14.4065 60.4896 15.622 60.4809 13.7154C60.886 12.5817 62.0611 13.592 61.6321 10.5018ZM87.3662 16.0656C86.9813 16.194 86.456 14.856 86.0976 16.7739C85.889 17.8913 86.4392 18.7928 85.9393 20.5388C86.318 20.3854 86.4371 19.6994 86.4527 18.1477C86.5464 17.966 86.6408 17.789 86.734 17.612C86.7576 17.9161 86.7823 18.2162 86.8059 18.5204C86.8824 17.8855 86.9588 17.2557 87.0342 16.6207C87.117 16.7507 87.2008 16.881 87.2833 17.0156C87.31 16.6958 87.342 16.4178 87.3662 16.0656ZM24.0279 21.051C24.1304 21.0239 24.2314 20.9971 24.3325 20.9653C24.29 20.5899 24.2441 20.1991 24.1991 19.8134C24.1646 19.5085 24.13 19.2037 24.0955 18.8988C24.2468 19.9858 24.8782 21.7607 24.9937 20.5762C25.0503 19.9822 24.6324 17.9265 25.0493 17.5254C24.7302 17.6606 24.4648 17.9685 24.1748 18.1702C24.151 17.5506 24.1253 16.9246 24.101 16.305C24.1008 16.3041 24.1005 16.3032 24.1003 16.3023C23.988 16.1715 23.8737 16.0341 23.7607 15.9033C23.8507 17.6202 23.9401 19.3339 24.0279 21.051ZM100.271 16.8219C99.8547 18.0188 99.7033 18.6435 99.7788 20.6147C99.7792 20.6156 99.7795 20.6166 99.7798 20.6175C99.9555 19.7542 100.131 18.8912 100.306 18.0279C100.295 17.6263 100.283 17.2234 100.271 16.8219ZM44.5969 13.8879C44.2488 21.3903 45.8138 16.7095 45.3654 14.1915C45.3383 14.075 44.7322 14.7039 44.5969 13.8879ZM73.2207 18.9832C73.2358 18.9799 73.2509 18.9766 73.266 18.9734C73.4644 18.928 73.663 18.887 73.8623 18.841C73.862 17.9222 73.8604 17.0066 73.8602 16.0879C73.6667 16.9665 73.4726 17.8493 73.2789 18.7287C73.2595 18.8135 73.2401 18.8984 73.2207 18.9832ZM135.875 14.4433C135.333 12.4481 134.519 11.8189 134.562 14.0696C134.769 14.3008 134.969 14.534 135.175 14.7665C134.901 15.067 134.648 15.3927 134.387 15.6808C134.835 18.5007 134.903 16.8095 135.547 17.5075C135.658 17.6184 136.659 21.0531 136.47 18.3841C136.433 17.8345 135.816 17.5444 135.989 15.908C135.797 15.808 135.645 15.8581 135.474 15.8131C135.362 15.1423 135.25 14.4708 135.136 13.8004C135.379 14.013 135.628 14.2286 135.875 14.4433ZM85.1505 16.1756C84.6391 15.9917 84.5162 17.1276 84.3048 19.1354C84.5587 18.9199 84.8122 18.7078 85.0654 18.4922C85.0931 17.7216 85.1225 16.9508 85.1505 16.1756ZM130.813 14.6312C130.474 14.3575 130.887 15.9503 130.83 16.2777C130.613 17.5097 130.117 16.4076 129.832 17.2062C129.803 16.8896 129.776 16.5938 129.748 16.2864C129.748 16.2865 129.747 16.2866 129.747 16.2866C127.557 15.2718 129.221 18.7573 130.298 17.9482C130.434 18.5436 130.569 19.14 130.705 19.7307C131.047 18.5853 131.356 17.486 130.813 14.6312ZM52.134 13.7234C52.1301 13.341 52.4154 10.9239 52.0119 12.0444C51.5874 15.5732 52.1068 13.8344 52.1897 15.2018C52.0699 15.5371 51.9555 15.8634 51.8472 16.1992C52.4035 17.2242 52.5394 16.3866 52.4196 13.7901C52.4112 13.6156 52.1431 14.1047 52.134 13.7234ZM48.1441 11.8151C48.0041 14.917 48.2836 15.3525 48.549 14.8595C48.7072 14.5223 48.8599 13.7516 48.8754 13.0948C48.7874 13.0369 48.6885 13.6469 48.6002 13.6113C48.5796 13.6044 48.5593 13.5736 48.5393 13.5099C48.4139 13.1138 48.4189 11.8931 48.1441 11.8151ZM69.9504 14.0801C69.9296 14.0557 69.8202 11.8522 69.7497 13.5685C69.8181 17.6441 70.4865 15.0596 70.4741 13.6411C70.2854 13.7009 70.1321 14.3036 69.9507 14.0746C69.9506 14.0765 69.9505 14.0783 69.9504 14.0801ZM140.412 12.9207C140.405 12.7745 139.764 11.8956 139.689 12.716C139.631 13.6385 139.609 14.6269 139.572 15.582C139.901 14.6922 140.586 15.3653 140.411 12.9207C140.411 12.9207 140.411 12.9207 140.412 12.9207Z" fill="var(--stroke-0, white)"/>
</svg>
