<svg width="22" height="35" viewBox="0 0 22 35" fill="none" xmlns="http://www.w3.org/2000/svg">
<g clip-path="url(#clip0_131_2868)">
<path d="M15.0942 12.5017C15.305 12.5803 15.4511 12.6374 15.5996 12.6875C16.2057 12.8851 16.6919 13.2256 17.0153 13.7852C17.1447 14.0091 17.3052 14.2139 17.4537 14.4258C17.9903 15.1997 18.5029 15.9927 19.0706 16.7451C19.6815 17.5548 20.805 17.5214 21.4925 16.8833C22.0458 16.3689 22.2135 15.4188 21.6553 14.6306C20.9655 13.6543 20.3019 12.6613 19.6264 11.6754C19.0395 10.8229 18.2873 10.1562 17.3195 9.77277C16.2512 9.3489 15.1612 8.97028 14.0761 8.59166C13.4269 8.36544 12.7682 8.17493 12.0639 8.2297C11.2446 8.29162 10.4254 8.34162 9.60853 8.39401C9.2516 8.41782 8.90187 8.47736 8.6168 8.71072C8.27665 8.98695 7.91733 9.25365 7.62987 9.57751C6.84416 10.461 6.08479 11.3658 5.33022 12.2779C5.05234 12.6136 4.72656 12.866 4.30735 12.9661C3.45217 13.1732 2.5922 13.3566 1.73462 13.5447C1.28187 13.6423 0.831524 13.7376 0.486577 14.0757C-0.0332405 14.5806 -0.150619 15.4569 0.211098 16.0998C0.577605 16.7547 1.34655 17.0738 2.09394 16.9023C3.02338 16.6904 3.95282 16.4903 4.88466 16.2856C6.17342 16.0046 7.21066 15.3331 8.01794 14.2972C8.08022 14.2162 8.15208 14.1424 8.23592 14.0472C8.26227 14.1162 8.27904 14.1519 8.29102 14.19C8.59764 15.0783 8.90426 15.9689 9.20848 16.8571C9.74747 18.4287 10.2864 20.0027 10.8302 21.5744C10.8805 21.7196 10.8733 21.8316 10.7895 21.9649C10.1236 23.0198 9.46241 24.0771 8.80126 25.1344C7.37835 27.4061 5.95304 29.6779 4.53013 31.9496C4.20435 32.4687 4.07739 33.0236 4.26184 33.6213C4.50618 34.4166 5.08348 34.8476 5.88118 34.9714C6.65491 35.0905 7.28732 34.8167 7.71611 34.1499C8.14729 33.4808 8.5641 32.8021 8.98571 32.1282C11.1943 28.5944 13.3958 25.0558 15.6116 21.5267C16.4883 20.1313 16.8117 18.6383 16.4021 17.038C16.0739 15.7617 15.6691 14.5067 15.3002 13.2399C15.2355 13.0161 15.1732 12.7898 15.0942 12.5041V12.5017ZM6.73157 3.66956C6.69324 5.63411 8.20478 7.24624 10.0709 7.42245C12.3106 7.63438 14.0785 5.97464 14.1863 3.90769C14.2893 1.93361 12.7634 0.211947 10.8374 0.0190633C8.67669 -0.197633 6.74115 1.50974 6.72917 3.67194L6.73157 3.66956ZM15.923 24.2509C15.8703 24.3176 15.8368 24.3557 15.8104 24.3962C15.0151 25.6606 14.2246 26.9251 13.4245 28.1872C13.3503 28.3062 13.3646 28.4086 13.4077 28.5229C14.033 30.2184 14.6582 31.9163 15.2858 33.6117C15.5445 34.3118 16.0092 34.7928 16.7662 34.95C17.4465 35.0929 18.0406 34.919 18.5173 34.419C19.0395 33.8713 19.2263 33.2188 18.9844 32.4925C18.7305 31.7329 18.4382 30.9876 18.1604 30.2351C17.4417 28.292 16.7231 26.3465 16.002 24.4033C15.9853 24.3581 15.9589 24.3176 15.923 24.2485V24.2509Z" fill="#FF4122"/>
</g>
<defs>
<clipPath id="clip0_131_2868">
<rect width="22" height="35" fill="white"/>
</clipPath>
</defs>
</svg>
