<svg preserveAspectRatio="none" width="100%" height="100%" overflow="visible" style="display: block;" viewBox="0 0 22 35" fill="none" xmlns="http://www.w3.org/2000/svg">
<g id="Layer_1" clip-path="url(#clip0_0_4)">
<path id="Vector" d="M15.094 12.5018C15.3048 12.5803 15.451 12.6375 15.5995 12.6875C16.2055 12.8851 16.6918 13.2257 17.0152 13.7853C17.1446 14.0091 17.3051 14.2139 17.4536 14.4258C17.9902 15.1997 18.5028 15.9927 19.0705 16.7452C19.6814 17.5548 20.8048 17.5215 21.4923 16.8833C22.0457 16.3689 22.2134 15.4188 21.6552 14.6306C20.9653 13.6543 20.3018 12.6613 19.6263 11.6754C19.0394 10.823 18.2872 10.1562 17.3194 9.77281C16.251 9.34894 15.1611 8.97032 14.076 8.5917C13.4268 8.36548 12.768 8.17497 12.0638 8.22974C11.2445 8.29166 10.4253 8.34166 9.60841 8.39405C9.25148 8.41786 8.90175 8.4774 8.61669 8.71076C8.27653 8.98699 7.91721 9.25369 7.62975 9.57755C6.84404 10.461 6.08467 11.3659 5.3301 12.2779C5.05222 12.6137 4.72644 12.8661 4.30723 12.9661C3.45205 13.1733 2.59208 13.3566 1.7345 13.5448C1.28175 13.6424 0.831406 13.7376 0.486458 14.0758C-0.0333591 14.5806 -0.150737 15.4569 0.210979 16.0999C0.577486 16.7547 1.34643 17.0738 2.09382 16.9024C3.02326 16.6904 3.9527 16.4904 4.88454 16.2856C6.1733 16.0046 7.21054 15.3331 8.01782 14.2972C8.0801 14.2163 8.15196 14.1425 8.23581 14.0472C8.26216 14.1163 8.27892 14.152 8.2909 14.1901C8.59752 15.0783 8.90414 15.9689 9.20837 16.8571C9.74735 18.4287 10.2863 20.0028 10.8301 21.5744C10.8804 21.7197 10.8732 21.8316 10.7894 21.9649C10.1234 23.0198 9.46229 24.0771 8.80114 25.1344C7.37823 27.4062 5.95292 29.6779 4.53001 31.9496C4.20423 32.4688 4.07727 33.0236 4.26172 33.6213C4.50606 34.4166 5.08337 34.8476 5.88106 34.9715C6.65479 35.0905 7.2872 34.8167 7.71599 34.1499C8.14717 33.4808 8.56398 32.8021 8.98559 32.1282C11.1942 28.5944 13.3956 25.0558 15.6115 21.5268C16.4882 20.1314 16.8116 18.6383 16.402 17.0381C16.0738 15.7617 15.6689 14.5068 15.3 13.2399C15.2354 13.0161 15.1731 12.7899 15.094 12.5041V12.5018ZM6.73145 3.6696C6.69312 5.63415 8.20466 7.24628 10.0707 7.42249C12.3105 7.63442 14.0784 5.97467 14.1862 3.90773C14.2892 1.93365 12.7632 0.211986 10.8373 0.019103C8.67657 -0.197593 6.74103 1.50978 6.72905 3.67198L6.73145 3.6696ZM15.9229 24.251C15.8702 24.3176 15.8366 24.3557 15.8103 24.3962C15.015 25.6607 14.2245 26.9251 13.4244 28.1872C13.3501 28.3063 13.3645 28.4087 13.4076 28.523C14.0328 30.2184 14.6581 31.9163 15.2857 33.6118C15.5444 34.3119 16.0091 34.7929 16.7661 34.95C17.4464 35.0929 18.0405 34.9191 18.5172 34.419C19.0394 33.8713 19.2262 33.2189 18.9843 32.4926C18.7304 31.7329 18.4381 30.9876 18.1602 30.2351C17.4416 28.292 16.723 26.3465 16.0019 24.4034C15.9852 24.3581 15.9588 24.3176 15.9229 24.2486V24.251Z" fill="var(--fill-0, white)"/>
<path id="Vector_2" d="M15.0939 12.5017C15.1729 12.7875 15.2328 13.0113 15.2999 13.2375C15.6688 14.502 16.0736 15.7593 16.4018 17.0357C16.8138 18.6359 16.488 20.1289 15.6113 21.5244C13.3955 25.0534 11.194 28.592 8.98541 32.1258C8.56381 32.8021 8.1446 33.4784 7.71581 34.1475C7.28702 34.8143 6.65462 35.0881 5.88088 34.969C5.08319 34.8452 4.50588 34.4142 4.26154 33.6189C4.07709 33.0212 4.20405 32.4663 4.52983 31.9472C5.95274 29.6755 7.37805 27.4037 8.80096 25.132C9.4645 24.0747 10.1233 23.015 10.7892 21.9625C10.873 21.8292 10.8778 21.7172 10.8299 21.572C10.2862 20.0003 9.74717 18.4287 9.20819 16.8547C8.90157 15.9641 8.59495 15.0759 8.29072 14.1876C8.27875 14.1495 8.26198 14.1138 8.23563 14.0448C8.15179 14.14 8.07992 14.2138 8.01764 14.2948C7.21276 15.3307 6.17313 15.9998 4.88436 16.2832C3.95492 16.4856 3.02308 16.6856 2.09364 16.8999C1.34625 17.0714 0.577308 16.7523 0.210801 16.0974C-0.150915 15.4545 -0.0311411 14.5782 0.486281 14.0733C0.833624 13.7352 1.28397 13.64 1.73432 13.5423C2.59429 13.3566 3.45187 13.1708 4.30706 12.9637C4.72626 12.8637 5.05205 12.6112 5.32992 12.2755C6.0845 11.3658 6.84386 10.4586 7.62957 9.57511C7.91703 9.25126 8.27635 8.98694 8.61651 8.70833C8.90157 8.47496 9.25131 8.41543 9.60823 8.39162C10.4275 8.33923 11.2467 8.28922 12.0636 8.22731C12.7679 8.17254 13.4266 8.36304 14.0758 8.58926C15.1633 8.96789 16.2509 9.34651 17.3193 9.77038C18.2846 10.1538 19.0392 10.8205 19.6261 11.673C20.304 12.6565 20.9652 13.6519 21.6551 14.6282C22.2108 15.4164 22.0455 16.3665 21.4922 16.8809C20.8047 17.5214 19.6812 17.5524 19.0703 16.7428C18.5026 15.9903 17.99 15.1973 17.4534 14.4234C17.3049 14.2115 17.1444 14.0067 17.015 13.7828C16.6916 13.2232 16.2054 12.8827 15.5993 12.6851C15.4508 12.6374 15.3047 12.5779 15.0939 12.4993V12.5017Z" fill="var(--fill-0, #FF4122)"/>
<path id="Vector_3" d="M15.9227 24.2509C15.9586 24.32 15.985 24.3605 16.0017 24.4057C16.7204 26.3488 17.4414 28.2919 18.1601 30.2375C18.4379 30.9899 18.7326 31.7353 18.9841 32.4949C19.226 33.2212 19.0392 33.8737 18.517 34.4214C18.0403 34.9214 17.4462 35.0929 16.7659 34.9524C16.0113 34.7952 15.5442 34.3142 15.2855 33.6141C14.6579 31.9186 14.0351 30.2208 13.4074 28.5253C13.3643 28.411 13.35 28.3086 13.4242 28.1896C14.2219 26.9275 15.0148 25.663 15.8101 24.3986C15.8365 24.3557 15.87 24.32 15.9227 24.2533V24.2509Z" fill="var(--fill-0, #FF4122)"/>
<path id="Vector_4" d="M6.73127 3.66955C6.74325 1.50973 8.67639 -0.197646 10.8371 0.0190502C12.7607 0.211934 14.2866 1.9336 14.1836 3.91006C14.0758 5.977 12.3079 7.63675 10.0682 7.42482C8.20209 7.2486 6.68815 5.63648 6.72888 3.67193L6.73127 3.66955Z" fill="var(--fill-0, #FF4122)"/>
</g>
<defs>
<clipPath id="clip0_0_4">
<rect width="22" height="35" fill="white"/>
</clipPath>
</defs>
</svg>
