<svg width="32" height="30" viewBox="0 0 32 30" fill="none" xmlns="http://www.w3.org/2000/svg">
<path d="M8.88891 1.7647C8.88891 0.790085 8.09298 0 7.11114 0C6.12931 0 5.33337 0.790085 5.33337 1.7647V8.09384L0.656782 11.8656C-0.105236 12.4802 -0.221064 13.5916 0.398073 14.348C1.01721 15.1045 2.13686 15.2194 2.89888 14.6049L16 4.03847L29.1011 14.6049C29.8631 15.2194 30.9828 15.1045 31.6019 14.348C32.2211 13.5916 32.1052 12.4802 31.3432 11.8656L17.121 0.395091C16.4679 -0.131697 15.5321 -0.131697 14.879 0.395091L8.88891 5.22621V1.7647Z" fill="#FF4122"/>
<path d="M16.0001 6.17647L4.23508 15.3525C3.80612 15.687 3.55565 16.1986 3.55565 16.7401V28.2353C3.55565 29.2099 4.35159 30 5.33342 30H10.6667C11.6486 30 12.4445 29.2099 12.4445 28.2353V21.1765C12.4445 20.2019 13.2404 19.4118 14.2223 19.4118H17.7778C18.7597 19.4118 19.5556 20.2019 19.5556 21.1765V28.2353C19.5556 29.2099 20.3515 30 21.3334 30H26.6667C27.6485 30 28.4445 29.2099 28.4445 28.2353V16.7401C28.4445 16.1986 28.194 15.687 27.765 15.3525L16.0001 6.17647Z" fill="#FF4122"/>
</svg>
