<svg width="41" height="20" viewBox="0 0 41 20" fill="none" xmlns="http://www.w3.org/2000/svg">
<path d="M20.4284 2.8672C20.7402 1.43872 21.4695 0.52736 22.747 0.15872C23.0789 0.06144 23.4411 0.0256 23.7881 0.0256C26.9869 0.01536 30.1906 0.01536 33.3894 0.0256C35.4163 0.0256 36.7441 1.39776 36.7491 3.46624C36.7491 4.0704 36.7491 4.67968 36.7491 5.2736C35.0341 6.02112 34.506 6.84032 34.506 8.7296C34.506 9.4464 34.4858 10.1632 34.516 10.88C34.5361 11.3203 34.3802 11.433 33.9628 11.433C26.2425 11.4227 18.5272 11.4227 10.807 11.4227C9.41378 11.4227 8.02061 11.4125 6.62743 11.4278C6.27034 11.4278 6.13957 11.3203 6.14963 10.9517C6.16975 10.0813 6.16472 9.20576 6.14963 8.33536C6.13454 7.0144 5.55615 6.05184 4.37925 5.46304C4.25854 5.4016 4.10765 5.23776 4.10765 5.12C4.08754 4.41856 4.06239 3.71712 4.11268 3.0208C4.23842 1.32096 5.51592 0.0512 7.20583 0.03072C10.5756 -0.01024 13.9454 -0.01024 17.3151 0.03072C18.8793 0.04608 19.9556 1.0496 20.4334 2.8672H20.4284Z" fill="#FF4122"/>
<path d="M8.41417 18.4571C8.41417 18.7911 8.41417 19.1093 8.41417 19.4274C8.41417 19.8092 8.2226 19.9948 7.85012 19.9948C7.05726 19.9948 6.2644 19.9948 5.46622 19.9948C5.0618 19.9948 4.8862 19.7721 4.8862 19.385C4.8862 19.0828 4.8862 18.7805 4.8862 18.4253C4.67336 18.4253 4.51904 18.4253 4.3594 18.4253C3.24195 18.4253 2.12449 18.4253 1.00704 18.4253C0.347209 18.4253 0.00665152 18.1071 0.00665152 17.4496C0.0013303 14.5333 -0.00931212 11.6169 0.0172939 8.70061C0.0279364 7.35909 1.02832 6.40996 2.33202 6.40466C3.61976 6.39936 4.59886 7.34849 4.64675 8.70061C4.67868 9.64974 4.65207 10.6042 4.65739 11.5533C4.65739 12.4335 5.01923 12.7941 5.88659 12.7941C15.5765 12.7941 25.2611 12.7941 34.9511 12.7941C35.8291 12.7941 36.1856 12.4388 36.1909 11.5639C36.1909 10.6148 36.1749 9.66035 36.1962 8.71121C36.2282 7.52877 37.0317 6.59024 38.1119 6.42057C39.2559 6.24028 40.3202 6.85536 40.6873 7.92645C40.7831 8.21278 40.8257 8.52563 40.8257 8.82787C40.8363 11.6647 40.831 14.5015 40.831 17.3383C40.831 18.1283 40.533 18.4253 39.7508 18.4253C38.5056 18.4253 37.2605 18.4253 35.9515 18.4253C35.9515 18.7699 35.9515 19.0668 35.9515 19.3691C35.9515 19.7827 35.7652 20.0001 35.3395 20.0001C34.5626 20.0001 33.7857 20.0001 33.0088 20.0001C32.5991 20.0001 32.4235 19.7827 32.4235 19.3956C32.4235 19.0934 32.4235 18.7911 32.4235 18.4571H8.41417Z" fill="#FF4122"/>
</svg>
