<svg width="40" height="40" viewBox="0 0 40 40" fill="none" xmlns="http://www.w3.org/2000/svg">
  <circle cx="20" cy="20" r="20" fill="#FF4122"/>
  <g transform="translate(9.83 9.08)">
    <path d="M17.2574 6.89846L17.2574 12.6472C17.2574 13.287 18.7207 14.995 20.0188 16.3841C20.7269 17.1419 20.1832 18.3959 19.1307 18.3959H1.20782C0.155346 18.3959 -0.388306 17.1419 0.319795 16.3841C1.61783 14.995 3.08119 13.287 3.08119 12.6472V6.89846C3.08119 6.89846 3.08118 0 10.1693 0C17.2574 0 17.2574 6.89846 17.2574 6.89846Z" fill="white"/>
    <path d="M10.1693 21.8451C7.80658 21.8451 7.01901 20.3121 6.62523 19.5456H13.7133C13.3195 20.3121 12.532 21.8451 10.1693 21.8451Z" fill="white"/>
  </g>
</svg>
