<svg preserveAspectRatio="none" width="100%" height="100%" overflow="visible" style="display: block;" viewBox="0 0 31 25" fill="none" xmlns="http://www.w3.org/2000/svg">
<path id="Shape" fill-rule="evenodd" clip-rule="evenodd" d="M1.39896 8.43484L1.38043 8.44729C0.518013 9.02687 0 10.0026 0 11.0474V23.4375C0 24.3004 0.693959 25 1.55 25H3.1C3.95604 25 4.65 24.3004 4.65 23.4375V21.875H26.35V23.4375C26.35 24.3004 27.044 25 27.9 25H29.45C30.306 25 31 24.3004 31 23.4375V11.0474C31 10.0026 30.482 9.02687 29.6196 8.44729L29.601 8.43484C30.1659 8.10594 30.6776 7.78287 30.777 7.63889C31.0167 7.29167 31.1269 6.25 30.777 6.25H27.9L26.0852 2.59119C25.2976 1.00314 23.6874 0 21.9261 0H9.07386C7.31257 0 5.70244 1.00314 4.91477 2.59119L3.1 6.25H0.223016C-0.126887 6.25 -0.0167324 7.29167 0.223016 7.63889C0.322429 7.78287 0.834059 8.10594 1.39896 8.43484ZM6.35804 3.21691L3.70784 8.2261C3.43252 8.7465 3.8066 9.375 4.39167 9.375H26.6083C27.1934 9.375 27.5675 8.7465 27.2922 8.2261L24.642 3.21691C24.1032 2.19859 23.0515 1.5625 21.9067 1.5625H9.09334C7.94847 1.5625 6.8968 2.19859 6.35804 3.21691ZM1.55 14.1873V12.2977C1.55 11.6947 2.19884 11.319 2.7155 11.6229L7.89069 14.6661C8.6039 15.0855 8.25867 16.1886 7.43583 16.1194L2.97128 15.7444C2.16793 15.6769 1.55 14.9999 1.55 14.1873ZM29.45 12.2977V14.1873C29.45 14.9999 28.8321 15.6769 28.0287 15.7444L23.5642 16.1194C22.7413 16.1886 22.3961 15.0855 23.1093 14.6661L28.2845 11.6229C28.8012 11.319 29.45 11.6947 29.45 12.2977Z" fill="var(--fill-0, #FF4122)"/>
</svg>
