<svg preserveAspectRatio="none" width="100%" height="100%" overflow="visible" style="display: block;" viewBox="0 0 40.8323 20.0001" fill="none" xmlns="http://www.w3.org/2000/svg">
<g id="Group">
<path id="Vector" d="M20.4284 2.8672C20.7402 1.43872 21.4695 0.52736 22.747 0.15872C23.0789 0.06144 23.441 0.0256 23.7881 0.0256C26.9868 0.01536 30.1906 0.01536 33.3894 0.0256C35.4163 0.0256 36.7441 1.39776 36.7491 3.46624C36.7491 4.0704 36.7491 4.67968 36.7491 5.2736C35.034 6.02112 34.5059 6.84032 34.5059 8.7296C34.5059 9.4464 34.4858 10.1632 34.516 10.88C34.5361 11.3203 34.3802 11.433 33.9628 11.433C26.2425 11.4227 18.5272 11.4227 10.8069 11.4227C9.41376 11.4227 8.02059 11.4125 6.62742 11.4278C6.27033 11.4278 6.13956 11.3203 6.14962 10.9517C6.16974 10.0813 6.16471 9.20576 6.14962 8.33536C6.13453 7.0144 5.55614 6.05184 4.37923 5.46304C4.25853 5.4016 4.10764 5.23776 4.10764 5.12C4.08752 4.41856 4.06238 3.71712 4.11267 3.0208C4.23841 1.32096 5.5159 0.0512 7.20581 0.03072C10.5756 -0.01024 13.9453 -0.01024 17.3151 0.03072C18.8793 0.04608 19.9556 1.0496 20.4334 2.8672H20.4284Z" fill="var(--fill-0, #FF4122)"/>
<path id="Vector_2" d="M8.41417 18.457C8.41417 18.791 8.41417 19.1092 8.41417 19.4273C8.41417 19.8091 8.22261 19.9947 7.85012 19.9947C7.05726 19.9947 6.2644 19.9947 5.46622 19.9947C5.0618 19.9947 4.8862 19.772 4.8862 19.3849C4.8862 19.0827 4.8862 18.7804 4.8862 18.4252C4.67336 18.4252 4.51904 18.4252 4.3594 18.4252C3.24195 18.4252 2.12449 18.4252 1.00704 18.4252C0.347209 18.4252 0.00665152 18.107 0.00665152 17.4495C0.0013303 14.5332 -0.00931212 11.6169 0.0172939 8.70053C0.0279364 7.35902 1.02832 6.40989 2.33202 6.40458C3.61976 6.39928 4.59886 7.34842 4.64675 8.70053C4.67868 9.64967 4.65207 10.6041 4.65739 11.5532C4.65739 12.4334 5.01923 12.794 5.88659 12.794C15.5765 12.794 25.2611 12.794 34.9511 12.794C35.8291 12.794 36.1856 12.4387 36.1909 11.5638C36.1909 10.6147 36.1749 9.66027 36.1962 8.71114C36.2282 7.5287 37.0317 6.59017 38.1119 6.42049C39.2559 6.24021 40.3202 6.85529 40.6873 7.92638C40.7831 8.21271 40.8257 8.52555 40.8257 8.82779C40.8363 11.6646 40.831 14.5014 40.831 17.3382C40.831 18.1282 40.533 18.4252 39.7508 18.4252C38.5056 18.4252 37.2605 18.4252 35.9514 18.4252C35.9514 18.7698 35.9514 19.0668 35.9514 19.369C35.9514 19.7826 35.7652 20 35.3395 20C34.5626 20 33.7857 20 33.0088 20C32.5991 20 32.4235 19.7826 32.4235 19.3955C32.4235 19.0933 32.4235 18.791 32.4235 18.457H8.41417Z" fill="var(--fill-0, #FF4122)"/>
</g>
</svg>
