<svg preserveAspectRatio="none" width="100%" height="100%" overflow="visible" style="display: block;" viewBox="0 0 790.411 1697.71" fill="none" xmlns="http://www.w3.org/2000/svg">
<g id="Group">
<path id="Vector" d="M66.8016 801.18H66.7164C29.8699 801.18 0 831.174 0 868.174V1355.01C0 1392.01 29.8699 1422.01 66.7164 1422.01H66.8016C103.648 1422.01 133.518 1392.01 133.518 1355.01V868.174C133.518 831.174 103.648 801.18 66.8016 801.18Z" fill="var(--fill-0, #FF4122)"/>
<path id="Vector_2" d="M723.542 794.409H723.457C686.754 794.409 657 842.505 657 901.835V1351.98C657 1411.31 686.754 1459.41 723.457 1459.41H723.542C760.246 1459.41 790 1411.31 790 1351.98V901.835C790 842.505 760.246 794.409 723.542 794.409Z" fill="var(--fill-0, #FF4122)"/>
<path id="Vector_3" d="M723.695 1282.99H723.609C686.763 1282.99 656.893 1312.99 656.893 1349.99V1630.71C656.893 1667.71 686.763 1697.71 723.609 1697.71H723.695C760.541 1697.71 790.411 1667.71 790.411 1630.71V1349.99C790.411 1312.99 760.541 1282.99 723.695 1282.99Z" fill="var(--fill-0, #FF4122)"/>
<path id="Vector_4" d="M198.215 312.828H198.13C161.283 312.828 131.413 342.823 131.413 379.822V1279.07C131.413 1316.07 161.283 1346.06 198.13 1346.06H198.215C235.061 1346.06 264.931 1316.07 264.931 1279.07V379.822C264.931 342.823 235.061 312.828 198.215 312.828Z" fill="var(--fill-0, #FF4122)"/>
<path id="Vector_5" d="M592.481 507.753H592.395C555.549 507.753 525.679 537.748 525.679 574.748V1473.99C525.679 1510.99 555.549 1540.98 592.395 1540.98H592.481C629.327 1540.98 659.197 1510.99 659.197 1473.99V574.748C659.197 537.748 629.327 507.753 592.481 507.753Z" fill="var(--fill-0, #FF4122)"/>
<path id="Vector_6" d="M461.095 747.563H461.009C424.163 747.563 394.293 777.557 394.293 814.557V1548.84C394.293 1585.84 424.163 1615.83 461.009 1615.83H461.095C497.941 1615.83 527.811 1585.84 527.811 1548.84V814.557C527.811 777.557 497.941 747.563 461.095 747.563Z" fill="var(--fill-0, #FF4122)"/>
<path id="Vector_7" d="M329.628 0H329.543C292.696 0 262.826 29.9943 262.826 66.994V1378.55C262.826 1415.55 292.696 1445.55 329.543 1445.55H329.628C366.474 1445.55 396.344 1415.55 396.344 1378.55V66.994C396.344 29.9943 366.474 0 329.628 0Z" fill="var(--fill-0, #FF4122)"/>
</g>
</svg>
