<svg preserveAspectRatio="none" width="100%" height="100%" overflow="visible" style="display: block;" viewBox="0 0 790.498 1445.55" fill="none" xmlns="http://www.w3.org/2000/svg">
<g id="Group">
<path id="Vector" d="M66.8017 413.471H66.7164C29.87 413.471 0 443.465 0 480.465V967.305C0 1004.31 29.87 1034.3 66.7164 1034.3H66.8017C103.648 1034.3 133.518 1004.31 133.518 967.305V480.465C133.518 443.465 103.648 413.471 66.8017 413.471Z" fill="var(--fill-0, #FF4122)"/>
<path id="Vector_2" d="M723.781 415.417H723.696C686.85 415.417 656.98 445.411 656.98 482.411V763.136C656.98 800.136 686.85 830.13 723.696 830.13H723.781C760.628 830.13 790.498 800.136 790.498 763.136V482.411C790.498 445.411 760.628 415.417 723.781 415.417Z" fill="var(--fill-0, #FF4122)"/>
<path id="Vector_3" d="M723.695 701.429H723.61C686.763 701.429 656.893 731.423 656.893 768.423V1049.15C656.893 1086.15 686.763 1116.14 723.61 1116.14H723.695C760.541 1116.14 790.411 1086.15 790.411 1049.15V768.423C790.411 731.423 760.541 701.429 723.695 701.429Z" fill="var(--fill-0, #FF4122)"/>
<path id="Vector_4" d="M198.215 162.053H198.13C161.283 162.053 131.413 192.047 131.413 229.047V1128.29C131.413 1165.29 161.283 1195.28 198.13 1195.28H198.215C235.061 1195.28 264.931 1165.29 264.931 1128.29V229.047C264.931 192.047 235.061 162.053 198.215 162.053Z" fill="var(--fill-0, #FF4122)"/>
<path id="Vector_5" d="M592.481 176.202H592.396C555.55 176.202 525.68 206.197 525.68 243.196V1142.44C525.68 1179.44 555.55 1209.43 592.396 1209.43H592.481C629.328 1209.43 659.198 1179.44 659.198 1142.44V243.196C659.198 206.197 629.328 176.202 592.481 176.202Z" fill="var(--fill-0, #FF4122)"/>
<path id="Vector_6" d="M461.095 439.09H461.01C424.164 439.09 394.294 469.084 394.294 506.084V1240.37C394.294 1277.37 424.164 1307.36 461.01 1307.36H461.095C497.942 1307.36 527.812 1277.37 527.812 1240.37V506.084C527.812 469.084 497.942 439.09 461.095 439.09Z" fill="var(--fill-0, #FF4122)"/>
<path id="Vector_7" d="M329.629 0H329.543C292.697 0 262.827 29.9942 262.827 66.994V1378.55C262.827 1415.55 292.697 1445.55 329.543 1445.55H329.629C366.475 1445.55 396.345 1415.55 396.345 1378.55V66.994C396.345 29.9942 366.475 0 329.629 0Z" fill="var(--fill-0, #FF4122)"/>
</g>
</svg>
