<svg preserveAspectRatio="none" width="100%" height="100%" overflow="visible" style="display: block;" viewBox="0 0 790.498 1713.12" fill="none" xmlns="http://www.w3.org/2000/svg">
<g id="Group">
<path id="Vector" d="M66.8017 692.06H66.7165C29.87 692.06 0 722.054 0 759.054V1245.89C0 1282.89 29.87 1312.89 66.7165 1312.89H66.8017C103.648 1312.89 133.518 1282.89 133.518 1245.89V759.054C133.518 722.054 103.648 692.06 66.8017 692.06Z" fill="var(--fill-0, #817E73)"/>
<path id="Vector_2" d="M723.781 1052.7H723.696C686.85 1052.7 656.98 1082.69 656.98 1119.69V1400.41C656.98 1437.41 686.85 1467.41 723.696 1467.41H723.781C760.628 1467.41 790.498 1437.41 790.498 1400.41V1119.69C790.498 1082.69 760.628 1052.7 723.781 1052.7Z" fill="var(--fill-0, #817E73)"/>
<path id="Vector_3" d="M723.695 1278.51H723.61C686.763 1278.51 656.893 1308.5 656.893 1345.5V1626.22C656.893 1663.22 686.763 1693.22 723.61 1693.22H723.695C760.541 1693.22 790.411 1663.22 790.411 1626.22V1345.5C790.411 1308.5 760.541 1278.51 723.695 1278.51Z" fill="var(--fill-0, #817E73)"/>
<path id="Vector_4" d="M723.695 1298.41H723.61C686.763 1298.41 656.893 1328.4 656.893 1365.4V1646.12C656.893 1683.12 686.763 1713.12 723.61 1713.12H723.695C760.541 1713.12 790.411 1683.12 790.411 1646.12V1365.4C790.411 1328.4 760.541 1298.41 723.695 1298.41Z" fill="var(--fill-0, #817E73)"/>
<path id="Vector_5" d="M198.215 619.735H198.13C161.283 619.735 131.413 649.729 131.413 686.729V1585.97C131.413 1622.97 161.283 1652.97 198.13 1652.97H198.215C235.061 1652.97 264.931 1622.97 264.931 1585.97V686.729C264.931 649.729 235.061 619.735 198.215 619.735Z" fill="var(--fill-0, #817E73)"/>
<path id="Vector_6" d="M592.481 544.489H592.396C555.55 544.489 525.68 574.483 525.68 611.483V1510.73C525.68 1547.73 555.55 1577.72 592.396 1577.72H592.481C629.328 1577.72 659.198 1547.73 659.198 1510.73V611.483C659.198 574.483 629.328 544.489 592.481 544.489Z" fill="var(--fill-0, #817E73)"/>
<path id="Vector_7" d="M461.095 528.888H461.01C424.164 528.888 394.294 558.882 394.294 595.882V1330.16C394.294 1367.16 424.164 1397.16 461.01 1397.16H461.095C497.942 1397.16 527.812 1367.16 527.812 1330.16V595.882C527.812 558.882 497.942 528.888 461.095 528.888Z" fill="var(--fill-0, #817E73)"/>
<path id="Vector_8" d="M329.629 0H329.543C292.697 0 262.827 29.9942 262.827 66.994V1378.55C262.827 1415.55 292.697 1445.55 329.543 1445.55H329.629C366.475 1445.55 396.345 1415.55 396.345 1378.55V66.994C396.345 29.9942 366.475 0 329.629 0Z" fill="var(--fill-0, #817E73)"/>
</g>
</svg>
