<svg preserveAspectRatio="none" width="100%" height="100%" overflow="visible" style="display: block;" viewBox="0 0 790.498 1640.48" fill="none" xmlns="http://www.w3.org/2000/svg">
<g id="Group">
<path id="Vector" d="M66.8016 721.582H66.7164C29.87 721.582 0 751.576 0 788.576V1275.42C0 1312.42 29.87 1342.41 66.7164 1342.41H66.8016C103.648 1342.41 133.518 1312.42 133.518 1275.42V788.576C133.518 751.576 103.648 721.582 66.8016 721.582Z" fill="var(--fill-0, #817E73)"/>
<path id="Vector_2" d="M66.8016 602.187H66.7164C29.87 602.187 0 632.181 0 669.181V1156.02C0 1193.02 29.87 1223.02 66.7164 1223.02H66.8016C103.648 1223.02 133.518 1193.02 133.518 1156.02V669.181C133.518 632.181 103.648 602.187 66.8016 602.187Z" fill="var(--fill-0, #817E73)"/>
<path id="Vector_3" d="M723.782 952.767H723.696C686.85 952.767 656.98 982.761 656.98 1019.76V1300.49C656.98 1337.49 686.85 1367.48 723.696 1367.48H723.782C760.628 1367.48 790.498 1337.49 790.498 1300.49V1019.76C790.498 982.761 760.628 952.767 723.782 952.767Z" fill="var(--fill-0, #817E73)"/>
<path id="Vector_4" d="M723.782 674.178H723.696C686.85 674.178 656.98 704.172 656.98 741.172V1021.9C656.98 1058.9 686.85 1088.89 723.696 1088.89H723.782C760.628 1088.89 790.498 1058.9 790.498 1021.9V741.172C790.498 704.172 760.628 674.178 723.782 674.178Z" fill="var(--fill-0, #817E73)"/>
<path id="Vector_5" d="M723.695 1044.2H723.609C686.763 1044.2 656.893 1074.2 656.893 1111.2V1391.92C656.893 1428.92 686.763 1458.91 723.609 1458.91H723.695C760.541 1458.91 790.411 1428.92 790.411 1391.92V1111.2C790.411 1074.2 760.541 1044.2 723.695 1044.2Z" fill="var(--fill-0, #817E73)"/>
<path id="Vector_6" d="M198.215 551.621H198.13C161.283 551.621 131.413 581.615 131.413 618.615V1517.86C131.413 1554.86 161.283 1584.85 198.13 1584.85H198.215C235.061 1584.85 264.931 1554.86 264.931 1517.86V618.615C264.931 581.615 235.061 551.621 198.215 551.621Z" fill="var(--fill-0, #817E73)"/>
<path id="Vector_7" d="M592.481 607.249H592.396C555.549 607.249 525.679 637.244 525.679 674.243V1573.49C525.679 1610.49 555.549 1640.48 592.396 1640.48H592.481C629.327 1640.48 659.197 1610.49 659.197 1573.49V674.243C659.197 637.244 629.327 607.249 592.481 607.249Z" fill="var(--fill-0, #817E73)"/>
<path id="Vector_8" d="M461.095 449.073H461.01C424.163 449.073 394.293 479.067 394.293 516.067V1250.35C394.293 1287.35 424.163 1317.34 461.01 1317.34H461.095C497.941 1317.34 527.811 1287.35 527.811 1250.35V516.067C527.811 479.067 497.941 449.073 461.095 449.073Z" fill="var(--fill-0, #817E73)"/>
<path id="Vector_9" d="M329.628 0H329.543C292.696 0 262.826 29.9942 262.826 66.994V1378.55C262.826 1415.55 292.696 1445.55 329.543 1445.55H329.628C366.474 1445.55 396.344 1415.55 396.344 1378.55V66.994C396.344 29.9942 366.474 0 329.628 0Z" fill="var(--fill-0, #817E73)"/>
</g>
</svg>
