<svg width="1580" height="2168" viewBox="0 0 1580 2168" fill="none" xmlns="http://www.w3.org/2000/svg">
<path d="M1513.2 1027.28H1513.28C1550.13 1027.28 1580 1057.27 1580 1094.27V1581.11C1580 1618.11 1550.13 1648.11 1513.28 1648.11H1513.2C1476.35 1648.11 1446.48 1618.11 1446.48 1581.11V1094.27C1446.48 1057.27 1476.35 1027.28 1513.2 1027.28Z" fill="#817E73"/>
<path d="M856.219 1387.91H856.304C893.15 1387.91 923.02 1417.91 923.02 1454.91V1735.63C923.02 1772.63 893.15 1802.63 856.304 1802.63H856.219C819.372 1802.63 789.502 1772.63 789.502 1735.63V1454.91C789.502 1417.91 819.372 1387.91 856.219 1387.91Z" fill="#817E73"/>
<path d="M856.305 1613.72H856.39C893.237 1613.72 923.107 1643.72 923.107 1680.72V1961.44C923.107 1998.44 893.237 2028.44 856.39 2028.44H856.305C819.459 2028.44 789.589 1998.44 789.589 1961.44V1680.72C789.589 1643.72 819.459 1613.72 856.305 1613.72Z" fill="#817E73"/>
<path d="M856.305 1633.62H856.39C893.237 1633.62 923.107 1663.62 923.107 1700.62V1981.34C923.107 2018.34 893.237 2048.34 856.39 2048.34H856.305C819.459 2048.34 789.589 2018.34 789.589 1981.34V1700.62C789.589 1663.62 819.459 1633.62 856.305 1633.62Z" fill="#817E73"/>
<path d="M1381.79 954.952H1381.87C1418.72 954.952 1448.59 984.946 1448.59 1021.95V1921.19C1448.59 1958.19 1418.72 1988.18 1381.87 1988.18H1381.79C1344.94 1988.18 1315.07 1958.19 1315.07 1921.19V1021.95C1315.07 984.946 1344.94 954.952 1381.79 954.952Z" fill="#817E73"/>
<path d="M987.519 879.706H987.604C1024.45 879.706 1054.32 909.7 1054.32 946.7V1845.94C1054.32 1882.94 1024.45 1912.94 987.604 1912.94H987.519C950.672 1912.94 920.802 1882.94 920.802 1845.94V946.7C920.802 909.7 950.672 879.706 987.519 879.706Z" fill="#817E73"/>
<path d="M1118.9 864.104H1118.99C1155.84 864.104 1185.71 894.099 1185.71 931.098V1665.38C1185.71 1702.38 1155.84 1732.37 1118.99 1732.37H1118.9C1082.06 1732.37 1052.19 1702.38 1052.19 1665.38V931.098C1052.19 894.099 1082.06 864.104 1118.9 864.104Z" fill="#817E73"/>
<path d="M1250.37 335.218H1250.46C1287.3 335.218 1317.17 365.212 1317.17 402.212V1713.77C1317.17 1750.77 1287.3 1780.76 1250.46 1780.76H1250.37C1213.52 1780.76 1183.65 1750.77 1183.65 1713.77V402.212C1183.65 365.212 1213.52 335.218 1250.37 335.218Z" fill="#817E73"/>
<path d="M66.8016 1248.11H66.7164C29.87 1248.11 0 1278.11 0 1315.11V1801.95C0 1838.95 29.87 1868.94 66.7164 1868.94H66.8016C103.648 1868.94 133.518 1838.95 133.518 1801.95V1315.11C133.518 1278.11 103.648 1248.11 66.8016 1248.11Z" fill="#817E73"/>
<path d="M66.8016 1128.72H66.7164C29.87 1128.72 0 1158.71 0 1195.71V1682.55C0 1719.55 29.87 1749.55 66.7164 1749.55H66.8016C103.648 1749.55 133.518 1719.55 133.518 1682.55V1195.71C133.518 1158.71 103.648 1128.72 66.8016 1128.72Z" fill="#817E73"/>
<path d="M723.782 1479.3H723.696C686.85 1479.3 656.98 1509.29 656.98 1546.29V1827.02C656.98 1864.02 686.85 1894.01 723.696 1894.01H723.782C760.628 1894.01 790.498 1864.02 790.498 1827.02V1546.29C790.498 1509.29 760.628 1479.3 723.782 1479.3Z" fill="#817E73"/>
<path d="M723.782 1200.71H723.696C686.85 1200.71 656.98 1230.7 656.98 1267.7V1548.43C656.98 1585.43 686.85 1615.42 723.696 1615.42H723.782C760.628 1615.42 790.498 1585.43 790.498 1548.43V1267.7C790.498 1230.7 760.628 1200.71 723.782 1200.71Z" fill="#817E73"/>
<path d="M723.695 1570.73H723.609C686.763 1570.73 656.893 1600.73 656.893 1637.73V1918.45C656.893 1955.45 686.763 1985.44 723.609 1985.44H723.695C760.541 1985.44 790.411 1955.45 790.411 1918.45V1637.73C790.411 1600.73 760.541 1570.73 723.695 1570.73Z" fill="#817E73"/>
<path d="M198.215 1078.15H198.13C161.283 1078.15 131.413 1108.14 131.413 1145.14V2044.39C131.413 2081.39 161.283 2111.38 198.13 2111.38H198.215C235.061 2111.38 264.931 2081.39 264.931 2044.39V1145.14C264.931 1108.14 235.061 1078.15 198.215 1078.15Z" fill="#817E73"/>
<path d="M592.481 1133.78H592.396C555.549 1133.78 525.679 1163.77 525.679 1200.77V2100.02C525.679 2137.02 555.549 2167.01 592.396 2167.01H592.481C629.327 2167.01 659.197 2137.02 659.197 2100.02V1200.77C659.197 1163.77 629.327 1133.78 592.481 1133.78Z" fill="#817E73"/>
<path d="M461.095 975.604H461.01C424.163 975.604 394.293 1005.6 394.293 1042.6V1776.88C394.293 1813.88 424.163 1843.87 461.01 1843.87H461.095C497.941 1843.87 527.811 1813.88 527.811 1776.88V1042.6C527.811 1005.6 497.941 975.604 461.095 975.604Z" fill="#817E73"/>
<path d="M329.628 526.53H329.543C292.696 526.53 262.826 556.525 262.826 593.524V1905.08C262.826 1942.08 292.696 1972.08 329.543 1972.08H329.628C366.474 1972.08 396.344 1942.08 396.344 1905.08V593.524C396.344 556.525 366.474 526.53 329.628 526.53Z" fill="#817E73"/>
<path d="M66.8017 750.47H66.7164C29.87 750.47 0 780.464 0 817.464V1304.3C0 1341.3 29.87 1371.3 66.7164 1371.3H66.8017C103.648 1371.3 133.518 1341.3 133.518 1304.3V817.464C133.518 780.464 103.648 750.47 66.8017 750.47Z" fill="#61605D"/>
<path d="M723.781 852.416H723.696C686.85 852.416 656.98 882.41 656.98 919.41V1200.13C656.98 1237.13 686.85 1267.13 723.696 1267.13H723.781C760.628 1267.13 790.498 1237.13 790.498 1200.13V919.41C790.498 882.41 760.628 852.416 723.781 852.416Z" fill="#61605D"/>
<path d="M723.695 1038.43H723.61C686.763 1038.43 656.893 1068.42 656.893 1105.42V1386.15C656.893 1423.15 686.763 1453.14 723.61 1453.14H723.695C760.541 1453.14 790.411 1423.15 790.411 1386.15V1105.42C790.411 1068.42 760.541 1038.43 723.695 1038.43Z" fill="#61605D"/>
<path d="M198.215 499.052H198.13C161.283 499.052 131.413 529.046 131.413 566.046V1465.29C131.413 1502.29 161.283 1532.28 198.13 1532.28H198.215C235.061 1532.28 264.931 1502.29 264.931 1465.29V566.046C264.931 529.046 235.061 499.052 198.215 499.052Z" fill="#61605D"/>
<path d="M592.481 543.201H592.396C555.55 543.201 525.68 573.195 525.68 610.195V1509.44C525.68 1546.44 555.55 1576.43 592.396 1576.43H592.481C629.328 1576.43 659.198 1546.44 659.198 1509.44V610.195C659.198 573.195 629.328 543.201 592.481 543.201Z" fill="#61605D"/>
<path d="M461.095 826.089H461.01C424.164 826.089 394.294 856.083 394.294 893.083V1627.36C394.294 1664.36 424.164 1694.36 461.01 1694.36H461.095C497.942 1694.36 527.812 1664.36 527.812 1627.36V893.083C527.812 856.083 497.942 826.089 461.095 826.089Z" fill="#61605D"/>
<path d="M329.629 336.999H329.543C292.697 336.999 262.827 366.993 262.827 403.993V1715.55C262.827 1752.55 292.697 1782.55 329.543 1782.55H329.629C366.475 1782.55 396.345 1752.55 396.345 1715.55V403.993C396.345 366.993 366.475 336.999 329.629 336.999Z" fill="#61605D"/>
<path d="M1513.2 712.618H1513.28C1550.13 712.618 1580 742.612 1580 779.612V1266.45C1580 1303.45 1550.13 1333.45 1513.28 1333.45H1513.2C1476.35 1333.45 1446.48 1303.45 1446.48 1266.45V779.612C1446.48 742.612 1476.35 712.618 1513.2 712.618Z" fill="#61605D"/>
<path d="M856.218 943.803H856.304C893.15 943.803 923.02 973.797 923.02 1010.8V1291.52C923.02 1328.52 893.15 1358.52 856.304 1358.52H856.218C819.372 1358.52 789.502 1328.52 789.502 1291.52V1010.8C789.502 973.797 819.372 943.803 856.218 943.803Z" fill="#61605D"/>
<path d="M856.305 1194.43H856.391C893.237 1194.43 923.107 1224.42 923.107 1261.42V1542.15C923.107 1579.15 893.237 1609.14 856.391 1609.14H856.305C819.459 1609.14 789.589 1579.15 789.589 1542.15V1261.42C789.589 1224.42 819.459 1194.43 856.305 1194.43Z" fill="#61605D"/>
<path d="M1381.79 224.266H1381.87C1418.72 224.266 1448.59 254.26 1448.59 291.26V1190.5C1448.59 1227.5 1418.72 1257.5 1381.87 1257.5H1381.79C1344.94 1257.5 1315.07 1227.5 1315.07 1190.5V291.26C1315.07 254.26 1344.94 224.266 1381.79 224.266Z" fill="#61605D"/>
<path d="M987.519 419.191H987.605C1024.45 419.191 1054.32 449.186 1054.32 486.185V1385.43C1054.32 1422.43 1024.45 1452.42 987.605 1452.42H987.519C950.673 1452.42 920.803 1422.43 920.803 1385.43V486.185C920.803 449.186 950.673 419.191 987.519 419.191Z" fill="#61605D"/>
<path d="M1118.91 659.001H1118.99C1155.84 659.001 1185.71 688.995 1185.71 725.995V1460.28C1185.71 1497.28 1155.84 1527.27 1118.99 1527.27H1118.91C1082.06 1527.27 1052.19 1497.28 1052.19 1460.28V725.995C1052.19 688.995 1082.06 659.001 1118.91 659.001Z" fill="#61605D"/>
<path d="M1250.37 61.4385H1250.46C1287.3 61.4385 1317.17 91.4327 1317.17 128.433V1289.99C1317.17 1326.99 1287.3 1356.99 1250.46 1356.99H1250.37C1213.53 1356.99 1183.66 1326.99 1183.66 1289.99V128.433C1183.66 91.4327 1213.53 61.4385 1250.37 61.4385Z" fill="#61605D"/>
<path d="M66.8017 21.4697H66.7164C29.87 21.4697 0 51.464 0 88.4638V885.304C0 922.304 29.87 952.298 66.7164 952.298H66.8017C103.648 952.298 133.518 922.304 133.518 885.304V88.4638C133.518 51.464 103.648 21.4697 66.8017 21.4697Z" fill="#FF4122"/>
<path d="M723.695 9.42773H723.61C686.763 9.42773 656.893 39.422 656.893 76.4217V967.146C656.893 1004.15 686.763 1034.14 723.61 1034.14H723.695C760.541 1034.14 790.411 1004.15 790.411 967.146V76.4217C790.411 39.422 760.541 9.42773 723.695 9.42773Z" fill="#FF4122"/>
<path d="M198.215 20.0518H198.13C161.283 20.0518 131.413 50.046 131.413 87.0458V1046.29C131.413 1083.29 161.283 1113.28 198.13 1113.28H198.215C235.061 1113.28 264.931 1083.29 264.931 1046.29V87.0458C264.931 50.046 235.061 20.0518 198.215 20.0518Z" fill="#FF4122"/>
<path d="M592.481 14.2012H592.396C555.55 14.2012 525.68 44.1954 525.68 81.1952V1060.44C525.68 1097.44 555.55 1127.43 592.396 1127.43H592.481C629.328 1127.43 659.198 1097.44 659.198 1060.44V81.1952C659.198 44.1954 629.328 14.2012 592.481 14.2012Z" fill="#FF4122"/>
<path d="M461.095 17.0898H461.01C424.164 17.0898 394.294 47.0841 394.294 84.0838V1158.37C394.294 1195.37 424.164 1225.36 461.01 1225.36H461.095C497.942 1225.36 527.812 1195.37 527.812 1158.37V84.0838C527.812 47.0841 497.942 17.0898 461.095 17.0898Z" fill="#FF4122"/>
<path d="M329.629 17.999H329.543C292.697 17.999 262.827 47.9933 262.827 84.993V1296.55C262.827 1333.55 292.697 1363.55 329.543 1363.55H329.629C366.475 1363.55 396.345 1333.55 396.345 1296.55V84.993C396.345 47.9933 366.475 17.999 329.629 17.999Z" fill="#FF4122"/>
<path d="M1513.2 3.61719H1513.28C1550.13 3.61719 1580 33.6115 1580 70.6113V847.452C1580 884.452 1550.13 914.446 1513.28 914.446H1513.2C1476.35 914.446 1446.48 884.452 1446.48 847.452V70.6113C1446.48 33.6115 1476.35 3.61719 1513.2 3.61719Z" fill="#FF4122"/>
<path d="M856.305 5.42969H856.391C893.237 5.42969 923.107 35.4239 923.107 72.4237V1123.15C923.107 1160.15 893.237 1190.14 856.391 1190.14H856.305C819.459 1190.14 789.589 1160.15 789.589 1123.15V72.4237C789.589 35.4239 819.459 5.42969 856.305 5.42969Z" fill="#FF4122"/>
<path d="M1381.79 5.26562H1381.87C1418.72 5.26562 1448.59 35.2599 1448.59 72.2597V771.503C1448.59 808.503 1418.72 838.497 1381.87 838.497H1381.79C1344.94 838.497 1315.07 808.503 1315.07 771.503V72.2597C1315.07 35.2599 1344.94 5.26562 1381.79 5.26562Z" fill="#FF4122"/>
<path d="M987.519 0.19043H987.605C1024.45 0.19043 1054.32 30.1847 1054.32 67.1845V966.428C1054.32 1003.43 1024.45 1033.42 987.605 1033.42H987.519C950.673 1033.42 920.803 1003.43 920.803 966.428V67.1845C920.803 30.1847 950.673 0.19043 987.519 0.19043Z" fill="#FF4122"/>
<path d="M1118.91 0H1118.99C1155.84 0 1185.71 29.9942 1185.71 66.994V1041.28C1185.71 1078.28 1155.84 1108.27 1118.99 1108.27H1118.91C1082.06 1108.27 1052.19 1078.28 1052.19 1041.28V66.994C1052.19 29.9942 1082.06 0 1118.91 0Z" fill="#FF4122"/>
<path d="M1250.37 2.4375H1250.46C1287.3 2.4375 1317.17 32.4318 1317.17 69.4315V880.992C1317.17 917.992 1287.3 947.986 1250.46 947.986H1250.37C1213.53 947.986 1183.66 917.992 1183.66 880.992V69.4315C1183.66 32.4318 1213.53 2.4375 1250.37 2.4375Z" fill="#FF4122"/>
</svg>
