<svg preserveAspectRatio="none" width="100%" height="100%" overflow="visible" style="display: block;" viewBox="0 0 342.253 165.092" fill="none" xmlns="http://www.w3.org/2000/svg">
<path id="Vector" d="M125.452 6.84268C155.034 4.21686 167.755 3.44973 168.232 3.42356C206.625 1.31952 239.365 7.27438 262.601 13.549C278.604 17.8706 293.938 22.343 303.864 29.2622C317.272 38.6083 328.019 46.7435 331.385 52.9704C335.025 59.7047 339.186 72.2624 339.252 88.5447C339.283 96.0189 338.474 102.02 336.985 105.821C334.841 111.291 328.642 119.013 318.761 127.781C314.337 131.706 309.784 135.343 298.227 139.724C284.18 145.049 271.294 149.701 251.234 153.123C236.793 155.586 213.864 158.998 197.091 160.69C180.318 162.382 170.014 162.356 157.632 161.593C145.25 160.83 131.052 159.619 115.991 157.173C84.8364 152.114 61.4945 147.584 51.3454 143.593C45.0635 141.123 41.4369 139.419 37.0761 136.094C28.7042 129.711 16.3868 117.889 9.1721 104.332C4.64937 95.8327 1.56693 88.2434 3.6805 77.7734C6.45459 64.0314 9.74562 52.2888 15.5505 45.9905C19.5616 41.6385 24.4949 37.3905 33.9026 33.1181C44.7898 28.1737 54.2379 22.2786 71.1537 17.3627C89.2531 12.1027 107.991 8.39256 125.452 6.84268Z" stroke="var(--stroke-0, #F5F5F5)" stroke-width="6" stroke-linecap="round" stroke-dasharray="12 12"/>
</svg>
