<svg width="41" height="40" viewBox="0 0 41 40" fill="none" xmlns="http://www.w3.org/2000/svg">
<path d="M41 25.5C41 26.8807 39.8807 28 38.5 28C37.1193 28 36 26.8807 36 25.5L36 15.5C36 14.1193 37.1193 13 38.5 13C39.8807 13 41 14.1193 41 15.5L41 25.5Z" fill="white"/>
<path d="M30 32.5C30 33.8807 31.1193 35 32.5 35C33.8807 35 35 33.8807 35 32.5L35 7.5C35 6.11929 33.8807 5 32.5 5C31.1193 5 30 6.11929 30 7.5L30 32.5Z" fill="white"/>
<path d="M5 25.5C5 26.8807 3.88071 28 2.5 28C1.11929 28 6.06746e-07 26.8807 5.46393e-07 25.5L1.09279e-07 15.5C4.89257e-08 14.1193 1.11929 13 2.5 13C3.88071 13 5 14.1193 5 15.5L5 25.5Z" fill="white"/>
<path d="M23 37.5C23 38.8807 21.8807 40 20.5 40C19.1193 40 18 38.8807 18 37.5L18 2.5C18 1.11929 19.1193 1.69632e-07 20.5 1.09279e-07C21.8807 9.34819e-07 23 1.11929 23 2.5L23 37.5Z" fill="white"/>
<path d="M29 28.5C29 29.8807 27.8807 31 26.5 31C25.1193 31 24 29.8807 24 28.5L24 11.5C24 10.1193 25.1193 9 26.5 9C27.8807 9 29 10.1193 29 11.5L29 28.5Z" fill="white"/>
<path d="M11 32.5C11 33.8807 9.88071 35 8.5 35C7.11929 35 6 33.8807 6 32.5L6 7.5C6 6.11929 7.11929 5 8.5 5C9.88071 5 11 6.11929 11 7.5L11 32.5Z" fill="white"/>
<path d="M17 28.5C17 29.8807 15.8807 31 14.5 31C13.1193 31 12 29.8807 12 28.5L12 11.5C12 10.1193 13.1193 9 14.5 9C15.8807 9 17 10.1193 17 11.5L17 28.5Z" fill="white"/>
</svg>
