<svg width="55" height="55" viewBox="0 0 55 55" fill="none" xmlns="http://www.w3.org/2000/svg">
<circle cx="27.5" cy="27.5" r="27.5" fill="#E3DAD0"/>
<ellipse cx="27.5364" cy="27.5364" rx="20.5364" ry="20.5364" fill="#FF4122"/>
<path d="M33.8997 22.5872C34.2658 22.221 34.8592 22.221 35.2253 22.5872C35.5915 22.9533 35.5915 23.5467 35.2253 23.9128L27.7253 31.4128C27.3592 31.779 26.7658 31.779 26.3997 31.4128L22.6497 27.6628C22.2835 27.2967 22.2835 26.7033 22.6497 26.3372C23.0158 25.971 23.6092 25.971 23.9753 26.3372L27.0625 29.4243L33.8997 22.5872Z" fill="white"/>
<path fill-rule="evenodd" clip-rule="evenodd" d="M28 13.875C35.2487 13.875 41.125 19.7513 41.125 27C41.125 34.2487 35.2487 40.125 28 40.125C20.7513 40.125 14.875 34.2487 14.875 27C14.875 19.7513 20.7513 13.875 28 13.875ZM28 15.75C21.7868 15.75 16.75 20.7868 16.75 27C16.75 33.2132 21.7868 38.25 28 38.25C34.2132 38.25 39.25 33.2132 39.25 27C39.25 20.7868 34.2132 15.75 28 15.75Z" fill="white"/>
</svg>
