<svg width="55" height="55" viewBox="0 0 55 55" fill="none" xmlns="http://www.w3.org/2000/svg">
<circle cx="27.5" cy="27.5" r="27.5" fill="#E3DAD0"/>
<ellipse cx="27.5369" cy="27.5364" rx="20.5364" ry="20.5364" fill="#FF4122"/>
<path d="M28.9377 27.0001C29.4555 27.0001 29.8752 27.4199 29.8752 27.9376C29.8752 28.4554 29.4555 28.8751 28.9377 28.8751H23.3127C22.795 28.8751 22.3752 28.4554 22.3752 27.9376C22.3752 27.4199 22.795 27.0001 23.3127 27.0001H28.9377Z" fill="white"/>
<path d="M32.6877 23.2501C33.2055 23.2501 33.6252 23.6699 33.6252 24.1876C33.6252 24.7054 33.2055 25.1251 32.6877 25.1251H23.3127C22.795 25.1251 22.3752 24.7054 22.3752 24.1876C22.3752 23.6699 22.795 23.2501 23.3127 23.2501H32.6877Z" fill="white"/>
<path fill-rule="evenodd" clip-rule="evenodd" d="M36.4377 15.7501C39.0266 15.7501 41.1252 17.8488 41.1252 20.4376V31.6876C41.1252 34.2765 39.0266 36.3751 36.4377 36.3751H24.448C23.8928 36.3752 23.3499 36.5396 22.8879 36.8475L18.5703 39.726C18.1799 39.9862 17.7212 40.1251 17.252 40.1251C15.9393 40.1251 14.8753 39.061 14.8752 37.7484V20.4376C14.8752 17.8488 16.9739 15.7501 19.5627 15.7501H36.4377ZM19.5627 17.6251C18.0094 17.6251 16.7502 18.8843 16.7502 20.4376V37.7484C16.7503 38.0255 16.9749 38.2501 17.252 38.2501C17.351 38.2501 17.4479 38.2208 17.5303 38.1659L21.8479 35.2875C22.6179 34.7742 23.5226 34.5002 24.448 34.5001H36.4377C37.991 34.5001 39.2502 33.2409 39.2502 31.6876V20.4376C39.2502 18.8843 37.991 17.6251 36.4377 17.6251H19.5627Z" fill="white"/>
</svg>
