<svg width="55" height="55" viewBox="0 0 55 55" fill="none" xmlns="http://www.w3.org/2000/svg">
<circle cx="27.5" cy="27.5" r="27.5" fill="#E3DAD0"/>
<circle cx="26.9272" cy="26.9271" r="20" fill="#FF4122"/>
<path d="M33.9268 25.7729C34.3303 25.7729 34.6572 26.1008 34.6572 26.5044V27.2349C34.6572 31.4279 31.4465 34.8685 27.3496 35.2378V36.7349C27.3496 37.1384 27.0227 37.4653 26.6191 37.4653C26.2156 37.4653 25.8887 37.1384 25.8887 36.7349V35.2378C21.7918 34.8685 18.5811 31.4279 18.5811 27.2349V26.5044C18.5811 26.1008 18.9079 25.7729 19.3115 25.7729C19.715 25.773 20.042 26.1009 20.042 26.5044V27.2349C20.042 30.8672 22.9868 33.812 26.6191 33.812C30.2514 33.812 33.1962 30.8671 33.1963 27.2349V26.5044C33.1963 26.1008 33.5232 25.7729 33.9268 25.7729ZM26.6191 17.0044C29.4443 17.0044 31.7344 19.2945 31.7344 22.1196V27.2349C31.7343 30.06 29.4442 32.3501 26.6191 32.3501C23.794 32.3501 21.5039 30.06 21.5039 27.2349L21.5039 22.1196C21.5039 19.2945 23.794 17.0044 26.6191 17.0044Z" fill="white"/>
</svg>
