<svg width="135" height="269" overflow="visible" style="display: block;" viewBox="0 0 134.384 269" fill="none" xmlns="http://www.w3.org/2000/svg">
<path id="Vector" d="M4.60142 3.00036C1.09774 28.3919 3.60035 42.1916 9.60667 56.0918C16.3538 71.7064 28.3125 86.1871 40.1388 93.5035C51.4041 100.473 70.3292 103.105 81.3316 104.811C88.4913 105.92 107.659 103.869 117.5 96.5004C123.739 91.8287 129.065 86.6126 131 75.0004C133 63.0004 126.667 49.7519 124 46.5004C117.569 38.6589 100.106 36.0004 88.5 40.5004C82.1056 42.9798 76.9467 51.0004 74 56.0918C68.5416 65.523 67.6564 74.4613 70.5 100C72.1535 114.851 84.5988 150.26 87.528 170.759C92.3697 204.642 91.042 226.681 89.3944 241.878C88.5362 249.204 87.6327 255.746 87.0221 259.815C86.4114 263.884 86.1209 265.28 85.5315 266" stroke="white" stroke-width="6" stroke-linecap="round" stroke-dasharray="12 12"/>
</svg>
