<svg preserveAspectRatio="none" width="100%" height="100%" overflow="visible" style="display: block;" viewBox="0 0 77.3667 45.1192" fill="none" xmlns="http://www.w3.org/2000/svg">
<path id="Vector" d="M71.2401 40.7639C71.4578 42.7885 70.861 41.4722 71.3089 44.493C71.2367 44.6995 71.1614 44.9126 71.0851 45.1192C71.0376 43.9977 70.9896 42.8788 70.942 41.7573C71.0428 41.4243 71.1439 41.0913 71.2399 40.7584C71.24 40.7602 71.24 40.762 71.2401 40.7639ZM71.0479 26.7081C71.0271 29.9108 70.7416 30.7714 71.1432 33.7168C71.1433 32.6178 71.144 31.5191 71.1442 30.4201C71.2799 31.2692 71.4163 32.1181 71.5521 32.9626C71.5838 32.5428 71.6155 32.1227 71.6474 31.7076C71.7455 33.615 71.8432 35.5275 71.9412 37.4396C71.8875 37.1613 71.8331 36.8782 71.7795 36.6C71.6302 38.1543 71.4755 38.5821 71.2323 38.8767C71.265 39.3278 71.2977 39.7749 71.3305 40.226C71.1851 39.4609 71.0413 38.6938 70.8896 37.9289C70.9869 37.1721 71.0896 36.3306 71.1745 35.6254C70.9442 32.6365 70.6806 34.3094 70.542 34.9373C70.352 35.7944 70.3649 34.3703 70.2235 34.9698C70.201 35.0635 70.2254 36.1789 70.1768 36.199C69.931 36.2935 69.4387 35.7142 69.6538 33.1047C70.0679 33.4299 70.3661 31.3314 70.7895 32.0852C70.6091 29.0784 70.8016 28.0492 71.0479 26.7081ZM63.8548 36.4847C63.9355 35.0198 64.2031 35.6024 64.4022 36.612C64.4024 36.612 64.4026 36.612 64.4028 36.612C64.4467 36.8344 64.5862 38.7741 64.4617 38.6984C64.2587 38.5684 64.0758 35.514 64.0307 37.5924C63.9731 37.2074 63.9144 36.865 63.8548 36.4847ZM63.4308 36.6782C63.2885 35.9322 63.2765 33.627 63.4461 34.2461C63.446 34.2443 63.446 34.2425 63.4459 34.2406C63.5168 34.4995 63.4447 36.3239 63.6188 34.4692C63.7065 35.9057 63.7897 37.2125 63.8754 38.6025C63.8204 38.6273 63.7708 38.6665 63.7131 38.6868C63.6844 36.3223 63.5729 37.4183 63.4308 36.6782ZM69.4804 34.4112C69.5143 36.538 69.5939 36.5226 69.7668 37.9948C69.6364 37.9282 69.5062 37.8569 69.377 37.7902C69.4114 36.6625 69.4455 35.539 69.4804 34.4112ZM72.507 34.6682C72.5072 34.6682 72.5074 34.6682 72.5076 34.6682C72.5419 34.332 72.5764 33.9946 72.6104 33.6631C72.6532 34.4214 72.6955 35.1765 72.7382 35.9348C72.8708 35.219 73.0049 34.5033 73.1387 33.7829C73.1731 36.1015 72.8956 35.7305 72.7857 37.354C72.5507 36.6606 72.4145 35.3175 72.3547 33.3531C72.4052 33.7896 72.4558 34.2317 72.507 34.6682ZM36.3546 26.6913C36.3346 27.3354 36.3159 27.98 36.2955 28.6241C36.3759 28.9139 36.4515 29.1345 36.5341 29.4708C36.5786 26.6718 36.7099 29.1398 36.9308 28.9575C37.6086 28.3946 37.2227 24.0683 38.1523 30.3884C37.6269 30.1099 37.9609 33.0844 37.7599 35.3966C37.6152 33.6503 37.7377 29.6912 37.4933 28.8819C37.2228 30.7496 36.9618 32.4897 36.6252 33.7034C36.6507 34.0052 36.6763 34.3081 36.7018 34.6099C36.7551 34.4163 36.8079 34.2215 36.8613 34.0279C36.8318 34.8405 36.8036 35.646 36.7736 36.4679C36.7741 34.6266 36.6025 35.6634 36.5331 33.551C36.5028 32.6107 36.5388 31.3025 36.5544 30.4019C36.3842 29.9204 36.2092 29.4803 36.0362 29.0129C36.0795 28.2606 36.1227 27.5074 36.1656 26.7551C36.2287 26.7288 36.2907 26.7093 36.3531 26.6831C36.3536 26.6858 36.3541 26.6885 36.3546 26.6913ZM4.5511 37.8464C4.66998 35.6523 5.00285 35.2788 5.26653 37.7069C5.02905 37.7522 4.79098 37.8011 4.5511 37.8464ZM72.3028 31.7335C72.3328 32.105 72.3619 32.4725 72.3918 32.844C72.3138 33.5351 72.2353 34.2215 72.1578 34.9126C72.1148 33.838 72.0713 32.7631 72.0278 31.6932C72.119 31.705 72.2112 31.7216 72.3028 31.7335ZM66.31 33.0811C66.377 33.0142 66.384 33.0493 66.4739 33.2004C66.4738 33.1995 66.4737 33.1986 66.4736 33.1976C66.509 33.254 66.811 33.8743 66.8012 34.7027C66.6599 34.7205 66.5088 34.7105 66.3647 34.7144C66.3457 34.1701 66.3302 33.63 66.31 33.0811ZM67.9969 33.5202C67.9971 33.5221 67.9973 33.5239 67.9976 33.5257C68.0512 33.6502 68.1056 33.9048 68.1589 33.9501C68.0041 35.2576 67.9186 32.9212 67.7572 33.5869C67.5979 34.2572 67.5232 35.5494 67.2902 32.3518C67.3331 31.8708 67.3749 31.1832 67.4176 30.6231C67.6997 31.8967 67.7431 30.6901 67.9023 29.4236C67.9339 30.7923 67.9653 32.1516 67.9969 33.5202ZM39.7799 33.0194C39.7554 31.4356 39.8784 32.9852 39.8847 33.0037C39.8846 33.0055 39.8846 33.0074 39.8846 33.0092C40.2367 31.5255 39.8696 33.8872 40.2757 34.116C40.2347 34.5139 40.1958 34.934 40.1557 35.3365C40.0313 34.5778 39.8994 33.7177 39.7799 33.0194ZM53.3203 32.6124C53.3408 33.073 53.3621 33.5346 53.3826 33.9953C53.142 33.8968 53.1482 35.7128 52.8925 34.068C53.0342 33.5783 53.1768 33.092 53.3201 32.6069C53.3202 32.6087 53.3202 32.6106 53.3203 32.6124ZM65.0374 29.7612C65.2711 28.8742 65.4528 28.4812 65.7409 29.871C65.7411 29.8728 65.7414 29.8747 65.7416 29.8765C65.7584 29.9621 65.7149 30.9282 65.7403 31.1706C65.788 31.025 65.8352 30.8018 65.8828 30.6282C65.9108 31.4002 65.9385 32.172 65.9663 32.9393C65.8136 32.7245 65.6611 32.5099 65.5086 32.2951C65.5426 32.7461 65.577 33.1931 65.611 33.6441C65.493 33.8802 65.3758 34.1155 65.2586 34.3516C65.2667 33.0846 65.2748 31.8173 65.2825 30.5457C65.2007 30.2825 65.1191 30.029 65.0374 29.7612ZM49.1987 27.7187C49.2606 28.2197 49.2155 29.0657 49.2979 29.4959C49.3807 29.9206 49.4626 28.9781 49.49 30.3982C49.4121 30.5922 49.326 30.8145 49.2447 31.0179C49.6374 33.5652 49.8203 31.2393 49.949 34.3987C49.6487 33.5901 49.4369 33.9794 49.2041 34.8648C49.1162 32.3563 49.2993 30.1773 49.0381 27.8295C49.0911 27.7948 49.1463 27.7449 49.1984 27.7242C49.1985 27.7224 49.1986 27.7206 49.1987 27.7187ZM75.4746 0.181284C75.6442 0.368683 76.0046 -0.663443 76.2467 0.794218C76.3062 1.15344 76.576 5.81709 76.5877 6.43233C76.6252 8.50438 76.4199 8.79075 76.6739 10.1363C76.5981 10.1519 76.5259 10.2312 76.4513 10.27C76.4937 11.6619 76.5358 13.0501 76.5775 14.4374C76.6647 14.226 76.7522 14.0135 76.8398 13.7974C76.8537 14.2583 76.8677 14.7202 76.8817 15.1811C76.5519 15.1972 76.7833 16.9723 76.6469 18.6334C76.8212 19.4681 76.9968 20.2987 77.171 21.1334C77.0783 21.0329 76.9699 20.9592 76.8877 20.8398C76.9257 23.2005 77.1042 22.6338 77.1459 23.0706C77.3794 25.539 76.4213 24.3105 76.419 27.7473C76.5746 28.126 76.7376 28.4953 76.8971 28.8692C76.8624 29.2938 76.8271 29.7186 76.7925 30.1432C76.3999 27.781 75.9989 26.9497 75.5722 25.4824C75.5385 25.5809 75.5049 25.6819 75.4718 25.7758C75.505 26.8413 75.5376 27.9029 75.5708 28.9685C75.5197 29.0953 75.468 29.2213 75.4171 29.3481C75.5002 25.8344 75.2817 25.8869 74.9715 23.7509C75.0852 22.5143 75.2754 23.2584 75.214 20.9602C74.7658 22.739 74.1574 20.2519 73.7282 22.2591C73.6197 22.7552 73.686 25.7203 73.4004 25.4531C73.4026 25.127 73.391 24.5385 73.3875 24.11C72.9363 25.541 72.6656 26.3965 72.1377 24.96C72.191 26.025 72.2439 27.0945 72.297 28.1595C72.3895 27.6263 72.4823 27.0847 72.5748 26.5515C72.687 28.3096 72.5986 29.0887 72.9128 29.0629C73.1707 29.0431 72.9993 28.2695 73.0577 27.7465C73.1369 27.0324 73.2524 28.431 73.3373 27.633C73.4032 27.0213 73.2841 25.5712 73.5005 25.9343C73.459 27.8172 73.4176 29.7615 73.3769 31.6677C73.3168 31.2451 73.257 30.816 73.1969 30.3888C73.2364 29.8848 73.2754 29.3874 73.3151 28.8834C73.1556 29.7907 73.0056 30.6464 72.8425 31.5864C72.8404 28.866 72.6727 29.8898 72.5769 30.2134C72.4276 30.7194 72.5223 28.8449 72.424 29.1593C72.3259 29.4785 72.261 31.5717 72.0614 31.1292C72.1346 29.9165 71.9712 28.8344 71.9718 27.7165C71.9724 26.5987 72.1677 26.3467 71.9462 25.132C71.5974 26.0672 72.0985 30.3123 71.8651 31.0074C71.5859 31.8431 71.3513 24.9097 71.4051 23.4167C71.4475 22.2418 71.6955 22.4721 71.7394 21.3018C71.2548 19.203 71.3501 23.3665 71.2954 24.183C71.0979 27.1549 71.0894 19.2355 70.8408 22.106C70.8114 20.6257 70.7844 19.2943 70.7564 17.8745C70.7081 18.1458 70.6804 18.5055 70.6196 18.7212C70.8832 21.6005 70.7212 21.4807 70.6394 21.4872C70.5061 21.4997 70.7454 22.9015 70.7183 23.2655C70.6487 24.2395 70.4856 23.8019 70.6091 25.0703C70.5534 24.48 70.4941 23.8881 70.4374 23.3025C70.2988 24.043 70.086 30.2297 70.4017 28.9737C70.425 31.2698 70.2865 30.1693 70.1908 29.8222C70.0951 29.4755 70.1325 30.9372 70.0495 30.6691C69.7194 29.5964 69.8563 27.091 69.8566 25.1298C69.4884 26.4898 69.902 27.3733 69.3491 28.2908C69.3334 29.889 69.6406 31.5864 69.4431 32.5138C69.3335 29.7405 69.1209 27.7517 68.7825 26.8379C68.768 27.4765 68.7538 28.1208 68.7394 28.7594C68.5033 26.2031 68.5225 23.5382 68.2867 26.7214C68.3078 20.8743 68.286 24.6152 67.9419 22.2438C67.8721 21.7657 67.9739 20.5501 67.8778 19.9376C67.8342 19.6614 67.7694 20.5787 67.6625 19.8745C67.612 19.5264 67.3452 17.279 67.2268 18.3528C67.407 21.1806 67.1942 23.5958 67.4913 25.9314C67.0403 25.3654 66.7729 26.7325 67.1584 22.8602C67.0254 22.0065 66.8925 21.1565 66.7597 20.3074C66.7007 20.9845 66.6411 21.6563 66.5818 22.3287C66.5086 20.0026 66.5024 19.3497 66.2124 19.767C66.3282 19.2144 66.4436 18.6527 66.5608 18.0955C66.5529 17.6256 66.5583 17.1369 66.5419 16.6811C66.4034 17.5789 65.9613 17.9755 65.8692 18.5975C65.7768 19.2196 65.992 19.3834 65.9768 19.9848C65.8487 24.9441 65.7713 21.2911 65.6075 22.146C65.5118 22.6518 65.7879 23.1907 65.7351 23.4064C65.5394 24.1972 65.3674 21.568 65.1748 21.5397C65.2838 23.0317 65.3928 24.547 65.5003 26.0531C65.2973 25.9794 65.074 25.9723 64.9022 26.4569C64.8348 26.6461 64.9205 27.7557 64.9107 27.8305C64.8654 28.2137 64.6325 28.8254 64.6068 28.8308C64.4099 28.8451 64.3611 27.3064 64.1677 27.2275C64.239 27.0951 64.3063 26.9757 64.3763 26.848C64.3397 24.3521 64.3041 21.8563 64.2678 19.3558C64.0738 19.1796 63.8805 19.0071 63.6873 18.8309C63.8483 19.6601 64.01 20.4854 64.1713 21.3147C64.0122 23.3365 63.8551 25.3628 63.6998 27.3892C63.5537 26.1541 63.4079 24.9193 63.2618 23.6842C62.9709 24.0195 63.1772 29.0441 62.9079 24.6451C62.8306 25.0199 62.7536 25.3945 62.6766 25.7646C62.6708 25.136 62.6649 24.5061 62.6591 23.8775C62.5645 24.267 62.4702 24.6539 62.3764 25.048C62.5524 27.2697 62.7294 29.6078 62.902 31.7643C62.709 32.2538 62.6501 30.3665 62.6054 29.8964C62.4869 28.6512 62.3744 30.3387 62.2757 29.1862C62.242 28.7905 62.4076 27.542 62.2957 26.111C62.2728 25.8336 61.8513 20.5737 61.7064 21.7954C61.7382 22.7496 61.7868 23.9193 61.825 24.9572C61.6019 25.5439 61.3307 20.5664 61.3205 19.1691C61.2216 20.1505 61.0377 20.2378 61.0577 21.7654C60.9938 21.8046 60.9304 21.8419 60.8667 21.8811C60.8215 18.1605 60.5711 18.8487 60.6512 22.047C60.7647 22.1227 60.8786 22.2027 60.9926 22.2784C61.0273 26.2005 61.4359 28.556 60.6244 24.9467C60.4281 22.9119 60.871 25.2172 60.7152 23.6937C60.4982 22.8108 60.3434 23.5598 60.1203 22.1457C59.8428 20.3792 60.063 18.665 59.6152 20.9386C60.9328 26.5588 59.5791 24.7638 59.0982 26.5357C58.7708 20.9547 58.2474 19.2002 57.6719 20.8825C57.7881 22.4349 57.9602 21.6275 58.0915 22.1356C58.2226 22.6439 58.1284 23.5702 58.2945 24.2917C58.4606 25.013 58.7965 25.9901 58.9769 27.0836C58.8809 27.9674 58.3441 30.0669 58.6633 27.5553C58.3155 26.0245 58.1241 24.4461 57.7474 24.1693C57.7169 26.5978 57.7739 28.1075 57.4215 28.1892C57.5205 24.8125 57.0396 22.4839 57.0134 18.9998C57.2929 19.8023 57.2632 23.1904 57.4624 24.8051C57.4826 24.9665 57.6904 24.1106 57.7474 24.1693C57.4099 21.1375 57.2898 20.009 57.3183 16.3875C57.1595 16.7095 57.0398 16.2589 57.0814 17.9863C57.0216 17.2383 56.9615 16.4897 56.9022 15.7416C56.848 15.7621 56.801 15.8331 56.7426 15.8211C56.9088 18.4234 56.7009 16.8249 56.6306 18.0095C56.5606 19.1954 56.7755 21.2468 56.4771 21.2847C56.5972 21.8911 56.7059 22.4112 56.8218 22.9852C56.6514 23.6618 56.4795 24.3427 56.302 25.0196C56.4967 26.6064 56.8721 28.9606 56.9327 31.055C56.8208 30.2673 56.5544 31.6672 56.5224 31.7256C56.3977 31.9441 56.425 30.621 56.414 30.5888C56.1849 29.954 56.0303 30.4095 55.8837 28.4111C55.7595 29.3193 55.6254 28.8085 55.4636 28.8652C55.3747 28.8962 55.4429 30.3654 55.3807 30.0882C54.9683 28.2387 55.2317 26.3279 54.6892 29.9666C54.8058 30.9876 54.9221 32.0322 55.039 33.0625C54.977 33.4515 54.9158 33.8425 54.8542 34.2314C54.7974 34.047 54.7411 33.8612 54.6844 33.6768C54.6074 31.4569 54.5305 29.2323 54.4536 27.0124C54.394 26.8933 54.3344 26.7778 54.2749 26.6587C54.3619 26.4366 54.4494 26.2148 54.5368 25.9927C54.5318 25.6018 54.5262 25.2107 54.5212 24.8198C54.3586 24.2197 54.1964 23.6141 54.034 23.0094C54.0586 23.7817 54.0834 24.5594 54.108 25.3317C53.7463 24.2681 53.7122 23.6148 53.4799 25.7526C53.2411 25.7378 53.1653 28.9734 53.0788 30.3374C53.0143 29.9064 52.9495 29.4699 52.8845 29.039C52.8767 29.6824 52.8685 30.323 52.8608 30.9664C52.7665 30.0751 52.6713 29.1838 52.5771 28.2972C52.617 30.3265 52.6223 30.9603 52.8888 31.6634C52.898 34.1888 52.436 33.0915 52.234 32.2509C52.0806 31.6129 52.1467 29.5037 52.121 29.2484C52.0345 28.3809 51.8486 29.1391 51.7985 28.9965C51.584 28.4033 51.4491 28.5136 51.2566 28.0548C51.2189 27.963 51.0732 26.6332 51.0635 26.5917C50.9918 26.366 50.8119 25.7239 50.7935 25.7059C49.8474 24.7452 51.0356 30.4928 50.1733 29.9155C50.2276 30.6773 50.2798 31.4342 50.3335 32.196C50.2722 32.245 50.2102 32.2916 50.149 32.3406C50.0446 31.7061 50.0964 30.543 49.974 31.4843C49.948 30.5439 49.9221 29.6031 49.8968 28.6673C49.8473 29.1772 49.8004 29.683 49.7496 30.1929C49.5139 26.9351 49.0764 26.2102 48.9542 22.3796C48.9135 21.0762 49.1551 19.7277 48.9459 18.3423C48.8082 18.0734 48.955 19.6262 48.9064 19.7099C48.5557 20.2922 48.492 18.1101 48.3629 18.6978C48.3759 19.6336 48.3885 20.5877 48.4014 21.5328C48.3335 21.2607 48.2654 20.9885 48.197 20.7163C48.2086 21.3451 48.2197 21.9745 48.2314 22.6033C48.2866 22.643 48.3487 22.6831 48.3997 22.723C48.4264 25.159 47.8437 26.2769 47.9999 24.1929C48.0635 23.3469 48.2567 23.6976 48.0294 20.8274C47.8774 21.2483 47.7038 21.679 47.5445 22.1002C47.5142 21.4815 47.4842 20.8617 47.4538 20.243C47.2327 20.6532 47.548 23.119 47.6007 24.4453C47.548 24.4847 47.4947 24.5195 47.4422 24.5589C47.3951 23.9601 47.348 23.3333 47.3006 22.7532C47.3369 23.7076 47.3961 25.927 47.2023 25.11C47.0774 24.5783 47.1424 22.164 46.9591 22.5059C47.0342 23.9941 47.1786 25.8044 46.9795 26.2928C46.894 24.7399 46.8053 23.3177 46.7215 21.6854C46.5033 23.1895 46.2782 20.7952 46.0243 22.5441C45.8629 23.6508 45.7449 27.5607 45.3625 21.56C45.2061 21.4081 45.3161 22.9019 45.2859 23.24C45.1438 24.8401 44.8699 21.9986 44.824 21.8327C44.5325 20.7693 44.4608 21.7599 44.1986 20.4242C44.2568 21.5358 44.3075 22.5882 44.3624 23.6719C44.4796 21.9982 44.5788 22.0723 44.8516 22.4198C44.7742 22.6467 44.6972 22.8788 44.6201 23.1058C44.6724 24.0076 44.7244 24.9096 44.7759 25.8068C45.4256 22.2183 45.473 27.8428 44.8577 29.0993C44.7284 27.4317 44.597 25.7686 44.4678 24.0963C44.1812 26.6441 43.9036 24.4547 43.4391 23.9478C43.3839 23.8899 43.2345 24.8601 43.1549 24.9112C43.1565 24.9175 43.1581 24.9239 43.1598 24.9302C43.177 26.5095 43.2773 27.2323 43.3464 28.6415C43.3097 28.8202 43.2731 28.9982 43.2366 29.1769C43.0914 28.1066 43.0877 27.2226 42.9048 27.4868C42.9774 28.5557 43.0497 29.6249 43.1222 30.6938C42.9111 30.7402 42.7246 29.5836 42.5442 30.0949C42.5602 29.6886 42.5758 29.2813 42.5919 28.875C42.1098 27.8612 42.1819 21.5551 41.9888 24.7008C41.9437 24.1529 41.8989 23.5997 41.8538 23.0518C41.9839 22.9109 42.1145 22.7741 42.2447 22.6333C42.2135 21.8565 42.1827 21.083 42.151 20.3062C42.0149 20.5452 41.8787 20.7915 41.7434 21.0306C41.8268 20.5048 41.911 19.9783 41.9949 19.4525C41.8091 19.0878 41.6236 18.7228 41.4383 18.3581C41.7433 21.2062 41.5264 21.5657 41.6948 24.3921C41.2935 22.051 40.9211 18.9581 40.5506 20.9652C40.4774 21.365 40.615 23.3392 40.2499 20.9456C40.4538 24.0874 40.1949 25.5777 40.3708 28.5665C40.4552 28.4182 40.5445 28.3234 40.6229 28.1428C40.4779 27.1098 40.3334 24.2566 40.4457 23.4029C40.5892 22.315 40.958 24.2805 40.8056 21.1133C40.8891 21.2587 40.9645 21.3433 41.0448 21.4655C41.0489 22.2527 41.0539 23.0448 41.0586 23.8319C41.2163 22.5905 41.3682 22.9852 41.5581 24.9617C41.3244 25.4288 41.0921 25.891 40.8603 26.3535C40.9034 26.4866 40.9471 26.6207 40.99 26.7491C40.8895 28.7814 41.1712 30.6896 40.836 31.1382C40.7967 30.2124 40.7571 29.2861 40.7176 28.3558C40.7005 30.8366 40.3419 30.8393 40.5839 33.6815C40.4366 32.8117 40.3897 32.2596 40.3977 33.7971C40.0158 31.6465 39.7094 28.919 39.663 25.6485C39.581 26.1789 39.4991 26.71 39.418 27.2404C39.5195 28.1307 39.6208 29.0168 39.7222 29.9071C39.5362 29.8596 39.3491 29.8131 39.1645 29.7702C39.0266 27.1289 39.4805 28.9526 39.2664 26.5957C39.2235 26.1226 39.1709 27.1425 39.1329 26.8767C38.7282 24.0003 39.2522 26.0679 39.071 23.858C38.6325 23.1927 38.7888 19.4689 38.3709 22.6115C38.3212 21.8494 38.2697 21.072 38.2213 20.3144C38.0248 20.2775 38.12 21.9998 37.9659 22.3332C37.8696 22.5406 37.5977 19.5211 37.576 21.5868C37.5728 21.9676 37.9386 25.6565 37.5201 25.5127C37.1956 25.4013 37.2075 22.7819 36.9923 21.8639C36.7768 20.9461 36.552 24.5879 36.2452 20.4854C36.3605 21.0253 36.4888 21.3135 36.6095 21.7552C36.6131 20.9533 36.6159 20.16 36.6192 19.3628C36.4382 20.4061 36.1455 19.1999 36.0809 21.1144C35.6397 18.2118 35.4218 20.9347 35.6691 24.224C35.7477 23.7444 35.5709 22.3134 35.7537 23.222C35.804 23.989 35.8548 24.7521 35.905 25.519C35.6623 25.4371 35.4981 25.4664 35.4971 23.1213C35.4575 23.0672 35.4183 23.0132 35.3787 22.9591C35.4515 24.6528 35.5253 26.3527 35.598 28.0464C35.5629 28.2391 35.5276 28.4304 35.4925 28.6232C35.4262 28.2535 35.3595 27.8796 35.2923 27.5053C35.2331 24.8226 35.3424 24.7288 34.8968 23.2485C34.9392 24.1743 34.9809 25.0964 35.0233 26.0222C34.6542 24.8601 34.5402 22.6179 34.1506 22.7199C34.301 19.4916 34.7349 25.1813 34.4303 18.7338C34.5261 19.1535 34.6229 19.5789 34.7187 19.9987C34.6864 19.0631 34.6538 18.1262 34.6209 17.1906C34.2353 17.703 33.8503 23.8842 33.3831 19.8197C33.3735 20.3189 33.3608 20.753 33.3525 21.2894C32.9681 18.8412 33.1143 24.3715 32.6921 21.2025C32.6483 20.8699 32.4607 15.6764 32.1163 15.8792C32.1571 16.5534 32.2156 17.6886 32.2631 18.5393C32.167 18.129 32.0704 17.6995 31.9744 17.28C31.9903 17.9037 32.0054 18.5272 32.0215 19.1557C32.1633 19.3914 32.305 19.6311 32.4469 19.8668C32.3487 20.0859 32.2498 20.3052 32.1517 20.5242C32.3413 21.5359 32.4056 21.5437 32.3979 23.1796C32.2799 23.2831 32.1621 23.3926 32.0442 23.4961C32.0515 23.9148 32.059 24.3384 32.0663 24.7571C32.1848 26.0009 32.3027 27.2172 32.4221 28.4796C32.0549 27.476 31.7736 27.4339 31.4117 24.9944C31.3502 24.5824 31.4208 22.9513 31.2055 24.4296C31.1602 23.5696 31.1193 22.8715 31.0765 22.0766C30.8422 24.5029 30.6934 23.7891 30.2469 22.0666C30.5597 23.6789 30.2993 22.633 30.2807 23.5057C30.2681 24.107 30.4243 24.0108 30.436 24.6394C30.4475 25.2636 30.3588 27.7904 30.5515 28.0846C30.743 22.9049 31.1554 29.0672 31.5988 26.561C31.544 27.2304 31.4887 27.9012 31.434 28.5705C31.4961 29.0195 31.552 29.4268 31.6187 29.9035C31.2577 28.9092 31.4411 29.5576 31.3504 30.359C31.2594 31.1606 31.0576 31.8475 30.9112 32.0736C30.865 32.1446 30.8621 30.9851 30.7455 30.8827C30.666 30.8119 30.54 32.5371 30.3959 30.5171C30.3019 29.2022 30.4628 25.5616 30.0022 25.5922C29.8541 24.3058 30.0941 24.6961 30.0915 24.5403C30.0586 23.0033 29.7204 21.8626 29.6454 23.041C29.6396 23.1427 29.7999 24.334 29.7098 24.8087C29.4965 25.9425 29.2771 24.5779 29.0162 22.73C29.101 24.908 28.9999 27.5187 28.6819 26.7272C28.6971 27.3509 28.7133 27.9801 28.7288 28.6084C28.7566 28.2766 28.7846 27.9492 28.8124 27.6174C28.8783 28.0059 28.942 28.288 29.0101 28.7463C28.7542 29.295 28.8567 32.2973 28.7736 33.4015C28.4888 37.1735 28.3932 29.2276 28.4117 27.8564C28.498 28.4071 28.5854 29.0223 28.6725 29.6009C28.63 28.843 28.587 28.0793 28.5447 27.3166C27.854 27.3726 28.206 22.3995 27.7881 21.0066C27.8747 24.7415 27.6351 25.1132 27.1957 22.7613C27.1603 22.7817 27.1241 22.7881 27.0889 22.8131C27.1086 23.3573 27.1479 24.1888 27.155 24.5477C26.7899 25.199 26.4485 19.457 26.3855 18.9145C26.1057 16.5084 26.1335 19.8545 26.0857 19.8854C25.8846 20.0115 25.7546 18.5312 25.588 19.1775C25.4103 19.8757 25.6073 21.0069 25.5911 22.0285C25.5777 22.8398 25.4185 22.9917 25.389 23.8334C25.3842 23.1463 25.3831 22.4724 25.378 21.7828C25.1161 20.8581 24.8952 19.9552 24.6364 19.7389C24.5897 24.7697 23.9569 16.3164 24.3729 23.1769C24.6306 23.6358 24.7986 24.412 25.0063 26.1553C24.862 26.3857 24.7172 26.6104 24.5726 26.8408C24.4923 26.0895 24.4261 25.3567 24.3369 24.5918C24.2954 26.1972 23.9944 25.523 23.9102 25.9972C23.5207 28.2204 23.7984 30.9426 23.1387 26.3764C23.4416 25.9147 23.3384 23.687 23.672 23.9792C23.5297 22.3914 23.3826 22.7285 23.3996 20.8162C23.1124 21.3003 23.2906 22.9986 23.2397 24.516C23.1956 25.8241 22.989 25.9067 23.0785 27.5999C23.0143 26.6697 22.9564 25.7689 22.8923 24.8399C22.6915 24.8584 22.4899 24.8682 22.2883 24.8867C22.3301 23.9106 22.3716 22.9327 22.4133 21.9613C22.3316 21.597 22.2499 21.2342 22.1682 20.87C21.8061 23.9168 20.7087 18.4127 21.186 26.0034C20.9588 26.256 20.886 25.3045 20.6919 23.8729C20.7035 24.4503 20.711 24.9306 20.7255 25.5732C20.5444 24.9763 20.5226 27.1469 20.361 26.5902C20.1996 26.0377 20.0748 23.9939 20.2077 27.4327C20.0753 26.4505 19.9508 25.6352 19.8221 24.7227C19.8035 25.5061 19.7845 26.2805 19.7661 27.0592C19.6642 26.6535 19.5639 26.2494 19.4641 25.8437C19.4928 27.4867 19.1391 26.7935 19.0445 27.9019C18.8313 26.1388 18.5921 20.5686 18.3169 21.5806C18.3853 22.9617 18.4533 24.3389 18.5217 25.72C18.4359 25.4348 18.35 25.1505 18.2636 24.8653C18.2396 24.4146 18.2162 23.9638 18.1923 23.5131C18.2358 23.651 18.2788 23.7882 18.3225 23.9308C18.2568 23.1692 18.192 22.411 18.127 21.6493C18.0643 22.7846 18.0011 23.92 17.937 25.0554C18.1261 25.9047 18.3153 26.7546 18.5042 27.6039C18.3578 28.6264 18.181 27.6205 18.0635 28.7583C17.8363 26.8572 17.8426 25.7559 17.8119 23.6835C17.7659 23.8626 17.7189 24.0355 17.6727 24.2146C17.6189 22.1429 17.4754 20.9133 17.7957 21.0672C17.7487 20.4776 17.7024 19.9156 17.655 19.3029C17.6077 19.3981 17.5529 18.9005 17.5064 19.1306C17.3798 19.7607 17.4175 23.4019 17.4827 24.6763C17.5171 25.3439 17.6145 24.0602 17.649 25.0045C17.733 27.3074 17.3387 26.2888 17.9425 28.5793C17.8383 30.0522 17.7532 28.9485 17.55 28.533C17.5974 29.2995 17.6442 30.0612 17.691 30.8278C17.589 30.4781 17.4916 30.1294 17.3919 29.7795C17.34 25.8337 16.6585 24.38 17.0678 20.9088C16.8961 20.739 16.7246 20.5683 16.5524 20.3892C16.5691 19.983 16.5859 19.5809 16.6025 19.1748C16.6857 19.3856 16.7683 19.593 16.8512 19.7992C16.7326 19.0633 16.6141 18.3318 16.4955 17.5959C16.3285 18.5213 16.307 19.9345 16.2857 21.6787C16.5804 22.9384 16.4284 21.2071 16.601 20.8544C16.6413 21.9567 16.693 22.9701 16.7257 24.1286C16.5321 21.85 16.2857 23.5241 16.2165 23.6388C16.0063 23.9874 16.088 21.737 15.9359 21.6962C15.7838 21.656 15.6616 22.9984 15.4454 20.7794C15.4996 22.0259 15.5633 23.3153 15.6195 24.45C15.4009 24.8693 15.3865 23.3946 15.3542 23.2049C14.8302 20.0851 14.7425 22.7409 14.314 23.08C14.3856 23.4639 14.4563 23.8102 14.5274 24.1708C14.304 26.8313 14.4946 26.0117 14.8181 26.8747C14.5378 26.6205 14.4747 28.8811 14.31 29.559C14.1454 30.2357 13.7677 29.0913 13.6103 28.1937C13.8289 26.7307 14.1647 27.6761 14.4527 27.2635C14.3663 25.9949 14.2888 24.9214 14.1963 23.5274C14.12 26.2005 13.9396 24.4225 13.8643 24.0714C13.6428 23.0415 13.7406 25.3291 13.5326 22.8726C13.5712 23.719 13.6031 24.4307 13.6394 25.2212C13.2541 24.8825 12.7845 23.4022 12.6746 26.5378C12.5724 24.5053 12.4784 22.547 12.3714 20.4727C12.2771 22.0095 12.0823 20.4472 11.9654 20.8103C11.849 21.1737 11.9632 22.8151 11.8339 23.454C11.8099 23.5715 11.7104 22.5452 11.6696 23.3065C11.6287 24.0718 11.585 29.7519 11.3617 24.7999C11.2276 24.7818 11.0942 24.6055 10.96 24.5268C11.077 24.2427 11.194 23.9674 11.3096 23.6833C11.155 22.487 11.0012 21.2942 10.8466 20.0979C10.8739 21.1688 10.9019 22.259 10.9292 23.3159C10.6864 24.6302 10.4033 22.8884 10.1323 23.3133C10.0865 23.3849 10.2809 25.4969 10.0454 24.9656C9.80927 24.4339 9.50197 20.49 9.18961 22.0294C9.17397 22.1092 9.17649 25.1385 8.96596 23.0491C8.9182 22.5756 9.01941 21.8685 8.927 21.2476C8.83469 20.6266 8.5054 20.1252 8.42653 18.6414C8.44913 19.1671 8.48851 19.7111 8.51756 20.2459C8.47371 20.499 8.42924 20.7525 8.38449 21.001C8.34561 20.0752 8.3063 19.148 8.26762 18.2268C8.0405 20.3927 8.00804 23.9135 7.52339 22.7664C7.69676 24.1068 7.87044 25.4526 8.04339 26.793C8.04347 25.847 8.04294 24.8946 8.04263 23.9486C8.26703 24.3179 8.49121 24.6844 8.71419 25.0537C8.70911 23.9773 8.70344 22.9041 8.69815 21.8277C8.75855 21.9653 8.81821 22.0985 8.87852 22.2361C8.89342 23.0138 8.90803 23.7873 8.92233 24.565C9.02476 24.3702 9.12689 24.1714 9.2282 23.9766C9.17765 28.5722 8.59489 23.6092 8.76466 27.4456C8.69334 26.852 8.62182 26.2543 8.55037 25.656C8.59673 27.5176 8.4764 26.9857 8.28749 26.699C8.36165 27.6143 8.43966 28.5171 8.5109 29.4419C8.28799 28.1546 7.99269 28.2911 7.80016 27.7994C7.71542 27.5835 7.74369 26.2316 7.71513 26.0738C7.56845 25.2496 7.42804 27.6117 7.37408 27.4272C7.05235 26.3294 6.71176 21.8729 6.50542 24.8252C6.85078 25.54 6.66593 25.2395 6.83726 26.8691C6.89089 27.38 7.34134 28.434 6.8077 27.9777C6.74583 27.9205 5.69319 24.8697 5.92194 22.4959C5.79528 23.2552 5.70528 24.1312 5.59177 24.9366C5.04273 18.7205 5.3599 24.5669 5.56729 27.7845C5.51296 27.8003 5.46189 27.8348 5.40532 27.8367C5.40961 24.4489 4.79112 24.2596 4.63841 25.9749C4.58729 26.5451 4.82029 27.6216 4.675 28.1391C4.58955 27.9044 4.49123 27.6001 4.40027 27.3376C4.59114 29.4746 4.38488 30.3075 4.46075 32.4853C4.24563 30.5496 3.99421 26.4397 4.00235 24.2072C3.90875 25.1142 3.81389 26.02 3.71931 26.9316C3.79419 27.4463 3.86967 27.9565 3.94455 28.4712C3.49506 27.1162 3.06157 30.2476 2.83709 25.6744C2.78559 25.7087 2.73333 25.7386 2.6817 25.7729C2.69036 26.5461 2.69959 27.3208 2.70819 28.094C2.44767 27.4316 2.18671 26.7646 1.92448 26.1021C2.12369 25.6158 2.1393 24.5144 2.3914 25.4003C2.27681 24.5144 2.16046 23.6236 2.04752 22.7376C1.78639 25.1409 1.79008 26.7148 1.25372 26.0189C1.22956 25.987 0.777278 23.9927 0.757746 23.7976C0.668895 22.9058 0.721516 21.6047 0.680296 21.1539C0.565634 19.8901 0.00771835 16.7251 0.00187898 16.2454C-0.0607915 10.3581 1.4624 10.2325 1.85363 9.91686C5.97002 6.64461 10.3032 10.6873 14.4804 9.79669C14.5228 9.78382 14.468 8.91635 14.4849 8.8784C14.5922 8.65553 14.7623 10.004 14.8075 10.058C14.9039 10.1692 14.8015 8.92114 14.8683 8.91746C15.5607 8.90261 16.2301 9.61074 16.9074 9.36723C16.9519 9.35133 16.9488 10.3535 17.0204 10.1733C17.0572 10.0747 17.1188 8.53471 17.2097 8.50751C17.5272 8.41459 17.8172 8.89487 18.152 8.85692C18.3351 8.835 18.6155 8.95336 18.8185 8.92109C18.9086 8.90721 18.9742 8.20095 19.0635 8.17349C19.1905 8.13523 19.2274 9.55944 19.2511 9.64696C19.355 10.0292 19.2976 8.46676 19.3815 8.50027C19.5376 8.56791 19.5923 9.61036 19.782 9.51336C19.9175 9.44205 20.1964 8.60457 20.3588 8.35483C20.8171 9.54619 21.311 9.04264 21.6745 8.62512C21.8892 8.37765 21.9767 9.83667 22.0684 9.82781C22.3908 9.78471 22.5499 7.9088 22.8492 7.83438C23.2472 7.73706 23.6663 8.95322 24.0612 9.02365C24.1254 9.03464 24.0485 7.69768 24.1091 7.66046C24.3336 7.52412 24.6162 7.26692 24.8296 7.44807C25.067 7.64701 25.2432 9.5846 25.4495 9.17864C25.5099 9.05814 25.4492 7.35485 25.5492 7.13109C25.7092 6.77909 25.973 8.27121 26.1037 8.43297C26.2826 8.64832 26.0544 6.92092 26.2923 7.1428C26.3021 7.1524 26.3946 8.39054 26.4405 8.32909C26.5745 8.15491 26.5143 7.1793 26.7262 7.26252C26.7467 7.27443 27.0777 8.44268 27.1052 8.44612C27.2672 8.4571 27.6127 8.85522 27.6964 8.59956C27.9959 7.69017 27.6382 5.83832 28.1211 9.87169C28.2021 8.87501 28.2813 7.86493 28.3712 6.8958C28.3233 7.79791 28.7523 9.076 28.7741 8.99104C28.9556 8.3062 28.7535 6.73754 29.0366 6.98513C28.852 10.6399 29.4084 7.43738 29.5621 7.33682C30.3007 6.84956 31.0374 7.72435 31.8005 7.66482C32.0562 7.64314 32.3635 6.85785 32.6362 6.86359C32.6996 6.8617 32.6925 7.72489 32.7491 7.74085C32.8054 7.75097 32.6979 6.78742 32.7639 6.83556C33.1756 7.15189 33.5697 8.96096 33.8237 6.66457C33.8568 6.9933 33.8685 7.25374 33.9146 7.61436C34.1142 5.55839 34.8145 8.27774 35.0473 8.6445C35.4117 9.21457 35.4324 7.83029 35.6883 8.09771C36.0269 8.4549 36.6361 11.1291 36.2137 6.68761C36.4286 6.53785 36.6404 6.48946 36.884 6.89309C36.9112 6.93886 36.946 8.07115 36.9571 8.09394C37.0279 8.25347 37.0019 7.23945 37.0426 7.19096C37.153 7.06049 37.0193 8.28222 37.1693 7.93571C37.2479 7.75028 37.2587 6.86432 37.4985 6.83461C38.9452 6.67041 40.5455 6.91577 42.0528 6.99955C42.1553 7.00443 42.0406 5.91302 42.1719 5.97725C42.6277 6.20008 43.511 8.0074 43.8917 7.73996C44.2664 7.47246 44.1107 5.8758 44.3235 5.19557C44.3645 5.06334 44.3646 5.97704 44.4072 5.98923C44.6935 6.06122 45.0914 7.46981 45.3312 7.67432C45.4899 7.81143 45.4186 6.377 45.5207 6.27013C45.6732 6.11471 45.8962 7.55776 45.983 7.60083C46.3932 7.78884 46.6062 6.61061 46.9997 7.19134C46.9727 6.87611 46.9515 6.58414 46.9268 6.27347C47.3642 6.30718 47.8044 6.34111 48.2488 6.37495C48.2166 6.08725 48.185 5.79704 48.1527 5.50468C48.6808 5.64258 48.7355 8.77237 48.4359 2.17062C48.4637 1.93656 48.4925 1.66538 48.5195 1.45001C48.6376 4.85215 49.0406 7.32953 49.4668 8.18022C49.4979 8.24427 49.5652 4.92012 49.6938 8.83941C49.7078 7.87883 49.7128 7.21685 49.7236 6.37292C49.8524 7.55608 49.9818 8.72516 50.1103 9.90369C50.1487 9.72518 50.1881 9.55283 50.2267 9.37433C50.2044 8.60619 50.1691 7.8091 50.1551 7.05463C50.3608 6.93034 50.8324 7.8633 50.9947 7.7597C51.3898 7.49799 51.7302 5.40653 52.1317 7.63817C52.2792 7.4038 52.0695 5.9022 52.3087 6.08448C52.3626 6.84662 52.4137 7.57712 52.4695 8.36246C52.5364 4.94611 52.6513 7.01874 52.9385 7.72175C53.1329 8.1994 53.2197 7.36195 53.3952 7.51861C53.4399 7.55897 53.4687 8.55996 53.4962 8.52636C53.5876 8.41979 53.8122 7.03276 53.8789 6.99316C54.4806 6.60868 55.0203 6.7448 55.6312 7.09225C55.6968 7.12732 55.58 6.14245 55.6481 6.18209C55.7576 6.24423 55.7456 7.76406 55.8103 7.83642C55.9905 8.02974 55.9387 6.42929 56.1704 6.3377C56.9338 6.03746 57.8814 7.2102 58.7141 7.29112C58.7393 7.29033 58.7082 6.35263 58.7353 6.34246C58.9125 6.29098 59.1336 7.55291 59.2962 7.53392C59.5664 7.50687 59.7303 6.18313 60.0008 6.1795C60.527 6.16806 61.036 6.82794 61.5747 6.84931C62.0128 6.86899 62.3916 6.73275 62.8794 6.72342C65.0256 6.68054 67.1063 3.64634 69.2843 5.1767C69.3402 5.21722 69.3382 6.04645 69.3541 6.01015C69.5047 5.64776 69.4918 4.52929 69.6058 6.86938C69.7981 6.40295 69.8198 4.64225 70.0705 4.76194C70.203 4.82467 70.1748 7.55346 70.3575 6.1424C70.5214 4.86684 70.2702 3.37767 70.8868 4.89079C70.9032 4.9324 71.0182 6.59255 71.1291 6.15703C71.2409 5.72583 71.0714 4.53909 71.3571 4.1737C72.0241 3.31965 72.9615 4.73566 73.7533 4.27587C73.802 4.24683 74.2633 3.34775 74.3503 2.93595C74.5178 2.13579 74.4523 0.901537 74.6868 0.593649C74.8683 0.356833 75.0524 1.75261 75.2669 1.46856C75.2919 1.43406 75.3043 -0.00597191 75.4746 0.181284ZM35.6866 29.5159C35.7075 30.9288 35.8696 36.1253 35.5235 34.5578C35.4907 34.4102 35.4623 30.8327 35.2852 30.2716C35.4147 29.8879 35.5524 29.7591 35.6863 29.5104C35.6864 29.5123 35.6865 29.5141 35.6866 29.5159ZM77.3667 33.296C77.1538 33.0395 76.9411 32.7854 76.7297 32.529C76.8588 31.8974 76.9885 31.2671 77.118 30.631C77.2011 31.5188 77.2836 32.4081 77.3667 33.296ZM52.0158 31.5416C52.016 31.5416 52.0162 31.5416 52.0164 31.5416C51.8344 32.2195 51.6369 32.8992 51.4485 33.5774C51.4526 33.0832 51.4567 32.5869 51.4608 32.0928C51.6006 31.3094 51.7474 30.5268 51.8825 29.7437C51.9269 30.3431 51.9714 30.9422 52.0158 31.5416ZM53.5101 26.2572C53.6691 26.8387 53.6707 27.8289 53.781 28.7896C53.781 28.7877 53.7809 28.7859 53.7808 28.7841C53.8098 29.0342 53.9111 29.2503 53.9486 29.2865C53.9132 28.668 53.8742 28.0575 53.8379 27.4437C54.1146 25.9332 54.9105 31.2374 54.187 33.4113C54.1714 32.6291 54.1555 31.8509 54.1399 31.0688C53.7418 31.3019 53.232 29.6225 53.5101 26.2572ZM32.5634 31.918C32.3425 34.4928 32.2576 35.0376 31.7578 33.3036C31.7822 32.5756 31.8065 31.8477 31.8309 31.1197C31.9348 31.8561 32.038 32.5875 32.142 33.3238C32.1422 33.3238 32.1423 33.3238 32.1425 33.3238C32.1194 32.5463 32.0962 31.7675 32.0724 30.99C32.236 31.2993 32.4003 31.6088 32.5634 31.918ZM66.6792 27.7001C66.911 32.8114 66.8039 29.8396 66.5614 31.0001C66.4776 31.403 66.5935 32.2953 66.5388 32.4458C66.244 33.268 66.127 29.8425 66.1495 28.0576C66.3255 27.9318 66.5043 27.8165 66.6786 27.7001C66.6788 27.7001 66.679 27.7001 66.6792 27.7001ZM74.8896 26.4394C74.8898 26.4394 74.8899 26.4393 74.8901 26.4393C74.9253 27.6867 74.806 28.025 74.9745 29.2038C74.8657 29.2015 74.7569 29.194 74.648 29.1917C74.6774 29.0748 74.7076 28.9633 74.737 28.8464C74.6995 28.4186 74.6617 27.9855 74.6242 27.5577C74.617 28.9925 74.563 28.1597 74.4389 27.6826C74.5039 29.2137 74.5688 30.7459 74.6336 32.277C74.4919 31.8237 74.3498 31.3689 74.2085 30.9156C74.1983 30.5296 74.1881 30.143 74.178 29.757C74.1394 30.2514 74.1016 30.7513 74.0631 31.2457C74.0393 30.7852 74.0154 30.3288 73.9912 29.8683C73.9368 30.2187 73.8824 30.5689 73.8284 30.924C73.7846 29.8081 73.9103 29.3226 73.6746 29.6116C73.7232 28.4647 73.7719 27.3213 73.8215 26.1744C74.1843 26.2595 74.5311 26.3493 74.8896 26.4394ZM64.2465 29.3409C64.6387 29.1156 64.5494 29.9277 64.5281 32.4624C64.4345 31.4218 64.3402 30.3816 64.2465 29.3409ZM43.9082 27.8064C43.8676 29.5376 43.8265 31.2515 43.7818 32.9222C43.5918 33.8953 43.2248 30.759 43.3455 29.5185C43.4914 28.03 43.7823 29.6764 43.9082 27.8064ZM38.6442 28.8097C38.9641 29.5971 38.7912 31.6602 38.7823 32.8587C38.6161 30.9408 38.5153 31.1153 38.3272 30.9C38.4888 30.7678 38.5909 28.676 38.644 28.8042C38.644 28.8061 38.6441 28.8079 38.6442 28.8097ZM48.566 29.5577C48.6783 29.5015 48.7733 29.0149 48.8991 29.5968C48.933 31.2489 48.669 29.755 48.912 32.1964C48.8405 32.2412 48.7689 32.2846 48.6983 32.334C48.7042 31.3183 48.6122 30.563 48.5665 29.5632C48.5663 29.5614 48.5661 29.5595 48.566 29.5577ZM60.4945 31.3996C60.2117 29.4514 60.1951 30.2893 60.0145 31.6508C59.9333 30.06 60.1164 27.3853 60.2665 26.7931C60.3423 28.3283 60.4182 29.8645 60.4945 31.3996ZM7.39922 32.8045C7.38147 30.7739 7.76871 30.4952 7.98609 31.0878C7.97358 31.3896 7.96111 31.6953 7.94871 32.0016C7.76665 32.2691 7.58299 32.537 7.39922 32.8045ZM38.2365 30.7667C38.2689 30.8247 38.2991 30.8678 38.3272 30.9C38.2987 30.9235 38.2686 30.8902 38.2365 30.7667ZM25.8757 22.5293C25.8802 20.6131 25.5698 19.984 25.9453 20.7169C25.9452 20.7151 25.9451 20.7132 25.945 20.7114C26.1931 21.194 26.2489 21.3233 26.4641 21.4623C26.5049 23.9218 26.1234 24.8195 26.7299 25.2991C26.7376 25.301 26.6535 23.8404 26.7559 24.0359C26.7875 24.0967 26.9359 25.2916 27.092 25.634C27.1424 25.7435 27.4989 26.0973 27.0378 26.1424C27.1324 27.8537 27.1893 29.5876 27.2688 31.2484C27.1108 31.7395 26.8139 28.3939 26.6264 28.4851C26.3484 28.6288 26.3624 32.0254 26.0989 27.5806C26.2871 26.4767 26.6958 26.4311 26.8753 29.1031C27.1078 29.1247 27.0706 26.9304 26.8334 25.8551C26.1006 27.2697 26.4618 22.6129 25.8448 24.3949C25.8656 25.0138 25.8682 25.6808 25.8999 26.262C25.5859 24.0953 25.8734 23.2147 25.8757 22.5293ZM27.7647 27.1804C27.6892 28.4941 27.6145 29.8183 27.5394 31.1366C27.4387 29.0061 27.424 27.0906 27.5837 25.8802C27.6439 26.3152 27.7047 26.75 27.7647 27.1804ZM16.2022 28.263C16.231 29.4224 16.2224 30.4864 16.2297 31.5908C16.1476 30.6154 15.1051 29.7197 15.5759 28.74C15.6443 28.5974 16.1809 30.6272 16.2022 28.263ZM62.0052 29.6063C61.8637 28.8325 61.7228 28.0573 61.5821 27.2834C61.7467 26.7849 61.9195 26.2733 62.0764 25.7658C62.0523 27.0456 62.0315 28.3264 62.0052 29.6063ZM41.9257 25.8555C41.977 25.8968 41.883 27.4972 42.0666 27.2376C41.9662 28.2629 41.8686 29.1313 41.7699 30.0959C41.6943 29.3441 41.6184 28.5953 41.5428 27.8435C41.5313 28.3288 41.519 28.8112 41.5075 29.2966C41.4786 28.1977 41.4487 27.1245 41.4202 26.007C41.7622 28.3507 41.6989 25.679 41.9257 25.8555ZM48.8359 21.2656C48.9726 23.6507 48.68 25.0838 49.0377 25.452C49.034 27.0227 48.9619 27.8493 48.7679 27.9968C48.7122 27.3983 48.6568 26.8042 48.6011 26.2058C48.6601 27.8107 48.6323 28.4093 48.566 29.5577C48.5658 29.5559 48.5656 29.554 48.5655 29.5522C48.2684 29.6804 48.2656 29.1446 48.0878 26.5093C48.4663 27.9857 48.3801 25.5749 48.5425 24.1329C48.6542 23.1414 48.8691 23.58 48.8359 21.2656ZM17.2555 28.191C17.1165 30.2151 17.3986 32.0855 16.9073 29.9623C16.9115 29.4494 16.9159 28.9408 16.9199 28.4279C17.0318 28.3439 17.1437 28.2656 17.2555 28.191ZM50.2627 29.4036C50.0955 25.7097 49.7728 22.8418 49.9688 28.8542C50.2211 30.0702 49.9899 26.6691 50.2627 29.4036ZM38.4765 23.0218C38.8818 23.1761 38.9965 27.3485 38.9286 29.4401C38.8688 28.6829 38.809 27.9244 38.75 27.1718C38.6962 27.5193 38.6426 27.8674 38.5888 28.2102C38.5513 26.4823 38.5138 24.7497 38.4765 23.0218ZM57.134 25.0935C56.9202 27.7426 57.5079 26.5505 57.3518 28.2052C57.2274 29.5279 56.9187 26.876 56.9467 25.2069C57.0032 25.1584 57.0669 25.1237 57.1334 25.0935C57.1336 25.0935 57.1338 25.0935 57.134 25.0935ZM55.3943 25.9079C55.5414 28.7259 55.4408 27.9064 55.6644 27.3908C55.7278 27.2442 56.3138 28.2845 56.0035 25.9558C55.8067 25.9625 55.5982 25.9289 55.3943 25.9079ZM34.0595 27.3599C33.9983 26.1328 34.2911 23.4181 34.3767 24.0895C34.3766 24.0877 34.3765 24.0859 34.3764 24.084C34.6084 25.9147 34.1782 26.1967 34.489 28.7089C33.9598 26.5103 34.0839 31.8828 33.7798 24.8106C34.0168 24.4885 33.9666 25.9517 34.0595 27.3599ZM1.96256 27.2001C1.96236 27.2001 1.96217 27.2001 1.96197 27.2001C1.99205 27.2569 2.28164 29.0518 2.27334 29.677C1.97672 29.1506 1.98928 27.9627 1.78948 29.9204C1.75531 29.293 1.72381 28.6844 1.68842 28.0523C1.78043 27.6767 1.81398 26.9206 1.96256 27.2001ZM15.0216 25.8327C15.1089 25.5075 15.3538 26.8301 15.4693 26.7461C15.2997 31.871 14.6683 27.1245 15.0216 25.8327ZM71.0486 26.7026C71.0484 26.7045 71.0482 26.7063 71.0479 26.7081C71.0479 26.7054 71.048 26.7027 71.048 26.6999C71.0482 26.7008 71.0484 26.7017 71.0486 26.7026ZM23.1455 28.5481C23.117 28.2171 23.0963 27.9294 23.082 27.6767C23.081 27.653 23.0799 27.6292 23.0788 27.6054C23.1002 27.9155 23.1222 28.2292 23.1455 28.5481ZM33.2019 27.7717C32.9455 26.0684 33.4006 23.3197 33.6207 23.9603C33.6444 24.7421 33.6759 25.4504 33.6875 26.3492C33.4391 24.3334 33.2447 28.0587 33.2019 27.7717ZM46.4688 26.5473C46.003 26.5198 46.3293 19.7352 46.5758 25.1273C46.5791 25.2318 46.4803 26.5376 46.4688 26.5473ZM36.806 26.893C36.8282 24.8414 36.5671 24.309 36.9608 24.645C37.0073 25.174 37.0539 25.7042 37.1004 26.2332C37.0021 26.4521 36.904 26.674 36.806 26.893ZM43.0664 17.8006C42.5328 18.9656 42.0722 21.0005 42.6924 26.6274C42.728 26.4442 42.7645 26.267 42.8002 26.0839C42.6871 23.3304 42.9133 24.8263 43.1535 24.9057C43.1399 23.8112 43.2603 23.5528 43.245 22.6229C43.2155 20.8253 43.0096 19.5694 43.0664 17.8006ZM67.8322 21.4389C67.8351 21.9093 67.8383 22.3822 67.841 22.848C67.7637 23.3811 67.6895 23.9116 67.6096 24.4447C67.6013 23.5419 67.5932 22.6392 67.5849 21.7365C67.6671 21.6365 67.7491 21.536 67.8316 21.4361C67.8318 21.437 67.832 21.4379 67.8322 21.4389ZM28.0556 21.3459C28.2478 26.5199 28.3877 25.5586 28.6379 22.9267C28.4441 22.3998 28.2495 21.8728 28.0556 21.3459ZM52.5192 19.5241C52.5848 20.9935 52.6501 22.4584 52.7162 23.9278C52.8591 22.3894 52.7616 20.7075 52.5953 18.7655C52.5696 19.0178 52.5448 19.2717 52.5192 19.5241ZM55.3685 18.7968C55.275 18.493 55.358 19.6784 55.3485 19.6549C55.1174 19.0384 55.0689 18.495 54.8437 19.3975C54.8232 19.7103 54.8038 20.0393 54.7836 20.3614C55.0086 23.4375 55.0359 21.7558 55.349 23.5571C55.2675 22.5021 55.186 21.4457 55.1042 20.386C55.2514 20.6046 55.3982 20.8201 55.5461 21.0387C55.5516 20.7123 55.5572 20.3889 55.5628 20.0625C55.4985 19.6455 55.4309 19.1766 55.3685 18.7968ZM68.9197 22.7492C69.0579 22.8668 69.1971 22.9893 69.3359 23.1069C69.322 22.348 69.3078 21.5839 69.294 20.825C69.1688 21.4662 69.0437 22.108 68.9197 22.7492ZM25.389 23.8334C25.3909 24.1028 25.3931 24.3739 25.3967 24.6496C25.382 24.3141 25.3814 24.0517 25.389 23.8334ZM1.474 23.0498C1.3038 22.5241 1.09273 22.8794 0.91946 22.7732C0.992264 24.6761 1.40651 24.1365 1.59293 25.2855C1.60634 24.9433 1.54592 23.2711 1.474 23.0498ZM39.0345 23.1641C39.0299 22.2134 39.0254 21.2672 39.0204 20.3165C39.1182 20.4146 39.2165 20.5185 39.315 20.6166C39.2826 19.8395 39.2498 19.0557 39.2174 18.2786C38.8495 19.3067 38.8436 17.062 38.5384 14.8618C38.7041 17.6277 38.8689 20.3936 39.0345 23.1641ZM73.1248 17.7151C72.8341 18.2481 72.7504 19.2332 72.973 21.5618C73.0671 21.0241 73.1621 20.486 73.2569 19.9483C73.2127 19.2042 73.1684 18.4593 73.1248 17.7151ZM19.8904 22.3252C19.6789 23.2072 19.5348 20.0793 19.3689 21.8369C19.5236 22.408 19.6823 22.9853 19.8381 23.5564C19.8553 23.147 19.8732 22.7346 19.8904 22.3252ZM31.693 13.1663C31.5362 12.0832 31.5855 17.2646 31.1081 13.4608C31.0918 14.6036 31.0994 15.6941 31.092 16.8132C30.999 15.6008 30.9004 14.373 30.8095 13.1698C30.8093 13.1698 30.8092 13.1698 30.809 13.1698C30.5603 13.5919 30.8066 15.1064 30.8618 16.3952C30.8844 16.9296 30.6429 16.0461 30.7604 17.2057C30.9627 19.1962 31.3093 18.0296 31.4261 20.4625C31.2473 19.6741 31.0037 20.3516 31.1623 21.9708C31.3362 23.7481 31.4536 20.7501 31.6891 22.2207C31.2674 18.3434 31.8138 19.5213 32.0109 22.5051C32.1882 20.1982 31.8811 19.2751 31.5918 19.396C31.6626 17.0988 31.4571 18.3479 31.3231 16.4475C31.454 15.2903 32.1339 16.2175 31.693 13.1663ZM45.457 16.7704C45.264 16.9262 44.8995 15.6307 44.8452 17.5683C44.8136 18.6972 45.1592 19.5559 45.0201 21.3324C45.205 21.152 45.2204 20.4597 45.1227 18.9119C45.1589 18.724 45.1958 18.5407 45.2323 18.3575C45.2653 18.659 45.2986 18.9564 45.3315 19.2578C45.3281 18.6194 45.3251 17.9861 45.3212 17.3478C45.3733 17.4714 45.426 17.5951 45.4783 17.7233C45.4705 17.4026 45.4683 17.1233 45.457 16.7704ZM12.7457 22.7227C12.7994 22.7019 12.8547 22.6812 12.9092 22.6557C12.888 22.2786 12.865 21.886 12.8426 21.4985C12.8253 21.1922 12.8081 20.886 12.7908 20.5797C12.8666 21.6733 13.2041 23.4825 13.2682 22.3088C13.3004 21.72 13.0902 19.6427 13.3115 19.2698C13.145 19.3837 12.9976 19.6743 12.8376 19.8577C12.8279 19.2382 12.8173 18.6121 12.8076 17.9926C12.8074 17.9917 12.8073 17.9908 12.8072 17.9899C12.7462 17.8525 12.6843 17.7085 12.6233 17.5712C12.6641 19.2894 12.7042 21.0045 12.7457 22.7227ZM52.2516 16.6234C52.108 17.845 52.0689 18.4781 52.2292 20.4388C52.2294 20.4397 52.2296 20.4406 52.2299 20.4415C52.2677 19.5688 52.3057 18.6965 52.344 17.8238C52.3134 17.4241 52.2828 17.023 52.2516 16.6234ZM23.4713 17.4285C23.4179 24.9041 24.1054 20.2911 23.8165 17.7589C23.8034 17.643 23.547 18.2502 23.4713 17.4285ZM38.2986 20.7316C38.4049 20.6661 38.5119 20.6065 38.619 20.541C38.5519 19.6256 38.4844 18.7135 38.4173 17.7981C38.3775 18.7743 38.338 19.7554 38.2986 20.7316ZM71.7393 14.3569C71.5761 12.3109 71.2626 11.5757 71.1715 13.807C71.2532 14.066 71.335 14.3252 71.4168 14.5842C71.2797 14.8435 71.1453 15.1286 71.0077 15.3741C71.0678 18.2283 71.1933 16.5686 71.4616 17.3496C71.5033 17.4755 71.8335 21.0125 71.857 18.3403C71.8615 17.7911 71.5888 17.4241 71.735 15.824C71.6518 15.7003 71.5832 15.7297 71.5059 15.6617C71.4845 14.9821 71.4631 14.3017 71.4411 13.6221C71.5406 13.866 71.6396 14.1129 71.7393 14.3569ZM44.3137 17.0409C44.0307 16.8952 44.0453 18.0363 44.0736 20.0529C44.1917 19.8194 44.3103 19.5895 44.4291 19.3561C44.3904 18.586 44.3526 17.8156 44.3137 17.0409ZM69.2773 13.7621C69.1185 13.4362 69.2236 15.075 69.1709 15.3884C68.9716 16.5671 68.7871 15.3986 68.5816 16.1394C68.5885 15.8225 68.5946 15.5262 68.6012 15.2186C68.6011 15.2186 68.6009 15.2186 68.6007 15.2186C67.5083 13.8628 68.1566 17.5689 68.7754 16.9477C68.8056 17.5573 68.8352 18.1676 68.8652 18.7725C69.1226 17.6992 69.3618 16.6669 69.2773 13.7621ZM26.9985 17.0077C26.9684 16.6268 26.9564 14.1978 26.8175 15.3418C26.8322 18.8883 26.9994 17.1198 27.1263 18.4781C27.0903 18.8202 27.0525 19.1531 27.017 19.4951C27.3761 20.4805 27.3817 19.6368 27.1458 17.0557C27.1295 16.8823 27.0286 17.3874 26.9985 17.0077ZM24.8669 15.3592C25.0679 20.5762 25.351 18.2128 25.2608 16.5946C25.2036 16.5326 25.2029 17.4175 25.1271 17.0297C25.0508 16.6417 24.979 15.4243 24.8669 15.3592ZM36.2279 16.1009C36.2153 16.0782 35.9973 13.8918 36.0886 15.607C36.4209 19.6616 36.5889 17.034 36.4727 15.6221C36.3801 15.6965 36.3445 16.3089 36.2277 16.0954C36.2278 16.0972 36.2278 16.0991 36.2279 16.1009ZM73.531 13.0853C73.522 12.9398 73.2055 12.0647 73.1859 12.8843C73.1751 13.8067 73.1817 14.7949 73.1797 15.7497C73.3222 14.8614 73.6683 15.5279 73.5304 13.0853C73.5306 13.0853 73.5308 13.0853 73.531 13.0853Z" fill="var(--stroke-0, white)"/>
</svg>
