<svg preserveAspectRatio="none" width="100%" height="100%" overflow="visible" style="display: block;" viewBox="0 0 1589.7 70.004" fill="none" xmlns="http://www.w3.org/2000/svg">
<path id="Union" d="M1574.7 0C1582.98 0.00017735 1589.7 6.71584 1589.7 15V54.5039C1589.7 62.7879 1582.98 69.5037 1574.7 69.5039H24.6963C21.6668 69.5039 18.8475 68.6051 16.4893 67.0605C12.8784 69.127 7.703 70.7641 1.60547 69.6357L0 69.3379L1.49609 68.6855C2.35535 68.3107 4.56442 66.9324 6.52148 64.4424C8.02879 62.5245 9.37967 59.9543 9.85352 56.6797C9.75028 55.9693 9.69631 55.2429 9.69629 54.5039V15C9.69629 6.71582 16.4121 0.000144435 24.6963 0H1574.7Z" fill="var(--fill-0, white)"/>
</svg>
