<svg width="244" height="129" viewBox="0 0 244 129" fill="none" xmlns="http://www.w3.org/2000/svg">
<path d="M3.00047 74.1619C8.55379 101.033 20.4538 116.067 47.2736 123.432C57.5321 126.249 66.2653 126.363 75.6475 125.587C82.8007 124.996 94.6783 123.069 102.327 121.808C113.071 120.037 121.136 116.834 129.743 113.017C140.38 108.299 149.338 99.9066 157.702 92.8508C168.852 83.4441 179.625 67.5354 184.957 55.0379C196.97 26.8789 181.895 2.01054 156.113 3.03029C118.43 4.52082 118.889 39.4778 127.257 49.2719C141.127 65.5041 163.596 73.6475 184.957 78.8225C201.319 82.7866 225.002 83.5074 241 81.5271" stroke="white" stroke-width="6" stroke-linecap="round" stroke-dasharray="12 12"/>
</svg>
